M48
; DRILL file {KiCad 8.0.1} date 2024-04-29T11:21:13+0200
; FORMAT={-:-/ absolute / metric / decimal}
; #@! TF.CreationDate,2024-04-29T11:21:13+02:00
; #@! TF.GenerationSoftware,Kicad,Pcbnew,8.0.1
; #@! TF.FileFunction,Plated,1,2,PTH
FMAT,2
METRIC
; #@! TA.AperFunction,Plated,PTH,ViaDrill
T1C0.400
; #@! TA.AperFunction,Plated,PTH,ComponentDrill
T2C0.500
; #@! TA.AperFunction,Plated,PTH,ComponentDrill
T3C1.190
; #@! TA.AperFunction,Plated,PTH,ComponentDrill
T4C1.300
; #@! TA.AperFunction,Plated,PTH,ComponentDrill
T5C1.300
; #@! TA.AperFunction,Plated,PTH,ComponentDrill
T6C1.600
; #@! TA.AperFunction,Plated,PTH,ComponentDrill
T7C3.200
%
G90
G05
T1
X46.0Y-77.0
X46.0Y-81.5
X46.0Y-86.5
X46.0Y-91.5
X46.0Y-96.5
X46.0Y-106.5
X46.0Y-111.5
X46.0Y-116.5
X46.0Y-121.5
X46.0Y-126.5
X46.0Y-131.5
X46.0Y-136.5
X46.0Y-141.5
X46.0Y-146.5
X47.0Y-153.0
X50.5Y-96.0
X52.0Y-77.0
X52.0Y-153.0
X54.25Y-105.25
X54.25Y-106.5
X54.75Y-107.5
X55.5Y-96.0
X55.75Y-107.5
X56.75Y-107.5
X57.0Y-77.0
X57.0Y-153.0
X57.1Y-143.5
X58.1Y-149.5
X58.5Y-127.5
X60.0Y-127.5
X60.5Y-96.0
X61.0Y-143.75
X61.25Y-125.0
X61.25Y-127.0
X61.25Y-129.0
X62.0Y-77.0
X62.0Y-120.0
X62.0Y-121.0
X62.0Y-153.0
X62.1Y-149.5
X62.6Y-141.0
X62.6Y-142.0
X62.6Y-143.0
X62.6Y-144.0
X62.75Y-126.0
X62.75Y-128.0
X62.75Y-130.0
X63.0Y-120.0
X63.0Y-121.0
X64.0Y-120.0
X64.0Y-121.0
X65.5Y-96.0
X65.6Y-141.5
X67.0Y-77.0
X67.0Y-153.0
X69.6Y-134.5
X69.6Y-136.0
X69.6Y-137.5
X69.6Y-139.0
X70.5Y-96.0
X70.75Y-127.75
X71.1Y-134.5
X71.1Y-136.0
X71.1Y-137.5
X71.1Y-139.0
X72.0Y-77.0
X72.0Y-153.0
X72.25Y-127.75
X73.5Y-127.75
X74.25Y-137.25
X74.25Y-138.75
X74.75Y-127.75
X74.75Y-129.25
X74.75Y-130.75
X75.5Y-96.0
X75.75Y-135.7
X75.75Y-137.2
X75.75Y-138.75
X76.0Y-130.75
X77.0Y-77.0
X77.0Y-153.0
X81.5Y-102.5
X81.5Y-104.0
X81.5Y-105.5
X82.0Y-77.0
X82.0Y-153.0
X82.5Y-96.5
X82.5Y-98.25
X82.5Y-100.75
X82.5Y-104.0
X82.5Y-106.75
X82.5Y-109.5
X82.5Y-111.0
X82.6Y-102.5
X82.6Y-105.5
X83.5Y-104.0
X84.5Y-129.7
X87.0Y-77.0
X87.0Y-153.0
X91.5Y-126.75
X92.0Y-77.0
X93.5Y-118.75
X93.5Y-120.75
X93.5Y-122.75
X93.5Y-124.75
X93.5Y-126.75
X94.75Y-93.5
X95.5Y-126.75
X97.0Y-77.0
X97.5Y-126.75
X99.25Y-128.0
X99.25Y-129.5
X99.25Y-131.0
X99.75Y-93.5
X100.25Y-139.5
X101.9Y-141.4
X102.0Y-77.0
X102.0Y-139.5
X104.0Y-139.5
X104.0Y-142.5
X104.0Y-145.5
X104.75Y-93.5
X105.25Y-126.75
X106.25Y-115.5
X107.0Y-77.0
X107.0Y-153.0
X107.25Y-126.75
X109.25Y-126.75
X109.75Y-93.5
X111.25Y-115.5
X111.25Y-126.75
X112.0Y-77.0
X112.0Y-153.0
X113.5Y-120.75
X113.5Y-122.75
X113.5Y-124.75
X113.5Y-126.75
X114.75Y-93.5
X116.25Y-115.5
X117.0Y-77.0
X117.0Y-153.0
X119.75Y-93.5
X121.25Y-115.5
X122.0Y-77.0
X122.0Y-153.0
X123.5Y-107.5
X123.5Y-109.0
X123.5Y-110.5
X123.5Y-112.0
X124.25Y-106.5
X124.25Y-113.75
X124.75Y-93.5
X125.75Y-106.5
X125.75Y-113.75
X126.25Y-115.5
X127.0Y-77.0
X127.0Y-153.0
X127.75Y-106.5
X127.75Y-113.75
X129.25Y-106.5
X129.25Y-113.75
X129.75Y-93.5
X130.75Y-106.5
X130.75Y-113.75
X131.25Y-115.5
X132.0Y-77.0
X132.0Y-153.0
X132.75Y-106.5
X132.75Y-113.75
X134.25Y-106.5
X134.25Y-113.75
X134.75Y-93.5
X135.75Y-106.5
X135.75Y-113.75
X136.25Y-115.5
X137.0Y-77.0
X137.0Y-153.0
X140.0Y-88.5
X140.0Y-93.5
X140.0Y-98.5
X140.0Y-103.5
X140.0Y-118.5
X140.0Y-123.5
X140.0Y-128.5
X140.0Y-133.5
X140.0Y-138.5
X140.0Y-143.5
X141.25Y-115.5
X142.0Y-77.0
X142.0Y-153.0
T2
X48.6Y-81.0
X48.6Y-148.0
X49.303Y-79.303
X49.303Y-82.697
X49.303Y-146.303
X49.303Y-149.697
X51.0Y-78.6
X51.0Y-83.4
X51.0Y-145.6
X51.0Y-150.4
X52.697Y-79.303
X52.697Y-82.697
X52.697Y-146.303
X52.697Y-149.697
X53.4Y-81.0
X53.4Y-148.0
X135.903Y-81.0
X135.903Y-148.0
X136.606Y-79.303
X136.606Y-82.697
X136.606Y-146.303
X136.606Y-149.697
X138.303Y-78.6
X138.303Y-83.4
X138.303Y-145.6
X138.303Y-150.4
X140.0Y-79.303
X140.0Y-82.697
X140.0Y-146.303
X140.0Y-149.697
X140.703Y-81.0
X140.703Y-148.0
T3
X80.945Y-144.25
X83.485Y-144.25
X86.025Y-144.25
T4
X79.96Y-108.132
X80.06Y-99.367
X82.5Y-108.132
X82.6Y-99.367
X85.04Y-108.132
X85.14Y-99.367
T5
X46.96Y-98.46
X46.96Y-103.54
X49.5Y-101.0
X52.04Y-98.46
X52.04Y-103.54
X137.46Y-107.46
X137.46Y-112.54
X140.0Y-110.0
X142.54Y-107.46
X142.54Y-112.54
T6
X94.72Y-145.02
X94.72Y-150.1
X97.26Y-145.02
X97.26Y-150.1
X99.8Y-145.02
X99.8Y-150.1
X123.0Y-145.0
X123.0Y-150.08
X125.54Y-145.0
X125.54Y-150.08
X128.08Y-145.0
X128.08Y-150.08
T7
X51.0Y-81.0
X51.0Y-148.0
X82.5Y-124.792
X82.6Y-82.707
X138.303Y-81.0
X138.303Y-148.0
M30
