%TF.GenerationSoftware,KiCad,Pcbnew,8.0.1*%
%TF.CreationDate,2024-04-29T11:21:12+02:00*%
%TF.ProjectId,MUNIN 100,4d554e49-4e20-4313-9030-2e6b69636164,0*%
%TF.SameCoordinates,Original*%
%TF.FileFunction,Drillmap*%
%TF.FilePolarity,Positive*%
%FSLAX45Y45*%
G04 Gerber Fmt 4.5, Leading zero omitted, Abs format (unit mm)*
G04 Created by KiCad (PCBNEW 8.0.1) date 2024-04-29 11:21:12*
%MOMM*%
%LPD*%
G01*
G04 APERTURE LIST*
%ADD10C,0.100000*%
%ADD11C,0.200000*%
%ADD12C,0.119000*%
%ADD13C,0.130000*%
%ADD14C,0.130048*%
%ADD15C,0.160000*%
%ADD16C,0.320000*%
G04 APERTURE END LIST*
D10*
X14500000Y-15500000D02*
X4500000Y-15500000D01*
X14500000Y-7500000D02*
X14500000Y-15500000D01*
X4500000Y-15500000D02*
X4500000Y-7500000D01*
X4500000Y-7500000D02*
X14500000Y-7500000D01*
D11*
D10*
X4580000Y-7680000D02*
X4620000Y-7720000D01*
X4620000Y-7680000D02*
X4580000Y-7720000D01*
X4580000Y-8130000D02*
X4620000Y-8170000D01*
X4620000Y-8130000D02*
X4580000Y-8170000D01*
X4580000Y-8630000D02*
X4620000Y-8670000D01*
X4620000Y-8630000D02*
X4580000Y-8670000D01*
X4580000Y-9130000D02*
X4620000Y-9170000D01*
X4620000Y-9130000D02*
X4580000Y-9170000D01*
X4580000Y-9630000D02*
X4620000Y-9670000D01*
X4620000Y-9630000D02*
X4580000Y-9670000D01*
X4580000Y-10630000D02*
X4620000Y-10670000D01*
X4620000Y-10630000D02*
X4580000Y-10670000D01*
X4580000Y-11130000D02*
X4620000Y-11170000D01*
X4620000Y-11130000D02*
X4580000Y-11170000D01*
X4580000Y-11630000D02*
X4620000Y-11670000D01*
X4620000Y-11630000D02*
X4580000Y-11670000D01*
X4580000Y-12130000D02*
X4620000Y-12170000D01*
X4620000Y-12130000D02*
X4580000Y-12170000D01*
X4580000Y-12630000D02*
X4620000Y-12670000D01*
X4620000Y-12630000D02*
X4580000Y-12670000D01*
X4580000Y-13130000D02*
X4620000Y-13170000D01*
X4620000Y-13130000D02*
X4580000Y-13170000D01*
X4580000Y-13630000D02*
X4620000Y-13670000D01*
X4620000Y-13630000D02*
X4580000Y-13670000D01*
X4580000Y-14130000D02*
X4620000Y-14170000D01*
X4620000Y-14130000D02*
X4580000Y-14170000D01*
X4580000Y-14630000D02*
X4620000Y-14670000D01*
X4620000Y-14630000D02*
X4580000Y-14670000D01*
X4680000Y-15280000D02*
X4720000Y-15320000D01*
X4720000Y-15280000D02*
X4680000Y-15320000D01*
X5030000Y-9580000D02*
X5070000Y-9620000D01*
X5070000Y-9580000D02*
X5030000Y-9620000D01*
X5180000Y-7680000D02*
X5220000Y-7720000D01*
X5220000Y-7680000D02*
X5180000Y-7720000D01*
X5180000Y-15280000D02*
X5220000Y-15320000D01*
X5220000Y-15280000D02*
X5180000Y-15320000D01*
X5405000Y-10505000D02*
X5445000Y-10545000D01*
X5445000Y-10505000D02*
X5405000Y-10545000D01*
X5405000Y-10630000D02*
X5445000Y-10670000D01*
X5445000Y-10630000D02*
X5405000Y-10670000D01*
X5455000Y-10730000D02*
X5495000Y-10770000D01*
X5495000Y-10730000D02*
X5455000Y-10770000D01*
X5530000Y-9580000D02*
X5570000Y-9620000D01*
X5570000Y-9580000D02*
X5530000Y-9620000D01*
X5555000Y-10730000D02*
X5595000Y-10770000D01*
X5595000Y-10730000D02*
X5555000Y-10770000D01*
X5655000Y-10730000D02*
X5695000Y-10770000D01*
X5695000Y-10730000D02*
X5655000Y-10770000D01*
X5680000Y-7680000D02*
X5720000Y-7720000D01*
X5720000Y-7680000D02*
X5680000Y-7720000D01*
X5680000Y-15280000D02*
X5720000Y-15320000D01*
X5720000Y-15280000D02*
X5680000Y-15320000D01*
X5690000Y-14330000D02*
X5730000Y-14370000D01*
X5730000Y-14330000D02*
X5690000Y-14370000D01*
X5790000Y-14930000D02*
X5830000Y-14970000D01*
X5830000Y-14930000D02*
X5790000Y-14970000D01*
X5830000Y-12730000D02*
X5870000Y-12770000D01*
X5870000Y-12730000D02*
X5830000Y-12770000D01*
X5980000Y-12730000D02*
X6020000Y-12770000D01*
X6020000Y-12730000D02*
X5980000Y-12770000D01*
X6030000Y-9580000D02*
X6070000Y-9620000D01*
X6070000Y-9580000D02*
X6030000Y-9620000D01*
X6080000Y-14355000D02*
X6120000Y-14395000D01*
X6120000Y-14355000D02*
X6080000Y-14395000D01*
X6105000Y-12480000D02*
X6145000Y-12520000D01*
X6145000Y-12480000D02*
X6105000Y-12520000D01*
X6105000Y-12680000D02*
X6145000Y-12720000D01*
X6145000Y-12680000D02*
X6105000Y-12720000D01*
X6105000Y-12880000D02*
X6145000Y-12920000D01*
X6145000Y-12880000D02*
X6105000Y-12920000D01*
X6180000Y-7680000D02*
X6220000Y-7720000D01*
X6220000Y-7680000D02*
X6180000Y-7720000D01*
X6180000Y-11980000D02*
X6220000Y-12020000D01*
X6220000Y-11980000D02*
X6180000Y-12020000D01*
X6180000Y-12080000D02*
X6220000Y-12120000D01*
X6220000Y-12080000D02*
X6180000Y-12120000D01*
X6180000Y-15280000D02*
X6220000Y-15320000D01*
X6220000Y-15280000D02*
X6180000Y-15320000D01*
X6190000Y-14930000D02*
X6230000Y-14970000D01*
X6230000Y-14930000D02*
X6190000Y-14970000D01*
X6240000Y-14080000D02*
X6280000Y-14120000D01*
X6280000Y-14080000D02*
X6240000Y-14120000D01*
X6240000Y-14180000D02*
X6280000Y-14220000D01*
X6280000Y-14180000D02*
X6240000Y-14220000D01*
X6240000Y-14280000D02*
X6280000Y-14320000D01*
X6280000Y-14280000D02*
X6240000Y-14320000D01*
X6240000Y-14380000D02*
X6280000Y-14420000D01*
X6280000Y-14380000D02*
X6240000Y-14420000D01*
X6255000Y-12580000D02*
X6295000Y-12620000D01*
X6295000Y-12580000D02*
X6255000Y-12620000D01*
X6255000Y-12780000D02*
X6295000Y-12820000D01*
X6295000Y-12780000D02*
X6255000Y-12820000D01*
X6255000Y-12980000D02*
X6295000Y-13020000D01*
X6295000Y-12980000D02*
X6255000Y-13020000D01*
X6280000Y-11980000D02*
X6320000Y-12020000D01*
X6320000Y-11980000D02*
X6280000Y-12020000D01*
X6280000Y-12080000D02*
X6320000Y-12120000D01*
X6320000Y-12080000D02*
X6280000Y-12120000D01*
X6380000Y-11980000D02*
X6420000Y-12020000D01*
X6420000Y-11980000D02*
X6380000Y-12020000D01*
X6380000Y-12080000D02*
X6420000Y-12120000D01*
X6420000Y-12080000D02*
X6380000Y-12120000D01*
X6530000Y-9580000D02*
X6570000Y-9620000D01*
X6570000Y-9580000D02*
X6530000Y-9620000D01*
X6540000Y-14130000D02*
X6580000Y-14170000D01*
X6580000Y-14130000D02*
X6540000Y-14170000D01*
X6680000Y-7680000D02*
X6720000Y-7720000D01*
X6720000Y-7680000D02*
X6680000Y-7720000D01*
X6680000Y-15280000D02*
X6720000Y-15320000D01*
X6720000Y-15280000D02*
X6680000Y-15320000D01*
X6940000Y-13430000D02*
X6980000Y-13470000D01*
X6980000Y-13430000D02*
X6940000Y-13470000D01*
X6940000Y-13580000D02*
X6980000Y-13620000D01*
X6980000Y-13580000D02*
X6940000Y-13620000D01*
X6940000Y-13730000D02*
X6980000Y-13770000D01*
X6980000Y-13730000D02*
X6940000Y-13770000D01*
X6940000Y-13880000D02*
X6980000Y-13920000D01*
X6980000Y-13880000D02*
X6940000Y-13920000D01*
X7030000Y-9580000D02*
X7070000Y-9620000D01*
X7070000Y-9580000D02*
X7030000Y-9620000D01*
X7055000Y-12755000D02*
X7095000Y-12795000D01*
X7095000Y-12755000D02*
X7055000Y-12795000D01*
X7090000Y-13430000D02*
X7130000Y-13470000D01*
X7130000Y-13430000D02*
X7090000Y-13470000D01*
X7090000Y-13580000D02*
X7130000Y-13620000D01*
X7130000Y-13580000D02*
X7090000Y-13620000D01*
X7090000Y-13730000D02*
X7130000Y-13770000D01*
X7130000Y-13730000D02*
X7090000Y-13770000D01*
X7090000Y-13880000D02*
X7130000Y-13920000D01*
X7130000Y-13880000D02*
X7090000Y-13920000D01*
X7180000Y-7680000D02*
X7220000Y-7720000D01*
X7220000Y-7680000D02*
X7180000Y-7720000D01*
X7180000Y-15280000D02*
X7220000Y-15320000D01*
X7220000Y-15280000D02*
X7180000Y-15320000D01*
X7205000Y-12755000D02*
X7245000Y-12795000D01*
X7245000Y-12755000D02*
X7205000Y-12795000D01*
X7330000Y-12755000D02*
X7370000Y-12795000D01*
X7370000Y-12755000D02*
X7330000Y-12795000D01*
X7405000Y-13705000D02*
X7445000Y-13745000D01*
X7445000Y-13705000D02*
X7405000Y-13745000D01*
X7405000Y-13855000D02*
X7445000Y-13895000D01*
X7445000Y-13855000D02*
X7405000Y-13895000D01*
X7455000Y-12755000D02*
X7495000Y-12795000D01*
X7495000Y-12755000D02*
X7455000Y-12795000D01*
X7455000Y-12905000D02*
X7495000Y-12945000D01*
X7495000Y-12905000D02*
X7455000Y-12945000D01*
X7455000Y-13055000D02*
X7495000Y-13095000D01*
X7495000Y-13055000D02*
X7455000Y-13095000D01*
X7530000Y-9580000D02*
X7570000Y-9620000D01*
X7570000Y-9580000D02*
X7530000Y-9620000D01*
X7555000Y-13550000D02*
X7595000Y-13590000D01*
X7595000Y-13550000D02*
X7555000Y-13590000D01*
X7555000Y-13700000D02*
X7595000Y-13740000D01*
X7595000Y-13700000D02*
X7555000Y-13740000D01*
X7555000Y-13855000D02*
X7595000Y-13895000D01*
X7595000Y-13855000D02*
X7555000Y-13895000D01*
X7580000Y-13055000D02*
X7620000Y-13095000D01*
X7620000Y-13055000D02*
X7580000Y-13095000D01*
X7680000Y-7680000D02*
X7720000Y-7720000D01*
X7720000Y-7680000D02*
X7680000Y-7720000D01*
X7680000Y-15280000D02*
X7720000Y-15320000D01*
X7720000Y-15280000D02*
X7680000Y-15320000D01*
X8130000Y-10230000D02*
X8170000Y-10270000D01*
X8170000Y-10230000D02*
X8130000Y-10270000D01*
X8130000Y-10380000D02*
X8170000Y-10420000D01*
X8170000Y-10380000D02*
X8130000Y-10420000D01*
X8130000Y-10530000D02*
X8170000Y-10570000D01*
X8170000Y-10530000D02*
X8130000Y-10570000D01*
X8180000Y-7680000D02*
X8220000Y-7720000D01*
X8220000Y-7680000D02*
X8180000Y-7720000D01*
X8180000Y-15280000D02*
X8220000Y-15320000D01*
X8220000Y-15280000D02*
X8180000Y-15320000D01*
X8230000Y-9630000D02*
X8270000Y-9670000D01*
X8270000Y-9630000D02*
X8230000Y-9670000D01*
X8230000Y-9805000D02*
X8270000Y-9845000D01*
X8270000Y-9805000D02*
X8230000Y-9845000D01*
X8230000Y-10055000D02*
X8270000Y-10095000D01*
X8270000Y-10055000D02*
X8230000Y-10095000D01*
X8230000Y-10380000D02*
X8270000Y-10420000D01*
X8270000Y-10380000D02*
X8230000Y-10420000D01*
X8230000Y-10655000D02*
X8270000Y-10695000D01*
X8270000Y-10655000D02*
X8230000Y-10695000D01*
X8230000Y-10930000D02*
X8270000Y-10970000D01*
X8270000Y-10930000D02*
X8230000Y-10970000D01*
X8230000Y-11080000D02*
X8270000Y-11120000D01*
X8270000Y-11080000D02*
X8230000Y-11120000D01*
X8240000Y-10230000D02*
X8280000Y-10270000D01*
X8280000Y-10230000D02*
X8240000Y-10270000D01*
X8240000Y-10530000D02*
X8280000Y-10570000D01*
X8280000Y-10530000D02*
X8240000Y-10570000D01*
X8330000Y-10380000D02*
X8370000Y-10420000D01*
X8370000Y-10380000D02*
X8330000Y-10420000D01*
X8430000Y-12950000D02*
X8470000Y-12990000D01*
X8470000Y-12950000D02*
X8430000Y-12990000D01*
X8680000Y-7680000D02*
X8720000Y-7720000D01*
X8720000Y-7680000D02*
X8680000Y-7720000D01*
X8680000Y-15280000D02*
X8720000Y-15320000D01*
X8720000Y-15280000D02*
X8680000Y-15320000D01*
X9130000Y-12655000D02*
X9170000Y-12695000D01*
X9170000Y-12655000D02*
X9130000Y-12695000D01*
X9180000Y-7680000D02*
X9220000Y-7720000D01*
X9220000Y-7680000D02*
X9180000Y-7720000D01*
X9330000Y-11855000D02*
X9370000Y-11895000D01*
X9370000Y-11855000D02*
X9330000Y-11895000D01*
X9330000Y-12055000D02*
X9370000Y-12095000D01*
X9370000Y-12055000D02*
X9330000Y-12095000D01*
X9330000Y-12255000D02*
X9370000Y-12295000D01*
X9370000Y-12255000D02*
X9330000Y-12295000D01*
X9330000Y-12455000D02*
X9370000Y-12495000D01*
X9370000Y-12455000D02*
X9330000Y-12495000D01*
X9330000Y-12655000D02*
X9370000Y-12695000D01*
X9370000Y-12655000D02*
X9330000Y-12695000D01*
X9455000Y-9330000D02*
X9495000Y-9370000D01*
X9495000Y-9330000D02*
X9455000Y-9370000D01*
X9530000Y-12655000D02*
X9570000Y-12695000D01*
X9570000Y-12655000D02*
X9530000Y-12695000D01*
X9680000Y-7680000D02*
X9720000Y-7720000D01*
X9720000Y-7680000D02*
X9680000Y-7720000D01*
X9730000Y-12655000D02*
X9770000Y-12695000D01*
X9770000Y-12655000D02*
X9730000Y-12695000D01*
X9905000Y-12780000D02*
X9945000Y-12820000D01*
X9945000Y-12780000D02*
X9905000Y-12820000D01*
X9905000Y-12930000D02*
X9945000Y-12970000D01*
X9945000Y-12930000D02*
X9905000Y-12970000D01*
X9905000Y-13080000D02*
X9945000Y-13120000D01*
X9945000Y-13080000D02*
X9905000Y-13120000D01*
X9955000Y-9330000D02*
X9995000Y-9370000D01*
X9995000Y-9330000D02*
X9955000Y-9370000D01*
X10005000Y-13930000D02*
X10045000Y-13970000D01*
X10045000Y-13930000D02*
X10005000Y-13970000D01*
X10170000Y-14120000D02*
X10210000Y-14160000D01*
X10210000Y-14120000D02*
X10170000Y-14160000D01*
X10180000Y-7680000D02*
X10220000Y-7720000D01*
X10220000Y-7680000D02*
X10180000Y-7720000D01*
X10180000Y-13930000D02*
X10220000Y-13970000D01*
X10220000Y-13930000D02*
X10180000Y-13970000D01*
X10380000Y-13930000D02*
X10420000Y-13970000D01*
X10420000Y-13930000D02*
X10380000Y-13970000D01*
X10380000Y-14230000D02*
X10420000Y-14270000D01*
X10420000Y-14230000D02*
X10380000Y-14270000D01*
X10380000Y-14530000D02*
X10420000Y-14570000D01*
X10420000Y-14530000D02*
X10380000Y-14570000D01*
X10455000Y-9330000D02*
X10495000Y-9370000D01*
X10495000Y-9330000D02*
X10455000Y-9370000D01*
X10505000Y-12655000D02*
X10545000Y-12695000D01*
X10545000Y-12655000D02*
X10505000Y-12695000D01*
X10605000Y-11530000D02*
X10645000Y-11570000D01*
X10645000Y-11530000D02*
X10605000Y-11570000D01*
X10680000Y-7680000D02*
X10720000Y-7720000D01*
X10720000Y-7680000D02*
X10680000Y-7720000D01*
X10680000Y-15280000D02*
X10720000Y-15320000D01*
X10720000Y-15280000D02*
X10680000Y-15320000D01*
X10705000Y-12655000D02*
X10745000Y-12695000D01*
X10745000Y-12655000D02*
X10705000Y-12695000D01*
X10905000Y-12655000D02*
X10945000Y-12695000D01*
X10945000Y-12655000D02*
X10905000Y-12695000D01*
X10955000Y-9330000D02*
X10995000Y-9370000D01*
X10995000Y-9330000D02*
X10955000Y-9370000D01*
X11105000Y-11530000D02*
X11145000Y-11570000D01*
X11145000Y-11530000D02*
X11105000Y-11570000D01*
X11105000Y-12655000D02*
X11145000Y-12695000D01*
X11145000Y-12655000D02*
X11105000Y-12695000D01*
X11180000Y-7680000D02*
X11220000Y-7720000D01*
X11220000Y-7680000D02*
X11180000Y-7720000D01*
X11180000Y-15280000D02*
X11220000Y-15320000D01*
X11220000Y-15280000D02*
X11180000Y-15320000D01*
X11330000Y-12055000D02*
X11370000Y-12095000D01*
X11370000Y-12055000D02*
X11330000Y-12095000D01*
X11330000Y-12255000D02*
X11370000Y-12295000D01*
X11370000Y-12255000D02*
X11330000Y-12295000D01*
X11330000Y-12455000D02*
X11370000Y-12495000D01*
X11370000Y-12455000D02*
X11330000Y-12495000D01*
X11330000Y-12655000D02*
X11370000Y-12695000D01*
X11370000Y-12655000D02*
X11330000Y-12695000D01*
X11455000Y-9330000D02*
X11495000Y-9370000D01*
X11495000Y-9330000D02*
X11455000Y-9370000D01*
X11605000Y-11530000D02*
X11645000Y-11570000D01*
X11645000Y-11530000D02*
X11605000Y-11570000D01*
X11680000Y-7680000D02*
X11720000Y-7720000D01*
X11720000Y-7680000D02*
X11680000Y-7720000D01*
X11680000Y-15280000D02*
X11720000Y-15320000D01*
X11720000Y-15280000D02*
X11680000Y-15320000D01*
X11955000Y-9330000D02*
X11995000Y-9370000D01*
X11995000Y-9330000D02*
X11955000Y-9370000D01*
X12105000Y-11530000D02*
X12145000Y-11570000D01*
X12145000Y-11530000D02*
X12105000Y-11570000D01*
X12180000Y-7680000D02*
X12220000Y-7720000D01*
X12220000Y-7680000D02*
X12180000Y-7720000D01*
X12180000Y-15280000D02*
X12220000Y-15320000D01*
X12220000Y-15280000D02*
X12180000Y-15320000D01*
X12330000Y-10730000D02*
X12370000Y-10770000D01*
X12370000Y-10730000D02*
X12330000Y-10770000D01*
X12330000Y-10880000D02*
X12370000Y-10920000D01*
X12370000Y-10880000D02*
X12330000Y-10920000D01*
X12330000Y-11030000D02*
X12370000Y-11070000D01*
X12370000Y-11030000D02*
X12330000Y-11070000D01*
X12330000Y-11180000D02*
X12370000Y-11220000D01*
X12370000Y-11180000D02*
X12330000Y-11220000D01*
X12405000Y-10630000D02*
X12445000Y-10670000D01*
X12445000Y-10630000D02*
X12405000Y-10670000D01*
X12405000Y-11355000D02*
X12445000Y-11395000D01*
X12445000Y-11355000D02*
X12405000Y-11395000D01*
X12455000Y-9330000D02*
X12495000Y-9370000D01*
X12495000Y-9330000D02*
X12455000Y-9370000D01*
X12555000Y-10630000D02*
X12595000Y-10670000D01*
X12595000Y-10630000D02*
X12555000Y-10670000D01*
X12555000Y-11355000D02*
X12595000Y-11395000D01*
X12595000Y-11355000D02*
X12555000Y-11395000D01*
X12605000Y-11530000D02*
X12645000Y-11570000D01*
X12645000Y-11530000D02*
X12605000Y-11570000D01*
X12680000Y-7680000D02*
X12720000Y-7720000D01*
X12720000Y-7680000D02*
X12680000Y-7720000D01*
X12680000Y-15280000D02*
X12720000Y-15320000D01*
X12720000Y-15280000D02*
X12680000Y-15320000D01*
X12755000Y-10630000D02*
X12795000Y-10670000D01*
X12795000Y-10630000D02*
X12755000Y-10670000D01*
X12755000Y-11355000D02*
X12795000Y-11395000D01*
X12795000Y-11355000D02*
X12755000Y-11395000D01*
X12905000Y-10630000D02*
X12945000Y-10670000D01*
X12945000Y-10630000D02*
X12905000Y-10670000D01*
X12905000Y-11355000D02*
X12945000Y-11395000D01*
X12945000Y-11355000D02*
X12905000Y-11395000D01*
X12955000Y-9330000D02*
X12995000Y-9370000D01*
X12995000Y-9330000D02*
X12955000Y-9370000D01*
X13055000Y-10630000D02*
X13095000Y-10670000D01*
X13095000Y-10630000D02*
X13055000Y-10670000D01*
X13055000Y-11355000D02*
X13095000Y-11395000D01*
X13095000Y-11355000D02*
X13055000Y-11395000D01*
X13105000Y-11530000D02*
X13145000Y-11570000D01*
X13145000Y-11530000D02*
X13105000Y-11570000D01*
X13180000Y-7680000D02*
X13220000Y-7720000D01*
X13220000Y-7680000D02*
X13180000Y-7720000D01*
X13180000Y-15280000D02*
X13220000Y-15320000D01*
X13220000Y-15280000D02*
X13180000Y-15320000D01*
X13255000Y-10630000D02*
X13295000Y-10670000D01*
X13295000Y-10630000D02*
X13255000Y-10670000D01*
X13255000Y-11355000D02*
X13295000Y-11395000D01*
X13295000Y-11355000D02*
X13255000Y-11395000D01*
X13405000Y-10630000D02*
X13445000Y-10670000D01*
X13445000Y-10630000D02*
X13405000Y-10670000D01*
X13405000Y-11355000D02*
X13445000Y-11395000D01*
X13445000Y-11355000D02*
X13405000Y-11395000D01*
X13455000Y-9330000D02*
X13495000Y-9370000D01*
X13495000Y-9330000D02*
X13455000Y-9370000D01*
X13555000Y-10630000D02*
X13595000Y-10670000D01*
X13595000Y-10630000D02*
X13555000Y-10670000D01*
X13555000Y-11355000D02*
X13595000Y-11395000D01*
X13595000Y-11355000D02*
X13555000Y-11395000D01*
X13605000Y-11530000D02*
X13645000Y-11570000D01*
X13645000Y-11530000D02*
X13605000Y-11570000D01*
X13680000Y-7680000D02*
X13720000Y-7720000D01*
X13720000Y-7680000D02*
X13680000Y-7720000D01*
X13680000Y-15280000D02*
X13720000Y-15320000D01*
X13720000Y-15280000D02*
X13680000Y-15320000D01*
X13980000Y-8830000D02*
X14020000Y-8870000D01*
X14020000Y-8830000D02*
X13980000Y-8870000D01*
X13980000Y-9330000D02*
X14020000Y-9370000D01*
X14020000Y-9330000D02*
X13980000Y-9370000D01*
X13980000Y-9830000D02*
X14020000Y-9870000D01*
X14020000Y-9830000D02*
X13980000Y-9870000D01*
X13980000Y-10330000D02*
X14020000Y-10370000D01*
X14020000Y-10330000D02*
X13980000Y-10370000D01*
X13980000Y-11830000D02*
X14020000Y-11870000D01*
X14020000Y-11830000D02*
X13980000Y-11870000D01*
X13980000Y-12330000D02*
X14020000Y-12370000D01*
X14020000Y-12330000D02*
X13980000Y-12370000D01*
X13980000Y-12830000D02*
X14020000Y-12870000D01*
X14020000Y-12830000D02*
X13980000Y-12870000D01*
X13980000Y-13330000D02*
X14020000Y-13370000D01*
X14020000Y-13330000D02*
X13980000Y-13370000D01*
X13980000Y-13830000D02*
X14020000Y-13870000D01*
X14020000Y-13830000D02*
X13980000Y-13870000D01*
X13980000Y-14330000D02*
X14020000Y-14370000D01*
X14020000Y-14330000D02*
X13980000Y-14370000D01*
X14105000Y-11530000D02*
X14145000Y-11570000D01*
X14145000Y-11530000D02*
X14105000Y-11570000D01*
X14180000Y-7680000D02*
X14220000Y-7720000D01*
X14220000Y-7680000D02*
X14180000Y-7720000D01*
X14180000Y-15280000D02*
X14220000Y-15320000D01*
X14220000Y-15280000D02*
X14180000Y-15320000D01*
X4885000Y-8100000D02*
G75*
G02*
X4835000Y-8100000I-25000J0D01*
G01*
X4835000Y-8100000D02*
G75*
G02*
X4885000Y-8100000I25000J0D01*
G01*
X4885000Y-14800000D02*
G75*
G02*
X4835000Y-14800000I-25000J0D01*
G01*
X4835000Y-14800000D02*
G75*
G02*
X4885000Y-14800000I25000J0D01*
G01*
X4955294Y-7930294D02*
G75*
G02*
X4905294Y-7930294I-25000J0D01*
G01*
X4905294Y-7930294D02*
G75*
G02*
X4955294Y-7930294I25000J0D01*
G01*
X4955294Y-8269706D02*
G75*
G02*
X4905294Y-8269706I-25000J0D01*
G01*
X4905294Y-8269706D02*
G75*
G02*
X4955294Y-8269706I25000J0D01*
G01*
X4955294Y-14630294D02*
G75*
G02*
X4905294Y-14630294I-25000J0D01*
G01*
X4905294Y-14630294D02*
G75*
G02*
X4955294Y-14630294I25000J0D01*
G01*
X4955294Y-14969706D02*
G75*
G02*
X4905294Y-14969706I-25000J0D01*
G01*
X4905294Y-14969706D02*
G75*
G02*
X4955294Y-14969706I25000J0D01*
G01*
X5125000Y-7860000D02*
G75*
G02*
X5075000Y-7860000I-25000J0D01*
G01*
X5075000Y-7860000D02*
G75*
G02*
X5125000Y-7860000I25000J0D01*
G01*
X5125000Y-8340000D02*
G75*
G02*
X5075000Y-8340000I-25000J0D01*
G01*
X5075000Y-8340000D02*
G75*
G02*
X5125000Y-8340000I25000J0D01*
G01*
X5125000Y-14560000D02*
G75*
G02*
X5075000Y-14560000I-25000J0D01*
G01*
X5075000Y-14560000D02*
G75*
G02*
X5125000Y-14560000I25000J0D01*
G01*
X5125000Y-15040000D02*
G75*
G02*
X5075000Y-15040000I-25000J0D01*
G01*
X5075000Y-15040000D02*
G75*
G02*
X5125000Y-15040000I25000J0D01*
G01*
X5294706Y-7930294D02*
G75*
G02*
X5244706Y-7930294I-25000J0D01*
G01*
X5244706Y-7930294D02*
G75*
G02*
X5294706Y-7930294I25000J0D01*
G01*
X5294706Y-8269706D02*
G75*
G02*
X5244706Y-8269706I-25000J0D01*
G01*
X5244706Y-8269706D02*
G75*
G02*
X5294706Y-8269706I25000J0D01*
G01*
X5294706Y-14630294D02*
G75*
G02*
X5244706Y-14630294I-25000J0D01*
G01*
X5244706Y-14630294D02*
G75*
G02*
X5294706Y-14630294I25000J0D01*
G01*
X5294706Y-14969706D02*
G75*
G02*
X5244706Y-14969706I-25000J0D01*
G01*
X5244706Y-14969706D02*
G75*
G02*
X5294706Y-14969706I25000J0D01*
G01*
X5365000Y-8100000D02*
G75*
G02*
X5315000Y-8100000I-25000J0D01*
G01*
X5315000Y-8100000D02*
G75*
G02*
X5365000Y-8100000I25000J0D01*
G01*
X5365000Y-14800000D02*
G75*
G02*
X5315000Y-14800000I-25000J0D01*
G01*
X5315000Y-14800000D02*
G75*
G02*
X5365000Y-14800000I25000J0D01*
G01*
X13615294Y-8100000D02*
G75*
G02*
X13565294Y-8100000I-25000J0D01*
G01*
X13565294Y-8100000D02*
G75*
G02*
X13615294Y-8100000I25000J0D01*
G01*
X13615294Y-14800000D02*
G75*
G02*
X13565294Y-14800000I-25000J0D01*
G01*
X13565294Y-14800000D02*
G75*
G02*
X13615294Y-14800000I25000J0D01*
G01*
X13685589Y-7930294D02*
G75*
G02*
X13635589Y-7930294I-25000J0D01*
G01*
X13635589Y-7930294D02*
G75*
G02*
X13685589Y-7930294I25000J0D01*
G01*
X13685589Y-8269706D02*
G75*
G02*
X13635589Y-8269706I-25000J0D01*
G01*
X13635589Y-8269706D02*
G75*
G02*
X13685589Y-8269706I25000J0D01*
G01*
X13685589Y-14630294D02*
G75*
G02*
X13635589Y-14630294I-25000J0D01*
G01*
X13635589Y-14630294D02*
G75*
G02*
X13685589Y-14630294I25000J0D01*
G01*
X13685589Y-14969706D02*
G75*
G02*
X13635589Y-14969706I-25000J0D01*
G01*
X13635589Y-14969706D02*
G75*
G02*
X13685589Y-14969706I25000J0D01*
G01*
X13855294Y-7860000D02*
G75*
G02*
X13805294Y-7860000I-25000J0D01*
G01*
X13805294Y-7860000D02*
G75*
G02*
X13855294Y-7860000I25000J0D01*
G01*
X13855294Y-8340000D02*
G75*
G02*
X13805294Y-8340000I-25000J0D01*
G01*
X13805294Y-8340000D02*
G75*
G02*
X13855294Y-8340000I25000J0D01*
G01*
X13855294Y-14560000D02*
G75*
G02*
X13805294Y-14560000I-25000J0D01*
G01*
X13805294Y-14560000D02*
G75*
G02*
X13855294Y-14560000I25000J0D01*
G01*
X13855294Y-15040000D02*
G75*
G02*
X13805294Y-15040000I-25000J0D01*
G01*
X13805294Y-15040000D02*
G75*
G02*
X13855294Y-15040000I25000J0D01*
G01*
X14025000Y-7930294D02*
G75*
G02*
X13975000Y-7930294I-25000J0D01*
G01*
X13975000Y-7930294D02*
G75*
G02*
X14025000Y-7930294I25000J0D01*
G01*
X14025000Y-8269706D02*
G75*
G02*
X13975000Y-8269706I-25000J0D01*
G01*
X13975000Y-8269706D02*
G75*
G02*
X14025000Y-8269706I25000J0D01*
G01*
X14025000Y-14630294D02*
G75*
G02*
X13975000Y-14630294I-25000J0D01*
G01*
X13975000Y-14630294D02*
G75*
G02*
X14025000Y-14630294I25000J0D01*
G01*
X14025000Y-14969706D02*
G75*
G02*
X13975000Y-14969706I-25000J0D01*
G01*
X13975000Y-14969706D02*
G75*
G02*
X14025000Y-14969706I25000J0D01*
G01*
X14095294Y-8100000D02*
G75*
G02*
X14045294Y-8100000I-25000J0D01*
G01*
X14045294Y-8100000D02*
G75*
G02*
X14095294Y-8100000I25000J0D01*
G01*
X14095294Y-14800000D02*
G75*
G02*
X14045294Y-14800000I-25000J0D01*
G01*
X14045294Y-14800000D02*
G75*
G02*
X14095294Y-14800000I25000J0D01*
G01*
D12*
X8094500Y-14365500D02*
X8094500Y-14484500D01*
X8035000Y-14425000D02*
X8154000Y-14425000D01*
X8348500Y-14365500D02*
X8348500Y-14484500D01*
X8289000Y-14425000D02*
X8408000Y-14425000D01*
X8602500Y-14365500D02*
X8602500Y-14484500D01*
X8543000Y-14425000D02*
X8662000Y-14425000D01*
D13*
X8041962Y-10859212D02*
X8041962Y-10767288D01*
X7950038Y-10767288D01*
X7950038Y-10859212D01*
X8041962Y-10859212D01*
X8051962Y-9982712D02*
X8051962Y-9890788D01*
X7960038Y-9890788D01*
X7960038Y-9982712D01*
X8051962Y-9982712D01*
X8295962Y-10859212D02*
X8295962Y-10767288D01*
X8204038Y-10767288D01*
X8204038Y-10859212D01*
X8295962Y-10859212D01*
X8305962Y-9982712D02*
X8305962Y-9890788D01*
X8214038Y-9890788D01*
X8214038Y-9982712D01*
X8305962Y-9982712D01*
X8549962Y-10859212D02*
X8549962Y-10767288D01*
X8458038Y-10767288D01*
X8458038Y-10859212D01*
X8549962Y-10859212D01*
X8559962Y-9982712D02*
X8559962Y-9890788D01*
X8468038Y-9890788D01*
X8468038Y-9982712D01*
X8559962Y-9982712D01*
D14*
X4696000Y-9911024D02*
X4761024Y-9846000D01*
X4696000Y-9780976D01*
X4630976Y-9846000D01*
X4696000Y-9911024D01*
X4696000Y-10419024D02*
X4761024Y-10354000D01*
X4696000Y-10288976D01*
X4630976Y-10354000D01*
X4696000Y-10419024D01*
X4950000Y-10165024D02*
X5015024Y-10100000D01*
X4950000Y-10034976D01*
X4884976Y-10100000D01*
X4950000Y-10165024D01*
X5204000Y-9911024D02*
X5269024Y-9846000D01*
X5204000Y-9780976D01*
X5138976Y-9846000D01*
X5204000Y-9911024D01*
X5204000Y-10419024D02*
X5269024Y-10354000D01*
X5204000Y-10288976D01*
X5138976Y-10354000D01*
X5204000Y-10419024D01*
X13746000Y-10811024D02*
X13811024Y-10746000D01*
X13746000Y-10680976D01*
X13680976Y-10746000D01*
X13746000Y-10811024D01*
X13746000Y-11319024D02*
X13811024Y-11254000D01*
X13746000Y-11188976D01*
X13680976Y-11254000D01*
X13746000Y-11319024D01*
X14000000Y-11065024D02*
X14065024Y-11000000D01*
X14000000Y-10934976D01*
X13934976Y-11000000D01*
X14000000Y-11065024D01*
X14254000Y-10811024D02*
X14319024Y-10746000D01*
X14254000Y-10680976D01*
X14188976Y-10746000D01*
X14254000Y-10811024D01*
X14254000Y-11319024D02*
X14319024Y-11254000D01*
X14254000Y-11188976D01*
X14188976Y-11254000D01*
X14254000Y-11319024D01*
D15*
X9392000Y-14422000D02*
X9552000Y-14582000D01*
X9552000Y-14422000D02*
X9392000Y-14582000D01*
X9552000Y-14502000D02*
G75*
G02*
X9392000Y-14502000I-80000J0D01*
G01*
X9392000Y-14502000D02*
G75*
G02*
X9552000Y-14502000I80000J0D01*
G01*
X9392000Y-14930000D02*
X9552000Y-15090000D01*
X9552000Y-14930000D02*
X9392000Y-15090000D01*
X9552000Y-15010000D02*
G75*
G02*
X9392000Y-15010000I-80000J0D01*
G01*
X9392000Y-15010000D02*
G75*
G02*
X9552000Y-15010000I80000J0D01*
G01*
X9646000Y-14422000D02*
X9806000Y-14582000D01*
X9806000Y-14422000D02*
X9646000Y-14582000D01*
X9806000Y-14502000D02*
G75*
G02*
X9646000Y-14502000I-80000J0D01*
G01*
X9646000Y-14502000D02*
G75*
G02*
X9806000Y-14502000I80000J0D01*
G01*
X9646000Y-14930000D02*
X9806000Y-15090000D01*
X9806000Y-14930000D02*
X9646000Y-15090000D01*
X9806000Y-15010000D02*
G75*
G02*
X9646000Y-15010000I-80000J0D01*
G01*
X9646000Y-15010000D02*
G75*
G02*
X9806000Y-15010000I80000J0D01*
G01*
X9900000Y-14422000D02*
X10060000Y-14582000D01*
X10060000Y-14422000D02*
X9900000Y-14582000D01*
X10060000Y-14502000D02*
G75*
G02*
X9900000Y-14502000I-80000J0D01*
G01*
X9900000Y-14502000D02*
G75*
G02*
X10060000Y-14502000I80000J0D01*
G01*
X9900000Y-14930000D02*
X10060000Y-15090000D01*
X10060000Y-14930000D02*
X9900000Y-15090000D01*
X10060000Y-15010000D02*
G75*
G02*
X9900000Y-15010000I-80000J0D01*
G01*
X9900000Y-15010000D02*
G75*
G02*
X10060000Y-15010000I80000J0D01*
G01*
X12220000Y-14420000D02*
X12380000Y-14580000D01*
X12380000Y-14420000D02*
X12220000Y-14580000D01*
X12380000Y-14500000D02*
G75*
G02*
X12220000Y-14500000I-80000J0D01*
G01*
X12220000Y-14500000D02*
G75*
G02*
X12380000Y-14500000I80000J0D01*
G01*
X12220000Y-14928000D02*
X12380000Y-15088000D01*
X12380000Y-14928000D02*
X12220000Y-15088000D01*
X12380000Y-15008000D02*
G75*
G02*
X12220000Y-15008000I-80000J0D01*
G01*
X12220000Y-15008000D02*
G75*
G02*
X12380000Y-15008000I80000J0D01*
G01*
X12474000Y-14420000D02*
X12634000Y-14580000D01*
X12634000Y-14420000D02*
X12474000Y-14580000D01*
X12634000Y-14500000D02*
G75*
G02*
X12474000Y-14500000I-80000J0D01*
G01*
X12474000Y-14500000D02*
G75*
G02*
X12634000Y-14500000I80000J0D01*
G01*
X12474000Y-14928000D02*
X12634000Y-15088000D01*
X12634000Y-14928000D02*
X12474000Y-15088000D01*
X12634000Y-15008000D02*
G75*
G02*
X12474000Y-15008000I-80000J0D01*
G01*
X12474000Y-15008000D02*
G75*
G02*
X12634000Y-15008000I80000J0D01*
G01*
X12728000Y-14420000D02*
X12888000Y-14580000D01*
X12888000Y-14420000D02*
X12728000Y-14580000D01*
X12888000Y-14500000D02*
G75*
G02*
X12728000Y-14500000I-80000J0D01*
G01*
X12728000Y-14500000D02*
G75*
G02*
X12888000Y-14500000I80000J0D01*
G01*
X12728000Y-14928000D02*
X12888000Y-15088000D01*
X12888000Y-14928000D02*
X12728000Y-15088000D01*
X12888000Y-15008000D02*
G75*
G02*
X12728000Y-15008000I-80000J0D01*
G01*
X12728000Y-15008000D02*
G75*
G02*
X12888000Y-15008000I80000J0D01*
G01*
D16*
X4940000Y-7940000D02*
X5260000Y-8260000D01*
X5260000Y-7940000D02*
X4940000Y-8260000D01*
X5100000Y-7940000D02*
X5100000Y-8260000D01*
X4940000Y-8100000D02*
X5260000Y-8100000D01*
X4940000Y-14640000D02*
X5260000Y-14960000D01*
X5260000Y-14640000D02*
X4940000Y-14960000D01*
X5100000Y-14640000D02*
X5100000Y-14960000D01*
X4940000Y-14800000D02*
X5260000Y-14800000D01*
X8090000Y-12319250D02*
X8410000Y-12639250D01*
X8410000Y-12319250D02*
X8090000Y-12639250D01*
X8250000Y-12319250D02*
X8250000Y-12639250D01*
X8090000Y-12479250D02*
X8410000Y-12479250D01*
X8100000Y-8110750D02*
X8420000Y-8430750D01*
X8420000Y-8110750D02*
X8100000Y-8430750D01*
X8260000Y-8110750D02*
X8260000Y-8430750D01*
X8100000Y-8270750D02*
X8420000Y-8270750D01*
X13670294Y-7940000D02*
X13990294Y-8260000D01*
X13990294Y-7940000D02*
X13670294Y-8260000D01*
X13830294Y-7940000D02*
X13830294Y-8260000D01*
X13670294Y-8100000D02*
X13990294Y-8100000D01*
X13670294Y-14640000D02*
X13990294Y-14960000D01*
X13990294Y-14640000D02*
X13670294Y-14960000D01*
X13830294Y-14640000D02*
X13830294Y-14960000D01*
X13670294Y-14800000D02*
X13990294Y-14800000D01*
D11*
X4755777Y-15816484D02*
X4755777Y-15616484D01*
X4755777Y-15616484D02*
X4803396Y-15616484D01*
X4803396Y-15616484D02*
X4831967Y-15626008D01*
X4831967Y-15626008D02*
X4851015Y-15645055D01*
X4851015Y-15645055D02*
X4860539Y-15664103D01*
X4860539Y-15664103D02*
X4870063Y-15702198D01*
X4870063Y-15702198D02*
X4870063Y-15730769D01*
X4870063Y-15730769D02*
X4860539Y-15768865D01*
X4860539Y-15768865D02*
X4851015Y-15787912D01*
X4851015Y-15787912D02*
X4831967Y-15806960D01*
X4831967Y-15806960D02*
X4803396Y-15816484D01*
X4803396Y-15816484D02*
X4755777Y-15816484D01*
X4955777Y-15816484D02*
X4955777Y-15683150D01*
X4955777Y-15721246D02*
X4965301Y-15702198D01*
X4965301Y-15702198D02*
X4974824Y-15692674D01*
X4974824Y-15692674D02*
X4993872Y-15683150D01*
X4993872Y-15683150D02*
X5012920Y-15683150D01*
X5079586Y-15816484D02*
X5079586Y-15683150D01*
X5079586Y-15616484D02*
X5070063Y-15626008D01*
X5070063Y-15626008D02*
X5079586Y-15635531D01*
X5079586Y-15635531D02*
X5089110Y-15626008D01*
X5089110Y-15626008D02*
X5079586Y-15616484D01*
X5079586Y-15616484D02*
X5079586Y-15635531D01*
X5203396Y-15816484D02*
X5184348Y-15806960D01*
X5184348Y-15806960D02*
X5174824Y-15787912D01*
X5174824Y-15787912D02*
X5174824Y-15616484D01*
X5308158Y-15816484D02*
X5289110Y-15806960D01*
X5289110Y-15806960D02*
X5279586Y-15787912D01*
X5279586Y-15787912D02*
X5279586Y-15616484D01*
X5536729Y-15816484D02*
X5536729Y-15616484D01*
X5536729Y-15616484D02*
X5603396Y-15759341D01*
X5603396Y-15759341D02*
X5670062Y-15616484D01*
X5670062Y-15616484D02*
X5670062Y-15816484D01*
X5851015Y-15816484D02*
X5851015Y-15711722D01*
X5851015Y-15711722D02*
X5841491Y-15692674D01*
X5841491Y-15692674D02*
X5822443Y-15683150D01*
X5822443Y-15683150D02*
X5784348Y-15683150D01*
X5784348Y-15683150D02*
X5765301Y-15692674D01*
X5851015Y-15806960D02*
X5831967Y-15816484D01*
X5831967Y-15816484D02*
X5784348Y-15816484D01*
X5784348Y-15816484D02*
X5765301Y-15806960D01*
X5765301Y-15806960D02*
X5755777Y-15787912D01*
X5755777Y-15787912D02*
X5755777Y-15768865D01*
X5755777Y-15768865D02*
X5765301Y-15749817D01*
X5765301Y-15749817D02*
X5784348Y-15740293D01*
X5784348Y-15740293D02*
X5831967Y-15740293D01*
X5831967Y-15740293D02*
X5851015Y-15730769D01*
X5946253Y-15683150D02*
X5946253Y-15883150D01*
X5946253Y-15692674D02*
X5965301Y-15683150D01*
X5965301Y-15683150D02*
X6003396Y-15683150D01*
X6003396Y-15683150D02*
X6022443Y-15692674D01*
X6022443Y-15692674D02*
X6031967Y-15702198D01*
X6031967Y-15702198D02*
X6041491Y-15721246D01*
X6041491Y-15721246D02*
X6041491Y-15778388D01*
X6041491Y-15778388D02*
X6031967Y-15797436D01*
X6031967Y-15797436D02*
X6022443Y-15806960D01*
X6022443Y-15806960D02*
X6003396Y-15816484D01*
X6003396Y-15816484D02*
X5965301Y-15816484D01*
X5965301Y-15816484D02*
X5946253Y-15806960D01*
X6127205Y-15797436D02*
X6136729Y-15806960D01*
X6136729Y-15806960D02*
X6127205Y-15816484D01*
X6127205Y-15816484D02*
X6117682Y-15806960D01*
X6117682Y-15806960D02*
X6127205Y-15797436D01*
X6127205Y-15797436D02*
X6127205Y-15816484D01*
X6127205Y-15692674D02*
X6136729Y-15702198D01*
X6136729Y-15702198D02*
X6127205Y-15711722D01*
X6127205Y-15711722D02*
X6117682Y-15702198D01*
X6117682Y-15702198D02*
X6127205Y-15692674D01*
X6127205Y-15692674D02*
X6127205Y-15711722D01*
D10*
X4455000Y-16125000D02*
X4495000Y-16165000D01*
X4495000Y-16125000D02*
X4455000Y-16165000D01*
D11*
X4793872Y-16036484D02*
X4812920Y-16036484D01*
X4812920Y-16036484D02*
X4831967Y-16046008D01*
X4831967Y-16046008D02*
X4841491Y-16055531D01*
X4841491Y-16055531D02*
X4851015Y-16074579D01*
X4851015Y-16074579D02*
X4860539Y-16112674D01*
X4860539Y-16112674D02*
X4860539Y-16160293D01*
X4860539Y-16160293D02*
X4851015Y-16198388D01*
X4851015Y-16198388D02*
X4841491Y-16217436D01*
X4841491Y-16217436D02*
X4831967Y-16226960D01*
X4831967Y-16226960D02*
X4812920Y-16236484D01*
X4812920Y-16236484D02*
X4793872Y-16236484D01*
X4793872Y-16236484D02*
X4774824Y-16226960D01*
X4774824Y-16226960D02*
X4765301Y-16217436D01*
X4765301Y-16217436D02*
X4755777Y-16198388D01*
X4755777Y-16198388D02*
X4746253Y-16160293D01*
X4746253Y-16160293D02*
X4746253Y-16112674D01*
X4746253Y-16112674D02*
X4755777Y-16074579D01*
X4755777Y-16074579D02*
X4765301Y-16055531D01*
X4765301Y-16055531D02*
X4774824Y-16046008D01*
X4774824Y-16046008D02*
X4793872Y-16036484D01*
X4946253Y-16217436D02*
X4955777Y-16226960D01*
X4955777Y-16226960D02*
X4946253Y-16236484D01*
X4946253Y-16236484D02*
X4936729Y-16226960D01*
X4936729Y-16226960D02*
X4946253Y-16217436D01*
X4946253Y-16217436D02*
X4946253Y-16236484D01*
X5127205Y-16103150D02*
X5127205Y-16236484D01*
X5079586Y-16026960D02*
X5031967Y-16169817D01*
X5031967Y-16169817D02*
X5155777Y-16169817D01*
X5270063Y-16036484D02*
X5289110Y-16036484D01*
X5289110Y-16036484D02*
X5308158Y-16046008D01*
X5308158Y-16046008D02*
X5317682Y-16055531D01*
X5317682Y-16055531D02*
X5327205Y-16074579D01*
X5327205Y-16074579D02*
X5336729Y-16112674D01*
X5336729Y-16112674D02*
X5336729Y-16160293D01*
X5336729Y-16160293D02*
X5327205Y-16198388D01*
X5327205Y-16198388D02*
X5317682Y-16217436D01*
X5317682Y-16217436D02*
X5308158Y-16226960D01*
X5308158Y-16226960D02*
X5289110Y-16236484D01*
X5289110Y-16236484D02*
X5270063Y-16236484D01*
X5270063Y-16236484D02*
X5251015Y-16226960D01*
X5251015Y-16226960D02*
X5241491Y-16217436D01*
X5241491Y-16217436D02*
X5231967Y-16198388D01*
X5231967Y-16198388D02*
X5222444Y-16160293D01*
X5222444Y-16160293D02*
X5222444Y-16112674D01*
X5222444Y-16112674D02*
X5231967Y-16074579D01*
X5231967Y-16074579D02*
X5241491Y-16055531D01*
X5241491Y-16055531D02*
X5251015Y-16046008D01*
X5251015Y-16046008D02*
X5270063Y-16036484D01*
X5460539Y-16036484D02*
X5479586Y-16036484D01*
X5479586Y-16036484D02*
X5498634Y-16046008D01*
X5498634Y-16046008D02*
X5508158Y-16055531D01*
X5508158Y-16055531D02*
X5517682Y-16074579D01*
X5517682Y-16074579D02*
X5527205Y-16112674D01*
X5527205Y-16112674D02*
X5527205Y-16160293D01*
X5527205Y-16160293D02*
X5517682Y-16198388D01*
X5517682Y-16198388D02*
X5508158Y-16217436D01*
X5508158Y-16217436D02*
X5498634Y-16226960D01*
X5498634Y-16226960D02*
X5479586Y-16236484D01*
X5479586Y-16236484D02*
X5460539Y-16236484D01*
X5460539Y-16236484D02*
X5441491Y-16226960D01*
X5441491Y-16226960D02*
X5431967Y-16217436D01*
X5431967Y-16217436D02*
X5422444Y-16198388D01*
X5422444Y-16198388D02*
X5412920Y-16160293D01*
X5412920Y-16160293D02*
X5412920Y-16112674D01*
X5412920Y-16112674D02*
X5422444Y-16074579D01*
X5422444Y-16074579D02*
X5431967Y-16055531D01*
X5431967Y-16055531D02*
X5441491Y-16046008D01*
X5441491Y-16046008D02*
X5460539Y-16036484D01*
X5612920Y-16236484D02*
X5612920Y-16103150D01*
X5612920Y-16122198D02*
X5622443Y-16112674D01*
X5622443Y-16112674D02*
X5641491Y-16103150D01*
X5641491Y-16103150D02*
X5670063Y-16103150D01*
X5670063Y-16103150D02*
X5689110Y-16112674D01*
X5689110Y-16112674D02*
X5698634Y-16131722D01*
X5698634Y-16131722D02*
X5698634Y-16236484D01*
X5698634Y-16131722D02*
X5708158Y-16112674D01*
X5708158Y-16112674D02*
X5727205Y-16103150D01*
X5727205Y-16103150D02*
X5755777Y-16103150D01*
X5755777Y-16103150D02*
X5774824Y-16112674D01*
X5774824Y-16112674D02*
X5784348Y-16131722D01*
X5784348Y-16131722D02*
X5784348Y-16236484D01*
X5879586Y-16236484D02*
X5879586Y-16103150D01*
X5879586Y-16122198D02*
X5889110Y-16112674D01*
X5889110Y-16112674D02*
X5908158Y-16103150D01*
X5908158Y-16103150D02*
X5936729Y-16103150D01*
X5936729Y-16103150D02*
X5955777Y-16112674D01*
X5955777Y-16112674D02*
X5965301Y-16131722D01*
X5965301Y-16131722D02*
X5965301Y-16236484D01*
X5965301Y-16131722D02*
X5974824Y-16112674D01*
X5974824Y-16112674D02*
X5993872Y-16103150D01*
X5993872Y-16103150D02*
X6022443Y-16103150D01*
X6022443Y-16103150D02*
X6041491Y-16112674D01*
X6041491Y-16112674D02*
X6051015Y-16131722D01*
X6051015Y-16131722D02*
X6051015Y-16236484D01*
X6441491Y-16026960D02*
X6270063Y-16284103D01*
X6698634Y-16036484D02*
X6717682Y-16036484D01*
X6717682Y-16036484D02*
X6736729Y-16046008D01*
X6736729Y-16046008D02*
X6746253Y-16055531D01*
X6746253Y-16055531D02*
X6755777Y-16074579D01*
X6755777Y-16074579D02*
X6765301Y-16112674D01*
X6765301Y-16112674D02*
X6765301Y-16160293D01*
X6765301Y-16160293D02*
X6755777Y-16198388D01*
X6755777Y-16198388D02*
X6746253Y-16217436D01*
X6746253Y-16217436D02*
X6736729Y-16226960D01*
X6736729Y-16226960D02*
X6717682Y-16236484D01*
X6717682Y-16236484D02*
X6698634Y-16236484D01*
X6698634Y-16236484D02*
X6679586Y-16226960D01*
X6679586Y-16226960D02*
X6670063Y-16217436D01*
X6670063Y-16217436D02*
X6660539Y-16198388D01*
X6660539Y-16198388D02*
X6651015Y-16160293D01*
X6651015Y-16160293D02*
X6651015Y-16112674D01*
X6651015Y-16112674D02*
X6660539Y-16074579D01*
X6660539Y-16074579D02*
X6670063Y-16055531D01*
X6670063Y-16055531D02*
X6679586Y-16046008D01*
X6679586Y-16046008D02*
X6698634Y-16036484D01*
X6851015Y-16217436D02*
X6860539Y-16226960D01*
X6860539Y-16226960D02*
X6851015Y-16236484D01*
X6851015Y-16236484D02*
X6841491Y-16226960D01*
X6841491Y-16226960D02*
X6851015Y-16217436D01*
X6851015Y-16217436D02*
X6851015Y-16236484D01*
X6984348Y-16036484D02*
X7003396Y-16036484D01*
X7003396Y-16036484D02*
X7022444Y-16046008D01*
X7022444Y-16046008D02*
X7031967Y-16055531D01*
X7031967Y-16055531D02*
X7041491Y-16074579D01*
X7041491Y-16074579D02*
X7051015Y-16112674D01*
X7051015Y-16112674D02*
X7051015Y-16160293D01*
X7051015Y-16160293D02*
X7041491Y-16198388D01*
X7041491Y-16198388D02*
X7031967Y-16217436D01*
X7031967Y-16217436D02*
X7022444Y-16226960D01*
X7022444Y-16226960D02*
X7003396Y-16236484D01*
X7003396Y-16236484D02*
X6984348Y-16236484D01*
X6984348Y-16236484D02*
X6965301Y-16226960D01*
X6965301Y-16226960D02*
X6955777Y-16217436D01*
X6955777Y-16217436D02*
X6946253Y-16198388D01*
X6946253Y-16198388D02*
X6936729Y-16160293D01*
X6936729Y-16160293D02*
X6936729Y-16112674D01*
X6936729Y-16112674D02*
X6946253Y-16074579D01*
X6946253Y-16074579D02*
X6955777Y-16055531D01*
X6955777Y-16055531D02*
X6965301Y-16046008D01*
X6965301Y-16046008D02*
X6984348Y-16036484D01*
X7241491Y-16236484D02*
X7127206Y-16236484D01*
X7184348Y-16236484D02*
X7184348Y-16036484D01*
X7184348Y-16036484D02*
X7165301Y-16065055D01*
X7165301Y-16065055D02*
X7146253Y-16084103D01*
X7146253Y-16084103D02*
X7127206Y-16093627D01*
X7422444Y-16036484D02*
X7327206Y-16036484D01*
X7327206Y-16036484D02*
X7317682Y-16131722D01*
X7317682Y-16131722D02*
X7327206Y-16122198D01*
X7327206Y-16122198D02*
X7346253Y-16112674D01*
X7346253Y-16112674D02*
X7393872Y-16112674D01*
X7393872Y-16112674D02*
X7412920Y-16122198D01*
X7412920Y-16122198D02*
X7422444Y-16131722D01*
X7422444Y-16131722D02*
X7431967Y-16150769D01*
X7431967Y-16150769D02*
X7431967Y-16198388D01*
X7431967Y-16198388D02*
X7422444Y-16217436D01*
X7422444Y-16217436D02*
X7412920Y-16226960D01*
X7412920Y-16226960D02*
X7393872Y-16236484D01*
X7393872Y-16236484D02*
X7346253Y-16236484D01*
X7346253Y-16236484D02*
X7327206Y-16226960D01*
X7327206Y-16226960D02*
X7317682Y-16217436D01*
X7498634Y-16036484D02*
X7631967Y-16036484D01*
X7631967Y-16036484D02*
X7546253Y-16236484D01*
X7698634Y-16036484D02*
X7698634Y-16074579D01*
X7774825Y-16036484D02*
X7774825Y-16074579D01*
X8070063Y-16312674D02*
X8060539Y-16303150D01*
X8060539Y-16303150D02*
X8041491Y-16274579D01*
X8041491Y-16274579D02*
X8031968Y-16255531D01*
X8031968Y-16255531D02*
X8022444Y-16226960D01*
X8022444Y-16226960D02*
X8012920Y-16179341D01*
X8012920Y-16179341D02*
X8012920Y-16141246D01*
X8012920Y-16141246D02*
X8022444Y-16093627D01*
X8022444Y-16093627D02*
X8031968Y-16065055D01*
X8031968Y-16065055D02*
X8041491Y-16046008D01*
X8041491Y-16046008D02*
X8060539Y-16017436D01*
X8060539Y-16017436D02*
X8070063Y-16007912D01*
X8251015Y-16236484D02*
X8136729Y-16236484D01*
X8193872Y-16236484D02*
X8193872Y-16036484D01*
X8193872Y-16036484D02*
X8174825Y-16065055D01*
X8174825Y-16065055D02*
X8155777Y-16084103D01*
X8155777Y-16084103D02*
X8136729Y-16093627D01*
X8346253Y-16236484D02*
X8384348Y-16236484D01*
X8384348Y-16236484D02*
X8403396Y-16226960D01*
X8403396Y-16226960D02*
X8412920Y-16217436D01*
X8412920Y-16217436D02*
X8431968Y-16188865D01*
X8431968Y-16188865D02*
X8441491Y-16150769D01*
X8441491Y-16150769D02*
X8441491Y-16074579D01*
X8441491Y-16074579D02*
X8431968Y-16055531D01*
X8431968Y-16055531D02*
X8422444Y-16046008D01*
X8422444Y-16046008D02*
X8403396Y-16036484D01*
X8403396Y-16036484D02*
X8365301Y-16036484D01*
X8365301Y-16036484D02*
X8346253Y-16046008D01*
X8346253Y-16046008D02*
X8336729Y-16055531D01*
X8336729Y-16055531D02*
X8327206Y-16074579D01*
X8327206Y-16074579D02*
X8327206Y-16122198D01*
X8327206Y-16122198D02*
X8336729Y-16141246D01*
X8336729Y-16141246D02*
X8346253Y-16150769D01*
X8346253Y-16150769D02*
X8365301Y-16160293D01*
X8365301Y-16160293D02*
X8403396Y-16160293D01*
X8403396Y-16160293D02*
X8422444Y-16150769D01*
X8422444Y-16150769D02*
X8431968Y-16141246D01*
X8431968Y-16141246D02*
X8441491Y-16122198D01*
X8565301Y-16036484D02*
X8584349Y-16036484D01*
X8584349Y-16036484D02*
X8603396Y-16046008D01*
X8603396Y-16046008D02*
X8612920Y-16055531D01*
X8612920Y-16055531D02*
X8622444Y-16074579D01*
X8622444Y-16074579D02*
X8631968Y-16112674D01*
X8631968Y-16112674D02*
X8631968Y-16160293D01*
X8631968Y-16160293D02*
X8622444Y-16198388D01*
X8622444Y-16198388D02*
X8612920Y-16217436D01*
X8612920Y-16217436D02*
X8603396Y-16226960D01*
X8603396Y-16226960D02*
X8584349Y-16236484D01*
X8584349Y-16236484D02*
X8565301Y-16236484D01*
X8565301Y-16236484D02*
X8546253Y-16226960D01*
X8546253Y-16226960D02*
X8536730Y-16217436D01*
X8536730Y-16217436D02*
X8527206Y-16198388D01*
X8527206Y-16198388D02*
X8517682Y-16160293D01*
X8517682Y-16160293D02*
X8517682Y-16112674D01*
X8517682Y-16112674D02*
X8527206Y-16074579D01*
X8527206Y-16074579D02*
X8536730Y-16055531D01*
X8536730Y-16055531D02*
X8546253Y-16046008D01*
X8546253Y-16046008D02*
X8565301Y-16036484D01*
X8870063Y-16236484D02*
X8870063Y-16036484D01*
X8955777Y-16236484D02*
X8955777Y-16131722D01*
X8955777Y-16131722D02*
X8946253Y-16112674D01*
X8946253Y-16112674D02*
X8927206Y-16103150D01*
X8927206Y-16103150D02*
X8898634Y-16103150D01*
X8898634Y-16103150D02*
X8879587Y-16112674D01*
X8879587Y-16112674D02*
X8870063Y-16122198D01*
X9079587Y-16236484D02*
X9060539Y-16226960D01*
X9060539Y-16226960D02*
X9051015Y-16217436D01*
X9051015Y-16217436D02*
X9041492Y-16198388D01*
X9041492Y-16198388D02*
X9041492Y-16141246D01*
X9041492Y-16141246D02*
X9051015Y-16122198D01*
X9051015Y-16122198D02*
X9060539Y-16112674D01*
X9060539Y-16112674D02*
X9079587Y-16103150D01*
X9079587Y-16103150D02*
X9108158Y-16103150D01*
X9108158Y-16103150D02*
X9127206Y-16112674D01*
X9127206Y-16112674D02*
X9136730Y-16122198D01*
X9136730Y-16122198D02*
X9146253Y-16141246D01*
X9146253Y-16141246D02*
X9146253Y-16198388D01*
X9146253Y-16198388D02*
X9136730Y-16217436D01*
X9136730Y-16217436D02*
X9127206Y-16226960D01*
X9127206Y-16226960D02*
X9108158Y-16236484D01*
X9108158Y-16236484D02*
X9079587Y-16236484D01*
X9260539Y-16236484D02*
X9241492Y-16226960D01*
X9241492Y-16226960D02*
X9231968Y-16207912D01*
X9231968Y-16207912D02*
X9231968Y-16036484D01*
X9412920Y-16226960D02*
X9393873Y-16236484D01*
X9393873Y-16236484D02*
X9355777Y-16236484D01*
X9355777Y-16236484D02*
X9336730Y-16226960D01*
X9336730Y-16226960D02*
X9327206Y-16207912D01*
X9327206Y-16207912D02*
X9327206Y-16131722D01*
X9327206Y-16131722D02*
X9336730Y-16112674D01*
X9336730Y-16112674D02*
X9355777Y-16103150D01*
X9355777Y-16103150D02*
X9393873Y-16103150D01*
X9393873Y-16103150D02*
X9412920Y-16112674D01*
X9412920Y-16112674D02*
X9422444Y-16131722D01*
X9422444Y-16131722D02*
X9422444Y-16150769D01*
X9422444Y-16150769D02*
X9327206Y-16169817D01*
X9498634Y-16226960D02*
X9517682Y-16236484D01*
X9517682Y-16236484D02*
X9555777Y-16236484D01*
X9555777Y-16236484D02*
X9574825Y-16226960D01*
X9574825Y-16226960D02*
X9584349Y-16207912D01*
X9584349Y-16207912D02*
X9584349Y-16198388D01*
X9584349Y-16198388D02*
X9574825Y-16179341D01*
X9574825Y-16179341D02*
X9555777Y-16169817D01*
X9555777Y-16169817D02*
X9527206Y-16169817D01*
X9527206Y-16169817D02*
X9508158Y-16160293D01*
X9508158Y-16160293D02*
X9498634Y-16141246D01*
X9498634Y-16141246D02*
X9498634Y-16131722D01*
X9498634Y-16131722D02*
X9508158Y-16112674D01*
X9508158Y-16112674D02*
X9527206Y-16103150D01*
X9527206Y-16103150D02*
X9555777Y-16103150D01*
X9555777Y-16103150D02*
X9574825Y-16112674D01*
X9651015Y-16312674D02*
X9660539Y-16303150D01*
X9660539Y-16303150D02*
X9679587Y-16274579D01*
X9679587Y-16274579D02*
X9689111Y-16255531D01*
X9689111Y-16255531D02*
X9698634Y-16226960D01*
X9698634Y-16226960D02*
X9708158Y-16179341D01*
X9708158Y-16179341D02*
X9708158Y-16141246D01*
X9708158Y-16141246D02*
X9698634Y-16093627D01*
X9698634Y-16093627D02*
X9689111Y-16065055D01*
X9689111Y-16065055D02*
X9679587Y-16046008D01*
X9679587Y-16046008D02*
X9660539Y-16017436D01*
X9660539Y-16017436D02*
X9651015Y-16007912D01*
D10*
X4495000Y-16409000D02*
G75*
G02*
X4445000Y-16409000I-25000J0D01*
G01*
X4445000Y-16409000D02*
G75*
G02*
X4495000Y-16409000I25000J0D01*
G01*
D11*
X4793872Y-16300484D02*
X4812920Y-16300484D01*
X4812920Y-16300484D02*
X4831967Y-16310008D01*
X4831967Y-16310008D02*
X4841491Y-16319531D01*
X4841491Y-16319531D02*
X4851015Y-16338579D01*
X4851015Y-16338579D02*
X4860539Y-16376674D01*
X4860539Y-16376674D02*
X4860539Y-16424293D01*
X4860539Y-16424293D02*
X4851015Y-16462388D01*
X4851015Y-16462388D02*
X4841491Y-16481436D01*
X4841491Y-16481436D02*
X4831967Y-16490960D01*
X4831967Y-16490960D02*
X4812920Y-16500484D01*
X4812920Y-16500484D02*
X4793872Y-16500484D01*
X4793872Y-16500484D02*
X4774824Y-16490960D01*
X4774824Y-16490960D02*
X4765301Y-16481436D01*
X4765301Y-16481436D02*
X4755777Y-16462388D01*
X4755777Y-16462388D02*
X4746253Y-16424293D01*
X4746253Y-16424293D02*
X4746253Y-16376674D01*
X4746253Y-16376674D02*
X4755777Y-16338579D01*
X4755777Y-16338579D02*
X4765301Y-16319531D01*
X4765301Y-16319531D02*
X4774824Y-16310008D01*
X4774824Y-16310008D02*
X4793872Y-16300484D01*
X4946253Y-16481436D02*
X4955777Y-16490960D01*
X4955777Y-16490960D02*
X4946253Y-16500484D01*
X4946253Y-16500484D02*
X4936729Y-16490960D01*
X4936729Y-16490960D02*
X4946253Y-16481436D01*
X4946253Y-16481436D02*
X4946253Y-16500484D01*
X5136729Y-16300484D02*
X5041491Y-16300484D01*
X5041491Y-16300484D02*
X5031967Y-16395722D01*
X5031967Y-16395722D02*
X5041491Y-16386198D01*
X5041491Y-16386198D02*
X5060539Y-16376674D01*
X5060539Y-16376674D02*
X5108158Y-16376674D01*
X5108158Y-16376674D02*
X5127205Y-16386198D01*
X5127205Y-16386198D02*
X5136729Y-16395722D01*
X5136729Y-16395722D02*
X5146253Y-16414769D01*
X5146253Y-16414769D02*
X5146253Y-16462388D01*
X5146253Y-16462388D02*
X5136729Y-16481436D01*
X5136729Y-16481436D02*
X5127205Y-16490960D01*
X5127205Y-16490960D02*
X5108158Y-16500484D01*
X5108158Y-16500484D02*
X5060539Y-16500484D01*
X5060539Y-16500484D02*
X5041491Y-16490960D01*
X5041491Y-16490960D02*
X5031967Y-16481436D01*
X5270063Y-16300484D02*
X5289110Y-16300484D01*
X5289110Y-16300484D02*
X5308158Y-16310008D01*
X5308158Y-16310008D02*
X5317682Y-16319531D01*
X5317682Y-16319531D02*
X5327205Y-16338579D01*
X5327205Y-16338579D02*
X5336729Y-16376674D01*
X5336729Y-16376674D02*
X5336729Y-16424293D01*
X5336729Y-16424293D02*
X5327205Y-16462388D01*
X5327205Y-16462388D02*
X5317682Y-16481436D01*
X5317682Y-16481436D02*
X5308158Y-16490960D01*
X5308158Y-16490960D02*
X5289110Y-16500484D01*
X5289110Y-16500484D02*
X5270063Y-16500484D01*
X5270063Y-16500484D02*
X5251015Y-16490960D01*
X5251015Y-16490960D02*
X5241491Y-16481436D01*
X5241491Y-16481436D02*
X5231967Y-16462388D01*
X5231967Y-16462388D02*
X5222444Y-16424293D01*
X5222444Y-16424293D02*
X5222444Y-16376674D01*
X5222444Y-16376674D02*
X5231967Y-16338579D01*
X5231967Y-16338579D02*
X5241491Y-16319531D01*
X5241491Y-16319531D02*
X5251015Y-16310008D01*
X5251015Y-16310008D02*
X5270063Y-16300484D01*
X5460539Y-16300484D02*
X5479586Y-16300484D01*
X5479586Y-16300484D02*
X5498634Y-16310008D01*
X5498634Y-16310008D02*
X5508158Y-16319531D01*
X5508158Y-16319531D02*
X5517682Y-16338579D01*
X5517682Y-16338579D02*
X5527205Y-16376674D01*
X5527205Y-16376674D02*
X5527205Y-16424293D01*
X5527205Y-16424293D02*
X5517682Y-16462388D01*
X5517682Y-16462388D02*
X5508158Y-16481436D01*
X5508158Y-16481436D02*
X5498634Y-16490960D01*
X5498634Y-16490960D02*
X5479586Y-16500484D01*
X5479586Y-16500484D02*
X5460539Y-16500484D01*
X5460539Y-16500484D02*
X5441491Y-16490960D01*
X5441491Y-16490960D02*
X5431967Y-16481436D01*
X5431967Y-16481436D02*
X5422444Y-16462388D01*
X5422444Y-16462388D02*
X5412920Y-16424293D01*
X5412920Y-16424293D02*
X5412920Y-16376674D01*
X5412920Y-16376674D02*
X5422444Y-16338579D01*
X5422444Y-16338579D02*
X5431967Y-16319531D01*
X5431967Y-16319531D02*
X5441491Y-16310008D01*
X5441491Y-16310008D02*
X5460539Y-16300484D01*
X5612920Y-16500484D02*
X5612920Y-16367150D01*
X5612920Y-16386198D02*
X5622443Y-16376674D01*
X5622443Y-16376674D02*
X5641491Y-16367150D01*
X5641491Y-16367150D02*
X5670063Y-16367150D01*
X5670063Y-16367150D02*
X5689110Y-16376674D01*
X5689110Y-16376674D02*
X5698634Y-16395722D01*
X5698634Y-16395722D02*
X5698634Y-16500484D01*
X5698634Y-16395722D02*
X5708158Y-16376674D01*
X5708158Y-16376674D02*
X5727205Y-16367150D01*
X5727205Y-16367150D02*
X5755777Y-16367150D01*
X5755777Y-16367150D02*
X5774824Y-16376674D01*
X5774824Y-16376674D02*
X5784348Y-16395722D01*
X5784348Y-16395722D02*
X5784348Y-16500484D01*
X5879586Y-16500484D02*
X5879586Y-16367150D01*
X5879586Y-16386198D02*
X5889110Y-16376674D01*
X5889110Y-16376674D02*
X5908158Y-16367150D01*
X5908158Y-16367150D02*
X5936729Y-16367150D01*
X5936729Y-16367150D02*
X5955777Y-16376674D01*
X5955777Y-16376674D02*
X5965301Y-16395722D01*
X5965301Y-16395722D02*
X5965301Y-16500484D01*
X5965301Y-16395722D02*
X5974824Y-16376674D01*
X5974824Y-16376674D02*
X5993872Y-16367150D01*
X5993872Y-16367150D02*
X6022443Y-16367150D01*
X6022443Y-16367150D02*
X6041491Y-16376674D01*
X6041491Y-16376674D02*
X6051015Y-16395722D01*
X6051015Y-16395722D02*
X6051015Y-16500484D01*
X6441491Y-16290960D02*
X6270063Y-16548103D01*
X6698634Y-16300484D02*
X6717682Y-16300484D01*
X6717682Y-16300484D02*
X6736729Y-16310008D01*
X6736729Y-16310008D02*
X6746253Y-16319531D01*
X6746253Y-16319531D02*
X6755777Y-16338579D01*
X6755777Y-16338579D02*
X6765301Y-16376674D01*
X6765301Y-16376674D02*
X6765301Y-16424293D01*
X6765301Y-16424293D02*
X6755777Y-16462388D01*
X6755777Y-16462388D02*
X6746253Y-16481436D01*
X6746253Y-16481436D02*
X6736729Y-16490960D01*
X6736729Y-16490960D02*
X6717682Y-16500484D01*
X6717682Y-16500484D02*
X6698634Y-16500484D01*
X6698634Y-16500484D02*
X6679586Y-16490960D01*
X6679586Y-16490960D02*
X6670063Y-16481436D01*
X6670063Y-16481436D02*
X6660539Y-16462388D01*
X6660539Y-16462388D02*
X6651015Y-16424293D01*
X6651015Y-16424293D02*
X6651015Y-16376674D01*
X6651015Y-16376674D02*
X6660539Y-16338579D01*
X6660539Y-16338579D02*
X6670063Y-16319531D01*
X6670063Y-16319531D02*
X6679586Y-16310008D01*
X6679586Y-16310008D02*
X6698634Y-16300484D01*
X6851015Y-16481436D02*
X6860539Y-16490960D01*
X6860539Y-16490960D02*
X6851015Y-16500484D01*
X6851015Y-16500484D02*
X6841491Y-16490960D01*
X6841491Y-16490960D02*
X6851015Y-16481436D01*
X6851015Y-16481436D02*
X6851015Y-16500484D01*
X6984348Y-16300484D02*
X7003396Y-16300484D01*
X7003396Y-16300484D02*
X7022444Y-16310008D01*
X7022444Y-16310008D02*
X7031967Y-16319531D01*
X7031967Y-16319531D02*
X7041491Y-16338579D01*
X7041491Y-16338579D02*
X7051015Y-16376674D01*
X7051015Y-16376674D02*
X7051015Y-16424293D01*
X7051015Y-16424293D02*
X7041491Y-16462388D01*
X7041491Y-16462388D02*
X7031967Y-16481436D01*
X7031967Y-16481436D02*
X7022444Y-16490960D01*
X7022444Y-16490960D02*
X7003396Y-16500484D01*
X7003396Y-16500484D02*
X6984348Y-16500484D01*
X6984348Y-16500484D02*
X6965301Y-16490960D01*
X6965301Y-16490960D02*
X6955777Y-16481436D01*
X6955777Y-16481436D02*
X6946253Y-16462388D01*
X6946253Y-16462388D02*
X6936729Y-16424293D01*
X6936729Y-16424293D02*
X6936729Y-16376674D01*
X6936729Y-16376674D02*
X6946253Y-16338579D01*
X6946253Y-16338579D02*
X6955777Y-16319531D01*
X6955777Y-16319531D02*
X6965301Y-16310008D01*
X6965301Y-16310008D02*
X6984348Y-16300484D01*
X7241491Y-16500484D02*
X7127206Y-16500484D01*
X7184348Y-16500484D02*
X7184348Y-16300484D01*
X7184348Y-16300484D02*
X7165301Y-16329055D01*
X7165301Y-16329055D02*
X7146253Y-16348103D01*
X7146253Y-16348103D02*
X7127206Y-16357627D01*
X7336729Y-16500484D02*
X7374825Y-16500484D01*
X7374825Y-16500484D02*
X7393872Y-16490960D01*
X7393872Y-16490960D02*
X7403396Y-16481436D01*
X7403396Y-16481436D02*
X7422444Y-16452865D01*
X7422444Y-16452865D02*
X7431967Y-16414769D01*
X7431967Y-16414769D02*
X7431967Y-16338579D01*
X7431967Y-16338579D02*
X7422444Y-16319531D01*
X7422444Y-16319531D02*
X7412920Y-16310008D01*
X7412920Y-16310008D02*
X7393872Y-16300484D01*
X7393872Y-16300484D02*
X7355777Y-16300484D01*
X7355777Y-16300484D02*
X7336729Y-16310008D01*
X7336729Y-16310008D02*
X7327206Y-16319531D01*
X7327206Y-16319531D02*
X7317682Y-16338579D01*
X7317682Y-16338579D02*
X7317682Y-16386198D01*
X7317682Y-16386198D02*
X7327206Y-16405246D01*
X7327206Y-16405246D02*
X7336729Y-16414769D01*
X7336729Y-16414769D02*
X7355777Y-16424293D01*
X7355777Y-16424293D02*
X7393872Y-16424293D01*
X7393872Y-16424293D02*
X7412920Y-16414769D01*
X7412920Y-16414769D02*
X7422444Y-16405246D01*
X7422444Y-16405246D02*
X7431967Y-16386198D01*
X7498634Y-16300484D02*
X7631967Y-16300484D01*
X7631967Y-16300484D02*
X7546253Y-16500484D01*
X7698634Y-16300484D02*
X7698634Y-16338579D01*
X7774825Y-16300484D02*
X7774825Y-16338579D01*
X8070063Y-16576674D02*
X8060539Y-16567150D01*
X8060539Y-16567150D02*
X8041491Y-16538579D01*
X8041491Y-16538579D02*
X8031968Y-16519531D01*
X8031968Y-16519531D02*
X8022444Y-16490960D01*
X8022444Y-16490960D02*
X8012920Y-16443341D01*
X8012920Y-16443341D02*
X8012920Y-16405246D01*
X8012920Y-16405246D02*
X8022444Y-16357627D01*
X8022444Y-16357627D02*
X8031968Y-16329055D01*
X8031968Y-16329055D02*
X8041491Y-16310008D01*
X8041491Y-16310008D02*
X8060539Y-16281436D01*
X8060539Y-16281436D02*
X8070063Y-16271912D01*
X8127206Y-16300484D02*
X8251015Y-16300484D01*
X8251015Y-16300484D02*
X8184348Y-16376674D01*
X8184348Y-16376674D02*
X8212920Y-16376674D01*
X8212920Y-16376674D02*
X8231968Y-16386198D01*
X8231968Y-16386198D02*
X8241491Y-16395722D01*
X8241491Y-16395722D02*
X8251015Y-16414769D01*
X8251015Y-16414769D02*
X8251015Y-16462388D01*
X8251015Y-16462388D02*
X8241491Y-16481436D01*
X8241491Y-16481436D02*
X8231968Y-16490960D01*
X8231968Y-16490960D02*
X8212920Y-16500484D01*
X8212920Y-16500484D02*
X8155777Y-16500484D01*
X8155777Y-16500484D02*
X8136729Y-16490960D01*
X8136729Y-16490960D02*
X8127206Y-16481436D01*
X8327206Y-16319531D02*
X8336729Y-16310008D01*
X8336729Y-16310008D02*
X8355777Y-16300484D01*
X8355777Y-16300484D02*
X8403396Y-16300484D01*
X8403396Y-16300484D02*
X8422444Y-16310008D01*
X8422444Y-16310008D02*
X8431968Y-16319531D01*
X8431968Y-16319531D02*
X8441491Y-16338579D01*
X8441491Y-16338579D02*
X8441491Y-16357627D01*
X8441491Y-16357627D02*
X8431968Y-16386198D01*
X8431968Y-16386198D02*
X8317682Y-16500484D01*
X8317682Y-16500484D02*
X8441491Y-16500484D01*
X8679587Y-16500484D02*
X8679587Y-16300484D01*
X8765301Y-16500484D02*
X8765301Y-16395722D01*
X8765301Y-16395722D02*
X8755777Y-16376674D01*
X8755777Y-16376674D02*
X8736730Y-16367150D01*
X8736730Y-16367150D02*
X8708158Y-16367150D01*
X8708158Y-16367150D02*
X8689111Y-16376674D01*
X8689111Y-16376674D02*
X8679587Y-16386198D01*
X8889111Y-16500484D02*
X8870063Y-16490960D01*
X8870063Y-16490960D02*
X8860539Y-16481436D01*
X8860539Y-16481436D02*
X8851015Y-16462388D01*
X8851015Y-16462388D02*
X8851015Y-16405246D01*
X8851015Y-16405246D02*
X8860539Y-16386198D01*
X8860539Y-16386198D02*
X8870063Y-16376674D01*
X8870063Y-16376674D02*
X8889111Y-16367150D01*
X8889111Y-16367150D02*
X8917682Y-16367150D01*
X8917682Y-16367150D02*
X8936730Y-16376674D01*
X8936730Y-16376674D02*
X8946253Y-16386198D01*
X8946253Y-16386198D02*
X8955777Y-16405246D01*
X8955777Y-16405246D02*
X8955777Y-16462388D01*
X8955777Y-16462388D02*
X8946253Y-16481436D01*
X8946253Y-16481436D02*
X8936730Y-16490960D01*
X8936730Y-16490960D02*
X8917682Y-16500484D01*
X8917682Y-16500484D02*
X8889111Y-16500484D01*
X9070063Y-16500484D02*
X9051015Y-16490960D01*
X9051015Y-16490960D02*
X9041492Y-16471912D01*
X9041492Y-16471912D02*
X9041492Y-16300484D01*
X9222444Y-16490960D02*
X9203396Y-16500484D01*
X9203396Y-16500484D02*
X9165301Y-16500484D01*
X9165301Y-16500484D02*
X9146253Y-16490960D01*
X9146253Y-16490960D02*
X9136730Y-16471912D01*
X9136730Y-16471912D02*
X9136730Y-16395722D01*
X9136730Y-16395722D02*
X9146253Y-16376674D01*
X9146253Y-16376674D02*
X9165301Y-16367150D01*
X9165301Y-16367150D02*
X9203396Y-16367150D01*
X9203396Y-16367150D02*
X9222444Y-16376674D01*
X9222444Y-16376674D02*
X9231968Y-16395722D01*
X9231968Y-16395722D02*
X9231968Y-16414769D01*
X9231968Y-16414769D02*
X9136730Y-16433817D01*
X9308158Y-16490960D02*
X9327206Y-16500484D01*
X9327206Y-16500484D02*
X9365301Y-16500484D01*
X9365301Y-16500484D02*
X9384349Y-16490960D01*
X9384349Y-16490960D02*
X9393873Y-16471912D01*
X9393873Y-16471912D02*
X9393873Y-16462388D01*
X9393873Y-16462388D02*
X9384349Y-16443341D01*
X9384349Y-16443341D02*
X9365301Y-16433817D01*
X9365301Y-16433817D02*
X9336730Y-16433817D01*
X9336730Y-16433817D02*
X9317682Y-16424293D01*
X9317682Y-16424293D02*
X9308158Y-16405246D01*
X9308158Y-16405246D02*
X9308158Y-16395722D01*
X9308158Y-16395722D02*
X9317682Y-16376674D01*
X9317682Y-16376674D02*
X9336730Y-16367150D01*
X9336730Y-16367150D02*
X9365301Y-16367150D01*
X9365301Y-16367150D02*
X9384349Y-16376674D01*
X9460539Y-16576674D02*
X9470063Y-16567150D01*
X9470063Y-16567150D02*
X9489111Y-16538579D01*
X9489111Y-16538579D02*
X9498634Y-16519531D01*
X9498634Y-16519531D02*
X9508158Y-16490960D01*
X9508158Y-16490960D02*
X9517682Y-16443341D01*
X9517682Y-16443341D02*
X9517682Y-16405246D01*
X9517682Y-16405246D02*
X9508158Y-16357627D01*
X9508158Y-16357627D02*
X9498634Y-16329055D01*
X9498634Y-16329055D02*
X9489111Y-16310008D01*
X9489111Y-16310008D02*
X9470063Y-16281436D01*
X9470063Y-16281436D02*
X9460539Y-16271912D01*
D12*
X4435500Y-16613500D02*
X4435500Y-16732500D01*
X4376000Y-16673000D02*
X4495000Y-16673000D01*
D11*
X4860539Y-16764484D02*
X4746253Y-16764484D01*
X4803396Y-16764484D02*
X4803396Y-16564484D01*
X4803396Y-16564484D02*
X4784348Y-16593055D01*
X4784348Y-16593055D02*
X4765301Y-16612103D01*
X4765301Y-16612103D02*
X4746253Y-16621627D01*
X4946253Y-16745436D02*
X4955777Y-16754960D01*
X4955777Y-16754960D02*
X4946253Y-16764484D01*
X4946253Y-16764484D02*
X4936729Y-16754960D01*
X4936729Y-16754960D02*
X4946253Y-16745436D01*
X4946253Y-16745436D02*
X4946253Y-16764484D01*
X5146253Y-16764484D02*
X5031967Y-16764484D01*
X5089110Y-16764484D02*
X5089110Y-16564484D01*
X5089110Y-16564484D02*
X5070063Y-16593055D01*
X5070063Y-16593055D02*
X5051015Y-16612103D01*
X5051015Y-16612103D02*
X5031967Y-16621627D01*
X5241491Y-16764484D02*
X5279586Y-16764484D01*
X5279586Y-16764484D02*
X5298634Y-16754960D01*
X5298634Y-16754960D02*
X5308158Y-16745436D01*
X5308158Y-16745436D02*
X5327205Y-16716865D01*
X5327205Y-16716865D02*
X5336729Y-16678769D01*
X5336729Y-16678769D02*
X5336729Y-16602579D01*
X5336729Y-16602579D02*
X5327205Y-16583531D01*
X5327205Y-16583531D02*
X5317682Y-16574008D01*
X5317682Y-16574008D02*
X5298634Y-16564484D01*
X5298634Y-16564484D02*
X5260539Y-16564484D01*
X5260539Y-16564484D02*
X5241491Y-16574008D01*
X5241491Y-16574008D02*
X5231967Y-16583531D01*
X5231967Y-16583531D02*
X5222444Y-16602579D01*
X5222444Y-16602579D02*
X5222444Y-16650198D01*
X5222444Y-16650198D02*
X5231967Y-16669246D01*
X5231967Y-16669246D02*
X5241491Y-16678769D01*
X5241491Y-16678769D02*
X5260539Y-16688293D01*
X5260539Y-16688293D02*
X5298634Y-16688293D01*
X5298634Y-16688293D02*
X5317682Y-16678769D01*
X5317682Y-16678769D02*
X5327205Y-16669246D01*
X5327205Y-16669246D02*
X5336729Y-16650198D01*
X5460539Y-16564484D02*
X5479586Y-16564484D01*
X5479586Y-16564484D02*
X5498634Y-16574008D01*
X5498634Y-16574008D02*
X5508158Y-16583531D01*
X5508158Y-16583531D02*
X5517682Y-16602579D01*
X5517682Y-16602579D02*
X5527205Y-16640674D01*
X5527205Y-16640674D02*
X5527205Y-16688293D01*
X5527205Y-16688293D02*
X5517682Y-16726388D01*
X5517682Y-16726388D02*
X5508158Y-16745436D01*
X5508158Y-16745436D02*
X5498634Y-16754960D01*
X5498634Y-16754960D02*
X5479586Y-16764484D01*
X5479586Y-16764484D02*
X5460539Y-16764484D01*
X5460539Y-16764484D02*
X5441491Y-16754960D01*
X5441491Y-16754960D02*
X5431967Y-16745436D01*
X5431967Y-16745436D02*
X5422444Y-16726388D01*
X5422444Y-16726388D02*
X5412920Y-16688293D01*
X5412920Y-16688293D02*
X5412920Y-16640674D01*
X5412920Y-16640674D02*
X5422444Y-16602579D01*
X5422444Y-16602579D02*
X5431967Y-16583531D01*
X5431967Y-16583531D02*
X5441491Y-16574008D01*
X5441491Y-16574008D02*
X5460539Y-16564484D01*
X5612920Y-16764484D02*
X5612920Y-16631150D01*
X5612920Y-16650198D02*
X5622443Y-16640674D01*
X5622443Y-16640674D02*
X5641491Y-16631150D01*
X5641491Y-16631150D02*
X5670063Y-16631150D01*
X5670063Y-16631150D02*
X5689110Y-16640674D01*
X5689110Y-16640674D02*
X5698634Y-16659722D01*
X5698634Y-16659722D02*
X5698634Y-16764484D01*
X5698634Y-16659722D02*
X5708158Y-16640674D01*
X5708158Y-16640674D02*
X5727205Y-16631150D01*
X5727205Y-16631150D02*
X5755777Y-16631150D01*
X5755777Y-16631150D02*
X5774824Y-16640674D01*
X5774824Y-16640674D02*
X5784348Y-16659722D01*
X5784348Y-16659722D02*
X5784348Y-16764484D01*
X5879586Y-16764484D02*
X5879586Y-16631150D01*
X5879586Y-16650198D02*
X5889110Y-16640674D01*
X5889110Y-16640674D02*
X5908158Y-16631150D01*
X5908158Y-16631150D02*
X5936729Y-16631150D01*
X5936729Y-16631150D02*
X5955777Y-16640674D01*
X5955777Y-16640674D02*
X5965301Y-16659722D01*
X5965301Y-16659722D02*
X5965301Y-16764484D01*
X5965301Y-16659722D02*
X5974824Y-16640674D01*
X5974824Y-16640674D02*
X5993872Y-16631150D01*
X5993872Y-16631150D02*
X6022443Y-16631150D01*
X6022443Y-16631150D02*
X6041491Y-16640674D01*
X6041491Y-16640674D02*
X6051015Y-16659722D01*
X6051015Y-16659722D02*
X6051015Y-16764484D01*
X6441491Y-16554960D02*
X6270063Y-16812103D01*
X6698634Y-16564484D02*
X6717682Y-16564484D01*
X6717682Y-16564484D02*
X6736729Y-16574008D01*
X6736729Y-16574008D02*
X6746253Y-16583531D01*
X6746253Y-16583531D02*
X6755777Y-16602579D01*
X6755777Y-16602579D02*
X6765301Y-16640674D01*
X6765301Y-16640674D02*
X6765301Y-16688293D01*
X6765301Y-16688293D02*
X6755777Y-16726388D01*
X6755777Y-16726388D02*
X6746253Y-16745436D01*
X6746253Y-16745436D02*
X6736729Y-16754960D01*
X6736729Y-16754960D02*
X6717682Y-16764484D01*
X6717682Y-16764484D02*
X6698634Y-16764484D01*
X6698634Y-16764484D02*
X6679586Y-16754960D01*
X6679586Y-16754960D02*
X6670063Y-16745436D01*
X6670063Y-16745436D02*
X6660539Y-16726388D01*
X6660539Y-16726388D02*
X6651015Y-16688293D01*
X6651015Y-16688293D02*
X6651015Y-16640674D01*
X6651015Y-16640674D02*
X6660539Y-16602579D01*
X6660539Y-16602579D02*
X6670063Y-16583531D01*
X6670063Y-16583531D02*
X6679586Y-16574008D01*
X6679586Y-16574008D02*
X6698634Y-16564484D01*
X6851015Y-16745436D02*
X6860539Y-16754960D01*
X6860539Y-16754960D02*
X6851015Y-16764484D01*
X6851015Y-16764484D02*
X6841491Y-16754960D01*
X6841491Y-16754960D02*
X6851015Y-16745436D01*
X6851015Y-16745436D02*
X6851015Y-16764484D01*
X6984348Y-16564484D02*
X7003396Y-16564484D01*
X7003396Y-16564484D02*
X7022444Y-16574008D01*
X7022444Y-16574008D02*
X7031967Y-16583531D01*
X7031967Y-16583531D02*
X7041491Y-16602579D01*
X7041491Y-16602579D02*
X7051015Y-16640674D01*
X7051015Y-16640674D02*
X7051015Y-16688293D01*
X7051015Y-16688293D02*
X7041491Y-16726388D01*
X7041491Y-16726388D02*
X7031967Y-16745436D01*
X7031967Y-16745436D02*
X7022444Y-16754960D01*
X7022444Y-16754960D02*
X7003396Y-16764484D01*
X7003396Y-16764484D02*
X6984348Y-16764484D01*
X6984348Y-16764484D02*
X6965301Y-16754960D01*
X6965301Y-16754960D02*
X6955777Y-16745436D01*
X6955777Y-16745436D02*
X6946253Y-16726388D01*
X6946253Y-16726388D02*
X6936729Y-16688293D01*
X6936729Y-16688293D02*
X6936729Y-16640674D01*
X6936729Y-16640674D02*
X6946253Y-16602579D01*
X6946253Y-16602579D02*
X6955777Y-16583531D01*
X6955777Y-16583531D02*
X6965301Y-16574008D01*
X6965301Y-16574008D02*
X6984348Y-16564484D01*
X7222444Y-16631150D02*
X7222444Y-16764484D01*
X7174825Y-16554960D02*
X7127206Y-16697817D01*
X7127206Y-16697817D02*
X7251015Y-16697817D01*
X7412920Y-16564484D02*
X7374825Y-16564484D01*
X7374825Y-16564484D02*
X7355777Y-16574008D01*
X7355777Y-16574008D02*
X7346253Y-16583531D01*
X7346253Y-16583531D02*
X7327206Y-16612103D01*
X7327206Y-16612103D02*
X7317682Y-16650198D01*
X7317682Y-16650198D02*
X7317682Y-16726388D01*
X7317682Y-16726388D02*
X7327206Y-16745436D01*
X7327206Y-16745436D02*
X7336729Y-16754960D01*
X7336729Y-16754960D02*
X7355777Y-16764484D01*
X7355777Y-16764484D02*
X7393872Y-16764484D01*
X7393872Y-16764484D02*
X7412920Y-16754960D01*
X7412920Y-16754960D02*
X7422444Y-16745436D01*
X7422444Y-16745436D02*
X7431967Y-16726388D01*
X7431967Y-16726388D02*
X7431967Y-16678769D01*
X7431967Y-16678769D02*
X7422444Y-16659722D01*
X7422444Y-16659722D02*
X7412920Y-16650198D01*
X7412920Y-16650198D02*
X7393872Y-16640674D01*
X7393872Y-16640674D02*
X7355777Y-16640674D01*
X7355777Y-16640674D02*
X7336729Y-16650198D01*
X7336729Y-16650198D02*
X7327206Y-16659722D01*
X7327206Y-16659722D02*
X7317682Y-16678769D01*
X7527206Y-16764484D02*
X7565301Y-16764484D01*
X7565301Y-16764484D02*
X7584348Y-16754960D01*
X7584348Y-16754960D02*
X7593872Y-16745436D01*
X7593872Y-16745436D02*
X7612920Y-16716865D01*
X7612920Y-16716865D02*
X7622444Y-16678769D01*
X7622444Y-16678769D02*
X7622444Y-16602579D01*
X7622444Y-16602579D02*
X7612920Y-16583531D01*
X7612920Y-16583531D02*
X7603396Y-16574008D01*
X7603396Y-16574008D02*
X7584348Y-16564484D01*
X7584348Y-16564484D02*
X7546253Y-16564484D01*
X7546253Y-16564484D02*
X7527206Y-16574008D01*
X7527206Y-16574008D02*
X7517682Y-16583531D01*
X7517682Y-16583531D02*
X7508158Y-16602579D01*
X7508158Y-16602579D02*
X7508158Y-16650198D01*
X7508158Y-16650198D02*
X7517682Y-16669246D01*
X7517682Y-16669246D02*
X7527206Y-16678769D01*
X7527206Y-16678769D02*
X7546253Y-16688293D01*
X7546253Y-16688293D02*
X7584348Y-16688293D01*
X7584348Y-16688293D02*
X7603396Y-16678769D01*
X7603396Y-16678769D02*
X7612920Y-16669246D01*
X7612920Y-16669246D02*
X7622444Y-16650198D01*
X7698634Y-16564484D02*
X7698634Y-16602579D01*
X7774825Y-16564484D02*
X7774825Y-16602579D01*
X8070063Y-16840674D02*
X8060539Y-16831150D01*
X8060539Y-16831150D02*
X8041491Y-16802579D01*
X8041491Y-16802579D02*
X8031968Y-16783531D01*
X8031968Y-16783531D02*
X8022444Y-16754960D01*
X8022444Y-16754960D02*
X8012920Y-16707341D01*
X8012920Y-16707341D02*
X8012920Y-16669246D01*
X8012920Y-16669246D02*
X8022444Y-16621627D01*
X8022444Y-16621627D02*
X8031968Y-16593055D01*
X8031968Y-16593055D02*
X8041491Y-16574008D01*
X8041491Y-16574008D02*
X8060539Y-16545436D01*
X8060539Y-16545436D02*
X8070063Y-16535912D01*
X8127206Y-16564484D02*
X8251015Y-16564484D01*
X8251015Y-16564484D02*
X8184348Y-16640674D01*
X8184348Y-16640674D02*
X8212920Y-16640674D01*
X8212920Y-16640674D02*
X8231968Y-16650198D01*
X8231968Y-16650198D02*
X8241491Y-16659722D01*
X8241491Y-16659722D02*
X8251015Y-16678769D01*
X8251015Y-16678769D02*
X8251015Y-16726388D01*
X8251015Y-16726388D02*
X8241491Y-16745436D01*
X8241491Y-16745436D02*
X8231968Y-16754960D01*
X8231968Y-16754960D02*
X8212920Y-16764484D01*
X8212920Y-16764484D02*
X8155777Y-16764484D01*
X8155777Y-16764484D02*
X8136729Y-16754960D01*
X8136729Y-16754960D02*
X8127206Y-16745436D01*
X8489111Y-16764484D02*
X8489111Y-16564484D01*
X8574825Y-16764484D02*
X8574825Y-16659722D01*
X8574825Y-16659722D02*
X8565301Y-16640674D01*
X8565301Y-16640674D02*
X8546253Y-16631150D01*
X8546253Y-16631150D02*
X8517682Y-16631150D01*
X8517682Y-16631150D02*
X8498634Y-16640674D01*
X8498634Y-16640674D02*
X8489111Y-16650198D01*
X8698634Y-16764484D02*
X8679587Y-16754960D01*
X8679587Y-16754960D02*
X8670063Y-16745436D01*
X8670063Y-16745436D02*
X8660539Y-16726388D01*
X8660539Y-16726388D02*
X8660539Y-16669246D01*
X8660539Y-16669246D02*
X8670063Y-16650198D01*
X8670063Y-16650198D02*
X8679587Y-16640674D01*
X8679587Y-16640674D02*
X8698634Y-16631150D01*
X8698634Y-16631150D02*
X8727206Y-16631150D01*
X8727206Y-16631150D02*
X8746253Y-16640674D01*
X8746253Y-16640674D02*
X8755777Y-16650198D01*
X8755777Y-16650198D02*
X8765301Y-16669246D01*
X8765301Y-16669246D02*
X8765301Y-16726388D01*
X8765301Y-16726388D02*
X8755777Y-16745436D01*
X8755777Y-16745436D02*
X8746253Y-16754960D01*
X8746253Y-16754960D02*
X8727206Y-16764484D01*
X8727206Y-16764484D02*
X8698634Y-16764484D01*
X8879587Y-16764484D02*
X8860539Y-16754960D01*
X8860539Y-16754960D02*
X8851015Y-16735912D01*
X8851015Y-16735912D02*
X8851015Y-16564484D01*
X9031968Y-16754960D02*
X9012920Y-16764484D01*
X9012920Y-16764484D02*
X8974825Y-16764484D01*
X8974825Y-16764484D02*
X8955777Y-16754960D01*
X8955777Y-16754960D02*
X8946253Y-16735912D01*
X8946253Y-16735912D02*
X8946253Y-16659722D01*
X8946253Y-16659722D02*
X8955777Y-16640674D01*
X8955777Y-16640674D02*
X8974825Y-16631150D01*
X8974825Y-16631150D02*
X9012920Y-16631150D01*
X9012920Y-16631150D02*
X9031968Y-16640674D01*
X9031968Y-16640674D02*
X9041492Y-16659722D01*
X9041492Y-16659722D02*
X9041492Y-16678769D01*
X9041492Y-16678769D02*
X8946253Y-16697817D01*
X9117682Y-16754960D02*
X9136730Y-16764484D01*
X9136730Y-16764484D02*
X9174825Y-16764484D01*
X9174825Y-16764484D02*
X9193873Y-16754960D01*
X9193873Y-16754960D02*
X9203396Y-16735912D01*
X9203396Y-16735912D02*
X9203396Y-16726388D01*
X9203396Y-16726388D02*
X9193873Y-16707341D01*
X9193873Y-16707341D02*
X9174825Y-16697817D01*
X9174825Y-16697817D02*
X9146253Y-16697817D01*
X9146253Y-16697817D02*
X9127206Y-16688293D01*
X9127206Y-16688293D02*
X9117682Y-16669246D01*
X9117682Y-16669246D02*
X9117682Y-16659722D01*
X9117682Y-16659722D02*
X9127206Y-16640674D01*
X9127206Y-16640674D02*
X9146253Y-16631150D01*
X9146253Y-16631150D02*
X9174825Y-16631150D01*
X9174825Y-16631150D02*
X9193873Y-16640674D01*
X9270063Y-16840674D02*
X9279587Y-16831150D01*
X9279587Y-16831150D02*
X9298634Y-16802579D01*
X9298634Y-16802579D02*
X9308158Y-16783531D01*
X9308158Y-16783531D02*
X9317682Y-16754960D01*
X9317682Y-16754960D02*
X9327206Y-16707341D01*
X9327206Y-16707341D02*
X9327206Y-16669246D01*
X9327206Y-16669246D02*
X9317682Y-16621627D01*
X9317682Y-16621627D02*
X9308158Y-16593055D01*
X9308158Y-16593055D02*
X9298634Y-16574008D01*
X9298634Y-16574008D02*
X9279587Y-16545436D01*
X9279587Y-16545436D02*
X9270063Y-16535912D01*
D13*
X4475962Y-16982962D02*
X4475962Y-16891038D01*
X4384038Y-16891038D01*
X4384038Y-16982962D01*
X4475962Y-16982962D01*
D11*
X4860539Y-17028484D02*
X4746253Y-17028484D01*
X4803396Y-17028484D02*
X4803396Y-16828484D01*
X4803396Y-16828484D02*
X4784348Y-16857055D01*
X4784348Y-16857055D02*
X4765301Y-16876103D01*
X4765301Y-16876103D02*
X4746253Y-16885627D01*
X4946253Y-17009436D02*
X4955777Y-17018960D01*
X4955777Y-17018960D02*
X4946253Y-17028484D01*
X4946253Y-17028484D02*
X4936729Y-17018960D01*
X4936729Y-17018960D02*
X4946253Y-17009436D01*
X4946253Y-17009436D02*
X4946253Y-17028484D01*
X5022444Y-16828484D02*
X5146253Y-16828484D01*
X5146253Y-16828484D02*
X5079586Y-16904674D01*
X5079586Y-16904674D02*
X5108158Y-16904674D01*
X5108158Y-16904674D02*
X5127205Y-16914198D01*
X5127205Y-16914198D02*
X5136729Y-16923722D01*
X5136729Y-16923722D02*
X5146253Y-16942770D01*
X5146253Y-16942770D02*
X5146253Y-16990389D01*
X5146253Y-16990389D02*
X5136729Y-17009436D01*
X5136729Y-17009436D02*
X5127205Y-17018960D01*
X5127205Y-17018960D02*
X5108158Y-17028484D01*
X5108158Y-17028484D02*
X5051015Y-17028484D01*
X5051015Y-17028484D02*
X5031967Y-17018960D01*
X5031967Y-17018960D02*
X5022444Y-17009436D01*
X5270063Y-16828484D02*
X5289110Y-16828484D01*
X5289110Y-16828484D02*
X5308158Y-16838008D01*
X5308158Y-16838008D02*
X5317682Y-16847531D01*
X5317682Y-16847531D02*
X5327205Y-16866579D01*
X5327205Y-16866579D02*
X5336729Y-16904674D01*
X5336729Y-16904674D02*
X5336729Y-16952293D01*
X5336729Y-16952293D02*
X5327205Y-16990389D01*
X5327205Y-16990389D02*
X5317682Y-17009436D01*
X5317682Y-17009436D02*
X5308158Y-17018960D01*
X5308158Y-17018960D02*
X5289110Y-17028484D01*
X5289110Y-17028484D02*
X5270063Y-17028484D01*
X5270063Y-17028484D02*
X5251015Y-17018960D01*
X5251015Y-17018960D02*
X5241491Y-17009436D01*
X5241491Y-17009436D02*
X5231967Y-16990389D01*
X5231967Y-16990389D02*
X5222444Y-16952293D01*
X5222444Y-16952293D02*
X5222444Y-16904674D01*
X5222444Y-16904674D02*
X5231967Y-16866579D01*
X5231967Y-16866579D02*
X5241491Y-16847531D01*
X5241491Y-16847531D02*
X5251015Y-16838008D01*
X5251015Y-16838008D02*
X5270063Y-16828484D01*
X5460539Y-16828484D02*
X5479586Y-16828484D01*
X5479586Y-16828484D02*
X5498634Y-16838008D01*
X5498634Y-16838008D02*
X5508158Y-16847531D01*
X5508158Y-16847531D02*
X5517682Y-16866579D01*
X5517682Y-16866579D02*
X5527205Y-16904674D01*
X5527205Y-16904674D02*
X5527205Y-16952293D01*
X5527205Y-16952293D02*
X5517682Y-16990389D01*
X5517682Y-16990389D02*
X5508158Y-17009436D01*
X5508158Y-17009436D02*
X5498634Y-17018960D01*
X5498634Y-17018960D02*
X5479586Y-17028484D01*
X5479586Y-17028484D02*
X5460539Y-17028484D01*
X5460539Y-17028484D02*
X5441491Y-17018960D01*
X5441491Y-17018960D02*
X5431967Y-17009436D01*
X5431967Y-17009436D02*
X5422444Y-16990389D01*
X5422444Y-16990389D02*
X5412920Y-16952293D01*
X5412920Y-16952293D02*
X5412920Y-16904674D01*
X5412920Y-16904674D02*
X5422444Y-16866579D01*
X5422444Y-16866579D02*
X5431967Y-16847531D01*
X5431967Y-16847531D02*
X5441491Y-16838008D01*
X5441491Y-16838008D02*
X5460539Y-16828484D01*
X5612920Y-17028484D02*
X5612920Y-16895150D01*
X5612920Y-16914198D02*
X5622443Y-16904674D01*
X5622443Y-16904674D02*
X5641491Y-16895150D01*
X5641491Y-16895150D02*
X5670063Y-16895150D01*
X5670063Y-16895150D02*
X5689110Y-16904674D01*
X5689110Y-16904674D02*
X5698634Y-16923722D01*
X5698634Y-16923722D02*
X5698634Y-17028484D01*
X5698634Y-16923722D02*
X5708158Y-16904674D01*
X5708158Y-16904674D02*
X5727205Y-16895150D01*
X5727205Y-16895150D02*
X5755777Y-16895150D01*
X5755777Y-16895150D02*
X5774824Y-16904674D01*
X5774824Y-16904674D02*
X5784348Y-16923722D01*
X5784348Y-16923722D02*
X5784348Y-17028484D01*
X5879586Y-17028484D02*
X5879586Y-16895150D01*
X5879586Y-16914198D02*
X5889110Y-16904674D01*
X5889110Y-16904674D02*
X5908158Y-16895150D01*
X5908158Y-16895150D02*
X5936729Y-16895150D01*
X5936729Y-16895150D02*
X5955777Y-16904674D01*
X5955777Y-16904674D02*
X5965301Y-16923722D01*
X5965301Y-16923722D02*
X5965301Y-17028484D01*
X5965301Y-16923722D02*
X5974824Y-16904674D01*
X5974824Y-16904674D02*
X5993872Y-16895150D01*
X5993872Y-16895150D02*
X6022443Y-16895150D01*
X6022443Y-16895150D02*
X6041491Y-16904674D01*
X6041491Y-16904674D02*
X6051015Y-16923722D01*
X6051015Y-16923722D02*
X6051015Y-17028484D01*
X6441491Y-16818960D02*
X6270063Y-17076103D01*
X6698634Y-16828484D02*
X6717682Y-16828484D01*
X6717682Y-16828484D02*
X6736729Y-16838008D01*
X6736729Y-16838008D02*
X6746253Y-16847531D01*
X6746253Y-16847531D02*
X6755777Y-16866579D01*
X6755777Y-16866579D02*
X6765301Y-16904674D01*
X6765301Y-16904674D02*
X6765301Y-16952293D01*
X6765301Y-16952293D02*
X6755777Y-16990389D01*
X6755777Y-16990389D02*
X6746253Y-17009436D01*
X6746253Y-17009436D02*
X6736729Y-17018960D01*
X6736729Y-17018960D02*
X6717682Y-17028484D01*
X6717682Y-17028484D02*
X6698634Y-17028484D01*
X6698634Y-17028484D02*
X6679586Y-17018960D01*
X6679586Y-17018960D02*
X6670063Y-17009436D01*
X6670063Y-17009436D02*
X6660539Y-16990389D01*
X6660539Y-16990389D02*
X6651015Y-16952293D01*
X6651015Y-16952293D02*
X6651015Y-16904674D01*
X6651015Y-16904674D02*
X6660539Y-16866579D01*
X6660539Y-16866579D02*
X6670063Y-16847531D01*
X6670063Y-16847531D02*
X6679586Y-16838008D01*
X6679586Y-16838008D02*
X6698634Y-16828484D01*
X6851015Y-17009436D02*
X6860539Y-17018960D01*
X6860539Y-17018960D02*
X6851015Y-17028484D01*
X6851015Y-17028484D02*
X6841491Y-17018960D01*
X6841491Y-17018960D02*
X6851015Y-17009436D01*
X6851015Y-17009436D02*
X6851015Y-17028484D01*
X6984348Y-16828484D02*
X7003396Y-16828484D01*
X7003396Y-16828484D02*
X7022444Y-16838008D01*
X7022444Y-16838008D02*
X7031967Y-16847531D01*
X7031967Y-16847531D02*
X7041491Y-16866579D01*
X7041491Y-16866579D02*
X7051015Y-16904674D01*
X7051015Y-16904674D02*
X7051015Y-16952293D01*
X7051015Y-16952293D02*
X7041491Y-16990389D01*
X7041491Y-16990389D02*
X7031967Y-17009436D01*
X7031967Y-17009436D02*
X7022444Y-17018960D01*
X7022444Y-17018960D02*
X7003396Y-17028484D01*
X7003396Y-17028484D02*
X6984348Y-17028484D01*
X6984348Y-17028484D02*
X6965301Y-17018960D01*
X6965301Y-17018960D02*
X6955777Y-17009436D01*
X6955777Y-17009436D02*
X6946253Y-16990389D01*
X6946253Y-16990389D02*
X6936729Y-16952293D01*
X6936729Y-16952293D02*
X6936729Y-16904674D01*
X6936729Y-16904674D02*
X6946253Y-16866579D01*
X6946253Y-16866579D02*
X6955777Y-16847531D01*
X6955777Y-16847531D02*
X6965301Y-16838008D01*
X6965301Y-16838008D02*
X6984348Y-16828484D01*
X7231967Y-16828484D02*
X7136729Y-16828484D01*
X7136729Y-16828484D02*
X7127206Y-16923722D01*
X7127206Y-16923722D02*
X7136729Y-16914198D01*
X7136729Y-16914198D02*
X7155777Y-16904674D01*
X7155777Y-16904674D02*
X7203396Y-16904674D01*
X7203396Y-16904674D02*
X7222444Y-16914198D01*
X7222444Y-16914198D02*
X7231967Y-16923722D01*
X7231967Y-16923722D02*
X7241491Y-16942770D01*
X7241491Y-16942770D02*
X7241491Y-16990389D01*
X7241491Y-16990389D02*
X7231967Y-17009436D01*
X7231967Y-17009436D02*
X7222444Y-17018960D01*
X7222444Y-17018960D02*
X7203396Y-17028484D01*
X7203396Y-17028484D02*
X7155777Y-17028484D01*
X7155777Y-17028484D02*
X7136729Y-17018960D01*
X7136729Y-17018960D02*
X7127206Y-17009436D01*
X7431967Y-17028484D02*
X7317682Y-17028484D01*
X7374825Y-17028484D02*
X7374825Y-16828484D01*
X7374825Y-16828484D02*
X7355777Y-16857055D01*
X7355777Y-16857055D02*
X7336729Y-16876103D01*
X7336729Y-16876103D02*
X7317682Y-16885627D01*
X7508158Y-16847531D02*
X7517682Y-16838008D01*
X7517682Y-16838008D02*
X7536729Y-16828484D01*
X7536729Y-16828484D02*
X7584348Y-16828484D01*
X7584348Y-16828484D02*
X7603396Y-16838008D01*
X7603396Y-16838008D02*
X7612920Y-16847531D01*
X7612920Y-16847531D02*
X7622444Y-16866579D01*
X7622444Y-16866579D02*
X7622444Y-16885627D01*
X7622444Y-16885627D02*
X7612920Y-16914198D01*
X7612920Y-16914198D02*
X7498634Y-17028484D01*
X7498634Y-17028484D02*
X7622444Y-17028484D01*
X7698634Y-16828484D02*
X7698634Y-16866579D01*
X7774825Y-16828484D02*
X7774825Y-16866579D01*
X8070063Y-17104674D02*
X8060539Y-17095150D01*
X8060539Y-17095150D02*
X8041491Y-17066579D01*
X8041491Y-17066579D02*
X8031968Y-17047531D01*
X8031968Y-17047531D02*
X8022444Y-17018960D01*
X8022444Y-17018960D02*
X8012920Y-16971341D01*
X8012920Y-16971341D02*
X8012920Y-16933246D01*
X8012920Y-16933246D02*
X8022444Y-16885627D01*
X8022444Y-16885627D02*
X8031968Y-16857055D01*
X8031968Y-16857055D02*
X8041491Y-16838008D01*
X8041491Y-16838008D02*
X8060539Y-16809436D01*
X8060539Y-16809436D02*
X8070063Y-16799912D01*
X8231968Y-16828484D02*
X8193872Y-16828484D01*
X8193872Y-16828484D02*
X8174825Y-16838008D01*
X8174825Y-16838008D02*
X8165301Y-16847531D01*
X8165301Y-16847531D02*
X8146253Y-16876103D01*
X8146253Y-16876103D02*
X8136729Y-16914198D01*
X8136729Y-16914198D02*
X8136729Y-16990389D01*
X8136729Y-16990389D02*
X8146253Y-17009436D01*
X8146253Y-17009436D02*
X8155777Y-17018960D01*
X8155777Y-17018960D02*
X8174825Y-17028484D01*
X8174825Y-17028484D02*
X8212920Y-17028484D01*
X8212920Y-17028484D02*
X8231968Y-17018960D01*
X8231968Y-17018960D02*
X8241491Y-17009436D01*
X8241491Y-17009436D02*
X8251015Y-16990389D01*
X8251015Y-16990389D02*
X8251015Y-16942770D01*
X8251015Y-16942770D02*
X8241491Y-16923722D01*
X8241491Y-16923722D02*
X8231968Y-16914198D01*
X8231968Y-16914198D02*
X8212920Y-16904674D01*
X8212920Y-16904674D02*
X8174825Y-16904674D01*
X8174825Y-16904674D02*
X8155777Y-16914198D01*
X8155777Y-16914198D02*
X8146253Y-16923722D01*
X8146253Y-16923722D02*
X8136729Y-16942770D01*
X8489111Y-17028484D02*
X8489111Y-16828484D01*
X8574825Y-17028484D02*
X8574825Y-16923722D01*
X8574825Y-16923722D02*
X8565301Y-16904674D01*
X8565301Y-16904674D02*
X8546253Y-16895150D01*
X8546253Y-16895150D02*
X8517682Y-16895150D01*
X8517682Y-16895150D02*
X8498634Y-16904674D01*
X8498634Y-16904674D02*
X8489111Y-16914198D01*
X8698634Y-17028484D02*
X8679587Y-17018960D01*
X8679587Y-17018960D02*
X8670063Y-17009436D01*
X8670063Y-17009436D02*
X8660539Y-16990389D01*
X8660539Y-16990389D02*
X8660539Y-16933246D01*
X8660539Y-16933246D02*
X8670063Y-16914198D01*
X8670063Y-16914198D02*
X8679587Y-16904674D01*
X8679587Y-16904674D02*
X8698634Y-16895150D01*
X8698634Y-16895150D02*
X8727206Y-16895150D01*
X8727206Y-16895150D02*
X8746253Y-16904674D01*
X8746253Y-16904674D02*
X8755777Y-16914198D01*
X8755777Y-16914198D02*
X8765301Y-16933246D01*
X8765301Y-16933246D02*
X8765301Y-16990389D01*
X8765301Y-16990389D02*
X8755777Y-17009436D01*
X8755777Y-17009436D02*
X8746253Y-17018960D01*
X8746253Y-17018960D02*
X8727206Y-17028484D01*
X8727206Y-17028484D02*
X8698634Y-17028484D01*
X8879587Y-17028484D02*
X8860539Y-17018960D01*
X8860539Y-17018960D02*
X8851015Y-16999912D01*
X8851015Y-16999912D02*
X8851015Y-16828484D01*
X9031968Y-17018960D02*
X9012920Y-17028484D01*
X9012920Y-17028484D02*
X8974825Y-17028484D01*
X8974825Y-17028484D02*
X8955777Y-17018960D01*
X8955777Y-17018960D02*
X8946253Y-16999912D01*
X8946253Y-16999912D02*
X8946253Y-16923722D01*
X8946253Y-16923722D02*
X8955777Y-16904674D01*
X8955777Y-16904674D02*
X8974825Y-16895150D01*
X8974825Y-16895150D02*
X9012920Y-16895150D01*
X9012920Y-16895150D02*
X9031968Y-16904674D01*
X9031968Y-16904674D02*
X9041492Y-16923722D01*
X9041492Y-16923722D02*
X9041492Y-16942770D01*
X9041492Y-16942770D02*
X8946253Y-16961817D01*
X9117682Y-17018960D02*
X9136730Y-17028484D01*
X9136730Y-17028484D02*
X9174825Y-17028484D01*
X9174825Y-17028484D02*
X9193873Y-17018960D01*
X9193873Y-17018960D02*
X9203396Y-16999912D01*
X9203396Y-16999912D02*
X9203396Y-16990389D01*
X9203396Y-16990389D02*
X9193873Y-16971341D01*
X9193873Y-16971341D02*
X9174825Y-16961817D01*
X9174825Y-16961817D02*
X9146253Y-16961817D01*
X9146253Y-16961817D02*
X9127206Y-16952293D01*
X9127206Y-16952293D02*
X9117682Y-16933246D01*
X9117682Y-16933246D02*
X9117682Y-16923722D01*
X9117682Y-16923722D02*
X9127206Y-16904674D01*
X9127206Y-16904674D02*
X9146253Y-16895150D01*
X9146253Y-16895150D02*
X9174825Y-16895150D01*
X9174825Y-16895150D02*
X9193873Y-16904674D01*
X9270063Y-17104674D02*
X9279587Y-17095150D01*
X9279587Y-17095150D02*
X9298634Y-17066579D01*
X9298634Y-17066579D02*
X9308158Y-17047531D01*
X9308158Y-17047531D02*
X9317682Y-17018960D01*
X9317682Y-17018960D02*
X9327206Y-16971341D01*
X9327206Y-16971341D02*
X9327206Y-16933246D01*
X9327206Y-16933246D02*
X9317682Y-16885627D01*
X9317682Y-16885627D02*
X9308158Y-16857055D01*
X9308158Y-16857055D02*
X9298634Y-16838008D01*
X9298634Y-16838008D02*
X9279587Y-16809436D01*
X9279587Y-16809436D02*
X9270063Y-16799912D01*
D14*
X4429976Y-17266024D02*
X4495000Y-17201000D01*
X4429976Y-17135976D01*
X4364952Y-17201000D01*
X4429976Y-17266024D01*
D11*
X4860539Y-17292484D02*
X4746253Y-17292484D01*
X4803396Y-17292484D02*
X4803396Y-17092484D01*
X4803396Y-17092484D02*
X4784348Y-17121055D01*
X4784348Y-17121055D02*
X4765301Y-17140103D01*
X4765301Y-17140103D02*
X4746253Y-17149627D01*
X4946253Y-17273436D02*
X4955777Y-17282960D01*
X4955777Y-17282960D02*
X4946253Y-17292484D01*
X4946253Y-17292484D02*
X4936729Y-17282960D01*
X4936729Y-17282960D02*
X4946253Y-17273436D01*
X4946253Y-17273436D02*
X4946253Y-17292484D01*
X5022444Y-17092484D02*
X5146253Y-17092484D01*
X5146253Y-17092484D02*
X5079586Y-17168674D01*
X5079586Y-17168674D02*
X5108158Y-17168674D01*
X5108158Y-17168674D02*
X5127205Y-17178198D01*
X5127205Y-17178198D02*
X5136729Y-17187722D01*
X5136729Y-17187722D02*
X5146253Y-17206770D01*
X5146253Y-17206770D02*
X5146253Y-17254389D01*
X5146253Y-17254389D02*
X5136729Y-17273436D01*
X5136729Y-17273436D02*
X5127205Y-17282960D01*
X5127205Y-17282960D02*
X5108158Y-17292484D01*
X5108158Y-17292484D02*
X5051015Y-17292484D01*
X5051015Y-17292484D02*
X5031967Y-17282960D01*
X5031967Y-17282960D02*
X5022444Y-17273436D01*
X5270063Y-17092484D02*
X5289110Y-17092484D01*
X5289110Y-17092484D02*
X5308158Y-17102008D01*
X5308158Y-17102008D02*
X5317682Y-17111531D01*
X5317682Y-17111531D02*
X5327205Y-17130579D01*
X5327205Y-17130579D02*
X5336729Y-17168674D01*
X5336729Y-17168674D02*
X5336729Y-17216293D01*
X5336729Y-17216293D02*
X5327205Y-17254389D01*
X5327205Y-17254389D02*
X5317682Y-17273436D01*
X5317682Y-17273436D02*
X5308158Y-17282960D01*
X5308158Y-17282960D02*
X5289110Y-17292484D01*
X5289110Y-17292484D02*
X5270063Y-17292484D01*
X5270063Y-17292484D02*
X5251015Y-17282960D01*
X5251015Y-17282960D02*
X5241491Y-17273436D01*
X5241491Y-17273436D02*
X5231967Y-17254389D01*
X5231967Y-17254389D02*
X5222444Y-17216293D01*
X5222444Y-17216293D02*
X5222444Y-17168674D01*
X5222444Y-17168674D02*
X5231967Y-17130579D01*
X5231967Y-17130579D02*
X5241491Y-17111531D01*
X5241491Y-17111531D02*
X5251015Y-17102008D01*
X5251015Y-17102008D02*
X5270063Y-17092484D01*
X5460539Y-17092484D02*
X5479586Y-17092484D01*
X5479586Y-17092484D02*
X5498634Y-17102008D01*
X5498634Y-17102008D02*
X5508158Y-17111531D01*
X5508158Y-17111531D02*
X5517682Y-17130579D01*
X5517682Y-17130579D02*
X5527205Y-17168674D01*
X5527205Y-17168674D02*
X5527205Y-17216293D01*
X5527205Y-17216293D02*
X5517682Y-17254389D01*
X5517682Y-17254389D02*
X5508158Y-17273436D01*
X5508158Y-17273436D02*
X5498634Y-17282960D01*
X5498634Y-17282960D02*
X5479586Y-17292484D01*
X5479586Y-17292484D02*
X5460539Y-17292484D01*
X5460539Y-17292484D02*
X5441491Y-17282960D01*
X5441491Y-17282960D02*
X5431967Y-17273436D01*
X5431967Y-17273436D02*
X5422444Y-17254389D01*
X5422444Y-17254389D02*
X5412920Y-17216293D01*
X5412920Y-17216293D02*
X5412920Y-17168674D01*
X5412920Y-17168674D02*
X5422444Y-17130579D01*
X5422444Y-17130579D02*
X5431967Y-17111531D01*
X5431967Y-17111531D02*
X5441491Y-17102008D01*
X5441491Y-17102008D02*
X5460539Y-17092484D01*
X5612920Y-17292484D02*
X5612920Y-17159150D01*
X5612920Y-17178198D02*
X5622443Y-17168674D01*
X5622443Y-17168674D02*
X5641491Y-17159150D01*
X5641491Y-17159150D02*
X5670063Y-17159150D01*
X5670063Y-17159150D02*
X5689110Y-17168674D01*
X5689110Y-17168674D02*
X5698634Y-17187722D01*
X5698634Y-17187722D02*
X5698634Y-17292484D01*
X5698634Y-17187722D02*
X5708158Y-17168674D01*
X5708158Y-17168674D02*
X5727205Y-17159150D01*
X5727205Y-17159150D02*
X5755777Y-17159150D01*
X5755777Y-17159150D02*
X5774824Y-17168674D01*
X5774824Y-17168674D02*
X5784348Y-17187722D01*
X5784348Y-17187722D02*
X5784348Y-17292484D01*
X5879586Y-17292484D02*
X5879586Y-17159150D01*
X5879586Y-17178198D02*
X5889110Y-17168674D01*
X5889110Y-17168674D02*
X5908158Y-17159150D01*
X5908158Y-17159150D02*
X5936729Y-17159150D01*
X5936729Y-17159150D02*
X5955777Y-17168674D01*
X5955777Y-17168674D02*
X5965301Y-17187722D01*
X5965301Y-17187722D02*
X5965301Y-17292484D01*
X5965301Y-17187722D02*
X5974824Y-17168674D01*
X5974824Y-17168674D02*
X5993872Y-17159150D01*
X5993872Y-17159150D02*
X6022443Y-17159150D01*
X6022443Y-17159150D02*
X6041491Y-17168674D01*
X6041491Y-17168674D02*
X6051015Y-17187722D01*
X6051015Y-17187722D02*
X6051015Y-17292484D01*
X6441491Y-17082960D02*
X6270063Y-17340103D01*
X6698634Y-17092484D02*
X6717682Y-17092484D01*
X6717682Y-17092484D02*
X6736729Y-17102008D01*
X6736729Y-17102008D02*
X6746253Y-17111531D01*
X6746253Y-17111531D02*
X6755777Y-17130579D01*
X6755777Y-17130579D02*
X6765301Y-17168674D01*
X6765301Y-17168674D02*
X6765301Y-17216293D01*
X6765301Y-17216293D02*
X6755777Y-17254389D01*
X6755777Y-17254389D02*
X6746253Y-17273436D01*
X6746253Y-17273436D02*
X6736729Y-17282960D01*
X6736729Y-17282960D02*
X6717682Y-17292484D01*
X6717682Y-17292484D02*
X6698634Y-17292484D01*
X6698634Y-17292484D02*
X6679586Y-17282960D01*
X6679586Y-17282960D02*
X6670063Y-17273436D01*
X6670063Y-17273436D02*
X6660539Y-17254389D01*
X6660539Y-17254389D02*
X6651015Y-17216293D01*
X6651015Y-17216293D02*
X6651015Y-17168674D01*
X6651015Y-17168674D02*
X6660539Y-17130579D01*
X6660539Y-17130579D02*
X6670063Y-17111531D01*
X6670063Y-17111531D02*
X6679586Y-17102008D01*
X6679586Y-17102008D02*
X6698634Y-17092484D01*
X6851015Y-17273436D02*
X6860539Y-17282960D01*
X6860539Y-17282960D02*
X6851015Y-17292484D01*
X6851015Y-17292484D02*
X6841491Y-17282960D01*
X6841491Y-17282960D02*
X6851015Y-17273436D01*
X6851015Y-17273436D02*
X6851015Y-17292484D01*
X6984348Y-17092484D02*
X7003396Y-17092484D01*
X7003396Y-17092484D02*
X7022444Y-17102008D01*
X7022444Y-17102008D02*
X7031967Y-17111531D01*
X7031967Y-17111531D02*
X7041491Y-17130579D01*
X7041491Y-17130579D02*
X7051015Y-17168674D01*
X7051015Y-17168674D02*
X7051015Y-17216293D01*
X7051015Y-17216293D02*
X7041491Y-17254389D01*
X7041491Y-17254389D02*
X7031967Y-17273436D01*
X7031967Y-17273436D02*
X7022444Y-17282960D01*
X7022444Y-17282960D02*
X7003396Y-17292484D01*
X7003396Y-17292484D02*
X6984348Y-17292484D01*
X6984348Y-17292484D02*
X6965301Y-17282960D01*
X6965301Y-17282960D02*
X6955777Y-17273436D01*
X6955777Y-17273436D02*
X6946253Y-17254389D01*
X6946253Y-17254389D02*
X6936729Y-17216293D01*
X6936729Y-17216293D02*
X6936729Y-17168674D01*
X6936729Y-17168674D02*
X6946253Y-17130579D01*
X6946253Y-17130579D02*
X6955777Y-17111531D01*
X6955777Y-17111531D02*
X6965301Y-17102008D01*
X6965301Y-17102008D02*
X6984348Y-17092484D01*
X7231967Y-17092484D02*
X7136729Y-17092484D01*
X7136729Y-17092484D02*
X7127206Y-17187722D01*
X7127206Y-17187722D02*
X7136729Y-17178198D01*
X7136729Y-17178198D02*
X7155777Y-17168674D01*
X7155777Y-17168674D02*
X7203396Y-17168674D01*
X7203396Y-17168674D02*
X7222444Y-17178198D01*
X7222444Y-17178198D02*
X7231967Y-17187722D01*
X7231967Y-17187722D02*
X7241491Y-17206770D01*
X7241491Y-17206770D02*
X7241491Y-17254389D01*
X7241491Y-17254389D02*
X7231967Y-17273436D01*
X7231967Y-17273436D02*
X7222444Y-17282960D01*
X7222444Y-17282960D02*
X7203396Y-17292484D01*
X7203396Y-17292484D02*
X7155777Y-17292484D01*
X7155777Y-17292484D02*
X7136729Y-17282960D01*
X7136729Y-17282960D02*
X7127206Y-17273436D01*
X7431967Y-17292484D02*
X7317682Y-17292484D01*
X7374825Y-17292484D02*
X7374825Y-17092484D01*
X7374825Y-17092484D02*
X7355777Y-17121055D01*
X7355777Y-17121055D02*
X7336729Y-17140103D01*
X7336729Y-17140103D02*
X7317682Y-17149627D01*
X7508158Y-17111531D02*
X7517682Y-17102008D01*
X7517682Y-17102008D02*
X7536729Y-17092484D01*
X7536729Y-17092484D02*
X7584348Y-17092484D01*
X7584348Y-17092484D02*
X7603396Y-17102008D01*
X7603396Y-17102008D02*
X7612920Y-17111531D01*
X7612920Y-17111531D02*
X7622444Y-17130579D01*
X7622444Y-17130579D02*
X7622444Y-17149627D01*
X7622444Y-17149627D02*
X7612920Y-17178198D01*
X7612920Y-17178198D02*
X7498634Y-17292484D01*
X7498634Y-17292484D02*
X7622444Y-17292484D01*
X7698634Y-17092484D02*
X7698634Y-17130579D01*
X7774825Y-17092484D02*
X7774825Y-17130579D01*
X8070063Y-17368674D02*
X8060539Y-17359150D01*
X8060539Y-17359150D02*
X8041491Y-17330579D01*
X8041491Y-17330579D02*
X8031968Y-17311531D01*
X8031968Y-17311531D02*
X8022444Y-17282960D01*
X8022444Y-17282960D02*
X8012920Y-17235341D01*
X8012920Y-17235341D02*
X8012920Y-17197246D01*
X8012920Y-17197246D02*
X8022444Y-17149627D01*
X8022444Y-17149627D02*
X8031968Y-17121055D01*
X8031968Y-17121055D02*
X8041491Y-17102008D01*
X8041491Y-17102008D02*
X8060539Y-17073436D01*
X8060539Y-17073436D02*
X8070063Y-17063912D01*
X8251015Y-17292484D02*
X8136729Y-17292484D01*
X8193872Y-17292484D02*
X8193872Y-17092484D01*
X8193872Y-17092484D02*
X8174825Y-17121055D01*
X8174825Y-17121055D02*
X8155777Y-17140103D01*
X8155777Y-17140103D02*
X8136729Y-17149627D01*
X8374825Y-17092484D02*
X8393872Y-17092484D01*
X8393872Y-17092484D02*
X8412920Y-17102008D01*
X8412920Y-17102008D02*
X8422444Y-17111531D01*
X8422444Y-17111531D02*
X8431968Y-17130579D01*
X8431968Y-17130579D02*
X8441491Y-17168674D01*
X8441491Y-17168674D02*
X8441491Y-17216293D01*
X8441491Y-17216293D02*
X8431968Y-17254389D01*
X8431968Y-17254389D02*
X8422444Y-17273436D01*
X8422444Y-17273436D02*
X8412920Y-17282960D01*
X8412920Y-17282960D02*
X8393872Y-17292484D01*
X8393872Y-17292484D02*
X8374825Y-17292484D01*
X8374825Y-17292484D02*
X8355777Y-17282960D01*
X8355777Y-17282960D02*
X8346253Y-17273436D01*
X8346253Y-17273436D02*
X8336729Y-17254389D01*
X8336729Y-17254389D02*
X8327206Y-17216293D01*
X8327206Y-17216293D02*
X8327206Y-17168674D01*
X8327206Y-17168674D02*
X8336729Y-17130579D01*
X8336729Y-17130579D02*
X8346253Y-17111531D01*
X8346253Y-17111531D02*
X8355777Y-17102008D01*
X8355777Y-17102008D02*
X8374825Y-17092484D01*
X8679587Y-17292484D02*
X8679587Y-17092484D01*
X8765301Y-17292484D02*
X8765301Y-17187722D01*
X8765301Y-17187722D02*
X8755777Y-17168674D01*
X8755777Y-17168674D02*
X8736730Y-17159150D01*
X8736730Y-17159150D02*
X8708158Y-17159150D01*
X8708158Y-17159150D02*
X8689111Y-17168674D01*
X8689111Y-17168674D02*
X8679587Y-17178198D01*
X8889111Y-17292484D02*
X8870063Y-17282960D01*
X8870063Y-17282960D02*
X8860539Y-17273436D01*
X8860539Y-17273436D02*
X8851015Y-17254389D01*
X8851015Y-17254389D02*
X8851015Y-17197246D01*
X8851015Y-17197246D02*
X8860539Y-17178198D01*
X8860539Y-17178198D02*
X8870063Y-17168674D01*
X8870063Y-17168674D02*
X8889111Y-17159150D01*
X8889111Y-17159150D02*
X8917682Y-17159150D01*
X8917682Y-17159150D02*
X8936730Y-17168674D01*
X8936730Y-17168674D02*
X8946253Y-17178198D01*
X8946253Y-17178198D02*
X8955777Y-17197246D01*
X8955777Y-17197246D02*
X8955777Y-17254389D01*
X8955777Y-17254389D02*
X8946253Y-17273436D01*
X8946253Y-17273436D02*
X8936730Y-17282960D01*
X8936730Y-17282960D02*
X8917682Y-17292484D01*
X8917682Y-17292484D02*
X8889111Y-17292484D01*
X9070063Y-17292484D02*
X9051015Y-17282960D01*
X9051015Y-17282960D02*
X9041492Y-17263912D01*
X9041492Y-17263912D02*
X9041492Y-17092484D01*
X9222444Y-17282960D02*
X9203396Y-17292484D01*
X9203396Y-17292484D02*
X9165301Y-17292484D01*
X9165301Y-17292484D02*
X9146253Y-17282960D01*
X9146253Y-17282960D02*
X9136730Y-17263912D01*
X9136730Y-17263912D02*
X9136730Y-17187722D01*
X9136730Y-17187722D02*
X9146253Y-17168674D01*
X9146253Y-17168674D02*
X9165301Y-17159150D01*
X9165301Y-17159150D02*
X9203396Y-17159150D01*
X9203396Y-17159150D02*
X9222444Y-17168674D01*
X9222444Y-17168674D02*
X9231968Y-17187722D01*
X9231968Y-17187722D02*
X9231968Y-17206770D01*
X9231968Y-17206770D02*
X9136730Y-17225817D01*
X9308158Y-17282960D02*
X9327206Y-17292484D01*
X9327206Y-17292484D02*
X9365301Y-17292484D01*
X9365301Y-17292484D02*
X9384349Y-17282960D01*
X9384349Y-17282960D02*
X9393873Y-17263912D01*
X9393873Y-17263912D02*
X9393873Y-17254389D01*
X9393873Y-17254389D02*
X9384349Y-17235341D01*
X9384349Y-17235341D02*
X9365301Y-17225817D01*
X9365301Y-17225817D02*
X9336730Y-17225817D01*
X9336730Y-17225817D02*
X9317682Y-17216293D01*
X9317682Y-17216293D02*
X9308158Y-17197246D01*
X9308158Y-17197246D02*
X9308158Y-17187722D01*
X9308158Y-17187722D02*
X9317682Y-17168674D01*
X9317682Y-17168674D02*
X9336730Y-17159150D01*
X9336730Y-17159150D02*
X9365301Y-17159150D01*
X9365301Y-17159150D02*
X9384349Y-17168674D01*
X9460539Y-17368674D02*
X9470063Y-17359150D01*
X9470063Y-17359150D02*
X9489111Y-17330579D01*
X9489111Y-17330579D02*
X9498634Y-17311531D01*
X9498634Y-17311531D02*
X9508158Y-17282960D01*
X9508158Y-17282960D02*
X9517682Y-17235341D01*
X9517682Y-17235341D02*
X9517682Y-17197246D01*
X9517682Y-17197246D02*
X9508158Y-17149627D01*
X9508158Y-17149627D02*
X9498634Y-17121055D01*
X9498634Y-17121055D02*
X9489111Y-17102008D01*
X9489111Y-17102008D02*
X9470063Y-17073436D01*
X9470063Y-17073436D02*
X9460539Y-17063912D01*
D15*
X4335000Y-17385000D02*
X4495000Y-17545000D01*
X4495000Y-17385000D02*
X4335000Y-17545000D01*
X4495000Y-17465000D02*
G75*
G02*
X4335000Y-17465000I-80000J0D01*
G01*
X4335000Y-17465000D02*
G75*
G02*
X4495000Y-17465000I80000J0D01*
G01*
D11*
X4860539Y-17556484D02*
X4746253Y-17556484D01*
X4803396Y-17556484D02*
X4803396Y-17356484D01*
X4803396Y-17356484D02*
X4784348Y-17385055D01*
X4784348Y-17385055D02*
X4765301Y-17404103D01*
X4765301Y-17404103D02*
X4746253Y-17413627D01*
X4946253Y-17537436D02*
X4955777Y-17546960D01*
X4955777Y-17546960D02*
X4946253Y-17556484D01*
X4946253Y-17556484D02*
X4936729Y-17546960D01*
X4936729Y-17546960D02*
X4946253Y-17537436D01*
X4946253Y-17537436D02*
X4946253Y-17556484D01*
X5127205Y-17356484D02*
X5089110Y-17356484D01*
X5089110Y-17356484D02*
X5070063Y-17366008D01*
X5070063Y-17366008D02*
X5060539Y-17375531D01*
X5060539Y-17375531D02*
X5041491Y-17404103D01*
X5041491Y-17404103D02*
X5031967Y-17442198D01*
X5031967Y-17442198D02*
X5031967Y-17518389D01*
X5031967Y-17518389D02*
X5041491Y-17537436D01*
X5041491Y-17537436D02*
X5051015Y-17546960D01*
X5051015Y-17546960D02*
X5070063Y-17556484D01*
X5070063Y-17556484D02*
X5108158Y-17556484D01*
X5108158Y-17556484D02*
X5127205Y-17546960D01*
X5127205Y-17546960D02*
X5136729Y-17537436D01*
X5136729Y-17537436D02*
X5146253Y-17518389D01*
X5146253Y-17518389D02*
X5146253Y-17470770D01*
X5146253Y-17470770D02*
X5136729Y-17451722D01*
X5136729Y-17451722D02*
X5127205Y-17442198D01*
X5127205Y-17442198D02*
X5108158Y-17432674D01*
X5108158Y-17432674D02*
X5070063Y-17432674D01*
X5070063Y-17432674D02*
X5051015Y-17442198D01*
X5051015Y-17442198D02*
X5041491Y-17451722D01*
X5041491Y-17451722D02*
X5031967Y-17470770D01*
X5270063Y-17356484D02*
X5289110Y-17356484D01*
X5289110Y-17356484D02*
X5308158Y-17366008D01*
X5308158Y-17366008D02*
X5317682Y-17375531D01*
X5317682Y-17375531D02*
X5327205Y-17394579D01*
X5327205Y-17394579D02*
X5336729Y-17432674D01*
X5336729Y-17432674D02*
X5336729Y-17480293D01*
X5336729Y-17480293D02*
X5327205Y-17518389D01*
X5327205Y-17518389D02*
X5317682Y-17537436D01*
X5317682Y-17537436D02*
X5308158Y-17546960D01*
X5308158Y-17546960D02*
X5289110Y-17556484D01*
X5289110Y-17556484D02*
X5270063Y-17556484D01*
X5270063Y-17556484D02*
X5251015Y-17546960D01*
X5251015Y-17546960D02*
X5241491Y-17537436D01*
X5241491Y-17537436D02*
X5231967Y-17518389D01*
X5231967Y-17518389D02*
X5222444Y-17480293D01*
X5222444Y-17480293D02*
X5222444Y-17432674D01*
X5222444Y-17432674D02*
X5231967Y-17394579D01*
X5231967Y-17394579D02*
X5241491Y-17375531D01*
X5241491Y-17375531D02*
X5251015Y-17366008D01*
X5251015Y-17366008D02*
X5270063Y-17356484D01*
X5460539Y-17356484D02*
X5479586Y-17356484D01*
X5479586Y-17356484D02*
X5498634Y-17366008D01*
X5498634Y-17366008D02*
X5508158Y-17375531D01*
X5508158Y-17375531D02*
X5517682Y-17394579D01*
X5517682Y-17394579D02*
X5527205Y-17432674D01*
X5527205Y-17432674D02*
X5527205Y-17480293D01*
X5527205Y-17480293D02*
X5517682Y-17518389D01*
X5517682Y-17518389D02*
X5508158Y-17537436D01*
X5508158Y-17537436D02*
X5498634Y-17546960D01*
X5498634Y-17546960D02*
X5479586Y-17556484D01*
X5479586Y-17556484D02*
X5460539Y-17556484D01*
X5460539Y-17556484D02*
X5441491Y-17546960D01*
X5441491Y-17546960D02*
X5431967Y-17537436D01*
X5431967Y-17537436D02*
X5422444Y-17518389D01*
X5422444Y-17518389D02*
X5412920Y-17480293D01*
X5412920Y-17480293D02*
X5412920Y-17432674D01*
X5412920Y-17432674D02*
X5422444Y-17394579D01*
X5422444Y-17394579D02*
X5431967Y-17375531D01*
X5431967Y-17375531D02*
X5441491Y-17366008D01*
X5441491Y-17366008D02*
X5460539Y-17356484D01*
X5612920Y-17556484D02*
X5612920Y-17423150D01*
X5612920Y-17442198D02*
X5622443Y-17432674D01*
X5622443Y-17432674D02*
X5641491Y-17423150D01*
X5641491Y-17423150D02*
X5670063Y-17423150D01*
X5670063Y-17423150D02*
X5689110Y-17432674D01*
X5689110Y-17432674D02*
X5698634Y-17451722D01*
X5698634Y-17451722D02*
X5698634Y-17556484D01*
X5698634Y-17451722D02*
X5708158Y-17432674D01*
X5708158Y-17432674D02*
X5727205Y-17423150D01*
X5727205Y-17423150D02*
X5755777Y-17423150D01*
X5755777Y-17423150D02*
X5774824Y-17432674D01*
X5774824Y-17432674D02*
X5784348Y-17451722D01*
X5784348Y-17451722D02*
X5784348Y-17556484D01*
X5879586Y-17556484D02*
X5879586Y-17423150D01*
X5879586Y-17442198D02*
X5889110Y-17432674D01*
X5889110Y-17432674D02*
X5908158Y-17423150D01*
X5908158Y-17423150D02*
X5936729Y-17423150D01*
X5936729Y-17423150D02*
X5955777Y-17432674D01*
X5955777Y-17432674D02*
X5965301Y-17451722D01*
X5965301Y-17451722D02*
X5965301Y-17556484D01*
X5965301Y-17451722D02*
X5974824Y-17432674D01*
X5974824Y-17432674D02*
X5993872Y-17423150D01*
X5993872Y-17423150D02*
X6022443Y-17423150D01*
X6022443Y-17423150D02*
X6041491Y-17432674D01*
X6041491Y-17432674D02*
X6051015Y-17451722D01*
X6051015Y-17451722D02*
X6051015Y-17556484D01*
X6441491Y-17346960D02*
X6270063Y-17604103D01*
X6698634Y-17356484D02*
X6717682Y-17356484D01*
X6717682Y-17356484D02*
X6736729Y-17366008D01*
X6736729Y-17366008D02*
X6746253Y-17375531D01*
X6746253Y-17375531D02*
X6755777Y-17394579D01*
X6755777Y-17394579D02*
X6765301Y-17432674D01*
X6765301Y-17432674D02*
X6765301Y-17480293D01*
X6765301Y-17480293D02*
X6755777Y-17518389D01*
X6755777Y-17518389D02*
X6746253Y-17537436D01*
X6746253Y-17537436D02*
X6736729Y-17546960D01*
X6736729Y-17546960D02*
X6717682Y-17556484D01*
X6717682Y-17556484D02*
X6698634Y-17556484D01*
X6698634Y-17556484D02*
X6679586Y-17546960D01*
X6679586Y-17546960D02*
X6670063Y-17537436D01*
X6670063Y-17537436D02*
X6660539Y-17518389D01*
X6660539Y-17518389D02*
X6651015Y-17480293D01*
X6651015Y-17480293D02*
X6651015Y-17432674D01*
X6651015Y-17432674D02*
X6660539Y-17394579D01*
X6660539Y-17394579D02*
X6670063Y-17375531D01*
X6670063Y-17375531D02*
X6679586Y-17366008D01*
X6679586Y-17366008D02*
X6698634Y-17356484D01*
X6851015Y-17537436D02*
X6860539Y-17546960D01*
X6860539Y-17546960D02*
X6851015Y-17556484D01*
X6851015Y-17556484D02*
X6841491Y-17546960D01*
X6841491Y-17546960D02*
X6851015Y-17537436D01*
X6851015Y-17537436D02*
X6851015Y-17556484D01*
X6984348Y-17356484D02*
X7003396Y-17356484D01*
X7003396Y-17356484D02*
X7022444Y-17366008D01*
X7022444Y-17366008D02*
X7031967Y-17375531D01*
X7031967Y-17375531D02*
X7041491Y-17394579D01*
X7041491Y-17394579D02*
X7051015Y-17432674D01*
X7051015Y-17432674D02*
X7051015Y-17480293D01*
X7051015Y-17480293D02*
X7041491Y-17518389D01*
X7041491Y-17518389D02*
X7031967Y-17537436D01*
X7031967Y-17537436D02*
X7022444Y-17546960D01*
X7022444Y-17546960D02*
X7003396Y-17556484D01*
X7003396Y-17556484D02*
X6984348Y-17556484D01*
X6984348Y-17556484D02*
X6965301Y-17546960D01*
X6965301Y-17546960D02*
X6955777Y-17537436D01*
X6955777Y-17537436D02*
X6946253Y-17518389D01*
X6946253Y-17518389D02*
X6936729Y-17480293D01*
X6936729Y-17480293D02*
X6936729Y-17432674D01*
X6936729Y-17432674D02*
X6946253Y-17394579D01*
X6946253Y-17394579D02*
X6955777Y-17375531D01*
X6955777Y-17375531D02*
X6965301Y-17366008D01*
X6965301Y-17366008D02*
X6984348Y-17356484D01*
X7222444Y-17356484D02*
X7184348Y-17356484D01*
X7184348Y-17356484D02*
X7165301Y-17366008D01*
X7165301Y-17366008D02*
X7155777Y-17375531D01*
X7155777Y-17375531D02*
X7136729Y-17404103D01*
X7136729Y-17404103D02*
X7127206Y-17442198D01*
X7127206Y-17442198D02*
X7127206Y-17518389D01*
X7127206Y-17518389D02*
X7136729Y-17537436D01*
X7136729Y-17537436D02*
X7146253Y-17546960D01*
X7146253Y-17546960D02*
X7165301Y-17556484D01*
X7165301Y-17556484D02*
X7203396Y-17556484D01*
X7203396Y-17556484D02*
X7222444Y-17546960D01*
X7222444Y-17546960D02*
X7231967Y-17537436D01*
X7231967Y-17537436D02*
X7241491Y-17518389D01*
X7241491Y-17518389D02*
X7241491Y-17470770D01*
X7241491Y-17470770D02*
X7231967Y-17451722D01*
X7231967Y-17451722D02*
X7222444Y-17442198D01*
X7222444Y-17442198D02*
X7203396Y-17432674D01*
X7203396Y-17432674D02*
X7165301Y-17432674D01*
X7165301Y-17432674D02*
X7146253Y-17442198D01*
X7146253Y-17442198D02*
X7136729Y-17451722D01*
X7136729Y-17451722D02*
X7127206Y-17470770D01*
X7308158Y-17356484D02*
X7431967Y-17356484D01*
X7431967Y-17356484D02*
X7365301Y-17432674D01*
X7365301Y-17432674D02*
X7393872Y-17432674D01*
X7393872Y-17432674D02*
X7412920Y-17442198D01*
X7412920Y-17442198D02*
X7422444Y-17451722D01*
X7422444Y-17451722D02*
X7431967Y-17470770D01*
X7431967Y-17470770D02*
X7431967Y-17518389D01*
X7431967Y-17518389D02*
X7422444Y-17537436D01*
X7422444Y-17537436D02*
X7412920Y-17546960D01*
X7412920Y-17546960D02*
X7393872Y-17556484D01*
X7393872Y-17556484D02*
X7336729Y-17556484D01*
X7336729Y-17556484D02*
X7317682Y-17546960D01*
X7317682Y-17546960D02*
X7308158Y-17537436D01*
X7555777Y-17356484D02*
X7574825Y-17356484D01*
X7574825Y-17356484D02*
X7593872Y-17366008D01*
X7593872Y-17366008D02*
X7603396Y-17375531D01*
X7603396Y-17375531D02*
X7612920Y-17394579D01*
X7612920Y-17394579D02*
X7622444Y-17432674D01*
X7622444Y-17432674D02*
X7622444Y-17480293D01*
X7622444Y-17480293D02*
X7612920Y-17518389D01*
X7612920Y-17518389D02*
X7603396Y-17537436D01*
X7603396Y-17537436D02*
X7593872Y-17546960D01*
X7593872Y-17546960D02*
X7574825Y-17556484D01*
X7574825Y-17556484D02*
X7555777Y-17556484D01*
X7555777Y-17556484D02*
X7536729Y-17546960D01*
X7536729Y-17546960D02*
X7527206Y-17537436D01*
X7527206Y-17537436D02*
X7517682Y-17518389D01*
X7517682Y-17518389D02*
X7508158Y-17480293D01*
X7508158Y-17480293D02*
X7508158Y-17432674D01*
X7508158Y-17432674D02*
X7517682Y-17394579D01*
X7517682Y-17394579D02*
X7527206Y-17375531D01*
X7527206Y-17375531D02*
X7536729Y-17366008D01*
X7536729Y-17366008D02*
X7555777Y-17356484D01*
X7698634Y-17356484D02*
X7698634Y-17394579D01*
X7774825Y-17356484D02*
X7774825Y-17394579D01*
X8070063Y-17632674D02*
X8060539Y-17623150D01*
X8060539Y-17623150D02*
X8041491Y-17594579D01*
X8041491Y-17594579D02*
X8031968Y-17575531D01*
X8031968Y-17575531D02*
X8022444Y-17546960D01*
X8022444Y-17546960D02*
X8012920Y-17499341D01*
X8012920Y-17499341D02*
X8012920Y-17461246D01*
X8012920Y-17461246D02*
X8022444Y-17413627D01*
X8022444Y-17413627D02*
X8031968Y-17385055D01*
X8031968Y-17385055D02*
X8041491Y-17366008D01*
X8041491Y-17366008D02*
X8060539Y-17337436D01*
X8060539Y-17337436D02*
X8070063Y-17327912D01*
X8251015Y-17556484D02*
X8136729Y-17556484D01*
X8193872Y-17556484D02*
X8193872Y-17356484D01*
X8193872Y-17356484D02*
X8174825Y-17385055D01*
X8174825Y-17385055D02*
X8155777Y-17404103D01*
X8155777Y-17404103D02*
X8136729Y-17413627D01*
X8327206Y-17375531D02*
X8336729Y-17366008D01*
X8336729Y-17366008D02*
X8355777Y-17356484D01*
X8355777Y-17356484D02*
X8403396Y-17356484D01*
X8403396Y-17356484D02*
X8422444Y-17366008D01*
X8422444Y-17366008D02*
X8431968Y-17375531D01*
X8431968Y-17375531D02*
X8441491Y-17394579D01*
X8441491Y-17394579D02*
X8441491Y-17413627D01*
X8441491Y-17413627D02*
X8431968Y-17442198D01*
X8431968Y-17442198D02*
X8317682Y-17556484D01*
X8317682Y-17556484D02*
X8441491Y-17556484D01*
X8679587Y-17556484D02*
X8679587Y-17356484D01*
X8765301Y-17556484D02*
X8765301Y-17451722D01*
X8765301Y-17451722D02*
X8755777Y-17432674D01*
X8755777Y-17432674D02*
X8736730Y-17423150D01*
X8736730Y-17423150D02*
X8708158Y-17423150D01*
X8708158Y-17423150D02*
X8689111Y-17432674D01*
X8689111Y-17432674D02*
X8679587Y-17442198D01*
X8889111Y-17556484D02*
X8870063Y-17546960D01*
X8870063Y-17546960D02*
X8860539Y-17537436D01*
X8860539Y-17537436D02*
X8851015Y-17518389D01*
X8851015Y-17518389D02*
X8851015Y-17461246D01*
X8851015Y-17461246D02*
X8860539Y-17442198D01*
X8860539Y-17442198D02*
X8870063Y-17432674D01*
X8870063Y-17432674D02*
X8889111Y-17423150D01*
X8889111Y-17423150D02*
X8917682Y-17423150D01*
X8917682Y-17423150D02*
X8936730Y-17432674D01*
X8936730Y-17432674D02*
X8946253Y-17442198D01*
X8946253Y-17442198D02*
X8955777Y-17461246D01*
X8955777Y-17461246D02*
X8955777Y-17518389D01*
X8955777Y-17518389D02*
X8946253Y-17537436D01*
X8946253Y-17537436D02*
X8936730Y-17546960D01*
X8936730Y-17546960D02*
X8917682Y-17556484D01*
X8917682Y-17556484D02*
X8889111Y-17556484D01*
X9070063Y-17556484D02*
X9051015Y-17546960D01*
X9051015Y-17546960D02*
X9041492Y-17527912D01*
X9041492Y-17527912D02*
X9041492Y-17356484D01*
X9222444Y-17546960D02*
X9203396Y-17556484D01*
X9203396Y-17556484D02*
X9165301Y-17556484D01*
X9165301Y-17556484D02*
X9146253Y-17546960D01*
X9146253Y-17546960D02*
X9136730Y-17527912D01*
X9136730Y-17527912D02*
X9136730Y-17451722D01*
X9136730Y-17451722D02*
X9146253Y-17432674D01*
X9146253Y-17432674D02*
X9165301Y-17423150D01*
X9165301Y-17423150D02*
X9203396Y-17423150D01*
X9203396Y-17423150D02*
X9222444Y-17432674D01*
X9222444Y-17432674D02*
X9231968Y-17451722D01*
X9231968Y-17451722D02*
X9231968Y-17470770D01*
X9231968Y-17470770D02*
X9136730Y-17489817D01*
X9308158Y-17546960D02*
X9327206Y-17556484D01*
X9327206Y-17556484D02*
X9365301Y-17556484D01*
X9365301Y-17556484D02*
X9384349Y-17546960D01*
X9384349Y-17546960D02*
X9393873Y-17527912D01*
X9393873Y-17527912D02*
X9393873Y-17518389D01*
X9393873Y-17518389D02*
X9384349Y-17499341D01*
X9384349Y-17499341D02*
X9365301Y-17489817D01*
X9365301Y-17489817D02*
X9336730Y-17489817D01*
X9336730Y-17489817D02*
X9317682Y-17480293D01*
X9317682Y-17480293D02*
X9308158Y-17461246D01*
X9308158Y-17461246D02*
X9308158Y-17451722D01*
X9308158Y-17451722D02*
X9317682Y-17432674D01*
X9317682Y-17432674D02*
X9336730Y-17423150D01*
X9336730Y-17423150D02*
X9365301Y-17423150D01*
X9365301Y-17423150D02*
X9384349Y-17432674D01*
X9460539Y-17632674D02*
X9470063Y-17623150D01*
X9470063Y-17623150D02*
X9489111Y-17594579D01*
X9489111Y-17594579D02*
X9498634Y-17575531D01*
X9498634Y-17575531D02*
X9508158Y-17546960D01*
X9508158Y-17546960D02*
X9517682Y-17499341D01*
X9517682Y-17499341D02*
X9517682Y-17461246D01*
X9517682Y-17461246D02*
X9508158Y-17413627D01*
X9508158Y-17413627D02*
X9498634Y-17385055D01*
X9498634Y-17385055D02*
X9489111Y-17366008D01*
X9489111Y-17366008D02*
X9470063Y-17337436D01*
X9470063Y-17337436D02*
X9460539Y-17327912D01*
X4295000Y-17645000D02*
X4495000Y-17845000D01*
X4495000Y-17645000D02*
X4295000Y-17845000D01*
X4395000Y-17645000D02*
X4395000Y-17845000D01*
X4295000Y-17745000D02*
X4495000Y-17745000D01*
X4736729Y-17636484D02*
X4860539Y-17636484D01*
X4860539Y-17636484D02*
X4793872Y-17712674D01*
X4793872Y-17712674D02*
X4822444Y-17712674D01*
X4822444Y-17712674D02*
X4841491Y-17722198D01*
X4841491Y-17722198D02*
X4851015Y-17731722D01*
X4851015Y-17731722D02*
X4860539Y-17750770D01*
X4860539Y-17750770D02*
X4860539Y-17798389D01*
X4860539Y-17798389D02*
X4851015Y-17817436D01*
X4851015Y-17817436D02*
X4841491Y-17826960D01*
X4841491Y-17826960D02*
X4822444Y-17836484D01*
X4822444Y-17836484D02*
X4765301Y-17836484D01*
X4765301Y-17836484D02*
X4746253Y-17826960D01*
X4746253Y-17826960D02*
X4736729Y-17817436D01*
X4946253Y-17817436D02*
X4955777Y-17826960D01*
X4955777Y-17826960D02*
X4946253Y-17836484D01*
X4946253Y-17836484D02*
X4936729Y-17826960D01*
X4936729Y-17826960D02*
X4946253Y-17817436D01*
X4946253Y-17817436D02*
X4946253Y-17836484D01*
X5031967Y-17655531D02*
X5041491Y-17646008D01*
X5041491Y-17646008D02*
X5060539Y-17636484D01*
X5060539Y-17636484D02*
X5108158Y-17636484D01*
X5108158Y-17636484D02*
X5127205Y-17646008D01*
X5127205Y-17646008D02*
X5136729Y-17655531D01*
X5136729Y-17655531D02*
X5146253Y-17674579D01*
X5146253Y-17674579D02*
X5146253Y-17693627D01*
X5146253Y-17693627D02*
X5136729Y-17722198D01*
X5136729Y-17722198D02*
X5022444Y-17836484D01*
X5022444Y-17836484D02*
X5146253Y-17836484D01*
X5270063Y-17636484D02*
X5289110Y-17636484D01*
X5289110Y-17636484D02*
X5308158Y-17646008D01*
X5308158Y-17646008D02*
X5317682Y-17655531D01*
X5317682Y-17655531D02*
X5327205Y-17674579D01*
X5327205Y-17674579D02*
X5336729Y-17712674D01*
X5336729Y-17712674D02*
X5336729Y-17760293D01*
X5336729Y-17760293D02*
X5327205Y-17798389D01*
X5327205Y-17798389D02*
X5317682Y-17817436D01*
X5317682Y-17817436D02*
X5308158Y-17826960D01*
X5308158Y-17826960D02*
X5289110Y-17836484D01*
X5289110Y-17836484D02*
X5270063Y-17836484D01*
X5270063Y-17836484D02*
X5251015Y-17826960D01*
X5251015Y-17826960D02*
X5241491Y-17817436D01*
X5241491Y-17817436D02*
X5231967Y-17798389D01*
X5231967Y-17798389D02*
X5222444Y-17760293D01*
X5222444Y-17760293D02*
X5222444Y-17712674D01*
X5222444Y-17712674D02*
X5231967Y-17674579D01*
X5231967Y-17674579D02*
X5241491Y-17655531D01*
X5241491Y-17655531D02*
X5251015Y-17646008D01*
X5251015Y-17646008D02*
X5270063Y-17636484D01*
X5460539Y-17636484D02*
X5479586Y-17636484D01*
X5479586Y-17636484D02*
X5498634Y-17646008D01*
X5498634Y-17646008D02*
X5508158Y-17655531D01*
X5508158Y-17655531D02*
X5517682Y-17674579D01*
X5517682Y-17674579D02*
X5527205Y-17712674D01*
X5527205Y-17712674D02*
X5527205Y-17760293D01*
X5527205Y-17760293D02*
X5517682Y-17798389D01*
X5517682Y-17798389D02*
X5508158Y-17817436D01*
X5508158Y-17817436D02*
X5498634Y-17826960D01*
X5498634Y-17826960D02*
X5479586Y-17836484D01*
X5479586Y-17836484D02*
X5460539Y-17836484D01*
X5460539Y-17836484D02*
X5441491Y-17826960D01*
X5441491Y-17826960D02*
X5431967Y-17817436D01*
X5431967Y-17817436D02*
X5422444Y-17798389D01*
X5422444Y-17798389D02*
X5412920Y-17760293D01*
X5412920Y-17760293D02*
X5412920Y-17712674D01*
X5412920Y-17712674D02*
X5422444Y-17674579D01*
X5422444Y-17674579D02*
X5431967Y-17655531D01*
X5431967Y-17655531D02*
X5441491Y-17646008D01*
X5441491Y-17646008D02*
X5460539Y-17636484D01*
X5612920Y-17836484D02*
X5612920Y-17703150D01*
X5612920Y-17722198D02*
X5622443Y-17712674D01*
X5622443Y-17712674D02*
X5641491Y-17703150D01*
X5641491Y-17703150D02*
X5670063Y-17703150D01*
X5670063Y-17703150D02*
X5689110Y-17712674D01*
X5689110Y-17712674D02*
X5698634Y-17731722D01*
X5698634Y-17731722D02*
X5698634Y-17836484D01*
X5698634Y-17731722D02*
X5708158Y-17712674D01*
X5708158Y-17712674D02*
X5727205Y-17703150D01*
X5727205Y-17703150D02*
X5755777Y-17703150D01*
X5755777Y-17703150D02*
X5774824Y-17712674D01*
X5774824Y-17712674D02*
X5784348Y-17731722D01*
X5784348Y-17731722D02*
X5784348Y-17836484D01*
X5879586Y-17836484D02*
X5879586Y-17703150D01*
X5879586Y-17722198D02*
X5889110Y-17712674D01*
X5889110Y-17712674D02*
X5908158Y-17703150D01*
X5908158Y-17703150D02*
X5936729Y-17703150D01*
X5936729Y-17703150D02*
X5955777Y-17712674D01*
X5955777Y-17712674D02*
X5965301Y-17731722D01*
X5965301Y-17731722D02*
X5965301Y-17836484D01*
X5965301Y-17731722D02*
X5974824Y-17712674D01*
X5974824Y-17712674D02*
X5993872Y-17703150D01*
X5993872Y-17703150D02*
X6022443Y-17703150D01*
X6022443Y-17703150D02*
X6041491Y-17712674D01*
X6041491Y-17712674D02*
X6051015Y-17731722D01*
X6051015Y-17731722D02*
X6051015Y-17836484D01*
X6441491Y-17626960D02*
X6270063Y-17884103D01*
X6698634Y-17636484D02*
X6717682Y-17636484D01*
X6717682Y-17636484D02*
X6736729Y-17646008D01*
X6736729Y-17646008D02*
X6746253Y-17655531D01*
X6746253Y-17655531D02*
X6755777Y-17674579D01*
X6755777Y-17674579D02*
X6765301Y-17712674D01*
X6765301Y-17712674D02*
X6765301Y-17760293D01*
X6765301Y-17760293D02*
X6755777Y-17798389D01*
X6755777Y-17798389D02*
X6746253Y-17817436D01*
X6746253Y-17817436D02*
X6736729Y-17826960D01*
X6736729Y-17826960D02*
X6717682Y-17836484D01*
X6717682Y-17836484D02*
X6698634Y-17836484D01*
X6698634Y-17836484D02*
X6679586Y-17826960D01*
X6679586Y-17826960D02*
X6670063Y-17817436D01*
X6670063Y-17817436D02*
X6660539Y-17798389D01*
X6660539Y-17798389D02*
X6651015Y-17760293D01*
X6651015Y-17760293D02*
X6651015Y-17712674D01*
X6651015Y-17712674D02*
X6660539Y-17674579D01*
X6660539Y-17674579D02*
X6670063Y-17655531D01*
X6670063Y-17655531D02*
X6679586Y-17646008D01*
X6679586Y-17646008D02*
X6698634Y-17636484D01*
X6851015Y-17817436D02*
X6860539Y-17826960D01*
X6860539Y-17826960D02*
X6851015Y-17836484D01*
X6851015Y-17836484D02*
X6841491Y-17826960D01*
X6841491Y-17826960D02*
X6851015Y-17817436D01*
X6851015Y-17817436D02*
X6851015Y-17836484D01*
X7051015Y-17836484D02*
X6936729Y-17836484D01*
X6993872Y-17836484D02*
X6993872Y-17636484D01*
X6993872Y-17636484D02*
X6974825Y-17665055D01*
X6974825Y-17665055D02*
X6955777Y-17684103D01*
X6955777Y-17684103D02*
X6936729Y-17693627D01*
X7127206Y-17655531D02*
X7136729Y-17646008D01*
X7136729Y-17646008D02*
X7155777Y-17636484D01*
X7155777Y-17636484D02*
X7203396Y-17636484D01*
X7203396Y-17636484D02*
X7222444Y-17646008D01*
X7222444Y-17646008D02*
X7231967Y-17655531D01*
X7231967Y-17655531D02*
X7241491Y-17674579D01*
X7241491Y-17674579D02*
X7241491Y-17693627D01*
X7241491Y-17693627D02*
X7231967Y-17722198D01*
X7231967Y-17722198D02*
X7117682Y-17836484D01*
X7117682Y-17836484D02*
X7241491Y-17836484D01*
X7412920Y-17636484D02*
X7374825Y-17636484D01*
X7374825Y-17636484D02*
X7355777Y-17646008D01*
X7355777Y-17646008D02*
X7346253Y-17655531D01*
X7346253Y-17655531D02*
X7327206Y-17684103D01*
X7327206Y-17684103D02*
X7317682Y-17722198D01*
X7317682Y-17722198D02*
X7317682Y-17798389D01*
X7317682Y-17798389D02*
X7327206Y-17817436D01*
X7327206Y-17817436D02*
X7336729Y-17826960D01*
X7336729Y-17826960D02*
X7355777Y-17836484D01*
X7355777Y-17836484D02*
X7393872Y-17836484D01*
X7393872Y-17836484D02*
X7412920Y-17826960D01*
X7412920Y-17826960D02*
X7422444Y-17817436D01*
X7422444Y-17817436D02*
X7431967Y-17798389D01*
X7431967Y-17798389D02*
X7431967Y-17750770D01*
X7431967Y-17750770D02*
X7422444Y-17731722D01*
X7422444Y-17731722D02*
X7412920Y-17722198D01*
X7412920Y-17722198D02*
X7393872Y-17712674D01*
X7393872Y-17712674D02*
X7355777Y-17712674D01*
X7355777Y-17712674D02*
X7336729Y-17722198D01*
X7336729Y-17722198D02*
X7327206Y-17731722D01*
X7327206Y-17731722D02*
X7317682Y-17750770D01*
X7555777Y-17636484D02*
X7574825Y-17636484D01*
X7574825Y-17636484D02*
X7593872Y-17646008D01*
X7593872Y-17646008D02*
X7603396Y-17655531D01*
X7603396Y-17655531D02*
X7612920Y-17674579D01*
X7612920Y-17674579D02*
X7622444Y-17712674D01*
X7622444Y-17712674D02*
X7622444Y-17760293D01*
X7622444Y-17760293D02*
X7612920Y-17798389D01*
X7612920Y-17798389D02*
X7603396Y-17817436D01*
X7603396Y-17817436D02*
X7593872Y-17826960D01*
X7593872Y-17826960D02*
X7574825Y-17836484D01*
X7574825Y-17836484D02*
X7555777Y-17836484D01*
X7555777Y-17836484D02*
X7536729Y-17826960D01*
X7536729Y-17826960D02*
X7527206Y-17817436D01*
X7527206Y-17817436D02*
X7517682Y-17798389D01*
X7517682Y-17798389D02*
X7508158Y-17760293D01*
X7508158Y-17760293D02*
X7508158Y-17712674D01*
X7508158Y-17712674D02*
X7517682Y-17674579D01*
X7517682Y-17674579D02*
X7527206Y-17655531D01*
X7527206Y-17655531D02*
X7536729Y-17646008D01*
X7536729Y-17646008D02*
X7555777Y-17636484D01*
X7698634Y-17636484D02*
X7698634Y-17674579D01*
X7774825Y-17636484D02*
X7774825Y-17674579D01*
X8070063Y-17912674D02*
X8060539Y-17903150D01*
X8060539Y-17903150D02*
X8041491Y-17874579D01*
X8041491Y-17874579D02*
X8031968Y-17855531D01*
X8031968Y-17855531D02*
X8022444Y-17826960D01*
X8022444Y-17826960D02*
X8012920Y-17779341D01*
X8012920Y-17779341D02*
X8012920Y-17741246D01*
X8012920Y-17741246D02*
X8022444Y-17693627D01*
X8022444Y-17693627D02*
X8031968Y-17665055D01*
X8031968Y-17665055D02*
X8041491Y-17646008D01*
X8041491Y-17646008D02*
X8060539Y-17617436D01*
X8060539Y-17617436D02*
X8070063Y-17607912D01*
X8231968Y-17636484D02*
X8193872Y-17636484D01*
X8193872Y-17636484D02*
X8174825Y-17646008D01*
X8174825Y-17646008D02*
X8165301Y-17655531D01*
X8165301Y-17655531D02*
X8146253Y-17684103D01*
X8146253Y-17684103D02*
X8136729Y-17722198D01*
X8136729Y-17722198D02*
X8136729Y-17798389D01*
X8136729Y-17798389D02*
X8146253Y-17817436D01*
X8146253Y-17817436D02*
X8155777Y-17826960D01*
X8155777Y-17826960D02*
X8174825Y-17836484D01*
X8174825Y-17836484D02*
X8212920Y-17836484D01*
X8212920Y-17836484D02*
X8231968Y-17826960D01*
X8231968Y-17826960D02*
X8241491Y-17817436D01*
X8241491Y-17817436D02*
X8251015Y-17798389D01*
X8251015Y-17798389D02*
X8251015Y-17750770D01*
X8251015Y-17750770D02*
X8241491Y-17731722D01*
X8241491Y-17731722D02*
X8231968Y-17722198D01*
X8231968Y-17722198D02*
X8212920Y-17712674D01*
X8212920Y-17712674D02*
X8174825Y-17712674D01*
X8174825Y-17712674D02*
X8155777Y-17722198D01*
X8155777Y-17722198D02*
X8146253Y-17731722D01*
X8146253Y-17731722D02*
X8136729Y-17750770D01*
X8489111Y-17836484D02*
X8489111Y-17636484D01*
X8574825Y-17836484D02*
X8574825Y-17731722D01*
X8574825Y-17731722D02*
X8565301Y-17712674D01*
X8565301Y-17712674D02*
X8546253Y-17703150D01*
X8546253Y-17703150D02*
X8517682Y-17703150D01*
X8517682Y-17703150D02*
X8498634Y-17712674D01*
X8498634Y-17712674D02*
X8489111Y-17722198D01*
X8698634Y-17836484D02*
X8679587Y-17826960D01*
X8679587Y-17826960D02*
X8670063Y-17817436D01*
X8670063Y-17817436D02*
X8660539Y-17798389D01*
X8660539Y-17798389D02*
X8660539Y-17741246D01*
X8660539Y-17741246D02*
X8670063Y-17722198D01*
X8670063Y-17722198D02*
X8679587Y-17712674D01*
X8679587Y-17712674D02*
X8698634Y-17703150D01*
X8698634Y-17703150D02*
X8727206Y-17703150D01*
X8727206Y-17703150D02*
X8746253Y-17712674D01*
X8746253Y-17712674D02*
X8755777Y-17722198D01*
X8755777Y-17722198D02*
X8765301Y-17741246D01*
X8765301Y-17741246D02*
X8765301Y-17798389D01*
X8765301Y-17798389D02*
X8755777Y-17817436D01*
X8755777Y-17817436D02*
X8746253Y-17826960D01*
X8746253Y-17826960D02*
X8727206Y-17836484D01*
X8727206Y-17836484D02*
X8698634Y-17836484D01*
X8879587Y-17836484D02*
X8860539Y-17826960D01*
X8860539Y-17826960D02*
X8851015Y-17807912D01*
X8851015Y-17807912D02*
X8851015Y-17636484D01*
X9031968Y-17826960D02*
X9012920Y-17836484D01*
X9012920Y-17836484D02*
X8974825Y-17836484D01*
X8974825Y-17836484D02*
X8955777Y-17826960D01*
X8955777Y-17826960D02*
X8946253Y-17807912D01*
X8946253Y-17807912D02*
X8946253Y-17731722D01*
X8946253Y-17731722D02*
X8955777Y-17712674D01*
X8955777Y-17712674D02*
X8974825Y-17703150D01*
X8974825Y-17703150D02*
X9012920Y-17703150D01*
X9012920Y-17703150D02*
X9031968Y-17712674D01*
X9031968Y-17712674D02*
X9041492Y-17731722D01*
X9041492Y-17731722D02*
X9041492Y-17750770D01*
X9041492Y-17750770D02*
X8946253Y-17769817D01*
X9117682Y-17826960D02*
X9136730Y-17836484D01*
X9136730Y-17836484D02*
X9174825Y-17836484D01*
X9174825Y-17836484D02*
X9193873Y-17826960D01*
X9193873Y-17826960D02*
X9203396Y-17807912D01*
X9203396Y-17807912D02*
X9203396Y-17798389D01*
X9203396Y-17798389D02*
X9193873Y-17779341D01*
X9193873Y-17779341D02*
X9174825Y-17769817D01*
X9174825Y-17769817D02*
X9146253Y-17769817D01*
X9146253Y-17769817D02*
X9127206Y-17760293D01*
X9127206Y-17760293D02*
X9117682Y-17741246D01*
X9117682Y-17741246D02*
X9117682Y-17731722D01*
X9117682Y-17731722D02*
X9127206Y-17712674D01*
X9127206Y-17712674D02*
X9146253Y-17703150D01*
X9146253Y-17703150D02*
X9174825Y-17703150D01*
X9174825Y-17703150D02*
X9193873Y-17712674D01*
X9270063Y-17912674D02*
X9279587Y-17903150D01*
X9279587Y-17903150D02*
X9298634Y-17874579D01*
X9298634Y-17874579D02*
X9308158Y-17855531D01*
X9308158Y-17855531D02*
X9317682Y-17826960D01*
X9317682Y-17826960D02*
X9327206Y-17779341D01*
X9327206Y-17779341D02*
X9327206Y-17741246D01*
X9327206Y-17741246D02*
X9317682Y-17693627D01*
X9317682Y-17693627D02*
X9308158Y-17665055D01*
X9308158Y-17665055D02*
X9298634Y-17646008D01*
X9298634Y-17646008D02*
X9279587Y-17617436D01*
X9279587Y-17617436D02*
X9270063Y-17607912D01*
M02*
