G04 #@! TF.GenerationSoftware,KiCad,Pcbnew,8.0.4*
G04 #@! TF.CreationDate,2024-11-19T14:33:49+01:00*
G04 #@! TF.ProjectId,MUNIN 100,4d554e49-4e20-4313-9030-2e6b69636164,0*
G04 #@! TF.SameCoordinates,Original*
G04 #@! TF.FileFunction,Copper,L2,Bot*
G04 #@! TF.FilePolarity,Positive*
%FSLAX46Y46*%
G04 Gerber Fmt 4.6, Leading zero omitted, Abs format (unit mm)*
G04 Created by KiCad (PCBNEW 8.0.4) date 2024-11-19 14:33:49*
%MOMM*%
%LPD*%
G01*
G04 APERTURE LIST*
G04 Aperture macros list*
%AMRoundRect*
0 Rectangle with rounded corners*
0 $1 Rounding radius*
0 $2 $3 $4 $5 $6 $7 $8 $9 X,Y pos of 4 corners*
0 Add a 4 corners polygon primitive as box body*
4,1,4,$2,$3,$4,$5,$6,$7,$8,$9,$2,$3,0*
0 Add four circle primitives for the rounded corners*
1,1,$1+$1,$2,$3*
1,1,$1+$1,$4,$5*
1,1,$1+$1,$6,$7*
1,1,$1+$1,$8,$9*
0 Add four rect primitives between the rounded corners*
20,1,$1+$1,$2,$3,$4,$5,0*
20,1,$1+$1,$4,$5,$6,$7,0*
20,1,$1+$1,$6,$7,$8,$9,0*
20,1,$1+$1,$8,$9,$2,$3,0*%
%AMRotRect*
0 Rectangle, with rotation*
0 The origin of the aperture is its center*
0 $1 length*
0 $2 width*
0 $3 Rotation angle, in degrees counterclockwise*
0 Add horizontal line*
21,1,$1,$2,0,0,$3*%
G04 Aperture macros list end*
G04 #@! TA.AperFunction,ComponentPad*
%ADD10RoundRect,0.750000X-0.750000X1.750000X-0.750000X-1.750000X0.750000X-1.750000X0.750000X1.750000X0*%
G04 #@! TD*
G04 #@! TA.AperFunction,ComponentPad*
%ADD11RoundRect,0.875000X-1.125000X0.875000X-1.125000X-0.875000X1.125000X-0.875000X1.125000X0.875000X0*%
G04 #@! TD*
G04 #@! TA.AperFunction,ComponentPad*
%ADD12C,6.000000*%
G04 #@! TD*
G04 #@! TA.AperFunction,ComponentPad*
%ADD13R,1.905000X4.000000*%
G04 #@! TD*
G04 #@! TA.AperFunction,ComponentPad*
%ADD14RotRect,1.905000X4.000000X181.300000*%
G04 #@! TD*
G04 #@! TA.AperFunction,ComponentPad*
%ADD15RoundRect,0.250000X2.012537X2.385570X-2.037408X2.364365X-2.012537X-2.385570X2.037408X-2.364365X0*%
G04 #@! TD*
G04 #@! TA.AperFunction,ComponentPad*
%ADD16RoundRect,0.250000X2.025000X2.375000X-2.025000X2.375000X-2.025000X-2.375000X2.025000X-2.375000X0*%
G04 #@! TD*
G04 #@! TA.AperFunction,ComponentPad*
%ADD17C,0.800000*%
G04 #@! TD*
G04 #@! TA.AperFunction,ComponentPad*
%ADD18C,6.400000*%
G04 #@! TD*
G04 #@! TA.AperFunction,ComponentPad*
%ADD19C,1.998980*%
G04 #@! TD*
G04 #@! TA.AperFunction,ComponentPad*
%ADD20C,2.499360*%
G04 #@! TD*
G04 #@! TA.AperFunction,ComponentPad*
%ADD21C,2.300000*%
G04 #@! TD*
G04 #@! TA.AperFunction,ComponentPad*
%ADD22RoundRect,0.250000X0.620000X0.845000X-0.620000X0.845000X-0.620000X-0.845000X0.620000X-0.845000X0*%
G04 #@! TD*
G04 #@! TA.AperFunction,ComponentPad*
%ADD23O,1.740000X2.190000*%
G04 #@! TD*
G04 #@! TA.AperFunction,SMDPad,CuDef*
%ADD24RoundRect,0.250000X0.475000X-0.337500X0.475000X0.337500X-0.475000X0.337500X-0.475000X-0.337500X0*%
G04 #@! TD*
G04 #@! TA.AperFunction,SMDPad,CuDef*
%ADD25RoundRect,0.250000X-1.075000X0.312500X-1.075000X-0.312500X1.075000X-0.312500X1.075000X0.312500X0*%
G04 #@! TD*
G04 #@! TA.AperFunction,ViaPad*
%ADD26C,0.800000*%
G04 #@! TD*
G04 #@! TA.AperFunction,ViaPad*
%ADD27C,2.000000*%
G04 #@! TD*
G04 #@! TA.AperFunction,Conductor*
%ADD28C,1.500000*%
G04 #@! TD*
G04 #@! TA.AperFunction,Conductor*
%ADD29C,1.000000*%
G04 #@! TD*
G04 #@! TA.AperFunction,Conductor*
%ADD30C,2.000000*%
G04 #@! TD*
G04 #@! TA.AperFunction,Conductor*
%ADD31C,1.800000*%
G04 #@! TD*
G04 #@! TA.AperFunction,Conductor*
%ADD32C,0.800000*%
G04 #@! TD*
G04 #@! TA.AperFunction,Conductor*
%ADD33C,2.500000*%
G04 #@! TD*
G04 #@! TA.AperFunction,Conductor*
%ADD34C,3.000000*%
G04 #@! TD*
G04 APERTURE END LIST*
D10*
X87750000Y-98000000D03*
D11*
X96750000Y-102250000D03*
X96750000Y-105000000D03*
D10*
X87750000Y-109000000D03*
D12*
X82500000Y-124792500D03*
D13*
X85040000Y-108132500D03*
D14*
X82500000Y-108132500D03*
D13*
X79960000Y-108132500D03*
D15*
X55150000Y-139275000D03*
X55150000Y-133725000D03*
D16*
X50300000Y-139275000D03*
X50300000Y-133725000D03*
D17*
X135902944Y-148000000D03*
X136605888Y-146302944D03*
X136605888Y-149697056D03*
X138302944Y-145600000D03*
D18*
X138302944Y-148000000D03*
D17*
X138302944Y-150400000D03*
X140000000Y-146302944D03*
X140000000Y-149697056D03*
X140702944Y-148000000D03*
D19*
X140250000Y-107250000D03*
D20*
X142790000Y-109790000D03*
X142790000Y-104710000D03*
X137710000Y-109790000D03*
X137710000Y-104710000D03*
D21*
X123000000Y-150080000D03*
X125540000Y-150080000D03*
X128080000Y-150080000D03*
X123000000Y-145000000D03*
X125540000Y-145000000D03*
X128080000Y-145000000D03*
D22*
X86025000Y-144250000D03*
D23*
X83485000Y-144250000D03*
X80945000Y-144250000D03*
D17*
X48600000Y-148000000D03*
X49302944Y-146302944D03*
X49302944Y-149697056D03*
X51000000Y-145600000D03*
D18*
X51000000Y-148000000D03*
D17*
X51000000Y-150400000D03*
X52697056Y-146302944D03*
X52697056Y-149697056D03*
X53400000Y-148000000D03*
D12*
X82600000Y-82707500D03*
D13*
X80060000Y-99367500D03*
X82600000Y-99367500D03*
X85140000Y-99367500D03*
D21*
X99800000Y-145020000D03*
X97260000Y-145020000D03*
X94720000Y-145020000D03*
X99800000Y-150100000D03*
X97260000Y-150100000D03*
X94720000Y-150100000D03*
D17*
X48600000Y-81000000D03*
X49302944Y-79302944D03*
X49302944Y-82697056D03*
X51000000Y-78600000D03*
D18*
X51000000Y-81000000D03*
D17*
X51000000Y-83400000D03*
X52697056Y-79302944D03*
X52697056Y-82697056D03*
X53400000Y-81000000D03*
X135902944Y-81000000D03*
X136605888Y-79302944D03*
X136605888Y-82697056D03*
X138302944Y-78600000D03*
D18*
X138302944Y-81000000D03*
D17*
X138302944Y-83400000D03*
X140000000Y-79302944D03*
X140000000Y-82697056D03*
X140702944Y-81000000D03*
D19*
X49500000Y-101000000D03*
D20*
X46960000Y-98460000D03*
X46960000Y-103540000D03*
X52040000Y-98460000D03*
X52040000Y-103540000D03*
D24*
X110750000Y-127037500D03*
X110750000Y-124962500D03*
D25*
X109250000Y-120037500D03*
X109250000Y-122962500D03*
X105750000Y-120037500D03*
X105750000Y-122962500D03*
D24*
X113250000Y-127037500D03*
X113250000Y-124962500D03*
D25*
X112750000Y-120037500D03*
X112750000Y-122962500D03*
D26*
X116000000Y-120750000D03*
X73500000Y-127750000D03*
X75500000Y-96000000D03*
X75750000Y-138750000D03*
X82000000Y-77000000D03*
X129750000Y-112750000D03*
X62600000Y-142800000D03*
X61250000Y-125000000D03*
X70750000Y-127750000D03*
X77000000Y-153000000D03*
X75750000Y-137200000D03*
X122000000Y-106000000D03*
X137000000Y-77000000D03*
X87000000Y-77000000D03*
X82500000Y-96500000D03*
X57000000Y-77000000D03*
X131250000Y-115500000D03*
X47000000Y-153000000D03*
X54750000Y-107500000D03*
X142000000Y-77000000D03*
X131750000Y-112750000D03*
X143750000Y-85250000D03*
X122000000Y-110500000D03*
X117000000Y-77000000D03*
X138250000Y-101250000D03*
X97500000Y-126750000D03*
X83500000Y-104000000D03*
X127000000Y-77000000D03*
X102000000Y-139500000D03*
X84500000Y-129700000D03*
X143750000Y-95250000D03*
X68100000Y-141600000D03*
X116000000Y-124750000D03*
X82000000Y-153000000D03*
X139750000Y-112750000D03*
X46000000Y-77000000D03*
X57000000Y-153000000D03*
X62400000Y-130000000D03*
X136250000Y-115500000D03*
X72000000Y-153000000D03*
X58100000Y-149500000D03*
X119750000Y-93500000D03*
X82500000Y-100750000D03*
X128250000Y-101250000D03*
X143750000Y-118500000D03*
X65600000Y-141600000D03*
X100250000Y-93500000D03*
X99250000Y-128000000D03*
X46000000Y-126500000D03*
X50500000Y-96000000D03*
X114750000Y-93500000D03*
X133250000Y-101250000D03*
X122000000Y-77000000D03*
X46000000Y-146500000D03*
X136250000Y-112750000D03*
X124750000Y-112750000D03*
X61000000Y-143750000D03*
X142000000Y-153000000D03*
X122000000Y-153000000D03*
X46000000Y-81500000D03*
X81500000Y-104000000D03*
X82500000Y-106750000D03*
X46000000Y-121500000D03*
X65500000Y-96000000D03*
X46000000Y-141500000D03*
X91500000Y-126750000D03*
X110750000Y-128500000D03*
X122000000Y-107500000D03*
X134750000Y-112750000D03*
X72000000Y-77000000D03*
X104750000Y-93500000D03*
X138250000Y-112750000D03*
X74750000Y-129250000D03*
X101900000Y-141400000D03*
X52000000Y-153000000D03*
X143750000Y-100250000D03*
X60500000Y-96000000D03*
X143750000Y-114250000D03*
X46000000Y-131500000D03*
X93500000Y-122750000D03*
X62000000Y-77000000D03*
X82500000Y-109500000D03*
X82500000Y-104000000D03*
X74750000Y-127750000D03*
X70500000Y-96000000D03*
X82600000Y-102500000D03*
X62600000Y-143800000D03*
X143750000Y-123500000D03*
X76000000Y-130750000D03*
X93500000Y-120750000D03*
X134750000Y-101250000D03*
X61000000Y-142800000D03*
X52000000Y-77000000D03*
X116500000Y-113000000D03*
X132000000Y-153000000D03*
X92000000Y-77000000D03*
X132000000Y-77000000D03*
X56750000Y-107500000D03*
X104000000Y-145500000D03*
X117000000Y-153000000D03*
X128250000Y-112750000D03*
X46000000Y-106500000D03*
X55500000Y-96000000D03*
X77000000Y-77000000D03*
X107000000Y-153000000D03*
X69600000Y-140400000D03*
X71100000Y-139000000D03*
X63750000Y-141600000D03*
X55750000Y-107500000D03*
X131750000Y-101250000D03*
X58500000Y-127500000D03*
X116000000Y-126750000D03*
X46000000Y-116500000D03*
X71100000Y-134500000D03*
X124750000Y-101250000D03*
X122000000Y-109000000D03*
X93500000Y-118750000D03*
X74250000Y-137250000D03*
X71100000Y-137500000D03*
X74250000Y-138750000D03*
X46000000Y-86500000D03*
X65600000Y-140400000D03*
X109250000Y-126750000D03*
X62750000Y-126000000D03*
X95500000Y-126750000D03*
X99250000Y-129500000D03*
X54250000Y-106500000D03*
X69600000Y-134500000D03*
X126750000Y-101250000D03*
X81500000Y-102500000D03*
X112000000Y-153000000D03*
X54250000Y-105250000D03*
X82600000Y-105500000D03*
X99250000Y-131000000D03*
X100250000Y-139500000D03*
X104000000Y-142500000D03*
X126250000Y-115500000D03*
X82500000Y-111000000D03*
X139750000Y-101250000D03*
X81500000Y-105500000D03*
X61250000Y-129000000D03*
X143750000Y-138500000D03*
X116000000Y-122750000D03*
X60000000Y-127500000D03*
X133250000Y-112750000D03*
X121250000Y-115500000D03*
X122000000Y-103000000D03*
X129750000Y-101250000D03*
X75750000Y-135700000D03*
X143750000Y-90250000D03*
X69600000Y-136000000D03*
X126750000Y-112750000D03*
X137000000Y-153000000D03*
X105250000Y-126750000D03*
X69600000Y-137500000D03*
X46000000Y-136500000D03*
X93500000Y-126750000D03*
X143750000Y-81000000D03*
X74750000Y-130750000D03*
X82500000Y-98250000D03*
X93500000Y-124750000D03*
X116250000Y-115500000D03*
X68000000Y-140400000D03*
X124750000Y-93500000D03*
X67000000Y-77000000D03*
X102000000Y-77000000D03*
X71100000Y-136000000D03*
X143750000Y-143500000D03*
X107250000Y-126750000D03*
X69600000Y-139000000D03*
X122750000Y-101500000D03*
X113250000Y-128500000D03*
X104000000Y-139500000D03*
X97000000Y-77000000D03*
X127000000Y-153000000D03*
X122000000Y-104500000D03*
X109750000Y-93500000D03*
X118500000Y-113000000D03*
X46000000Y-111500000D03*
X46000000Y-96500000D03*
X62000000Y-153000000D03*
X57100000Y-143500000D03*
X46000000Y-91500000D03*
X62750000Y-128000000D03*
X72250000Y-127750000D03*
X61250000Y-127000000D03*
X122750000Y-112250000D03*
X143750000Y-128500000D03*
X67000000Y-153000000D03*
X71100000Y-140400000D03*
X107000000Y-77000000D03*
X87000000Y-153000000D03*
X112000000Y-77000000D03*
X143750000Y-133500000D03*
X63750000Y-140600000D03*
X136250000Y-101250000D03*
X62100000Y-149500000D03*
X55000000Y-140000000D03*
X52000000Y-132500000D03*
X50000000Y-132500000D03*
X53500000Y-140000000D03*
X50000000Y-137500000D03*
X52750000Y-141500000D03*
X53500000Y-137500000D03*
X48500000Y-136500000D03*
X52000000Y-140000000D03*
X55000000Y-132500000D03*
X52750000Y-131500000D03*
X55000000Y-137500000D03*
X57000000Y-136500000D03*
X55000000Y-135000000D03*
X50000000Y-140000000D03*
X52000000Y-135000000D03*
X53500000Y-132500000D03*
X52000000Y-137500000D03*
X50000000Y-135000000D03*
X53500000Y-135000000D03*
D27*
X97500000Y-123250000D03*
X97500000Y-117250000D03*
D28*
X107787500Y-118000000D02*
X108000000Y-118000000D01*
X105750000Y-120037500D02*
X107787500Y-118000000D01*
D29*
X108000000Y-118000000D02*
X110000000Y-118000000D01*
X107250000Y-118000000D02*
X108000000Y-118000000D01*
D28*
X107212500Y-118000000D02*
X107000000Y-118000000D01*
D29*
X107000000Y-118000000D02*
X107250000Y-118000000D01*
D28*
X109250000Y-120037500D02*
X107212500Y-118000000D01*
D29*
X102500000Y-118000000D02*
X107000000Y-118000000D01*
D28*
X110712500Y-118575000D02*
X110712500Y-118000000D01*
X109250000Y-120037500D02*
X110712500Y-118575000D01*
X112750000Y-120037500D02*
X110712500Y-118000000D01*
D29*
X110000000Y-118000000D02*
X112500000Y-118000000D01*
D28*
X110712500Y-118000000D02*
X110000000Y-118000000D01*
D30*
X94720000Y-150100000D02*
X99800000Y-145020000D01*
X99800000Y-150100000D02*
X94720000Y-145020000D01*
X99800000Y-147560000D02*
X97260000Y-145020000D01*
X99800000Y-150100000D02*
X99800000Y-147560000D01*
X97260000Y-147560000D02*
X99800000Y-145020000D01*
X94720000Y-147560000D02*
X97260000Y-145020000D01*
X94720000Y-150100000D02*
X94720000Y-147560000D01*
X97260000Y-147560000D02*
X94720000Y-145020000D01*
X97260000Y-150100000D02*
X97260000Y-147560000D01*
X97260000Y-150100000D02*
X99900000Y-150100000D01*
X94720000Y-150100000D02*
X97260000Y-150100000D01*
X97260000Y-145020000D02*
X99980000Y-145020000D01*
X94720000Y-145020000D02*
X97260000Y-145020000D01*
X99800000Y-145020000D02*
X99800000Y-150100000D01*
X97260000Y-145020000D02*
X97260000Y-150100000D01*
X94720000Y-145020000D02*
X94720000Y-150100000D01*
D31*
X86507500Y-98000000D02*
X85140000Y-99367500D01*
X87750000Y-98000000D02*
X86507500Y-98000000D01*
X85907500Y-109000000D02*
X85040000Y-108132500D01*
X87750000Y-109000000D02*
X85907500Y-109000000D01*
D32*
X48500000Y-136500000D02*
X57000000Y-136500000D01*
X52750000Y-131500000D02*
X52750000Y-141500000D01*
D29*
X113250000Y-124962500D02*
X113250000Y-123462500D01*
X113250000Y-123462500D02*
X112750000Y-122962500D01*
X96250000Y-122500000D02*
X96250000Y-124000000D01*
D31*
X109750000Y-124000000D02*
X112250000Y-124000000D01*
D29*
X113750000Y-122500000D02*
X113287500Y-122962500D01*
X109250000Y-122962500D02*
X105750000Y-122962500D01*
X98500000Y-123250000D02*
X99750000Y-123250000D01*
X99000000Y-122500000D02*
X113750000Y-122500000D01*
X99000000Y-122500000D02*
X96250000Y-122500000D01*
X110750000Y-124000000D02*
X110750000Y-122962500D01*
X100500000Y-124000000D02*
X109750000Y-124000000D01*
X109750000Y-124000000D02*
X110750000Y-124000000D01*
X99000000Y-124000000D02*
X97750000Y-124000000D01*
X110750000Y-124962500D02*
X113250000Y-124962500D01*
X98500000Y-123250000D02*
X96750000Y-123250000D01*
X99000000Y-124000000D02*
X99962500Y-124962500D01*
X110750000Y-122962500D02*
X109250000Y-122962500D01*
X99962500Y-124962500D02*
X110750000Y-124962500D01*
X110462500Y-123250000D02*
X110750000Y-122962500D01*
X110750000Y-124962500D02*
X110750000Y-124000000D01*
X99750000Y-123250000D02*
X100500000Y-124000000D01*
X98500000Y-123250000D02*
X110462500Y-123250000D01*
X113287500Y-122962500D02*
X112750000Y-122962500D01*
X99000000Y-124000000D02*
X96250000Y-124000000D01*
X112750000Y-122962500D02*
X110750000Y-122962500D01*
X104000000Y-116250000D02*
X106000000Y-116250000D01*
D33*
X105000000Y-102250000D02*
X108500000Y-105750000D01*
D29*
X105750000Y-118000000D02*
X105750000Y-120037500D01*
X96250000Y-116250000D02*
X96250000Y-118000000D01*
D33*
X108500000Y-105750000D02*
X108500000Y-117000000D01*
D34*
X104250000Y-105000000D02*
X106000000Y-106750000D01*
D29*
X112750000Y-118750000D02*
X112750000Y-120037500D01*
D34*
X96750000Y-102250000D02*
X105000000Y-102250000D01*
D29*
X107250000Y-118000000D02*
X109250000Y-118000000D01*
X98500000Y-117000000D02*
X97000000Y-117000000D01*
X109250000Y-118000000D02*
X109250000Y-120037500D01*
X98500000Y-117000000D02*
X108500000Y-117000000D01*
X112750000Y-118250000D02*
X112500000Y-118000000D01*
X96250000Y-118000000D02*
X99000000Y-118000000D01*
X106000000Y-116250000D02*
X106750000Y-116250000D01*
X99000000Y-116250000D02*
X104000000Y-116250000D01*
D34*
X96750000Y-105000000D02*
X104250000Y-105000000D01*
D29*
X112750000Y-117000000D02*
X112750000Y-118750000D01*
X112750000Y-120037500D02*
X112750000Y-118250000D01*
X106750000Y-116250000D02*
X112000000Y-116250000D01*
X108500000Y-117000000D02*
X112750000Y-117000000D01*
X99000000Y-116250000D02*
X96250000Y-116250000D01*
X102500000Y-118000000D02*
X105750000Y-118000000D01*
X112000000Y-116250000D02*
X112750000Y-117000000D01*
X112750000Y-118750000D02*
X112750000Y-117500000D01*
X99000000Y-118000000D02*
X99000000Y-116250000D01*
X99000000Y-118000000D02*
X102500000Y-118000000D01*
X112500000Y-118000000D02*
X112500000Y-119787500D01*
D33*
X106000000Y-106750000D02*
X106000000Y-116250000D01*
G04 #@! TA.AperFunction,Conductor*
G36*
X144942121Y-75020002D02*
G01*
X144988614Y-75073658D01*
X145000000Y-75126000D01*
X145000000Y-154874000D01*
X144979998Y-154942121D01*
X144926342Y-154988614D01*
X144874000Y-155000000D01*
X45126000Y-155000000D01*
X45057879Y-154979998D01*
X45011386Y-154926342D01*
X45000000Y-154874000D01*
X45000000Y-143916510D01*
X79566500Y-143916510D01*
X79566500Y-144583490D01*
X79600443Y-144797800D01*
X79667494Y-145004160D01*
X79766001Y-145197492D01*
X79893539Y-145373033D01*
X79893541Y-145373035D01*
X79893543Y-145373038D01*
X80046961Y-145526456D01*
X80046964Y-145526458D01*
X80046967Y-145526461D01*
X80222508Y-145653999D01*
X80415840Y-145752506D01*
X80622200Y-145819557D01*
X80836510Y-145853500D01*
X80836513Y-145853500D01*
X81053487Y-145853500D01*
X81053490Y-145853500D01*
X81267800Y-145819557D01*
X81474160Y-145752506D01*
X81667492Y-145653999D01*
X81843033Y-145526461D01*
X81996461Y-145373033D01*
X82113065Y-145212541D01*
X82169286Y-145169188D01*
X82240022Y-145163113D01*
X82302814Y-145196244D01*
X82316932Y-145212538D01*
X82433539Y-145373033D01*
X82433541Y-145373035D01*
X82433543Y-145373038D01*
X82586961Y-145526456D01*
X82586964Y-145526458D01*
X82586967Y-145526461D01*
X82762508Y-145653999D01*
X82955840Y-145752506D01*
X83162200Y-145819557D01*
X83376510Y-145853500D01*
X83376513Y-145853500D01*
X83593487Y-145853500D01*
X83593490Y-145853500D01*
X83807800Y-145819557D01*
X84014160Y-145752506D01*
X84207492Y-145653999D01*
X84383033Y-145526461D01*
X84536461Y-145373033D01*
X84663999Y-145197492D01*
X84754435Y-145020000D01*
X93056372Y-145020000D01*
X93076854Y-145280249D01*
X93137796Y-145534089D01*
X93187463Y-145653996D01*
X93201909Y-145688870D01*
X93211500Y-145737088D01*
X93211500Y-147436791D01*
X93211499Y-147436821D01*
X93211499Y-147683914D01*
X93211500Y-147683939D01*
X93211500Y-149382910D01*
X93201909Y-149431128D01*
X93137795Y-149585912D01*
X93076854Y-149839751D01*
X93056372Y-150100000D01*
X93076854Y-150360248D01*
X93137795Y-150614086D01*
X93237696Y-150855269D01*
X93374098Y-151077857D01*
X93374099Y-151077859D01*
X93543636Y-151276363D01*
X93742140Y-151445900D01*
X93742144Y-151445903D01*
X93964729Y-151582303D01*
X94205911Y-151682204D01*
X94459751Y-151743146D01*
X94720000Y-151763628D01*
X94980249Y-151743146D01*
X95234089Y-151682204D01*
X95388871Y-151618090D01*
X95437089Y-151608500D01*
X96542911Y-151608500D01*
X96591128Y-151618090D01*
X96745911Y-151682204D01*
X96999751Y-151743146D01*
X97260000Y-151763628D01*
X97520249Y-151743146D01*
X97774089Y-151682204D01*
X97928871Y-151618090D01*
X97977089Y-151608500D01*
X99082911Y-151608500D01*
X99131128Y-151618090D01*
X99285911Y-151682204D01*
X99539751Y-151743146D01*
X99800000Y-151763628D01*
X100060249Y-151743146D01*
X100314089Y-151682204D01*
X100555271Y-151582303D01*
X100777856Y-151445903D01*
X100976363Y-151276363D01*
X101145903Y-151077856D01*
X101282303Y-150855271D01*
X101382204Y-150614089D01*
X101443146Y-150360249D01*
X101463628Y-150100000D01*
X101443146Y-149839751D01*
X101382204Y-149585911D01*
X101318091Y-149431128D01*
X101308500Y-149382910D01*
X101308500Y-145765679D01*
X101322233Y-145708476D01*
X101332223Y-145688870D01*
X101377982Y-145599063D01*
X101451356Y-145373241D01*
X101488500Y-145138722D01*
X101488500Y-144901278D01*
X101451356Y-144666759D01*
X101377982Y-144440937D01*
X101270185Y-144229373D01*
X101212093Y-144149417D01*
X101206606Y-144141204D01*
X101145903Y-144042144D01*
X101145899Y-144042139D01*
X101145896Y-144042135D01*
X100976363Y-143843636D01*
X100777859Y-143674099D01*
X100777857Y-143674098D01*
X100777856Y-143674097D01*
X100555271Y-143537697D01*
X100314089Y-143437796D01*
X100314087Y-143437795D01*
X100314086Y-143437795D01*
X100177479Y-143404998D01*
X100060249Y-143376854D01*
X99800000Y-143356372D01*
X99539751Y-143376854D01*
X99285912Y-143437795D01*
X99131129Y-143501909D01*
X99082911Y-143511500D01*
X97977089Y-143511500D01*
X97928871Y-143501909D01*
X97774087Y-143437795D01*
X97600443Y-143396107D01*
X97520249Y-143376854D01*
X97260000Y-143356372D01*
X96999751Y-143376854D01*
X96745912Y-143437795D01*
X96591129Y-143501909D01*
X96542911Y-143511500D01*
X95437089Y-143511500D01*
X95388871Y-143501909D01*
X95234087Y-143437795D01*
X95060443Y-143396107D01*
X94980249Y-143376854D01*
X94720000Y-143356372D01*
X94459751Y-143376854D01*
X94205913Y-143437795D01*
X93964730Y-143537696D01*
X93742142Y-143674098D01*
X93742140Y-143674099D01*
X93543636Y-143843636D01*
X93374099Y-144042140D01*
X93374098Y-144042142D01*
X93237696Y-144264730D01*
X93137795Y-144505913D01*
X93076854Y-144759751D01*
X93056372Y-145020000D01*
X84754435Y-145020000D01*
X84762506Y-145004160D01*
X84829557Y-144797800D01*
X84863500Y-144583490D01*
X84863500Y-143916510D01*
X84829557Y-143702200D01*
X84762506Y-143495840D01*
X84663999Y-143302508D01*
X84536461Y-143126967D01*
X84536458Y-143126964D01*
X84536456Y-143126961D01*
X84383038Y-142973543D01*
X84383035Y-142973541D01*
X84383033Y-142973539D01*
X84207492Y-142846001D01*
X84014160Y-142747494D01*
X84014159Y-142747493D01*
X84014158Y-142747493D01*
X83807803Y-142680444D01*
X83807800Y-142680443D01*
X83593490Y-142646500D01*
X83376510Y-142646500D01*
X83162200Y-142680443D01*
X83162197Y-142680443D01*
X83162196Y-142680444D01*
X82955841Y-142747493D01*
X82762504Y-142846003D01*
X82586964Y-142973541D01*
X82586961Y-142973543D01*
X82433543Y-143126961D01*
X82433541Y-143126964D01*
X82316936Y-143287457D01*
X82260714Y-143330811D01*
X82189977Y-143336886D01*
X82127186Y-143303754D01*
X82113064Y-143287457D01*
X82091002Y-143257092D01*
X81996461Y-143126967D01*
X81996458Y-143126964D01*
X81996456Y-143126961D01*
X81843038Y-142973543D01*
X81843035Y-142973541D01*
X81843033Y-142973539D01*
X81667492Y-142846001D01*
X81474160Y-142747494D01*
X81474159Y-142747493D01*
X81474158Y-142747493D01*
X81267803Y-142680444D01*
X81267800Y-142680443D01*
X81053490Y-142646500D01*
X80836510Y-142646500D01*
X80622200Y-142680443D01*
X80622197Y-142680443D01*
X80622196Y-142680444D01*
X80415841Y-142747493D01*
X80222504Y-142846003D01*
X80046964Y-142973541D01*
X80046961Y-142973543D01*
X79893543Y-143126961D01*
X79893541Y-143126964D01*
X79766003Y-143302504D01*
X79667493Y-143495841D01*
X79600444Y-143702196D01*
X79600443Y-143702200D01*
X79566500Y-143916510D01*
X45000000Y-143916510D01*
X45000000Y-137250000D01*
X47000000Y-137250000D01*
X47000000Y-143000000D01*
X58000000Y-143000000D01*
X58000000Y-138000004D01*
X57995677Y-137376859D01*
X57995674Y-137375911D01*
X58000000Y-130000000D01*
X47000000Y-130000000D01*
X47000000Y-137250000D01*
X45000000Y-137250000D01*
X45000000Y-106083850D01*
X78499000Y-106083850D01*
X78499000Y-110181149D01*
X78505509Y-110241696D01*
X78505511Y-110241704D01*
X78556610Y-110378702D01*
X78556612Y-110378707D01*
X78644238Y-110495761D01*
X78761292Y-110583387D01*
X78761294Y-110583388D01*
X78761296Y-110583389D01*
X78820375Y-110605424D01*
X78898295Y-110634488D01*
X78898303Y-110634490D01*
X78958850Y-110640999D01*
X78958855Y-110640999D01*
X78958862Y-110641000D01*
X78958868Y-110641000D01*
X80961132Y-110641000D01*
X80961138Y-110641000D01*
X80961145Y-110640999D01*
X80961149Y-110640999D01*
X81021696Y-110634490D01*
X81021699Y-110634489D01*
X81021701Y-110634489D01*
X81158704Y-110583389D01*
X81275761Y-110495761D01*
X81363389Y-110378704D01*
X81414489Y-110241701D01*
X81421000Y-110181138D01*
X81421000Y-106083862D01*
X81420999Y-106083850D01*
X83579000Y-106083850D01*
X83579000Y-110181149D01*
X83585509Y-110241696D01*
X83585511Y-110241704D01*
X83636610Y-110378702D01*
X83636612Y-110378707D01*
X83724238Y-110495761D01*
X83841292Y-110583387D01*
X83841294Y-110583388D01*
X83841296Y-110583389D01*
X83900375Y-110605424D01*
X83978295Y-110634488D01*
X83978303Y-110634490D01*
X84038850Y-110640999D01*
X84038855Y-110640999D01*
X84038862Y-110641000D01*
X85615500Y-110641000D01*
X85683621Y-110661002D01*
X85730114Y-110714658D01*
X85741500Y-110767000D01*
X85741500Y-110814636D01*
X85751970Y-110947669D01*
X85751970Y-110947672D01*
X85751971Y-110947673D01*
X85807320Y-111167332D01*
X85807323Y-111167341D01*
X85901004Y-111373588D01*
X85901009Y-111373597D01*
X86030011Y-111559799D01*
X86030015Y-111559804D01*
X86190195Y-111719984D01*
X86190200Y-111719988D01*
X86376402Y-111848990D01*
X86376408Y-111848993D01*
X86376409Y-111848994D01*
X86582664Y-111942679D01*
X86802331Y-111998030D01*
X86935364Y-112008500D01*
X86935367Y-112008500D01*
X88564633Y-112008500D01*
X88564636Y-112008500D01*
X88697669Y-111998030D01*
X88917336Y-111942679D01*
X89123591Y-111848994D01*
X89309802Y-111719986D01*
X89469986Y-111559802D01*
X89598994Y-111373591D01*
X89692679Y-111167336D01*
X89748030Y-110947669D01*
X89758500Y-110814636D01*
X89758500Y-107185364D01*
X89748030Y-107052331D01*
X89692679Y-106832664D01*
X89598994Y-106626409D01*
X89598993Y-106626408D01*
X89598990Y-106626402D01*
X89469988Y-106440200D01*
X89469984Y-106440195D01*
X89309804Y-106280015D01*
X89309799Y-106280011D01*
X89123597Y-106151009D01*
X89123588Y-106151004D01*
X88917341Y-106057323D01*
X88917338Y-106057322D01*
X88917336Y-106057321D01*
X88697669Y-106001970D01*
X88564636Y-105991500D01*
X86935364Y-105991500D01*
X86802331Y-106001970D01*
X86802327Y-106001970D01*
X86802325Y-106001971D01*
X86623074Y-106047138D01*
X86552131Y-106044387D01*
X86493937Y-106003717D01*
X86474233Y-105968990D01*
X86443389Y-105886297D01*
X86443387Y-105886292D01*
X86355761Y-105769238D01*
X86238707Y-105681612D01*
X86238702Y-105681610D01*
X86101704Y-105630511D01*
X86101696Y-105630509D01*
X86041149Y-105624000D01*
X86041138Y-105624000D01*
X84038862Y-105624000D01*
X84038850Y-105624000D01*
X83978303Y-105630509D01*
X83978295Y-105630511D01*
X83841297Y-105681610D01*
X83841292Y-105681612D01*
X83724238Y-105769238D01*
X83636612Y-105886292D01*
X83636610Y-105886297D01*
X83585511Y-106023295D01*
X83585509Y-106023303D01*
X83579000Y-106083850D01*
X81420999Y-106083850D01*
X81417052Y-106047138D01*
X81414490Y-106023303D01*
X81414488Y-106023295D01*
X81363389Y-105886297D01*
X81363387Y-105886292D01*
X81275761Y-105769238D01*
X81158707Y-105681612D01*
X81158702Y-105681610D01*
X81021704Y-105630511D01*
X81021696Y-105630509D01*
X80961149Y-105624000D01*
X80961138Y-105624000D01*
X78958862Y-105624000D01*
X78958850Y-105624000D01*
X78898303Y-105630509D01*
X78898295Y-105630511D01*
X78761297Y-105681610D01*
X78761292Y-105681612D01*
X78644238Y-105769238D01*
X78556612Y-105886292D01*
X78556610Y-105886297D01*
X78505511Y-106023295D01*
X78505509Y-106023303D01*
X78499000Y-106083850D01*
X45000000Y-106083850D01*
X45000000Y-100999995D01*
X48396242Y-100999995D01*
X48396242Y-101000004D01*
X48415035Y-101202809D01*
X48415035Y-101202813D01*
X48459688Y-101359755D01*
X48470776Y-101398723D01*
X48561566Y-101581054D01*
X48561567Y-101581055D01*
X48684311Y-101743596D01*
X48834837Y-101880818D01*
X48834838Y-101880819D01*
X49008001Y-101988037D01*
X49008004Y-101988038D01*
X49008013Y-101988044D01*
X49090765Y-102020102D01*
X49197935Y-102061621D01*
X49197938Y-102061621D01*
X49197942Y-102061623D01*
X49398158Y-102099050D01*
X49398161Y-102099050D01*
X49601839Y-102099050D01*
X49601842Y-102099050D01*
X49802058Y-102061623D01*
X49802062Y-102061621D01*
X49802064Y-102061621D01*
X49850907Y-102042698D01*
X49991987Y-101988044D01*
X50165163Y-101880818D01*
X50315687Y-101743597D01*
X50438434Y-101581054D01*
X50529224Y-101398723D01*
X50584964Y-101202815D01*
X50599971Y-101040865D01*
X50603758Y-101000004D01*
X50603758Y-100999995D01*
X50589765Y-100848994D01*
X50584964Y-100797185D01*
X50529224Y-100601277D01*
X50438434Y-100418946D01*
X50381845Y-100344010D01*
X50315688Y-100256403D01*
X50165162Y-100119181D01*
X50165161Y-100119180D01*
X49991998Y-100011962D01*
X49991991Y-100011958D01*
X49991987Y-100011956D01*
X49991982Y-100011954D01*
X49802064Y-99938378D01*
X49766385Y-99931708D01*
X49601842Y-99900950D01*
X49398158Y-99900950D01*
X49268996Y-99925094D01*
X49197935Y-99938378D01*
X49008017Y-100011954D01*
X49008001Y-100011962D01*
X48834838Y-100119180D01*
X48834837Y-100119181D01*
X48684311Y-100256403D01*
X48561567Y-100418944D01*
X48470776Y-100601277D01*
X48470773Y-100601285D01*
X48415035Y-100797186D01*
X48415035Y-100797190D01*
X48396242Y-100999995D01*
X45000000Y-100999995D01*
X45000000Y-97318850D01*
X78599000Y-97318850D01*
X78599000Y-101416149D01*
X78605509Y-101476696D01*
X78605511Y-101476704D01*
X78656610Y-101613702D01*
X78656612Y-101613707D01*
X78744238Y-101730761D01*
X78861292Y-101818387D01*
X78861294Y-101818388D01*
X78861296Y-101818389D01*
X78920375Y-101840424D01*
X78998295Y-101869488D01*
X78998303Y-101869490D01*
X79058850Y-101875999D01*
X79058855Y-101875999D01*
X79058862Y-101876000D01*
X79058868Y-101876000D01*
X81061132Y-101876000D01*
X81061138Y-101876000D01*
X81061145Y-101875999D01*
X81061149Y-101875999D01*
X81121696Y-101869490D01*
X81121699Y-101869489D01*
X81121701Y-101869489D01*
X81258704Y-101818389D01*
X81358616Y-101743596D01*
X81375761Y-101730761D01*
X81463387Y-101613707D01*
X81463387Y-101613706D01*
X81463389Y-101613704D01*
X81514489Y-101476701D01*
X81521000Y-101416138D01*
X81521000Y-97318862D01*
X81520999Y-97318850D01*
X83679000Y-97318850D01*
X83679000Y-101416149D01*
X83685509Y-101476696D01*
X83685511Y-101476704D01*
X83736610Y-101613702D01*
X83736612Y-101613707D01*
X83824238Y-101730761D01*
X83941292Y-101818387D01*
X83941294Y-101818388D01*
X83941296Y-101818389D01*
X84000375Y-101840424D01*
X84078295Y-101869488D01*
X84078303Y-101869490D01*
X84138850Y-101875999D01*
X84138855Y-101875999D01*
X84138862Y-101876000D01*
X84138868Y-101876000D01*
X86141132Y-101876000D01*
X86141138Y-101876000D01*
X86141145Y-101875999D01*
X86141149Y-101875999D01*
X86201696Y-101869490D01*
X86201699Y-101869489D01*
X86201701Y-101869489D01*
X86338704Y-101818389D01*
X86438616Y-101743596D01*
X86455761Y-101730761D01*
X86543387Y-101613707D01*
X86543387Y-101613706D01*
X86543389Y-101613704D01*
X86594489Y-101476701D01*
X86601000Y-101416138D01*
X86601000Y-101280829D01*
X94241500Y-101280829D01*
X94241500Y-101280840D01*
X94241500Y-101280841D01*
X94241500Y-103219159D01*
X94244311Y-103272088D01*
X94244311Y-103272092D01*
X94289031Y-103503318D01*
X94318163Y-103580512D01*
X94323501Y-103651308D01*
X94318163Y-103669488D01*
X94289031Y-103746680D01*
X94289030Y-103746686D01*
X94244311Y-103977908D01*
X94241500Y-104030829D01*
X94241500Y-104030840D01*
X94241500Y-104030841D01*
X94241500Y-105969159D01*
X94241501Y-105969170D01*
X94244311Y-106022092D01*
X94269243Y-106151006D01*
X94289031Y-106253317D01*
X94372182Y-106473652D01*
X94372184Y-106473657D01*
X94491373Y-106676766D01*
X94643180Y-106856819D01*
X94823233Y-107008626D01*
X95026342Y-107127815D01*
X95026344Y-107127816D01*
X95026348Y-107127818D01*
X95246686Y-107210970D01*
X95477908Y-107255689D01*
X95530829Y-107258500D01*
X97969170Y-107258499D01*
X98022092Y-107255689D01*
X98253314Y-107210970D01*
X98473652Y-107127818D01*
X98602289Y-107052331D01*
X98647451Y-107025829D01*
X98711221Y-107008500D01*
X103365862Y-107008500D01*
X103433983Y-107028502D01*
X103454957Y-107045405D01*
X104204595Y-107795043D01*
X104238621Y-107857355D01*
X104241500Y-107884138D01*
X104241500Y-115115500D01*
X104221498Y-115183621D01*
X104167842Y-115230114D01*
X104115500Y-115241500D01*
X96150668Y-115241500D01*
X95955830Y-115280256D01*
X95955825Y-115280258D01*
X95772296Y-115356279D01*
X95607123Y-115466644D01*
X95607116Y-115466649D01*
X95466649Y-115607116D01*
X95466644Y-115607123D01*
X95356279Y-115772296D01*
X95280258Y-115955825D01*
X95280256Y-115955830D01*
X95241500Y-116150668D01*
X95241500Y-116150671D01*
X95241500Y-117900671D01*
X95241500Y-118099329D01*
X95280256Y-118294169D01*
X95356279Y-118477704D01*
X95466647Y-118642881D01*
X95607119Y-118783353D01*
X95772296Y-118893721D01*
X95919574Y-118954726D01*
X95922218Y-118955821D01*
X95977499Y-119000370D01*
X95999920Y-119067733D01*
X96000000Y-119072230D01*
X96000000Y-121427769D01*
X95979998Y-121495890D01*
X95926342Y-121542383D01*
X95922219Y-121544177D01*
X95772300Y-121606276D01*
X95772296Y-121606278D01*
X95607123Y-121716644D01*
X95607116Y-121716649D01*
X95466649Y-121857116D01*
X95466644Y-121857123D01*
X95356279Y-122022296D01*
X95280258Y-122205825D01*
X95280256Y-122205830D01*
X95241500Y-122400668D01*
X95241500Y-122400671D01*
X95241500Y-123900671D01*
X95241500Y-124099329D01*
X95280256Y-124294169D01*
X95356279Y-124477704D01*
X95466647Y-124642881D01*
X95607119Y-124783353D01*
X95772296Y-124893721D01*
X95955831Y-124969744D01*
X96150671Y-125008500D01*
X97650671Y-125008500D01*
X98530075Y-125008500D01*
X98598196Y-125028502D01*
X98619170Y-125045405D01*
X99028185Y-125454420D01*
X99319619Y-125745854D01*
X99484797Y-125856222D01*
X99588132Y-125899024D01*
X99588146Y-125899030D01*
X99588147Y-125899031D01*
X99668323Y-125932241D01*
X99668324Y-125932241D01*
X99668331Y-125932244D01*
X99863171Y-125971000D01*
X99863172Y-125971000D01*
X100061829Y-125971000D01*
X109882295Y-125971000D01*
X109948443Y-125989759D01*
X109952262Y-125992115D01*
X110120574Y-126047887D01*
X110224455Y-126058500D01*
X111275544Y-126058499D01*
X111379426Y-126047887D01*
X111379429Y-126047886D01*
X111379431Y-126047886D01*
X111435032Y-126029461D01*
X111547738Y-125992115D01*
X111551556Y-125989759D01*
X111617705Y-125971000D01*
X112382295Y-125971000D01*
X112448443Y-125989759D01*
X112452262Y-125992115D01*
X112620574Y-126047887D01*
X112724455Y-126058500D01*
X113775544Y-126058499D01*
X113879426Y-126047887D01*
X114047738Y-125992115D01*
X114198652Y-125899030D01*
X114324030Y-125773652D01*
X114417115Y-125622738D01*
X114472887Y-125454426D01*
X114483500Y-125350545D01*
X114483499Y-124574456D01*
X114472887Y-124470574D01*
X114417115Y-124302262D01*
X114324030Y-124151348D01*
X114324029Y-124151347D01*
X114324024Y-124151341D01*
X114295405Y-124122722D01*
X114261379Y-124060410D01*
X114258500Y-124033627D01*
X114258500Y-123966373D01*
X114278502Y-123898252D01*
X114295405Y-123877278D01*
X114424024Y-123748658D01*
X114424030Y-123748652D01*
X114517115Y-123597738D01*
X114572887Y-123429426D01*
X114583500Y-123325545D01*
X114583499Y-123106053D01*
X114603501Y-123037933D01*
X114604691Y-123036115D01*
X114643722Y-122977704D01*
X114709202Y-122819619D01*
X114719744Y-122794169D01*
X114758500Y-122599329D01*
X114758500Y-122400671D01*
X114719744Y-122205831D01*
X114719741Y-122205823D01*
X114693098Y-122141501D01*
X114693097Y-122141500D01*
X114643722Y-122022296D01*
X114533354Y-121857119D01*
X114392881Y-121716646D01*
X114227704Y-121606278D01*
X114177984Y-121585683D01*
X114077782Y-121544178D01*
X114022501Y-121499629D01*
X114000080Y-121432266D01*
X114000000Y-121427769D01*
X114000000Y-121182054D01*
X114020002Y-121113933D01*
X114073658Y-121067440D01*
X114086352Y-121062455D01*
X114147738Y-121042115D01*
X114298652Y-120949030D01*
X114424030Y-120823652D01*
X114517115Y-120672738D01*
X114572887Y-120504426D01*
X114583500Y-120400545D01*
X114583499Y-119674456D01*
X114572887Y-119570574D01*
X114517115Y-119402262D01*
X114424030Y-119251348D01*
X114424029Y-119251347D01*
X114424024Y-119251341D01*
X114298658Y-119125975D01*
X114298652Y-119125970D01*
X114147738Y-119032885D01*
X114147735Y-119032884D01*
X114086366Y-119012548D01*
X114027995Y-118972134D01*
X114000740Y-118906577D01*
X114000000Y-118892944D01*
X114000000Y-118000000D01*
X113884500Y-118000000D01*
X113816379Y-117979998D01*
X113769886Y-117926342D01*
X113758500Y-117874000D01*
X113758500Y-116900672D01*
X113758499Y-116900668D01*
X113719744Y-116705831D01*
X113643721Y-116522296D01*
X113533353Y-116357119D01*
X113392881Y-116216647D01*
X112642881Y-115466647D01*
X112477704Y-115356279D01*
X112294169Y-115280256D01*
X112099331Y-115241500D01*
X112099329Y-115241500D01*
X110384500Y-115241500D01*
X110316379Y-115221498D01*
X110269886Y-115167842D01*
X110258500Y-115115500D01*
X110258500Y-107249995D01*
X139146242Y-107249995D01*
X139146242Y-107250004D01*
X139165035Y-107452809D01*
X139165035Y-107452813D01*
X139165036Y-107452815D01*
X139220776Y-107648723D01*
X139311566Y-107831054D01*
X139311567Y-107831055D01*
X139434311Y-107993596D01*
X139584837Y-108130818D01*
X139584838Y-108130819D01*
X139758001Y-108238037D01*
X139758004Y-108238038D01*
X139758013Y-108238044D01*
X139840765Y-108270102D01*
X139947935Y-108311621D01*
X139947938Y-108311621D01*
X139947942Y-108311623D01*
X140148158Y-108349050D01*
X140148161Y-108349050D01*
X140351839Y-108349050D01*
X140351842Y-108349050D01*
X140552058Y-108311623D01*
X140552062Y-108311621D01*
X140552064Y-108311621D01*
X140600907Y-108292698D01*
X140741987Y-108238044D01*
X140915163Y-108130818D01*
X141065687Y-107993597D01*
X141188434Y-107831054D01*
X141279224Y-107648723D01*
X141334964Y-107452815D01*
X141346240Y-107331126D01*
X141353758Y-107250004D01*
X141353758Y-107249995D01*
X141342436Y-107127815D01*
X141334964Y-107047185D01*
X141279224Y-106851277D01*
X141188434Y-106668946D01*
X141148084Y-106615515D01*
X141065688Y-106506403D01*
X140915162Y-106369181D01*
X140915161Y-106369180D01*
X140741998Y-106261962D01*
X140741991Y-106261958D01*
X140741987Y-106261956D01*
X140741982Y-106261954D01*
X140552064Y-106188378D01*
X140516385Y-106181708D01*
X140351842Y-106150950D01*
X140148158Y-106150950D01*
X140018996Y-106175094D01*
X139947935Y-106188378D01*
X139758017Y-106261954D01*
X139758001Y-106261962D01*
X139584838Y-106369180D01*
X139584837Y-106369181D01*
X139434311Y-106506403D01*
X139311567Y-106668944D01*
X139220776Y-106851277D01*
X139220773Y-106851285D01*
X139165035Y-107047186D01*
X139165035Y-107047190D01*
X139146242Y-107249995D01*
X110258500Y-107249995D01*
X110258500Y-105634749D01*
X110258500Y-105634742D01*
X110228411Y-105406198D01*
X110168749Y-105183536D01*
X110080535Y-104970567D01*
X110021523Y-104868356D01*
X109965276Y-104770933D01*
X109824947Y-104588052D01*
X109824946Y-104588051D01*
X109824937Y-104588041D01*
X106954055Y-101717160D01*
X106921443Y-101660676D01*
X106905990Y-101603003D01*
X106805234Y-101359757D01*
X106805228Y-101359748D01*
X106805227Y-101359744D01*
X106673592Y-101131746D01*
X106572500Y-101000000D01*
X106513311Y-100922862D01*
X106513310Y-100922861D01*
X106513301Y-100922851D01*
X106327148Y-100736698D01*
X106327138Y-100736689D01*
X106150675Y-100601285D01*
X106118257Y-100576410D01*
X106118256Y-100576409D01*
X106118253Y-100576407D01*
X105890255Y-100444772D01*
X105890247Y-100444768D01*
X105890243Y-100444766D01*
X105646997Y-100344010D01*
X105392680Y-100275866D01*
X105392678Y-100275865D01*
X105392672Y-100275864D01*
X105131646Y-100241500D01*
X105131644Y-100241500D01*
X98711221Y-100241500D01*
X98647451Y-100224171D01*
X98473657Y-100122184D01*
X98473652Y-100122182D01*
X98253318Y-100039031D01*
X98253315Y-100039030D01*
X98253314Y-100039030D01*
X98022092Y-99994311D01*
X97969171Y-99991500D01*
X97969158Y-99991500D01*
X95530840Y-99991500D01*
X95491329Y-99993598D01*
X95477908Y-99994311D01*
X95477907Y-99994311D01*
X95371378Y-100014914D01*
X95246686Y-100039030D01*
X95246684Y-100039030D01*
X95246682Y-100039031D01*
X95026347Y-100122182D01*
X95026342Y-100122184D01*
X94823233Y-100241373D01*
X94643180Y-100393180D01*
X94491373Y-100573233D01*
X94372184Y-100776342D01*
X94372182Y-100776347D01*
X94289031Y-100996681D01*
X94289030Y-100996685D01*
X94289030Y-100996686D01*
X94244311Y-101227908D01*
X94241500Y-101280829D01*
X86601000Y-101280829D01*
X86601000Y-101108986D01*
X86621002Y-101040865D01*
X86674658Y-100994372D01*
X86744932Y-100984268D01*
X86757781Y-100986804D01*
X86802331Y-100998030D01*
X86935364Y-101008500D01*
X86935367Y-101008500D01*
X88564633Y-101008500D01*
X88564636Y-101008500D01*
X88697669Y-100998030D01*
X88917336Y-100942679D01*
X89123591Y-100848994D01*
X89198373Y-100797185D01*
X89309799Y-100719988D01*
X89309798Y-100719988D01*
X89309802Y-100719986D01*
X89469986Y-100559802D01*
X89598994Y-100373591D01*
X89692679Y-100167336D01*
X89748030Y-99947669D01*
X89758500Y-99814636D01*
X89758500Y-96185364D01*
X89748030Y-96052331D01*
X89692679Y-95832664D01*
X89598994Y-95626409D01*
X89598993Y-95626408D01*
X89598990Y-95626402D01*
X89469988Y-95440200D01*
X89469984Y-95440195D01*
X89309804Y-95280015D01*
X89309799Y-95280011D01*
X89123597Y-95151009D01*
X89123588Y-95151004D01*
X88917341Y-95057323D01*
X88917338Y-95057322D01*
X88917336Y-95057321D01*
X88697669Y-95001970D01*
X88564636Y-94991500D01*
X86935364Y-94991500D01*
X86802331Y-95001970D01*
X86802327Y-95001970D01*
X86802326Y-95001971D01*
X86582667Y-95057320D01*
X86582658Y-95057323D01*
X86376411Y-95151004D01*
X86376402Y-95151009D01*
X86190200Y-95280011D01*
X86190195Y-95280015D01*
X86030015Y-95440195D01*
X86030011Y-95440200D01*
X85901009Y-95626402D01*
X85901004Y-95626411D01*
X85807323Y-95832658D01*
X85807321Y-95832664D01*
X85751970Y-96052331D01*
X85741500Y-96185364D01*
X85741500Y-96185367D01*
X85741500Y-96733000D01*
X85721498Y-96801121D01*
X85667842Y-96847614D01*
X85615500Y-96859000D01*
X84138850Y-96859000D01*
X84078303Y-96865509D01*
X84078295Y-96865511D01*
X83941297Y-96916610D01*
X83941292Y-96916612D01*
X83824238Y-97004238D01*
X83736612Y-97121292D01*
X83736610Y-97121297D01*
X83685511Y-97258295D01*
X83685509Y-97258303D01*
X83679000Y-97318850D01*
X81520999Y-97318850D01*
X81514490Y-97258303D01*
X81514488Y-97258295D01*
X81463389Y-97121297D01*
X81463387Y-97121292D01*
X81375761Y-97004238D01*
X81258707Y-96916612D01*
X81258702Y-96916610D01*
X81121704Y-96865511D01*
X81121696Y-96865509D01*
X81061149Y-96859000D01*
X81061138Y-96859000D01*
X79058862Y-96859000D01*
X79058850Y-96859000D01*
X78998303Y-96865509D01*
X78998295Y-96865511D01*
X78861297Y-96916610D01*
X78861292Y-96916612D01*
X78744238Y-97004238D01*
X78656612Y-97121292D01*
X78656610Y-97121297D01*
X78605511Y-97258295D01*
X78605509Y-97258303D01*
X78599000Y-97318850D01*
X45000000Y-97318850D01*
X45000000Y-75126000D01*
X45020002Y-75057879D01*
X45073658Y-75011386D01*
X45126000Y-75000000D01*
X144874000Y-75000000D01*
X144942121Y-75020002D01*
G37*
G04 #@! TD.AperFunction*
M02*
