M48
; DRILL file {KiCad 8.0.4} date 2024-11-19T14:34:29+0100
; FORMAT={-:-/ absolute / metric / decimal}
; #@! TF.CreationDate,2024-11-19T14:34:29+01:00
; #@! TF.GenerationSoftware,Kicad,Pcbnew,8.0.4
; #@! TF.FileFunction,Plated,1,2,PTH
FMAT,2
METRIC
; #@! TA.AperFunction,Plated,PTH,ComponentDrill
T1C0.300
; #@! TA.AperFunction,Plated,PTH,ViaDrill
T2C0.400
; #@! TA.AperFunction,Plated,PTH,ComponentDrill
T3C0.500
; #@! TA.AperFunction,Plated,PTH,ComponentDrill
T4C1.190
; #@! TA.AperFunction,Plated,PTH,ViaDrill
T5C1.200
; #@! TA.AperFunction,Plated,PTH,ComponentDrill
T6C1.300
; #@! TA.AperFunction,Plated,PTH,ComponentDrill
T7C1.300
; #@! TA.AperFunction,Plated,PTH,ComponentDrill
T8C1.600
; #@! TA.AperFunction,Plated,PTH,ComponentDrill
T9C2.000
; #@! TA.AperFunction,Plated,PTH,ComponentDrill
T10C3.200
%
G90
G05
T1
X50.3Y-133.725
X50.3Y-139.275
X55.15Y-133.725
X55.15Y-139.275
T2
X46.0Y-77.0
X46.0Y-81.5
X46.0Y-86.5
X46.0Y-91.5
X46.0Y-96.5
X46.0Y-106.5
X46.0Y-111.5
X46.0Y-116.5
X46.0Y-121.5
X46.0Y-126.5
X46.0Y-131.5
X46.0Y-136.5
X46.0Y-141.5
X46.0Y-146.5
X47.0Y-153.0
X48.5Y-136.5
X50.0Y-132.5
X50.0Y-135.0
X50.0Y-137.5
X50.0Y-140.0
X50.5Y-96.0
X52.0Y-77.0
X52.0Y-132.5
X52.0Y-135.0
X52.0Y-137.5
X52.0Y-140.0
X52.0Y-153.0
X52.75Y-131.5
X52.75Y-141.5
X53.5Y-132.5
X53.5Y-135.0
X53.5Y-137.5
X53.5Y-140.0
X54.25Y-105.25
X54.25Y-106.5
X54.75Y-107.5
X55.0Y-132.5
X55.0Y-135.0
X55.0Y-137.5
X55.0Y-140.0
X55.5Y-96.0
X55.75Y-107.5
X56.75Y-107.5
X57.0Y-77.0
X57.0Y-136.5
X57.0Y-153.0
X57.1Y-143.5
X58.1Y-149.5
X58.5Y-127.5
X60.0Y-127.5
X60.5Y-96.0
X61.0Y-142.8
X61.0Y-143.75
X61.25Y-125.0
X61.25Y-127.0
X61.25Y-129.0
X62.0Y-77.0
X62.0Y-153.0
X62.1Y-149.5
X62.4Y-130.0
X62.6Y-142.8
X62.6Y-143.8
X62.75Y-126.0
X62.75Y-128.0
X63.75Y-140.6
X63.75Y-141.6
X65.5Y-96.0
X65.6Y-140.4
X65.6Y-141.6
X67.0Y-77.0
X67.0Y-153.0
X68.0Y-140.4
X68.1Y-141.6
X69.6Y-134.5
X69.6Y-136.0
X69.6Y-137.5
X69.6Y-139.0
X69.6Y-140.4
X70.5Y-96.0
X70.75Y-127.75
X71.1Y-134.5
X71.1Y-136.0
X71.1Y-137.5
X71.1Y-139.0
X71.1Y-140.4
X72.0Y-77.0
X72.0Y-153.0
X72.25Y-127.75
X73.5Y-127.75
X74.25Y-137.25
X74.25Y-138.75
X74.75Y-127.75
X74.75Y-129.25
X74.75Y-130.75
X75.5Y-96.0
X75.75Y-135.7
X75.75Y-137.2
X75.75Y-138.75
X76.0Y-130.75
X77.0Y-77.0
X77.0Y-153.0
X81.5Y-102.5
X81.5Y-104.0
X81.5Y-105.5
X82.0Y-77.0
X82.0Y-153.0
X82.5Y-96.5
X82.5Y-98.25
X82.5Y-100.75
X82.5Y-104.0
X82.5Y-106.75
X82.5Y-109.5
X82.5Y-111.0
X82.6Y-102.5
X82.6Y-105.5
X83.5Y-104.0
X84.5Y-129.7
X87.0Y-77.0
X87.0Y-153.0
X91.5Y-126.75
X92.0Y-77.0
X93.5Y-118.75
X93.5Y-120.75
X93.5Y-122.75
X93.5Y-124.75
X93.5Y-126.75
X95.5Y-126.75
X97.0Y-77.0
X97.5Y-126.75
X99.25Y-128.0
X99.25Y-129.5
X99.25Y-131.0
X100.25Y-93.5
X100.25Y-139.5
X101.9Y-141.4
X102.0Y-77.0
X102.0Y-139.5
X104.0Y-139.5
X104.0Y-142.5
X104.0Y-145.5
X104.75Y-93.5
X105.25Y-126.75
X107.0Y-77.0
X107.0Y-153.0
X107.25Y-126.75
X109.25Y-126.75
X109.75Y-93.5
X110.75Y-128.5
X112.0Y-77.0
X112.0Y-153.0
X113.25Y-128.5
X114.75Y-93.5
X116.0Y-120.75
X116.0Y-122.75
X116.0Y-124.75
X116.0Y-126.75
X116.25Y-115.5
X116.5Y-113.0
X117.0Y-77.0
X117.0Y-153.0
X118.5Y-113.0
X119.75Y-93.5
X121.25Y-115.5
X122.0Y-77.0
X122.0Y-103.0
X122.0Y-104.5
X122.0Y-106.0
X122.0Y-107.5
X122.0Y-109.0
X122.0Y-110.5
X122.0Y-153.0
X122.75Y-101.5
X122.75Y-112.25
X124.75Y-93.5
X124.75Y-101.25
X124.75Y-112.75
X126.25Y-115.5
X126.75Y-101.25
X126.75Y-112.75
X127.0Y-77.0
X127.0Y-153.0
X128.25Y-101.25
X128.25Y-112.75
X129.75Y-101.25
X129.75Y-112.75
X131.25Y-115.5
X131.75Y-101.25
X131.75Y-112.75
X132.0Y-77.0
X132.0Y-153.0
X133.25Y-101.25
X133.25Y-112.75
X134.75Y-101.25
X134.75Y-112.75
X136.25Y-101.25
X136.25Y-112.75
X136.25Y-115.5
X137.0Y-77.0
X137.0Y-153.0
X138.25Y-101.25
X138.25Y-112.75
X139.75Y-101.25
X139.75Y-112.75
X142.0Y-77.0
X142.0Y-153.0
X143.75Y-81.0
X143.75Y-85.25
X143.75Y-90.25
X143.75Y-95.25
X143.75Y-100.25
X143.75Y-114.25
X143.75Y-118.5
X143.75Y-123.5
X143.75Y-128.5
X143.75Y-133.5
X143.75Y-138.5
X143.75Y-143.5
T3
X48.6Y-81.0
X48.6Y-148.0
X49.303Y-79.303
X49.303Y-82.697
X49.303Y-146.303
X49.303Y-149.697
X51.0Y-78.6
X51.0Y-83.4
X51.0Y-145.6
X51.0Y-150.4
X52.697Y-79.303
X52.697Y-82.697
X52.697Y-146.303
X52.697Y-149.697
X53.4Y-81.0
X53.4Y-148.0
X135.903Y-81.0
X135.903Y-148.0
X136.606Y-79.303
X136.606Y-82.697
X136.606Y-146.303
X136.606Y-149.697
X138.303Y-78.6
X138.303Y-83.4
X138.303Y-145.6
X138.303Y-150.4
X140.0Y-79.303
X140.0Y-82.697
X140.0Y-146.303
X140.0Y-149.697
X140.703Y-81.0
X140.703Y-148.0
T4
X80.945Y-144.25
X83.485Y-144.25
X86.025Y-144.25
T5
X97.5Y-117.25
X97.5Y-123.25
T6
X79.96Y-108.132
X80.06Y-99.367
X82.5Y-108.132
X82.6Y-99.367
X85.04Y-108.132
X85.14Y-99.367
T7
X46.96Y-98.46
X46.96Y-103.54
X49.5Y-101.0
X52.04Y-98.46
X52.04Y-103.54
X137.71Y-104.71
X137.71Y-109.79
X140.25Y-107.25
X142.79Y-104.71
X142.79Y-109.79
T8
X94.72Y-145.02
X94.72Y-150.1
X97.26Y-145.02
X97.26Y-150.1
X99.8Y-145.02
X99.8Y-150.1
X123.0Y-145.0
X123.0Y-150.08
X125.54Y-145.0
X125.54Y-150.08
X128.08Y-145.0
X128.08Y-150.08
T9
X87.75Y-98.0
X87.75Y-109.0
X96.75Y-102.25
X96.75Y-105.0
T10
X51.0Y-81.0
X51.0Y-148.0
X82.5Y-124.792
X82.6Y-82.707
X138.303Y-81.0
X138.303Y-148.0
M30
