G04 #@! TF.GenerationSoftware,KiCad,Pcbnew,8.0.1*
G04 #@! TF.CreationDate,2024-04-29T11:20:42+02:00*
G04 #@! TF.ProjectId,MUNIN 100,4d554e49-4e20-4313-9030-2e6b69636164,0*
G04 #@! TF.SameCoordinates,Original*
G04 #@! TF.FileFunction,Copper,L1,Top*
G04 #@! TF.FilePolarity,Positive*
%FSLAX46Y46*%
G04 Gerber Fmt 4.6, Leading zero omitted, Abs format (unit mm)*
G04 Created by KiCad (PCBNEW 8.0.1) date 2024-04-29 11:20:42*
%MOMM*%
%LPD*%
G01*
G04 APERTURE LIST*
G04 Aperture macros list*
%AMRoundRect*
0 Rectangle with rounded corners*
0 $1 Rounding radius*
0 $2 $3 $4 $5 $6 $7 $8 $9 X,Y pos of 4 corners*
0 Add a 4 corners polygon primitive as box body*
4,1,4,$2,$3,$4,$5,$6,$7,$8,$9,$2,$3,0*
0 Add four circle primitives for the rounded corners*
1,1,$1+$1,$2,$3*
1,1,$1+$1,$4,$5*
1,1,$1+$1,$6,$7*
1,1,$1+$1,$8,$9*
0 Add four rect primitives between the rounded corners*
20,1,$1+$1,$2,$3,$4,$5,0*
20,1,$1+$1,$4,$5,$6,$7,0*
20,1,$1+$1,$6,$7,$8,$9,0*
20,1,$1+$1,$8,$9,$2,$3,0*%
%AMRotRect*
0 Rectangle, with rotation*
0 The origin of the aperture is its center*
0 $1 length*
0 $2 width*
0 $3 Rotation angle, in degrees counterclockwise*
0 Add horizontal line*
21,1,$1,$2,0,0,$3*%
G04 Aperture macros list end*
G04 #@! TA.AperFunction,SMDPad,CuDef*
%ADD10O,3.300000X2.500000*%
G04 #@! TD*
G04 #@! TA.AperFunction,SMDPad,CuDef*
%ADD11RoundRect,0.750000X-0.750000X1.750000X-0.750000X-1.750000X0.750000X-1.750000X0.750000X1.750000X0*%
G04 #@! TD*
G04 #@! TA.AperFunction,SMDPad,CuDef*
%ADD12RoundRect,0.875000X-1.125000X0.875000X-1.125000X-0.875000X1.125000X-0.875000X1.125000X0.875000X0*%
G04 #@! TD*
G04 #@! TA.AperFunction,SMDPad,CuDef*
%ADD13RoundRect,0.250000X0.475000X-0.250000X0.475000X0.250000X-0.475000X0.250000X-0.475000X-0.250000X0*%
G04 #@! TD*
G04 #@! TA.AperFunction,ComponentPad*
%ADD14C,6.000000*%
G04 #@! TD*
G04 #@! TA.AperFunction,ComponentPad*
%ADD15R,1.905000X4.000000*%
G04 #@! TD*
G04 #@! TA.AperFunction,ComponentPad*
%ADD16RotRect,1.905000X4.000000X181.300000*%
G04 #@! TD*
G04 #@! TA.AperFunction,SMDPad,CuDef*
%ADD17RoundRect,0.250000X0.350000X0.450000X-0.350000X0.450000X-0.350000X-0.450000X0.350000X-0.450000X0*%
G04 #@! TD*
G04 #@! TA.AperFunction,SMDPad,CuDef*
%ADD18RoundRect,0.150000X0.825000X0.150000X-0.825000X0.150000X-0.825000X-0.150000X0.825000X-0.150000X0*%
G04 #@! TD*
G04 #@! TA.AperFunction,SMDPad,CuDef*
%ADD19RoundRect,0.250000X-0.337500X-0.475000X0.337500X-0.475000X0.337500X0.475000X-0.337500X0.475000X0*%
G04 #@! TD*
G04 #@! TA.AperFunction,SMDPad,CuDef*
%ADD20RoundRect,0.250000X-0.275000X-0.350000X0.275000X-0.350000X0.275000X0.350000X-0.275000X0.350000X0*%
G04 #@! TD*
G04 #@! TA.AperFunction,SMDPad,CuDef*
%ADD21RoundRect,0.250000X-1.450000X0.312500X-1.450000X-0.312500X1.450000X-0.312500X1.450000X0.312500X0*%
G04 #@! TD*
G04 #@! TA.AperFunction,SMDPad,CuDef*
%ADD22RoundRect,0.250000X-0.412500X-1.100000X0.412500X-1.100000X0.412500X1.100000X-0.412500X1.100000X0*%
G04 #@! TD*
G04 #@! TA.AperFunction,SMDPad,CuDef*
%ADD23RoundRect,0.250000X-0.475000X0.337500X-0.475000X-0.337500X0.475000X-0.337500X0.475000X0.337500X0*%
G04 #@! TD*
G04 #@! TA.AperFunction,SMDPad,CuDef*
%ADD24RoundRect,0.250000X0.337500X0.475000X-0.337500X0.475000X-0.337500X-0.475000X0.337500X-0.475000X0*%
G04 #@! TD*
G04 #@! TA.AperFunction,SMDPad,CuDef*
%ADD25RoundRect,0.250000X-0.350000X-0.450000X0.350000X-0.450000X0.350000X0.450000X-0.350000X0.450000X0*%
G04 #@! TD*
G04 #@! TA.AperFunction,SMDPad,CuDef*
%ADD26RoundRect,0.150000X0.150000X-0.800000X0.150000X0.800000X-0.150000X0.800000X-0.150000X-0.800000X0*%
G04 #@! TD*
G04 #@! TA.AperFunction,SMDPad,CuDef*
%ADD27RoundRect,0.250000X-0.312500X-0.625000X0.312500X-0.625000X0.312500X0.625000X-0.312500X0.625000X0*%
G04 #@! TD*
G04 #@! TA.AperFunction,SMDPad,CuDef*
%ADD28RoundRect,0.250000X-1.950000X-1.000000X1.950000X-1.000000X1.950000X1.000000X-1.950000X1.000000X0*%
G04 #@! TD*
G04 #@! TA.AperFunction,SMDPad,CuDef*
%ADD29RoundRect,0.250000X2.050000X0.300000X-2.050000X0.300000X-2.050000X-0.300000X2.050000X-0.300000X0*%
G04 #@! TD*
G04 #@! TA.AperFunction,SMDPad,CuDef*
%ADD30RoundRect,0.250000X2.025000X2.375000X-2.025000X2.375000X-2.025000X-2.375000X2.025000X-2.375000X0*%
G04 #@! TD*
G04 #@! TA.AperFunction,SMDPad,CuDef*
%ADD31RoundRect,0.250002X4.449998X5.149998X-4.449998X5.149998X-4.449998X-5.149998X4.449998X-5.149998X0*%
G04 #@! TD*
G04 #@! TA.AperFunction,SMDPad,CuDef*
%ADD32R,1.500000X2.700000*%
G04 #@! TD*
G04 #@! TA.AperFunction,SMDPad,CuDef*
%ADD33RoundRect,0.250000X-1.100000X0.325000X-1.100000X-0.325000X1.100000X-0.325000X1.100000X0.325000X0*%
G04 #@! TD*
G04 #@! TA.AperFunction,ComponentPad*
%ADD34C,0.800000*%
G04 #@! TD*
G04 #@! TA.AperFunction,ComponentPad*
%ADD35C,6.400000*%
G04 #@! TD*
G04 #@! TA.AperFunction,SMDPad,CuDef*
%ADD36RoundRect,0.243750X0.243750X0.456250X-0.243750X0.456250X-0.243750X-0.456250X0.243750X-0.456250X0*%
G04 #@! TD*
G04 #@! TA.AperFunction,SMDPad,CuDef*
%ADD37RoundRect,0.249998X4.550002X-3.650002X4.550002X3.650002X-4.550002X3.650002X-4.550002X-3.650002X0*%
G04 #@! TD*
G04 #@! TA.AperFunction,ComponentPad*
%ADD38C,1.998980*%
G04 #@! TD*
G04 #@! TA.AperFunction,ComponentPad*
%ADD39C,2.499360*%
G04 #@! TD*
G04 #@! TA.AperFunction,SMDPad,CuDef*
%ADD40RoundRect,0.250000X-1.075000X0.312500X-1.075000X-0.312500X1.075000X-0.312500X1.075000X0.312500X0*%
G04 #@! TD*
G04 #@! TA.AperFunction,ComponentPad*
%ADD41C,2.300000*%
G04 #@! TD*
G04 #@! TA.AperFunction,SMDPad,CuDef*
%ADD42RoundRect,0.250000X-0.250000X-0.475000X0.250000X-0.475000X0.250000X0.475000X-0.250000X0.475000X0*%
G04 #@! TD*
G04 #@! TA.AperFunction,ComponentPad*
%ADD43RoundRect,0.250000X0.620000X0.845000X-0.620000X0.845000X-0.620000X-0.845000X0.620000X-0.845000X0*%
G04 #@! TD*
G04 #@! TA.AperFunction,ComponentPad*
%ADD44O,1.740000X2.190000*%
G04 #@! TD*
G04 #@! TA.AperFunction,SMDPad,CuDef*
%ADD45R,1.300000X1.300000*%
G04 #@! TD*
G04 #@! TA.AperFunction,SMDPad,CuDef*
%ADD46R,1.300000X2.000000*%
G04 #@! TD*
G04 #@! TA.AperFunction,SMDPad,CuDef*
%ADD47R,2.000000X1.300000*%
G04 #@! TD*
G04 #@! TA.AperFunction,SMDPad,CuDef*
%ADD48RoundRect,0.250000X0.475000X-0.337500X0.475000X0.337500X-0.475000X0.337500X-0.475000X-0.337500X0*%
G04 #@! TD*
G04 #@! TA.AperFunction,SMDPad,CuDef*
%ADD49RoundRect,0.218750X0.218750X0.256250X-0.218750X0.256250X-0.218750X-0.256250X0.218750X-0.256250X0*%
G04 #@! TD*
G04 #@! TA.AperFunction,SMDPad,CuDef*
%ADD50RoundRect,1.000000X2.500000X-1.000000X2.500000X1.000000X-2.500000X1.000000X-2.500000X-1.000000X0*%
G04 #@! TD*
G04 #@! TA.AperFunction,SMDPad,CuDef*
%ADD51RoundRect,0.150000X0.587500X0.150000X-0.587500X0.150000X-0.587500X-0.150000X0.587500X-0.150000X0*%
G04 #@! TD*
G04 #@! TA.AperFunction,SMDPad,CuDef*
%ADD52R,2.540000X1.650000*%
G04 #@! TD*
G04 #@! TA.AperFunction,SMDPad,CuDef*
%ADD53RoundRect,0.250000X-0.450000X0.350000X-0.450000X-0.350000X0.450000X-0.350000X0.450000X0.350000X0*%
G04 #@! TD*
G04 #@! TA.AperFunction,SMDPad,CuDef*
%ADD54RoundRect,0.250000X-1.425000X0.362500X-1.425000X-0.362500X1.425000X-0.362500X1.425000X0.362500X0*%
G04 #@! TD*
G04 #@! TA.AperFunction,SMDPad,CuDef*
%ADD55RoundRect,0.750000X-1.250000X-0.750000X1.250000X-0.750000X1.250000X0.750000X-1.250000X0.750000X0*%
G04 #@! TD*
G04 #@! TA.AperFunction,SMDPad,CuDef*
%ADD56RoundRect,0.250000X-0.350000X0.275000X-0.350000X-0.275000X0.350000X-0.275000X0.350000X0.275000X0*%
G04 #@! TD*
G04 #@! TA.AperFunction,ViaPad*
%ADD57C,0.800000*%
G04 #@! TD*
G04 #@! TA.AperFunction,Conductor*
%ADD58C,1.000000*%
G04 #@! TD*
G04 #@! TA.AperFunction,Conductor*
%ADD59C,0.800000*%
G04 #@! TD*
G04 #@! TA.AperFunction,Conductor*
%ADD60C,0.600000*%
G04 #@! TD*
G04 #@! TA.AperFunction,Conductor*
%ADD61C,0.500000*%
G04 #@! TD*
G04 #@! TA.AperFunction,Conductor*
%ADD62C,1.500000*%
G04 #@! TD*
G04 #@! TA.AperFunction,Conductor*
%ADD63C,1.800000*%
G04 #@! TD*
G04 #@! TA.AperFunction,Conductor*
%ADD64C,2.500000*%
G04 #@! TD*
G04 #@! TA.AperFunction,Conductor*
%ADD65C,2.000000*%
G04 #@! TD*
G04 APERTURE END LIST*
D10*
X86800000Y-93000000D03*
X86800000Y-114000000D03*
D11*
X87750000Y-98000000D03*
D12*
X96750000Y-102250000D03*
X96750000Y-105000000D03*
D11*
X87750000Y-109000000D03*
D13*
X59100000Y-145450000D03*
X59100000Y-143550000D03*
D14*
X82500000Y-124792500D03*
D15*
X85040000Y-108132500D03*
D16*
X82500000Y-108132500D03*
D15*
X79960000Y-108132500D03*
D17*
X61000000Y-118500000D03*
X59000000Y-118500000D03*
D18*
X82575000Y-133605000D03*
X82575000Y-132335000D03*
X82575000Y-131065000D03*
X82575000Y-129795000D03*
X77625000Y-129795000D03*
X77625000Y-131065000D03*
X77625000Y-132335000D03*
X77625000Y-133605000D03*
D19*
X64962500Y-120500000D03*
X67037500Y-120500000D03*
D20*
X60950000Y-145500000D03*
X63250000Y-145500000D03*
D19*
X57462500Y-129500000D03*
X59537500Y-129500000D03*
D21*
X101500000Y-122112500D03*
X101500000Y-126387500D03*
D22*
X89500000Y-112000000D03*
X92625000Y-112000000D03*
D23*
X64299000Y-123462500D03*
X64299000Y-125537500D03*
D24*
X97037500Y-128645900D03*
X94962500Y-128645900D03*
D22*
X89437500Y-92500000D03*
X92562500Y-92500000D03*
D23*
X74500000Y-133212500D03*
X74500000Y-135287500D03*
D22*
X89437500Y-115500000D03*
X92562500Y-115500000D03*
D24*
X111287500Y-120750000D03*
X109212500Y-120750000D03*
D25*
X66250000Y-138750000D03*
X68250000Y-138750000D03*
X65000000Y-118500000D03*
X67000000Y-118500000D03*
D26*
X94451000Y-138120700D03*
X95721000Y-138120700D03*
X96991000Y-138120700D03*
X98261000Y-138120700D03*
X98261000Y-131120700D03*
X96991000Y-131120700D03*
X95721000Y-131120700D03*
X94451000Y-131120700D03*
D27*
X77537500Y-114514600D03*
X80462500Y-114514600D03*
D28*
X102550000Y-133750000D03*
X110950000Y-133750000D03*
D29*
X61875000Y-139040000D03*
X61875000Y-136500000D03*
D30*
X55150000Y-139275000D03*
X55150000Y-133725000D03*
D31*
X52725000Y-136500000D03*
D30*
X50300000Y-139275000D03*
X50300000Y-133725000D03*
D29*
X61875000Y-133960000D03*
D32*
X77400000Y-144000000D03*
X72600000Y-144000000D03*
D33*
X85500000Y-102525000D03*
X85500000Y-105475000D03*
D34*
X135902944Y-148000000D03*
X136605888Y-146302944D03*
X136605888Y-149697056D03*
X138302944Y-145600000D03*
D35*
X138302944Y-148000000D03*
D34*
X138302944Y-150400000D03*
X140000000Y-146302944D03*
X140000000Y-149697056D03*
X140702944Y-148000000D03*
D24*
X106037500Y-144000000D03*
X103962500Y-144000000D03*
D36*
X80437500Y-103000000D03*
X78562500Y-103000000D03*
D19*
X66062500Y-134500000D03*
X68137500Y-134500000D03*
D37*
X123000000Y-134250000D03*
X123000000Y-121750000D03*
D38*
X140000000Y-110000000D03*
D39*
X142540000Y-112540000D03*
X142540000Y-107460000D03*
X137460000Y-112540000D03*
X137460000Y-107460000D03*
D40*
X96293500Y-116481500D03*
X96293500Y-119406500D03*
X103000000Y-116500000D03*
X103000000Y-119425000D03*
D41*
X123000000Y-150080000D03*
X125540000Y-150080000D03*
X128080000Y-150080000D03*
X123000000Y-145000000D03*
X125540000Y-145000000D03*
X128080000Y-145000000D03*
D42*
X82300000Y-113250000D03*
X84200000Y-113250000D03*
D27*
X77537500Y-93000000D03*
X80462500Y-93000000D03*
D23*
X68500000Y-100462500D03*
X68500000Y-102537500D03*
D43*
X86025000Y-144250000D03*
D44*
X83485000Y-144250000D03*
X80945000Y-144250000D03*
D45*
X77400000Y-138550000D03*
D46*
X82600000Y-137400000D03*
D45*
X77400000Y-136250000D03*
X56150000Y-126100000D03*
D47*
X55000000Y-120900000D03*
D45*
X53850000Y-126100000D03*
D17*
X86500000Y-139000000D03*
X84500000Y-139000000D03*
D48*
X64100000Y-143537500D03*
X64100000Y-141462500D03*
D34*
X48600000Y-148000000D03*
X49302944Y-146302944D03*
X49302944Y-149697056D03*
X51000000Y-145600000D03*
D35*
X51000000Y-148000000D03*
D34*
X51000000Y-150400000D03*
X52697056Y-146302944D03*
X52697056Y-149697056D03*
X53400000Y-148000000D03*
D14*
X82600000Y-82707500D03*
D15*
X80060000Y-99367500D03*
X82600000Y-99367500D03*
X85140000Y-99367500D03*
D24*
X61037500Y-120500000D03*
X58962500Y-120500000D03*
D49*
X66508900Y-129541400D03*
X64933900Y-129541400D03*
D41*
X99800000Y-145020000D03*
X97260000Y-145020000D03*
X94720000Y-145020000D03*
X99800000Y-150100000D03*
X97260000Y-150100000D03*
X94720000Y-150100000D03*
D24*
X99637500Y-140900000D03*
X97562500Y-140900000D03*
D36*
X80437500Y-105000000D03*
X78562500Y-105000000D03*
D50*
X95500000Y-110000000D03*
X128500000Y-110000000D03*
X128500000Y-96500000D03*
X95500000Y-97000000D03*
D22*
X89437500Y-96000000D03*
X92562500Y-96000000D03*
D24*
X66637500Y-127700000D03*
X64562500Y-127700000D03*
D27*
X77537500Y-95438400D03*
X80462500Y-95438400D03*
D25*
X70500000Y-105000000D03*
X72500000Y-105000000D03*
D51*
X69037500Y-143450000D03*
X69037500Y-141550000D03*
X67162500Y-142500000D03*
D20*
X62450000Y-147500000D03*
X64750000Y-147500000D03*
D52*
X61040000Y-106040000D03*
X61040000Y-103500000D03*
X61040000Y-100960000D03*
X55960000Y-100960000D03*
X55960000Y-103500000D03*
X55960000Y-106040000D03*
D53*
X85000000Y-133100000D03*
X85000000Y-135100000D03*
D48*
X60100000Y-149537500D03*
X60100000Y-147462500D03*
D53*
X68700000Y-129500000D03*
X68700000Y-131500000D03*
D19*
X66062500Y-136500000D03*
X68137500Y-136500000D03*
D24*
X106037500Y-141000000D03*
X103962500Y-141000000D03*
D25*
X65100000Y-145500000D03*
X67100000Y-145500000D03*
X84500000Y-137000000D03*
X86500000Y-137000000D03*
D54*
X65000000Y-100537500D03*
X65000000Y-106462500D03*
D48*
X68500000Y-107037500D03*
X68500000Y-104962500D03*
D34*
X48600000Y-81000000D03*
X49302944Y-79302944D03*
X49302944Y-82697056D03*
X51000000Y-78600000D03*
D35*
X51000000Y-81000000D03*
D34*
X51000000Y-83400000D03*
X52697056Y-79302944D03*
X52697056Y-82697056D03*
X53400000Y-81000000D03*
D27*
X77537500Y-112000000D03*
X80462500Y-112000000D03*
D24*
X111287500Y-118750000D03*
X109212500Y-118750000D03*
D25*
X59250000Y-141250000D03*
X61250000Y-141250000D03*
D55*
X101000000Y-115000000D03*
X101000000Y-121000000D03*
D34*
X135902944Y-81000000D03*
X136605888Y-79302944D03*
X136605888Y-82697056D03*
X138302944Y-78600000D03*
D35*
X138302944Y-81000000D03*
D34*
X138302944Y-83400000D03*
X140000000Y-79302944D03*
X140000000Y-82697056D03*
X140702944Y-81000000D03*
D42*
X82100000Y-94250000D03*
X84000000Y-94250000D03*
D38*
X49500000Y-101000000D03*
D39*
X46960000Y-98460000D03*
X46960000Y-103540000D03*
X52040000Y-98460000D03*
X52040000Y-103540000D03*
D45*
X72150000Y-126100000D03*
D47*
X71000000Y-120900000D03*
D45*
X69850000Y-126100000D03*
D25*
X70500000Y-102500000D03*
X72500000Y-102500000D03*
D40*
X99750000Y-116481500D03*
X99750000Y-119406500D03*
D23*
X59549200Y-123398500D03*
X59549200Y-125473500D03*
D56*
X66839000Y-123438400D03*
X66839000Y-125738400D03*
D57*
X74750000Y-127750000D03*
X113500000Y-120750000D03*
X73500000Y-127750000D03*
X140000000Y-93500000D03*
X75500000Y-96000000D03*
X75750000Y-138750000D03*
X82000000Y-77000000D03*
X130750000Y-113750000D03*
X62600000Y-143000000D03*
X61250000Y-125000000D03*
X70750000Y-127750000D03*
X77000000Y-153000000D03*
X75750000Y-137200000D03*
X124750000Y-93500000D03*
X137000000Y-77000000D03*
X87000000Y-77000000D03*
X82500000Y-96500000D03*
X57000000Y-77000000D03*
X62000000Y-121000000D03*
X131250000Y-115500000D03*
X47000000Y-153000000D03*
X54750000Y-107500000D03*
X142000000Y-77000000D03*
X132750000Y-113750000D03*
X123500000Y-112000000D03*
X117000000Y-77000000D03*
X97500000Y-126750000D03*
X83500000Y-104000000D03*
X127000000Y-77000000D03*
X102000000Y-139500000D03*
X64000000Y-120000000D03*
X62000000Y-120000000D03*
X84500000Y-129700000D03*
X113500000Y-124750000D03*
X82000000Y-153000000D03*
X46000000Y-77000000D03*
X63000000Y-121000000D03*
X57000000Y-153000000D03*
X62750000Y-130000000D03*
X136250000Y-115500000D03*
X72000000Y-153000000D03*
X58100000Y-149500000D03*
X119750000Y-93500000D03*
X82500000Y-100750000D03*
X129250000Y-106500000D03*
X140000000Y-118500000D03*
X65600000Y-141500000D03*
X99750000Y-93500000D03*
X99250000Y-128000000D03*
X46000000Y-126500000D03*
X50500000Y-96000000D03*
X114750000Y-93500000D03*
X134250000Y-106500000D03*
X122000000Y-77000000D03*
X46000000Y-146500000D03*
X125750000Y-113750000D03*
X61000000Y-143750000D03*
X142000000Y-153000000D03*
X122000000Y-153000000D03*
X46000000Y-81500000D03*
X81500000Y-104000000D03*
X124250000Y-106500000D03*
X82500000Y-106750000D03*
X46000000Y-121500000D03*
X65500000Y-96000000D03*
X46000000Y-141500000D03*
X91500000Y-126750000D03*
X111250000Y-126750000D03*
X123500000Y-109000000D03*
X135750000Y-113750000D03*
X72000000Y-77000000D03*
X104750000Y-93500000D03*
X74750000Y-129250000D03*
X101900000Y-141400000D03*
X52000000Y-153000000D03*
X60500000Y-96000000D03*
X140000000Y-103500000D03*
X46000000Y-131500000D03*
X93500000Y-122750000D03*
X62000000Y-77000000D03*
X63000000Y-120000000D03*
X82500000Y-109500000D03*
X82500000Y-104000000D03*
X70500000Y-96000000D03*
X82600000Y-102500000D03*
X62600000Y-144000000D03*
X140000000Y-123500000D03*
X76000000Y-130750000D03*
X93500000Y-120750000D03*
X135750000Y-106500000D03*
X62600000Y-142000000D03*
X52000000Y-77000000D03*
X111250000Y-115500000D03*
X132000000Y-153000000D03*
X92000000Y-77000000D03*
X132000000Y-77000000D03*
X56750000Y-107500000D03*
X104000000Y-145500000D03*
X117000000Y-153000000D03*
X129250000Y-113750000D03*
X46000000Y-106500000D03*
X55500000Y-96000000D03*
X77000000Y-77000000D03*
X107000000Y-153000000D03*
X71100000Y-139000000D03*
X64000000Y-121000000D03*
X55750000Y-107500000D03*
X132750000Y-106500000D03*
X58500000Y-127500000D03*
X129750000Y-93500000D03*
X46000000Y-116500000D03*
X71100000Y-134500000D03*
X125750000Y-106500000D03*
X123500000Y-110500000D03*
X93500000Y-118750000D03*
X74250000Y-137250000D03*
X71100000Y-137500000D03*
X74250000Y-138750000D03*
X46000000Y-86500000D03*
X62600000Y-141000000D03*
X109250000Y-126750000D03*
X62750000Y-126000000D03*
X95500000Y-126750000D03*
X99250000Y-129500000D03*
X54250000Y-106500000D03*
X69600000Y-134500000D03*
X140000000Y-98500000D03*
X127750000Y-106500000D03*
X81500000Y-102500000D03*
X112000000Y-153000000D03*
X54250000Y-105250000D03*
X82600000Y-105500000D03*
X99250000Y-131000000D03*
X100250000Y-139500000D03*
X104000000Y-142500000D03*
X126250000Y-115500000D03*
X134750000Y-93500000D03*
X82500000Y-111000000D03*
X81500000Y-105500000D03*
X61250000Y-129000000D03*
X140000000Y-138500000D03*
X113500000Y-122750000D03*
X60000000Y-127500000D03*
X134250000Y-113750000D03*
X121250000Y-115500000D03*
X130750000Y-106500000D03*
X75750000Y-135700000D03*
X69600000Y-136000000D03*
X127750000Y-113750000D03*
X137000000Y-153000000D03*
X105250000Y-126750000D03*
X69600000Y-137500000D03*
X46000000Y-136500000D03*
X93500000Y-126750000D03*
X74750000Y-130750000D03*
X82500000Y-98250000D03*
X93500000Y-124750000D03*
X116250000Y-115500000D03*
X94750000Y-93500000D03*
X67000000Y-77000000D03*
X102000000Y-77000000D03*
X71100000Y-136000000D03*
X140000000Y-88500000D03*
X140000000Y-143500000D03*
X107250000Y-126750000D03*
X69600000Y-139000000D03*
X113500000Y-126750000D03*
X104000000Y-139500000D03*
X141250000Y-115500000D03*
X97000000Y-77000000D03*
X127000000Y-153000000D03*
X123500000Y-107500000D03*
X109750000Y-93500000D03*
X106250000Y-115500000D03*
X46000000Y-111500000D03*
X46000000Y-96500000D03*
X62000000Y-153000000D03*
X57100000Y-143500000D03*
X46000000Y-91500000D03*
X62750000Y-128000000D03*
X72250000Y-127750000D03*
X61250000Y-127000000D03*
X124250000Y-113750000D03*
X140000000Y-128500000D03*
X67000000Y-153000000D03*
X107000000Y-77000000D03*
X87000000Y-153000000D03*
X112000000Y-77000000D03*
X140000000Y-133500000D03*
X62100000Y-149500000D03*
D58*
X86050000Y-113250000D02*
X86800000Y-114000000D01*
X84200000Y-113250000D02*
X86050000Y-113250000D01*
X85550000Y-94250000D02*
X86800000Y-93000000D01*
X84000000Y-94250000D02*
X85550000Y-94250000D01*
D59*
X69850000Y-125100000D02*
X69850000Y-126100000D01*
X68188400Y-123438400D02*
X69850000Y-125100000D01*
X66839000Y-123438400D02*
X68188400Y-123438400D01*
X66814900Y-123462500D02*
X66839000Y-123438400D01*
X64299000Y-123462500D02*
X66814900Y-123462500D01*
X64235000Y-123398500D02*
X64299000Y-123462500D01*
X59549200Y-123398500D02*
X64235000Y-123398500D01*
D60*
X60137500Y-147500000D02*
X60100000Y-147462500D01*
X60900000Y-145450000D02*
X60950000Y-145500000D01*
X59100000Y-145450000D02*
X60100000Y-145450000D01*
X60100000Y-145450000D02*
X60100000Y-147462500D01*
X62450000Y-147500000D02*
X60137500Y-147500000D01*
X60100000Y-145450000D02*
X60900000Y-145450000D01*
X63000000Y-120000000D02*
X63000000Y-121000000D01*
X64462500Y-120000000D02*
X64962500Y-120500000D01*
X62000000Y-120000000D02*
X63000000Y-121000000D01*
X64562500Y-127700000D02*
X64562500Y-129170000D01*
X62000000Y-121000000D02*
X62000000Y-120000000D01*
X64000000Y-121000000D02*
X63000000Y-121000000D01*
X63000000Y-120000000D02*
X64000000Y-120000000D01*
X63000000Y-120000000D02*
X64000000Y-121000000D01*
X62000000Y-120000000D02*
X61537500Y-120000000D01*
X64299000Y-127436500D02*
X64562500Y-127700000D01*
X63000000Y-121000000D02*
X62000000Y-121000000D01*
X64562500Y-129170000D02*
X64933900Y-129541400D01*
X64000000Y-120000000D02*
X64000000Y-121000000D01*
X61537500Y-121000000D02*
X61037500Y-120500000D01*
X64000000Y-120000000D02*
X63000000Y-121000000D01*
X64000000Y-120000000D02*
X64462500Y-120000000D01*
X64000000Y-121000000D02*
X64462500Y-121000000D01*
X64462500Y-121000000D02*
X64962500Y-120500000D01*
X61537500Y-120000000D02*
X61037500Y-120500000D01*
X62000000Y-121000000D02*
X63000000Y-120000000D01*
X62000000Y-120000000D02*
X63000000Y-120000000D01*
X64962500Y-120500000D02*
X61037500Y-120500000D01*
X62000000Y-121000000D02*
X61537500Y-121000000D01*
X64100000Y-143537500D02*
X66125000Y-143537500D01*
X64100000Y-143537500D02*
X64100000Y-145500000D01*
X66125000Y-143537500D02*
X67162500Y-142500000D01*
X64100000Y-145500000D02*
X65100000Y-145500000D01*
X63250000Y-145500000D02*
X64100000Y-145500000D01*
D61*
X66624900Y-123652500D02*
X66839000Y-123438400D01*
D59*
X57601500Y-123398500D02*
X56150000Y-124850000D01*
X56150000Y-124850000D02*
X56150000Y-126100000D01*
X59549200Y-123398500D02*
X57601500Y-123398500D01*
D61*
X59549200Y-123398500D02*
X59803200Y-123652500D01*
D59*
X68500000Y-107037500D02*
X65575000Y-107037500D01*
D58*
X65000000Y-106462500D02*
X61462500Y-106462500D01*
D59*
X65575000Y-107037500D02*
X65000000Y-106462500D01*
D58*
X61462500Y-106462500D02*
X61040000Y-106040000D01*
D59*
X61875000Y-133960000D02*
X62835000Y-133000000D01*
D58*
X62415000Y-134500000D02*
X61875000Y-133960000D01*
D59*
X71600000Y-133000000D02*
X72600000Y-134000000D01*
X72600000Y-140000000D02*
X71050000Y-141550000D01*
D58*
X66062500Y-134500000D02*
X62415000Y-134500000D01*
D59*
X71050000Y-141550000D02*
X69037500Y-141550000D01*
X62835000Y-133000000D02*
X71600000Y-133000000D01*
X72600000Y-134000000D02*
X72600000Y-140000000D01*
D60*
X66508900Y-127828600D02*
X66637500Y-127700000D01*
X66637500Y-127700000D02*
X66637500Y-125939900D01*
X66508900Y-129541400D02*
X66508900Y-127828600D01*
D58*
X66550300Y-129500000D02*
X66508900Y-129541400D01*
D61*
X66835100Y-129215200D02*
X66508900Y-129541400D01*
D58*
X68700000Y-129500000D02*
X66550300Y-129500000D01*
D60*
X66637500Y-125939900D02*
X66839000Y-125738400D01*
D61*
X66839000Y-127607100D02*
X66835100Y-127611000D01*
D58*
X89437500Y-92500000D02*
X89437500Y-96000000D01*
D62*
X88132500Y-99367500D02*
X85140000Y-99367500D01*
X89437500Y-96000000D02*
X89437500Y-98062500D01*
D58*
X85500000Y-102525000D02*
X85500000Y-99727500D01*
D62*
X89437500Y-98062500D02*
X88132500Y-99367500D01*
X89500000Y-110140000D02*
X87492500Y-108132500D01*
D58*
X85040000Y-108132500D02*
X85040000Y-105935000D01*
X89437500Y-112062500D02*
X89500000Y-112000000D01*
D62*
X87492500Y-108132500D02*
X85040000Y-108132500D01*
D58*
X89437500Y-115500000D02*
X89437500Y-112062500D01*
D62*
X89500000Y-112000000D02*
X89500000Y-110140000D01*
D58*
X85040000Y-105935000D02*
X85500000Y-105475000D01*
X57375000Y-131500000D02*
X55150000Y-133725000D01*
D59*
X73787500Y-133037500D02*
X74750000Y-133037500D01*
D58*
X68700000Y-131500000D02*
X62100000Y-131500000D01*
D59*
X61875000Y-136500000D02*
X66062500Y-136500000D01*
D60*
X77400000Y-133605000D02*
X77405000Y-133605000D01*
D59*
X57462500Y-131412500D02*
X55150000Y-133725000D01*
X72250000Y-131500000D02*
X73787500Y-133037500D01*
D58*
X77287500Y-138662500D02*
X77400000Y-138550000D01*
D60*
X77405000Y-133605000D02*
X79500000Y-135700000D01*
D59*
X57125000Y-141250000D02*
X55150000Y-139275000D01*
D58*
X62100000Y-131500000D02*
X57375000Y-131500000D01*
D59*
X59250000Y-141250000D02*
X57125000Y-141250000D01*
D60*
X79500000Y-135700000D02*
X79500000Y-137700000D01*
X78650000Y-138550000D02*
X77400000Y-138550000D01*
D59*
X68700000Y-131500000D02*
X72250000Y-131500000D01*
X57462500Y-129500000D02*
X57462500Y-131412500D01*
D58*
X61875000Y-136500000D02*
X52725000Y-136500000D01*
D59*
X75317500Y-133605000D02*
X74750000Y-133037500D01*
D61*
X77387500Y-138537500D02*
X77400000Y-138550000D01*
D60*
X79500000Y-137700000D02*
X78650000Y-138550000D01*
D59*
X77625000Y-133605000D02*
X75317500Y-133605000D01*
D58*
X92625000Y-115437500D02*
X92562500Y-115500000D01*
X92625000Y-112000000D02*
X92625000Y-115437500D01*
X92562500Y-96000000D02*
X92562500Y-92500000D01*
D63*
X108537500Y-120075000D02*
X109212500Y-120750000D01*
X103000000Y-119425000D02*
X96312000Y-119425000D01*
X103000000Y-119425000D02*
X108537500Y-119425000D01*
D62*
X96312000Y-119425000D02*
X96293500Y-119406500D01*
D63*
X108537500Y-119425000D02*
X109212500Y-118750000D01*
X108537500Y-119425000D02*
X108537500Y-120075000D01*
D58*
X93370000Y-148750000D02*
X94720000Y-150100000D01*
D64*
X94720000Y-147800000D02*
X94720000Y-145020000D01*
D62*
X94720000Y-145020000D02*
X94720000Y-138389702D01*
D58*
X66250000Y-148750000D02*
X93370000Y-148750000D01*
D59*
X106037500Y-144000000D02*
X109000000Y-144000000D01*
D65*
X94720000Y-145020000D02*
X97260000Y-145020000D01*
D60*
X95721000Y-138120700D02*
X94450998Y-138120700D01*
D65*
X99800000Y-147560000D02*
X97260000Y-145020000D01*
X94720000Y-147560000D02*
X97260000Y-145020000D01*
D59*
X111000000Y-141000000D02*
X111500000Y-141500000D01*
D60*
X94451000Y-138120700D02*
X94450998Y-138120700D01*
D58*
X64750000Y-147500000D02*
X65000000Y-147500000D01*
D59*
X109000000Y-144000000D02*
X109500000Y-143500000D01*
D58*
X65000000Y-147500000D02*
X66250000Y-148750000D01*
D65*
X97260000Y-147660000D02*
X97260000Y-145020000D01*
D64*
X109500000Y-143500000D02*
X111500000Y-141500000D01*
X94720000Y-147800000D02*
X105200000Y-147800000D01*
D65*
X97260000Y-145020000D02*
X99800000Y-145020000D01*
X94720000Y-150100000D02*
X94720000Y-147560000D01*
D62*
X94720000Y-138389702D02*
X94450998Y-138120700D01*
D65*
X97260000Y-150100000D02*
X97260000Y-147660000D01*
X99800000Y-150100000D02*
X99800000Y-145020000D01*
D64*
X118750000Y-134250000D02*
X123000000Y-134250000D01*
X105200000Y-147800000D02*
X109500000Y-143500000D01*
D65*
X99800000Y-150100000D02*
X99800000Y-147560000D01*
D64*
X94720000Y-150100000D02*
X97260000Y-150100000D01*
D59*
X106037500Y-141000000D02*
X111000000Y-141000000D01*
D64*
X111500000Y-141500000D02*
X118750000Y-134250000D01*
D65*
X94720000Y-150100000D02*
X94720000Y-147800000D01*
D62*
X94451000Y-144751000D02*
X94720000Y-145020000D01*
D64*
X97260000Y-150100000D02*
X99800000Y-150100000D01*
D61*
X96981100Y-131110800D02*
X96991000Y-131120700D01*
X96981100Y-128645900D02*
X96981100Y-131110800D01*
D58*
X71100000Y-145500000D02*
X72600000Y-144000000D01*
X67100000Y-145500000D02*
X71100000Y-145500000D01*
D60*
X69037500Y-143450000D02*
X69037500Y-143562500D01*
X69037500Y-143562500D02*
X67100000Y-145500000D01*
D58*
X83485000Y-145515000D02*
X83485000Y-144250000D01*
X78500000Y-146500000D02*
X82500000Y-146500000D01*
X82500000Y-146500000D02*
X83485000Y-145515000D01*
X77400000Y-144000000D02*
X77400000Y-145400000D01*
X77400000Y-145400000D02*
X78500000Y-146500000D01*
D59*
X78562500Y-103000000D02*
X73000000Y-103000000D01*
X78562500Y-103000000D02*
X78562500Y-100865000D01*
X77537500Y-96845000D02*
X80060000Y-99367500D01*
X78562500Y-100865000D02*
X80060000Y-99367500D01*
X77537500Y-93000000D02*
X77537500Y-95438400D01*
X77537500Y-95438400D02*
X77537500Y-96845000D01*
X73000000Y-103000000D02*
X72500000Y-102500000D01*
X77537500Y-110555000D02*
X79960000Y-108132500D01*
X78562500Y-106735000D02*
X78562500Y-105000000D01*
X79960000Y-108132500D02*
X78562500Y-106735000D01*
X77537500Y-112000000D02*
X77537500Y-114514600D01*
X77537500Y-112000000D02*
X77537500Y-110555000D01*
X78562500Y-105000000D02*
X72500000Y-105000000D01*
D60*
X82800000Y-131065000D02*
X88765000Y-131065000D01*
X95721000Y-133079000D02*
X95721000Y-131120700D01*
X95300000Y-133500000D02*
X95721000Y-133079000D01*
X91200000Y-133500000D02*
X95300000Y-133500000D01*
X88765000Y-131065000D02*
X91200000Y-133500000D01*
D61*
X82900000Y-137100000D02*
X84400000Y-137100000D01*
X82600000Y-137400000D02*
X82900000Y-137100000D01*
X84400000Y-137100000D02*
X84500000Y-137000000D01*
X84295000Y-135100000D02*
X82800000Y-133605000D01*
X85000000Y-135100000D02*
X84295000Y-135100000D01*
X86500000Y-136600000D02*
X85000000Y-135100000D01*
X86500000Y-139000000D02*
X86500000Y-137000000D01*
X86500000Y-137000000D02*
X86500000Y-136600000D01*
D62*
X49540000Y-100960000D02*
X49500000Y-101000000D01*
X55960000Y-100960000D02*
X49540000Y-100960000D01*
D63*
X128500000Y-110000000D02*
X140000000Y-110000000D01*
D58*
X82000000Y-139500000D02*
X80945000Y-140555000D01*
X80945000Y-140555000D02*
X80945000Y-143962500D01*
X84000000Y-139500000D02*
X82000000Y-139500000D01*
X84500000Y-139000000D02*
X84000000Y-139500000D01*
D59*
X58962500Y-118537500D02*
X59000000Y-118500000D01*
X55400000Y-120500000D02*
X55000000Y-120900000D01*
X58962500Y-120500000D02*
X58962500Y-118537500D01*
X58962500Y-120500000D02*
X55400000Y-120500000D01*
X68500000Y-100462500D02*
X65075000Y-100462500D01*
D58*
X61462500Y-100537500D02*
X61040000Y-100960000D01*
D59*
X65075000Y-100462500D02*
X65000000Y-100537500D01*
D58*
X65000000Y-100537500D02*
X61462500Y-100537500D01*
X59500000Y-98500000D02*
X69100215Y-98500000D01*
X61000000Y-118500000D02*
X61000000Y-111000000D01*
D59*
X70500000Y-102500000D02*
X68537500Y-102500000D01*
D58*
X58500000Y-108500000D02*
X58500000Y-99500000D01*
X69100215Y-98500000D02*
X70500000Y-99899785D01*
D59*
X68537500Y-102500000D02*
X68500000Y-102537500D01*
D58*
X61000000Y-111000000D02*
X58500000Y-108500000D01*
X58500000Y-99500000D02*
X59500000Y-98500000D01*
X70500000Y-99899785D02*
X70500000Y-102500000D01*
D59*
X68537500Y-105000000D02*
X68500000Y-104962500D01*
X70500000Y-110000000D02*
X70500000Y-105000000D01*
X65000000Y-118500000D02*
X65000000Y-115500000D01*
X70500000Y-105000000D02*
X68537500Y-105000000D01*
X65000000Y-115500000D02*
X70500000Y-110000000D01*
X67037500Y-118537500D02*
X67000000Y-118500000D01*
X67037500Y-120500000D02*
X67037500Y-118537500D01*
X67037500Y-120500000D02*
X70600000Y-120500000D01*
X70600000Y-120500000D02*
X71000000Y-120900000D01*
D65*
X97562500Y-139000000D02*
X97562500Y-138687500D01*
X101500000Y-135250000D02*
X101500000Y-126387500D01*
D59*
X97562500Y-139000000D02*
X97562500Y-140900000D01*
X96991000Y-138120700D02*
X96991000Y-140328500D01*
D65*
X97562500Y-139000000D02*
X97750000Y-139000000D01*
D59*
X96991000Y-140328500D02*
X97562500Y-140900000D01*
X97500000Y-138120700D02*
X97562500Y-138183200D01*
X97562500Y-138183200D02*
X97562500Y-139000000D01*
D65*
X97750000Y-139000000D02*
X101500000Y-135250000D01*
D59*
X98261000Y-140201500D02*
X97562500Y-140900000D01*
X98261000Y-138120700D02*
X98261000Y-140201500D01*
X98261000Y-138120700D02*
X96991000Y-138120700D01*
D64*
X101000000Y-115000000D02*
X101000000Y-105000000D01*
X98250000Y-102250000D02*
X96750000Y-102250000D01*
D62*
X102981500Y-116481500D02*
X103000000Y-116500000D01*
X96293500Y-116481500D02*
X102981500Y-116481500D01*
D64*
X101000000Y-105000000D02*
X98250000Y-102250000D01*
D59*
X80462500Y-113500000D02*
X80462500Y-114514600D01*
X80712500Y-113250000D02*
X80462500Y-113500000D01*
X82300000Y-113250000D02*
X80712500Y-113250000D01*
X80462500Y-112000000D02*
X80462500Y-113500000D01*
X82100000Y-94250000D02*
X80462500Y-94250000D01*
X80462500Y-93000000D02*
X80462500Y-94250000D01*
X80462500Y-94250000D02*
X80462500Y-95438400D01*
X61250000Y-139665000D02*
X61875000Y-139040000D01*
X61250000Y-141250000D02*
X61250000Y-139665000D01*
X66250000Y-138750000D02*
X62165000Y-138750000D01*
X62165000Y-138750000D02*
X61875000Y-139040000D01*
D61*
X82800000Y-132335000D02*
X84235000Y-132335000D01*
X84235000Y-132335000D02*
X85000000Y-133100000D01*
G04 #@! TA.AperFunction,Conductor*
G36*
X88442121Y-140770002D02*
G01*
X88488614Y-140823658D01*
X88500000Y-140876000D01*
X88500000Y-147615500D01*
X88479998Y-147683621D01*
X88426342Y-147730114D01*
X88374000Y-147741500D01*
X84376000Y-147741500D01*
X84307879Y-147721498D01*
X84261386Y-147667842D01*
X84250000Y-147615500D01*
X84250000Y-146223569D01*
X84270002Y-146155448D01*
X84271207Y-146153608D01*
X84378721Y-145992704D01*
X84454744Y-145809169D01*
X84466405Y-145750544D01*
X84493500Y-145614329D01*
X84493500Y-145468184D01*
X84513502Y-145400063D01*
X84530404Y-145379089D01*
X84536461Y-145373033D01*
X84663999Y-145197492D01*
X84762506Y-145004160D01*
X84829557Y-144797800D01*
X84863500Y-144583490D01*
X84863500Y-143916510D01*
X84829557Y-143702200D01*
X84762506Y-143495840D01*
X84663999Y-143302508D01*
X84536461Y-143126967D01*
X84536458Y-143126964D01*
X84536456Y-143126961D01*
X84383039Y-142973544D01*
X84383035Y-142973541D01*
X84383033Y-142973539D01*
X84301937Y-142914618D01*
X84258585Y-142858397D01*
X84250000Y-142812684D01*
X84250000Y-140876000D01*
X84270002Y-140807879D01*
X84323658Y-140761386D01*
X84376000Y-140750000D01*
X88374000Y-140750000D01*
X88442121Y-140770002D01*
G37*
G04 #@! TD.AperFunction*
G04 #@! TA.AperFunction,Conductor*
G36*
X73695500Y-134239253D02*
G01*
X73695612Y-134239014D01*
X73698306Y-134240270D01*
X73700647Y-134241118D01*
X73702262Y-134242115D01*
X73870574Y-134297887D01*
X73974455Y-134308500D01*
X74696882Y-134308499D01*
X74765003Y-134328501D01*
X74766883Y-134329734D01*
X74887159Y-134410099D01*
X74887160Y-134410100D01*
X74887162Y-134410101D01*
X74887164Y-134410102D01*
X75052500Y-134478587D01*
X75198899Y-134507707D01*
X75228020Y-134513500D01*
X75228021Y-134513500D01*
X77117918Y-134513500D01*
X77186039Y-134533502D01*
X77207013Y-134550405D01*
X78319409Y-135662800D01*
X78353434Y-135725112D01*
X78356285Y-135754575D01*
X78323815Y-137280625D01*
X78302369Y-137348305D01*
X78247736Y-137393646D01*
X78177263Y-137402253D01*
X78166943Y-137399502D01*
X78166868Y-137399823D01*
X78159196Y-137398009D01*
X78098649Y-137391500D01*
X78098638Y-137391500D01*
X76701362Y-137391500D01*
X76701350Y-137391500D01*
X76640803Y-137398009D01*
X76640795Y-137398011D01*
X76503797Y-137449110D01*
X76503792Y-137449112D01*
X76386738Y-137536738D01*
X76299112Y-137653792D01*
X76299110Y-137653797D01*
X76248011Y-137790795D01*
X76248009Y-137790803D01*
X76241500Y-137851350D01*
X76241500Y-139248649D01*
X76248009Y-139309196D01*
X76248011Y-139309204D01*
X76299110Y-139446202D01*
X76299112Y-139446207D01*
X76375682Y-139548491D01*
X76400493Y-139615011D01*
X76385402Y-139684385D01*
X76335200Y-139734587D01*
X76274814Y-139750000D01*
X73634500Y-139750000D01*
X73566379Y-139729998D01*
X73519886Y-139676342D01*
X73508500Y-139624000D01*
X73508500Y-134348359D01*
X73528502Y-134280238D01*
X73582158Y-134233745D01*
X73652432Y-134223641D01*
X73695500Y-134239253D01*
G37*
G04 #@! TD.AperFunction*
G04 #@! TA.AperFunction,Conductor*
G36*
X81688807Y-95471633D02*
G01*
X81688847Y-95471447D01*
X81695574Y-95472887D01*
X81799455Y-95483500D01*
X82316396Y-95483499D01*
X82384517Y-95503501D01*
X82427970Y-95550957D01*
X83011148Y-96662424D01*
X83355578Y-97318867D01*
X83664574Y-97907775D01*
X83679000Y-97966317D01*
X83679000Y-101416149D01*
X83685509Y-101476696D01*
X83685511Y-101476704D01*
X83736609Y-101613701D01*
X83736610Y-101613702D01*
X83736611Y-101613704D01*
X83753990Y-101636919D01*
X83758592Y-101643067D01*
X83783402Y-101709587D01*
X83768310Y-101778961D01*
X83764964Y-101784721D01*
X83712680Y-101869488D01*
X83707885Y-101877262D01*
X83689124Y-101933879D01*
X83652113Y-102045572D01*
X83652112Y-102045579D01*
X83641500Y-102149446D01*
X83641500Y-102900544D01*
X83652112Y-103004425D01*
X83707885Y-103172738D01*
X83800970Y-103323652D01*
X83800975Y-103323658D01*
X83926341Y-103449024D01*
X83926347Y-103449029D01*
X83926348Y-103449030D01*
X84077262Y-103542115D01*
X84245574Y-103597887D01*
X84349455Y-103608500D01*
X84373997Y-103608499D01*
X84442117Y-103628499D01*
X84488612Y-103682153D01*
X84500000Y-103734499D01*
X84500000Y-104265500D01*
X84479998Y-104333621D01*
X84426342Y-104380114D01*
X84374005Y-104391500D01*
X84349456Y-104391500D01*
X84245574Y-104402112D01*
X84077261Y-104457885D01*
X83926347Y-104550970D01*
X83926341Y-104550975D01*
X83800975Y-104676341D01*
X83800970Y-104676347D01*
X83707885Y-104827262D01*
X83652113Y-104995572D01*
X83652112Y-104995579D01*
X83641500Y-105099446D01*
X83641500Y-105850451D01*
X83633556Y-105894483D01*
X83585510Y-106023299D01*
X83585509Y-106023303D01*
X83579000Y-106083850D01*
X83579000Y-110181149D01*
X83585509Y-110241696D01*
X83585511Y-110241704D01*
X83636610Y-110378702D01*
X83636612Y-110378707D01*
X83724238Y-110495761D01*
X83841292Y-110583387D01*
X83841294Y-110583388D01*
X83841296Y-110583389D01*
X83900375Y-110605424D01*
X83978295Y-110634488D01*
X83978303Y-110634490D01*
X84038850Y-110640999D01*
X84038855Y-110640999D01*
X84038862Y-110641000D01*
X84374000Y-110641000D01*
X84442121Y-110661002D01*
X84488614Y-110714658D01*
X84500000Y-110767000D01*
X84500000Y-111890500D01*
X84479998Y-111958621D01*
X84426342Y-112005114D01*
X84374000Y-112016500D01*
X83899455Y-112016500D01*
X83795574Y-112027112D01*
X83627261Y-112082885D01*
X83476347Y-112175970D01*
X83476341Y-112175975D01*
X83350972Y-112301344D01*
X83348834Y-112304049D01*
X83346895Y-112305421D01*
X83345780Y-112306537D01*
X83345589Y-112306346D01*
X83290892Y-112345076D01*
X83219967Y-112348264D01*
X83158577Y-112312602D01*
X83151166Y-112304049D01*
X83149027Y-112301344D01*
X83023658Y-112175975D01*
X83023652Y-112175970D01*
X82992493Y-112156751D01*
X82872738Y-112082885D01*
X82788582Y-112054999D01*
X82704427Y-112027113D01*
X82704420Y-112027112D01*
X82600553Y-112016500D01*
X81999455Y-112016500D01*
X81895572Y-112027113D01*
X81895568Y-112027113D01*
X81727262Y-112082885D01*
X81727258Y-112082886D01*
X81725643Y-112083883D01*
X81724380Y-112084228D01*
X81720602Y-112085990D01*
X81720301Y-112085344D01*
X81657163Y-112102618D01*
X81589424Y-112081357D01*
X81543935Y-112026848D01*
X81533499Y-111976640D01*
X81533499Y-111324455D01*
X81522887Y-111220574D01*
X81467115Y-111052262D01*
X81374030Y-110901348D01*
X81374029Y-110901347D01*
X81374024Y-110901341D01*
X81248658Y-110775975D01*
X81248652Y-110775970D01*
X81234109Y-110767000D01*
X81215841Y-110755731D01*
X81168364Y-110702947D01*
X81156961Y-110632872D01*
X81185253Y-110567756D01*
X81206480Y-110547624D01*
X81275761Y-110495761D01*
X81363387Y-110378707D01*
X81363387Y-110378706D01*
X81363389Y-110378704D01*
X81414489Y-110241701D01*
X81421000Y-110181138D01*
X81421000Y-106083862D01*
X81420999Y-106083850D01*
X81414490Y-106023303D01*
X81414488Y-106023295D01*
X81385424Y-105945375D01*
X81363389Y-105886296D01*
X81363388Y-105886294D01*
X81363387Y-105886292D01*
X81275761Y-105769238D01*
X81158707Y-105681612D01*
X81158702Y-105681610D01*
X81021704Y-105630511D01*
X81021696Y-105630509D01*
X80961149Y-105624000D01*
X80961138Y-105624000D01*
X80126000Y-105624000D01*
X80057879Y-105603998D01*
X80011386Y-105550342D01*
X80000000Y-105498000D01*
X80000000Y-102002000D01*
X80020002Y-101933879D01*
X80073658Y-101887386D01*
X80126000Y-101876000D01*
X81061132Y-101876000D01*
X81061138Y-101876000D01*
X81061145Y-101875999D01*
X81061149Y-101875999D01*
X81121696Y-101869490D01*
X81121699Y-101869489D01*
X81121701Y-101869489D01*
X81258704Y-101818389D01*
X81375761Y-101730761D01*
X81463389Y-101613704D01*
X81514489Y-101476701D01*
X81521000Y-101416138D01*
X81521000Y-97318862D01*
X81520999Y-97318850D01*
X81514490Y-97258303D01*
X81514488Y-97258295D01*
X81463389Y-97121297D01*
X81463387Y-97121292D01*
X81375761Y-97004238D01*
X81258707Y-96916612D01*
X81258704Y-96916611D01*
X81237036Y-96908529D01*
X81180201Y-96865981D01*
X81155391Y-96799461D01*
X81170483Y-96730087D01*
X81214922Y-96683234D01*
X81248652Y-96662430D01*
X81374030Y-96537052D01*
X81467115Y-96386138D01*
X81522887Y-96217826D01*
X81533500Y-96113945D01*
X81533499Y-95593669D01*
X81553501Y-95525549D01*
X81607156Y-95479056D01*
X81677430Y-95468952D01*
X81688807Y-95471633D01*
G37*
G04 #@! TD.AperFunction*
G04 #@! TA.AperFunction,Conductor*
G36*
X144942121Y-75020002D02*
G01*
X144988614Y-75073658D01*
X145000000Y-75126000D01*
X145000000Y-154874000D01*
X144979998Y-154942121D01*
X144926342Y-154988614D01*
X144874000Y-155000000D01*
X45126000Y-155000000D01*
X45057879Y-154979998D01*
X45011386Y-154926342D01*
X45000000Y-154874000D01*
X45000000Y-143000000D01*
X47000000Y-143000000D01*
X57750000Y-143000000D01*
X57888028Y-142447887D01*
X57936515Y-142253941D01*
X57972442Y-142192705D01*
X58035771Y-142160614D01*
X58058753Y-142158500D01*
X58233627Y-142158500D01*
X58301748Y-142178502D01*
X58322722Y-142195405D01*
X58426341Y-142299024D01*
X58426347Y-142299029D01*
X58426348Y-142299030D01*
X58577262Y-142392115D01*
X58745574Y-142447887D01*
X58849455Y-142458500D01*
X59650544Y-142458499D01*
X59754426Y-142447887D01*
X59922738Y-142392115D01*
X60073652Y-142299030D01*
X60089194Y-142283488D01*
X60160905Y-142211778D01*
X60223217Y-142177752D01*
X60294032Y-142182817D01*
X60339095Y-142211778D01*
X60426341Y-142299024D01*
X60426347Y-142299029D01*
X60426348Y-142299030D01*
X60577262Y-142392115D01*
X60745574Y-142447887D01*
X60849455Y-142458500D01*
X61650544Y-142458499D01*
X61754426Y-142447887D01*
X61922738Y-142392115D01*
X62073652Y-142299030D01*
X62199030Y-142173652D01*
X62292115Y-142022738D01*
X62347887Y-141854426D01*
X62358500Y-141750545D01*
X62358499Y-140749456D01*
X62356706Y-140731909D01*
X62347887Y-140645574D01*
X62330631Y-140593497D01*
X62292115Y-140477262D01*
X62199030Y-140326348D01*
X62199029Y-140326347D01*
X62199024Y-140326341D01*
X62195405Y-140322722D01*
X62161379Y-140260410D01*
X62158500Y-140233627D01*
X62158500Y-140224499D01*
X62178502Y-140156378D01*
X62232158Y-140109885D01*
X62284500Y-140098499D01*
X63975544Y-140098499D01*
X64079426Y-140087887D01*
X64247738Y-140032115D01*
X64398652Y-139939030D01*
X64414191Y-139923489D01*
X64476499Y-139889464D01*
X64491866Y-139887102D01*
X65388941Y-139805550D01*
X65458591Y-139819303D01*
X65466484Y-139823786D01*
X65577262Y-139892115D01*
X65745574Y-139947887D01*
X65849455Y-139958500D01*
X66650544Y-139958499D01*
X66754426Y-139947887D01*
X66922738Y-139892115D01*
X67073652Y-139799030D01*
X67199030Y-139673652D01*
X67199031Y-139673649D01*
X67202692Y-139669989D01*
X67265004Y-139635964D01*
X67280376Y-139633601D01*
X68750000Y-139500000D01*
X68750000Y-137500000D01*
X68749999Y-137499999D01*
X67202421Y-137482211D01*
X67134534Y-137461427D01*
X67088661Y-137407240D01*
X67079366Y-137336855D01*
X67089679Y-137302959D01*
X67092107Y-137297750D01*
X67092115Y-137297738D01*
X67147887Y-137129426D01*
X67158500Y-137025545D01*
X67158499Y-135974456D01*
X67147887Y-135870574D01*
X67092115Y-135702262D01*
X67008156Y-135566143D01*
X66989420Y-135497668D01*
X67008155Y-135433856D01*
X67092115Y-135297738D01*
X67147887Y-135129426D01*
X67158500Y-135025545D01*
X67158499Y-134034499D01*
X67178501Y-133966379D01*
X67232157Y-133919886D01*
X67284499Y-133908500D01*
X71171497Y-133908500D01*
X71239618Y-133928502D01*
X71260592Y-133945405D01*
X71654595Y-134339408D01*
X71688621Y-134401720D01*
X71691500Y-134428503D01*
X71691500Y-139571497D01*
X71671498Y-139639618D01*
X71654595Y-139660592D01*
X70710592Y-140604595D01*
X70648280Y-140638621D01*
X70621497Y-140641500D01*
X68948018Y-140641500D01*
X68772499Y-140676413D01*
X68772498Y-140676413D01*
X68638520Y-140731909D01*
X68590304Y-140741500D01*
X68383489Y-140741500D01*
X68346171Y-140744437D01*
X68346170Y-140744437D01*
X68186394Y-140790856D01*
X68043196Y-140875544D01*
X68043189Y-140875549D01*
X67925549Y-140993189D01*
X67925544Y-140993196D01*
X67840856Y-141136394D01*
X67794437Y-141296170D01*
X67794437Y-141296171D01*
X67791500Y-141333488D01*
X67791500Y-141565500D01*
X67771498Y-141633621D01*
X67717842Y-141680114D01*
X67665500Y-141691500D01*
X67248363Y-141691500D01*
X67248343Y-141691499D01*
X67242130Y-141691499D01*
X67082870Y-141691499D01*
X67076657Y-141691499D01*
X67076637Y-141691500D01*
X66508489Y-141691500D01*
X66471171Y-141694437D01*
X66471170Y-141694437D01*
X66311394Y-141740856D01*
X66168196Y-141825544D01*
X66168189Y-141825549D01*
X66050549Y-141943189D01*
X66050544Y-141943196D01*
X65965856Y-142086394D01*
X65919437Y-142246170D01*
X65919437Y-142246171D01*
X65916500Y-142283488D01*
X65916500Y-142550418D01*
X65896498Y-142618539D01*
X65879595Y-142639513D01*
X65827013Y-142692095D01*
X65764701Y-142726121D01*
X65737918Y-142729000D01*
X65228873Y-142729000D01*
X65160752Y-142708998D01*
X65139778Y-142692095D01*
X65048658Y-142600975D01*
X65048652Y-142600970D01*
X64897738Y-142507885D01*
X64813582Y-142479999D01*
X64729427Y-142452113D01*
X64729420Y-142452112D01*
X64625553Y-142441500D01*
X63574455Y-142441500D01*
X63470574Y-142452112D01*
X63302261Y-142507885D01*
X63151347Y-142600970D01*
X63151341Y-142600975D01*
X63025975Y-142726341D01*
X63025970Y-142726347D01*
X62932885Y-142877262D01*
X62877113Y-143045572D01*
X62877112Y-143045579D01*
X62866500Y-143149446D01*
X62866500Y-143925544D01*
X62877112Y-144029425D01*
X62932886Y-144197740D01*
X62939299Y-144208137D01*
X62958036Y-144276616D01*
X62936776Y-144344355D01*
X62882269Y-144389846D01*
X62844866Y-144399630D01*
X62820580Y-144402111D01*
X62820577Y-144402112D01*
X62652261Y-144457885D01*
X62501347Y-144550970D01*
X62501341Y-144550975D01*
X62375975Y-144676341D01*
X62375970Y-144676347D01*
X62282885Y-144827262D01*
X62227113Y-144995572D01*
X62227112Y-144995578D01*
X62225347Y-145012857D01*
X62198524Y-145078591D01*
X62140420Y-145119389D01*
X62069483Y-145122297D01*
X62008235Y-145086391D01*
X61976122Y-145023073D01*
X61974652Y-145012852D01*
X61972887Y-144995575D01*
X61972886Y-144995572D01*
X61917115Y-144827262D01*
X61824030Y-144676348D01*
X61824029Y-144676347D01*
X61824024Y-144676341D01*
X61698658Y-144550975D01*
X61698652Y-144550970D01*
X61628800Y-144507885D01*
X61547738Y-144457885D01*
X61463582Y-144429999D01*
X61379427Y-144402113D01*
X61379420Y-144402112D01*
X61275553Y-144391500D01*
X60624455Y-144391500D01*
X60520574Y-144402112D01*
X60352261Y-144457885D01*
X60201347Y-144550970D01*
X60182615Y-144569702D01*
X60120302Y-144603726D01*
X60049486Y-144598660D01*
X60027377Y-144587847D01*
X59897738Y-144507885D01*
X59813582Y-144479999D01*
X59729427Y-144452113D01*
X59729420Y-144452112D01*
X59625553Y-144441500D01*
X58574455Y-144441500D01*
X58470574Y-144452112D01*
X58302261Y-144507885D01*
X58151347Y-144600970D01*
X58151341Y-144600975D01*
X58025975Y-144726341D01*
X58025970Y-144726347D01*
X57932885Y-144877262D01*
X57877113Y-145045572D01*
X57877112Y-145045579D01*
X57866500Y-145149446D01*
X57866500Y-145750544D01*
X57877112Y-145854425D01*
X57932885Y-146022738D01*
X58025970Y-146173652D01*
X58025975Y-146173658D01*
X58151341Y-146299024D01*
X58151347Y-146299029D01*
X58151348Y-146299030D01*
X58302262Y-146392115D01*
X58470574Y-146447887D01*
X58574455Y-146458500D01*
X58919163Y-146458499D01*
X58987282Y-146478501D01*
X59033775Y-146532156D01*
X59043880Y-146602430D01*
X59026403Y-146650646D01*
X58932885Y-146802262D01*
X58877113Y-146970572D01*
X58877112Y-146970579D01*
X58866500Y-147074446D01*
X58866500Y-147850544D01*
X58877112Y-147954425D01*
X58932885Y-148122738D01*
X59025970Y-148273652D01*
X59025975Y-148273658D01*
X59151341Y-148399024D01*
X59151347Y-148399029D01*
X59151348Y-148399030D01*
X59302262Y-148492115D01*
X59470574Y-148547887D01*
X59574455Y-148558500D01*
X60625544Y-148558499D01*
X60729426Y-148547887D01*
X60897738Y-148492115D01*
X61048652Y-148399030D01*
X61102278Y-148345403D01*
X61164588Y-148311380D01*
X61191372Y-148308500D01*
X61508627Y-148308500D01*
X61576748Y-148328502D01*
X61597722Y-148345405D01*
X61701341Y-148449024D01*
X61701347Y-148449029D01*
X61701348Y-148449030D01*
X61852262Y-148542115D01*
X62020574Y-148597887D01*
X62124455Y-148608500D01*
X62775544Y-148608499D01*
X62879426Y-148597887D01*
X63047738Y-148542115D01*
X63198652Y-148449030D01*
X63324030Y-148323652D01*
X63417115Y-148172738D01*
X63472887Y-148004426D01*
X63474653Y-147987142D01*
X63501471Y-147921412D01*
X63559574Y-147880612D01*
X63630510Y-147877701D01*
X63691760Y-147913604D01*
X63723876Y-147976921D01*
X63725346Y-147987142D01*
X63727111Y-148004420D01*
X63727112Y-148004422D01*
X63727112Y-148004424D01*
X63727113Y-148004426D01*
X63766317Y-148122738D01*
X63782885Y-148172738D01*
X63875970Y-148323652D01*
X63875975Y-148323658D01*
X64001341Y-148449024D01*
X64001347Y-148449029D01*
X64001348Y-148449030D01*
X64152262Y-148542115D01*
X64320574Y-148597887D01*
X64424455Y-148608500D01*
X64630074Y-148608499D01*
X64698195Y-148628501D01*
X64719170Y-148645404D01*
X65466647Y-149392881D01*
X65607119Y-149533353D01*
X65772296Y-149643721D01*
X65955831Y-149719744D01*
X66150671Y-149758500D01*
X66349329Y-149758500D01*
X89512658Y-149758500D01*
X89580779Y-149778502D01*
X89615188Y-149811264D01*
X89749990Y-149999987D01*
X90125000Y-150500000D01*
X92000000Y-153000000D01*
X102499999Y-153000000D01*
X102500000Y-153000000D01*
X105750000Y-150500000D01*
X107000000Y-149500000D01*
X117213095Y-139286905D01*
X117275407Y-139252879D01*
X117302190Y-139250000D01*
X129000000Y-139250000D01*
X129000000Y-128250000D01*
X117000000Y-128250000D01*
X117000000Y-132697810D01*
X116979998Y-132765931D01*
X116963095Y-132786905D01*
X109786905Y-139963095D01*
X109724593Y-139997121D01*
X109697810Y-140000000D01*
X106974872Y-140000000D01*
X106906751Y-139979998D01*
X106885780Y-139963098D01*
X106848652Y-139925970D01*
X106697738Y-139832885D01*
X106603774Y-139801749D01*
X106529427Y-139777113D01*
X106529420Y-139777112D01*
X106425553Y-139766500D01*
X105649455Y-139766500D01*
X105545574Y-139777112D01*
X105377261Y-139832885D01*
X105226347Y-139925970D01*
X105226341Y-139925975D01*
X105100975Y-140051341D01*
X105100970Y-140051347D01*
X105007885Y-140202262D01*
X104952113Y-140370572D01*
X104952112Y-140370579D01*
X104941500Y-140474446D01*
X104941500Y-141525544D01*
X104952112Y-141629425D01*
X105007885Y-141797738D01*
X105100970Y-141948652D01*
X105100975Y-141948658D01*
X105226341Y-142074024D01*
X105226347Y-142074029D01*
X105226348Y-142074030D01*
X105377262Y-142167115D01*
X105545574Y-142222887D01*
X105649455Y-142233500D01*
X105779519Y-142233499D01*
X105847639Y-142253501D01*
X105894132Y-142307156D01*
X105905418Y-142364535D01*
X105894177Y-142645536D01*
X105871468Y-142712803D01*
X105815997Y-142757114D01*
X105768279Y-142766500D01*
X105649456Y-142766500D01*
X105545574Y-142777112D01*
X105377261Y-142832885D01*
X105226347Y-142925970D01*
X105226341Y-142925975D01*
X105100975Y-143051341D01*
X105100970Y-143051347D01*
X105007885Y-143202262D01*
X104952113Y-143370572D01*
X104952112Y-143370579D01*
X104941500Y-143474446D01*
X104941500Y-144525544D01*
X104952112Y-144629425D01*
X105007885Y-144797738D01*
X105100970Y-144948652D01*
X105100975Y-144948658D01*
X105226341Y-145074024D01*
X105226345Y-145074027D01*
X105226348Y-145074030D01*
X105226350Y-145074031D01*
X105232103Y-145078580D01*
X105230479Y-145080633D01*
X105269766Y-145124306D01*
X105281173Y-145194380D01*
X105252885Y-145259497D01*
X105245240Y-145267863D01*
X104508510Y-146004595D01*
X104446197Y-146038620D01*
X104419414Y-146041500D01*
X102626000Y-146041500D01*
X102557879Y-146021498D01*
X102511386Y-145967842D01*
X102500000Y-145915500D01*
X102500000Y-142000000D01*
X98631436Y-142000000D01*
X98563315Y-141979998D01*
X98516822Y-141926342D01*
X98506718Y-141856068D01*
X98524195Y-141807853D01*
X98530434Y-141797738D01*
X98592115Y-141697738D01*
X98647887Y-141529426D01*
X98658500Y-141425545D01*
X98658499Y-141141002D01*
X98678501Y-141072883D01*
X98695399Y-141051912D01*
X98966678Y-140780635D01*
X99066102Y-140631836D01*
X99081981Y-140593500D01*
X99134587Y-140466500D01*
X99169500Y-140290979D01*
X99169500Y-139766030D01*
X99189502Y-139697909D01*
X99206400Y-139676940D01*
X102475535Y-136407804D01*
X102475549Y-136407793D01*
X102650615Y-136232727D01*
X102650620Y-136232722D01*
X102790185Y-136040627D01*
X102897982Y-135829063D01*
X102971356Y-135603241D01*
X102972886Y-135598533D01*
X102974394Y-135599023D01*
X103006264Y-135543517D01*
X103069291Y-135510833D01*
X103093432Y-135508499D01*
X104550544Y-135508499D01*
X104654426Y-135497887D01*
X104822738Y-135442115D01*
X104973652Y-135349030D01*
X105099030Y-135223652D01*
X105192115Y-135072738D01*
X105247887Y-134904426D01*
X105258500Y-134800545D01*
X105258499Y-132699456D01*
X105247887Y-132595574D01*
X105192115Y-132427262D01*
X105099030Y-132276348D01*
X105099029Y-132276347D01*
X105099024Y-132276341D01*
X104973658Y-132150975D01*
X104973652Y-132150970D01*
X104934972Y-132127112D01*
X104822738Y-132057885D01*
X104738582Y-132029999D01*
X104654427Y-132002113D01*
X104654420Y-132002112D01*
X104550553Y-131991500D01*
X104550545Y-131991500D01*
X103134500Y-131991500D01*
X103066379Y-131971498D01*
X103019886Y-131917842D01*
X103008500Y-131865500D01*
X103008500Y-127570304D01*
X103028502Y-127502183D01*
X103082158Y-127455690D01*
X103098023Y-127450439D01*
X103097895Y-127450051D01*
X103104426Y-127447887D01*
X103272738Y-127392115D01*
X103423652Y-127299030D01*
X103549030Y-127173652D01*
X103642115Y-127022738D01*
X103697887Y-126854426D01*
X103708500Y-126750545D01*
X103708499Y-126024456D01*
X103697887Y-125920574D01*
X103642115Y-125752262D01*
X103549030Y-125601348D01*
X103549029Y-125601347D01*
X103549024Y-125601341D01*
X103423658Y-125475975D01*
X103423652Y-125475970D01*
X103272738Y-125382885D01*
X103188582Y-125354999D01*
X103104427Y-125327113D01*
X103104420Y-125327112D01*
X103000553Y-125316500D01*
X103000545Y-125316500D01*
X102614532Y-125316500D01*
X102546411Y-125296498D01*
X102525436Y-125279594D01*
X102482727Y-125236884D01*
X102482724Y-125236882D01*
X102482722Y-125236880D01*
X102290627Y-125097315D01*
X102079063Y-124989518D01*
X102079060Y-124989517D01*
X102079058Y-124989516D01*
X101853246Y-124916145D01*
X101853242Y-124916144D01*
X101853241Y-124916144D01*
X101618722Y-124879000D01*
X101381278Y-124879000D01*
X101146759Y-124916144D01*
X101146753Y-124916145D01*
X100920941Y-124989516D01*
X100920935Y-124989519D01*
X100709369Y-125097317D01*
X100517280Y-125236878D01*
X100474560Y-125279597D01*
X100412247Y-125313621D01*
X100385466Y-125316500D01*
X99999455Y-125316500D01*
X99895574Y-125327112D01*
X99727261Y-125382885D01*
X99576347Y-125475970D01*
X99576341Y-125475975D01*
X99450975Y-125601341D01*
X99450970Y-125601347D01*
X99357885Y-125752262D01*
X99302113Y-125920572D01*
X99302112Y-125920579D01*
X99291500Y-126024446D01*
X99291500Y-126750544D01*
X99302112Y-126854425D01*
X99357885Y-127022738D01*
X99450970Y-127173652D01*
X99450975Y-127173658D01*
X99576341Y-127299024D01*
X99576347Y-127299029D01*
X99576348Y-127299030D01*
X99727262Y-127392115D01*
X99895574Y-127447887D01*
X99895577Y-127447887D01*
X99902104Y-127450050D01*
X99901376Y-127452244D01*
X99954294Y-127480907D01*
X99988529Y-127543104D01*
X99991500Y-127570303D01*
X99991500Y-132255967D01*
X99972741Y-132322113D01*
X99907885Y-132427260D01*
X99852113Y-132595572D01*
X99852112Y-132595579D01*
X99841500Y-132699446D01*
X99841500Y-132874000D01*
X99821498Y-132942121D01*
X99767842Y-132988614D01*
X99715500Y-133000000D01*
X97626000Y-133000000D01*
X97557879Y-132979998D01*
X97511386Y-132926342D01*
X97500000Y-132874000D01*
X97500000Y-132543962D01*
X97520002Y-132475841D01*
X97542596Y-132451153D01*
X97542202Y-132450759D01*
X97665450Y-132327510D01*
X97665453Y-132327507D01*
X97750145Y-132184301D01*
X97796562Y-132024531D01*
X97799499Y-131987211D01*
X97799500Y-131987211D01*
X97799500Y-130254189D01*
X97799499Y-130254188D01*
X97799169Y-130250000D01*
X97796562Y-130216869D01*
X97750145Y-130057099D01*
X97749964Y-130056680D01*
X97749815Y-130055960D01*
X97747934Y-130049486D01*
X97748443Y-130049337D01*
X97739600Y-130006637D01*
X97739600Y-129857517D01*
X97759602Y-129789396D01*
X97799453Y-129750276D01*
X97848652Y-129719930D01*
X97974030Y-129594552D01*
X98067115Y-129443638D01*
X98122887Y-129275326D01*
X98133500Y-129171445D01*
X98133499Y-128120356D01*
X98122887Y-128016474D01*
X98067115Y-127848162D01*
X97974030Y-127697248D01*
X97974029Y-127697247D01*
X97974024Y-127697241D01*
X97848658Y-127571875D01*
X97848652Y-127571870D01*
X97846113Y-127570304D01*
X97697738Y-127478785D01*
X97604492Y-127447887D01*
X97529427Y-127423013D01*
X97529420Y-127423012D01*
X97425553Y-127412400D01*
X96649455Y-127412400D01*
X96545574Y-127423012D01*
X96377261Y-127478785D01*
X96226347Y-127571870D01*
X96226341Y-127571875D01*
X96100975Y-127697241D01*
X96100970Y-127697247D01*
X96007885Y-127848162D01*
X95952113Y-128016472D01*
X95952112Y-128016479D01*
X95941500Y-128120346D01*
X95941500Y-129171444D01*
X95952112Y-129275325D01*
X95952113Y-129275327D01*
X96007885Y-129443638D01*
X96024178Y-129470053D01*
X96042916Y-129538531D01*
X96021657Y-129606270D01*
X95967151Y-129651762D01*
X95916938Y-129662200D01*
X95504489Y-129662200D01*
X95467171Y-129665137D01*
X95467170Y-129665137D01*
X95307394Y-129711556D01*
X95164197Y-129796243D01*
X95163225Y-129796998D01*
X95162323Y-129797352D01*
X95157369Y-129800282D01*
X95156896Y-129799482D01*
X95097139Y-129822944D01*
X95027517Y-129809042D01*
X95008775Y-129796998D01*
X95007802Y-129796243D01*
X94864605Y-129711556D01*
X94704829Y-129665137D01*
X94667511Y-129662200D01*
X94667502Y-129662200D01*
X94234498Y-129662200D01*
X94234489Y-129662200D01*
X94197171Y-129665137D01*
X94197170Y-129665137D01*
X94037394Y-129711556D01*
X93894196Y-129796244D01*
X93894189Y-129796249D01*
X93776549Y-129913889D01*
X93776544Y-129913896D01*
X93691856Y-130057094D01*
X93662206Y-130159153D01*
X93623993Y-130218988D01*
X93559497Y-130248666D01*
X93541209Y-130250000D01*
X81400464Y-130250000D01*
X81332343Y-130229998D01*
X81285850Y-130176342D01*
X81274494Y-130126738D01*
X81272980Y-130057101D01*
X81250000Y-129000000D01*
X78608118Y-129000000D01*
X78572966Y-128994997D01*
X78553832Y-128989438D01*
X78553828Y-128989437D01*
X78516511Y-128986500D01*
X78516502Y-128986500D01*
X76733498Y-128986500D01*
X76733489Y-128986500D01*
X76696171Y-128989437D01*
X76696170Y-128989437D01*
X76536394Y-129035856D01*
X76393196Y-129120544D01*
X76393189Y-129120549D01*
X76275549Y-129238189D01*
X76275544Y-129238196D01*
X76190856Y-129381394D01*
X76144437Y-129541170D01*
X76144437Y-129541171D01*
X76141500Y-129578488D01*
X76141500Y-130011511D01*
X76144437Y-130048828D01*
X76144437Y-130048829D01*
X76190856Y-130208605D01*
X76275544Y-130351803D01*
X76275549Y-130351810D01*
X76393189Y-130469450D01*
X76393196Y-130469455D01*
X76536394Y-130554143D01*
X76536397Y-130554143D01*
X76536399Y-130554145D01*
X76696169Y-130600562D01*
X76733488Y-130603499D01*
X76733489Y-130603500D01*
X76733498Y-130603500D01*
X78337174Y-130603500D01*
X78405295Y-130623502D01*
X78451788Y-130677158D01*
X78463145Y-130732180D01*
X78448869Y-131403180D01*
X78427423Y-131470860D01*
X78372791Y-131516201D01*
X78322898Y-131526500D01*
X76733489Y-131526500D01*
X76696171Y-131529437D01*
X76696170Y-131529437D01*
X76536394Y-131575856D01*
X76393196Y-131660544D01*
X76393189Y-131660549D01*
X76275549Y-131778189D01*
X76275544Y-131778196D01*
X76190856Y-131921394D01*
X76144437Y-132081170D01*
X76144437Y-132081171D01*
X76141500Y-132118488D01*
X76141500Y-132551503D01*
X76142217Y-132560616D01*
X76127620Y-132630096D01*
X76077776Y-132680655D01*
X76016605Y-132696500D01*
X75805896Y-132696500D01*
X75737775Y-132676498D01*
X75691282Y-132622842D01*
X75686292Y-132610133D01*
X75667116Y-132552265D01*
X75667115Y-132552264D01*
X75667115Y-132552262D01*
X75574030Y-132401348D01*
X75574029Y-132401347D01*
X75574024Y-132401341D01*
X75448658Y-132275975D01*
X75448652Y-132275970D01*
X75416222Y-132255967D01*
X75297738Y-132182885D01*
X75201423Y-132150970D01*
X75129427Y-132127113D01*
X75129420Y-132127112D01*
X75025553Y-132116500D01*
X75025545Y-132116500D01*
X74203503Y-132116500D01*
X74135382Y-132096498D01*
X74114408Y-132079595D01*
X72829140Y-130794326D01*
X72829134Y-130794321D01*
X72779760Y-130761330D01*
X72680336Y-130694897D01*
X72515000Y-130626413D01*
X72500365Y-130623502D01*
X72339481Y-130591500D01*
X72339479Y-130591500D01*
X69785373Y-130591500D01*
X69717252Y-130571498D01*
X69670759Y-130517842D01*
X69660655Y-130447568D01*
X69690149Y-130382988D01*
X69696278Y-130376405D01*
X69749024Y-130323658D01*
X69749030Y-130323652D01*
X69842115Y-130172738D01*
X69897887Y-130004426D01*
X69908500Y-129900545D01*
X69908499Y-129099456D01*
X69897887Y-128995574D01*
X69842115Y-128827262D01*
X69749030Y-128676348D01*
X69749029Y-128676347D01*
X69749024Y-128676341D01*
X69623658Y-128550975D01*
X69623652Y-128550970D01*
X69472738Y-128457885D01*
X69376423Y-128425970D01*
X69304427Y-128402113D01*
X69304420Y-128402112D01*
X69200553Y-128391500D01*
X69200545Y-128391500D01*
X68876000Y-128391500D01*
X68807879Y-128371498D01*
X68761386Y-128317842D01*
X68750000Y-128265500D01*
X68750000Y-127300045D01*
X68770002Y-127231924D01*
X68823658Y-127185431D01*
X68893932Y-127175327D01*
X68945757Y-127196795D01*
X68945882Y-127196568D01*
X68948002Y-127197725D01*
X68951513Y-127199180D01*
X68953794Y-127200888D01*
X68953795Y-127200888D01*
X68953796Y-127200889D01*
X69012875Y-127222924D01*
X69090795Y-127251988D01*
X69090803Y-127251990D01*
X69151350Y-127258499D01*
X69151355Y-127258499D01*
X69151362Y-127258500D01*
X69151368Y-127258500D01*
X70548632Y-127258500D01*
X70548638Y-127258500D01*
X70548645Y-127258499D01*
X70548649Y-127258499D01*
X70609196Y-127251990D01*
X70609199Y-127251989D01*
X70609201Y-127251989D01*
X70746204Y-127200889D01*
X70766854Y-127185431D01*
X70863261Y-127113261D01*
X70950887Y-126996207D01*
X70950887Y-126996206D01*
X70950889Y-126996204D01*
X71001989Y-126859201D01*
X71002503Y-126854427D01*
X71008499Y-126798649D01*
X71008500Y-126798632D01*
X71008500Y-125401367D01*
X71008499Y-125401350D01*
X71001990Y-125340803D01*
X71001988Y-125340795D01*
X70963230Y-125236884D01*
X70950889Y-125203796D01*
X70950888Y-125203794D01*
X70950887Y-125203792D01*
X70878165Y-125106648D01*
X70863261Y-125086739D01*
X70796634Y-125036862D01*
X70754088Y-124980026D01*
X70748565Y-124960574D01*
X70744369Y-124939479D01*
X70723587Y-124835000D01*
X70655102Y-124669664D01*
X70555678Y-124520865D01*
X70429135Y-124394322D01*
X70249908Y-124215095D01*
X70215882Y-124152783D01*
X70220947Y-124081968D01*
X70263494Y-124025132D01*
X70330014Y-124000321D01*
X70339003Y-124000000D01*
X73000000Y-124000000D01*
X73000000Y-115876000D01*
X73020002Y-115807879D01*
X73073658Y-115761386D01*
X73126000Y-115750000D01*
X76734048Y-115750000D01*
X76800194Y-115768758D01*
X76902262Y-115831715D01*
X77070574Y-115887487D01*
X77174455Y-115898100D01*
X77900544Y-115898099D01*
X78004426Y-115887487D01*
X78172738Y-115831715D01*
X78274805Y-115768758D01*
X78340952Y-115750000D01*
X79659048Y-115750000D01*
X79725194Y-115768758D01*
X79827262Y-115831715D01*
X79995574Y-115887487D01*
X80099455Y-115898100D01*
X80825544Y-115898099D01*
X80929426Y-115887487D01*
X81097738Y-115831715D01*
X81199805Y-115768758D01*
X81265952Y-115750000D01*
X84500000Y-115750000D01*
X86211921Y-115750000D01*
X86228367Y-115751078D01*
X86284742Y-115758500D01*
X86624000Y-115758500D01*
X86692121Y-115778502D01*
X86738614Y-115832158D01*
X86750000Y-115884500D01*
X86750000Y-117500000D01*
X94874000Y-117500000D01*
X94942121Y-117520002D01*
X94988614Y-117573658D01*
X95000000Y-117626000D01*
X95000000Y-118276358D01*
X94979998Y-118344479D01*
X94926342Y-118390972D01*
X94913637Y-118395961D01*
X94895764Y-118401883D01*
X94744847Y-118494970D01*
X94744841Y-118494975D01*
X94619475Y-118620341D01*
X94619470Y-118620347D01*
X94526385Y-118771262D01*
X94470613Y-118939572D01*
X94470612Y-118939579D01*
X94460000Y-119043446D01*
X94460000Y-119769544D01*
X94470612Y-119873425D01*
X94526385Y-120041738D01*
X94619470Y-120192652D01*
X94619475Y-120192658D01*
X94744841Y-120318024D01*
X94744847Y-120318029D01*
X94744848Y-120318030D01*
X94895762Y-120411115D01*
X95064074Y-120466887D01*
X95167955Y-120477500D01*
X95323418Y-120477499D01*
X95391539Y-120497501D01*
X95397472Y-120501557D01*
X95573785Y-120629657D01*
X95771324Y-120730308D01*
X95982176Y-120798818D01*
X96201149Y-120833500D01*
X98373500Y-120833500D01*
X98441621Y-120853502D01*
X98488114Y-120907158D01*
X98499500Y-120959500D01*
X98499500Y-121814213D01*
X98504985Y-121883904D01*
X98509904Y-121946412D01*
X98509904Y-121946415D01*
X98509905Y-121946416D01*
X98564903Y-122164679D01*
X98564906Y-122164688D01*
X98657991Y-122369624D01*
X98657997Y-122369632D01*
X98786178Y-122554651D01*
X98786182Y-122554656D01*
X98945343Y-122713817D01*
X98945348Y-122713821D01*
X99130367Y-122842002D01*
X99130375Y-122842008D01*
X99255096Y-122898658D01*
X99335317Y-122935096D01*
X99504930Y-122977834D01*
X99563237Y-123010920D01*
X99576341Y-123024024D01*
X99576347Y-123024029D01*
X99576348Y-123024030D01*
X99727262Y-123117115D01*
X99895574Y-123172887D01*
X99999455Y-123183500D01*
X103000544Y-123183499D01*
X103104426Y-123172887D01*
X103272738Y-123117115D01*
X103423652Y-123024030D01*
X103549030Y-122898652D01*
X103642115Y-122747738D01*
X103697887Y-122579426D01*
X103708500Y-122475545D01*
X103708499Y-121749456D01*
X103697887Y-121645574D01*
X103642115Y-121477262D01*
X103549030Y-121326348D01*
X103549029Y-121326347D01*
X103549024Y-121326341D01*
X103537404Y-121314721D01*
X103503378Y-121252409D01*
X103500499Y-121225626D01*
X103500499Y-120959500D01*
X103520501Y-120891379D01*
X103574157Y-120844886D01*
X103626499Y-120833500D01*
X107283381Y-120833500D01*
X107351502Y-120853502D01*
X107385317Y-120885439D01*
X107463157Y-120992576D01*
X108294923Y-121824343D01*
X108474285Y-121954657D01*
X108671823Y-122055308D01*
X108882676Y-122123818D01*
X109101649Y-122158499D01*
X109101651Y-122158499D01*
X109323349Y-122158499D01*
X109323351Y-122158499D01*
X109542324Y-122123818D01*
X109753176Y-122055308D01*
X109950715Y-121954657D01*
X110130076Y-121824343D01*
X110286843Y-121667576D01*
X110417157Y-121488215D01*
X110517808Y-121290676D01*
X110586318Y-121079824D01*
X110620999Y-120860851D01*
X110620999Y-120639149D01*
X110586318Y-120420176D01*
X110517808Y-120209323D01*
X110417157Y-120011785D01*
X110286843Y-119832423D01*
X110286835Y-119832415D01*
X110286344Y-119831840D01*
X110286222Y-119831569D01*
X110283933Y-119828418D01*
X110284594Y-119827937D01*
X110257306Y-119767054D01*
X110267905Y-119696852D01*
X110284077Y-119671686D01*
X110283933Y-119671582D01*
X110285767Y-119669056D01*
X110286344Y-119668160D01*
X110286829Y-119667590D01*
X110286843Y-119667577D01*
X110417157Y-119488215D01*
X110517808Y-119290677D01*
X110586318Y-119079824D01*
X110620999Y-118860851D01*
X110620999Y-118639149D01*
X110586318Y-118420176D01*
X110517808Y-118209324D01*
X110417157Y-118011785D01*
X110286843Y-117832424D01*
X110286841Y-117832421D01*
X110130081Y-117675661D01*
X110130075Y-117675656D01*
X110051938Y-117618885D01*
X110008585Y-117562663D01*
X110000000Y-117516950D01*
X110000000Y-116500000D01*
X104955301Y-116331843D01*
X104887885Y-116309583D01*
X104843205Y-116254408D01*
X104833499Y-116205913D01*
X104833499Y-116136955D01*
X104822887Y-116033074D01*
X104767115Y-115864762D01*
X104674030Y-115713848D01*
X104674029Y-115713847D01*
X104674024Y-115713841D01*
X104548658Y-115588475D01*
X104548652Y-115588470D01*
X104416810Y-115507149D01*
X104397738Y-115495385D01*
X104292931Y-115460656D01*
X104229427Y-115439613D01*
X104229420Y-115439612D01*
X104125553Y-115429000D01*
X104125545Y-115429000D01*
X103714886Y-115429000D01*
X103646765Y-115408998D01*
X103641256Y-115405231D01*
X103641094Y-115405131D01*
X103607837Y-115388186D01*
X103607836Y-115388186D01*
X103569294Y-115368547D01*
X103517680Y-115319798D01*
X103500499Y-115256281D01*
X103500499Y-114185786D01*
X103500499Y-114185784D01*
X103490096Y-114053588D01*
X103435096Y-113835317D01*
X103403928Y-113766699D01*
X103342008Y-113630375D01*
X103342002Y-113630367D01*
X103213821Y-113445348D01*
X103213817Y-113445343D01*
X103054656Y-113286182D01*
X103054651Y-113286178D01*
X102869629Y-113157994D01*
X102869621Y-113157990D01*
X102832390Y-113141078D01*
X102778640Y-113094694D01*
X102758500Y-113026614D01*
X102758500Y-107000000D01*
X124000000Y-107000000D01*
X124000000Y-113000000D01*
X141000000Y-113000000D01*
X143000000Y-111000000D01*
X143000000Y-109000000D01*
X142999999Y-108999998D01*
X141000001Y-107000000D01*
X141000000Y-107000000D01*
X124000000Y-107000000D01*
X102758500Y-107000000D01*
X102758500Y-104884749D01*
X102758500Y-104884742D01*
X102728411Y-104656198D01*
X102706509Y-104574456D01*
X102668749Y-104433535D01*
X102642911Y-104371158D01*
X102580535Y-104220567D01*
X102482256Y-104050344D01*
X102465276Y-104020933D01*
X102324947Y-103838052D01*
X102324946Y-103838051D01*
X102324937Y-103838041D01*
X99536905Y-101050009D01*
X99502879Y-100987697D01*
X99500000Y-100960914D01*
X99500000Y-98194346D01*
X99500313Y-98185471D01*
X99508500Y-98069515D01*
X99508499Y-95930486D01*
X99508499Y-95930478D01*
X99500313Y-95814530D01*
X99500000Y-95805656D01*
X99500000Y-95499999D01*
X99495857Y-95495856D01*
X99441847Y-95479998D01*
X99395354Y-95426342D01*
X99393080Y-95421043D01*
X99353951Y-95323820D01*
X99353948Y-95323816D01*
X99353947Y-95323812D01*
X99227946Y-95115380D01*
X99070141Y-94929859D01*
X98884620Y-94772054D01*
X98884621Y-94772054D01*
X98884618Y-94772052D01*
X98750756Y-94691131D01*
X98676188Y-94646053D01*
X98676185Y-94646052D01*
X98676179Y-94646048D01*
X98676180Y-94646048D01*
X98450248Y-94555119D01*
X98450246Y-94555118D01*
X98212634Y-94501604D01*
X98212639Y-94501604D01*
X98069524Y-94491500D01*
X98069515Y-94491500D01*
X93697000Y-94491500D01*
X93628879Y-94471498D01*
X93582386Y-94417842D01*
X93571000Y-94365500D01*
X93571000Y-94114297D01*
X93589758Y-94048152D01*
X93667115Y-93922738D01*
X93722887Y-93754426D01*
X93733500Y-93650545D01*
X93733499Y-91349456D01*
X93722887Y-91245574D01*
X93667115Y-91077262D01*
X93574030Y-90926348D01*
X93574029Y-90926347D01*
X93574024Y-90926341D01*
X93448658Y-90800975D01*
X93448652Y-90800970D01*
X93297738Y-90707885D01*
X93213582Y-90679999D01*
X93129427Y-90652113D01*
X93129420Y-90652112D01*
X93025553Y-90641500D01*
X93025545Y-90641500D01*
X92843609Y-90641500D01*
X92775488Y-90621498D01*
X92753627Y-90603700D01*
X92750000Y-90600000D01*
X87750000Y-90500000D01*
X87749999Y-90500000D01*
X87749995Y-90500001D01*
X84817975Y-91394516D01*
X84781207Y-91400000D01*
X80250000Y-91400000D01*
X80226304Y-91439192D01*
X80173942Y-91487137D01*
X80118480Y-91500000D01*
X76500000Y-91500000D01*
X76500000Y-92131171D01*
X76493605Y-92170801D01*
X76477113Y-92220573D01*
X76477112Y-92220575D01*
X76466500Y-92324446D01*
X76466500Y-93675544D01*
X76477112Y-93779423D01*
X76493605Y-93829197D01*
X76500000Y-93868828D01*
X76500000Y-94569571D01*
X76493605Y-94609201D01*
X76477113Y-94658973D01*
X76477112Y-94658975D01*
X76466500Y-94762846D01*
X76466500Y-96113944D01*
X76477112Y-96217823D01*
X76493605Y-96267597D01*
X76500000Y-96307228D01*
X76500000Y-96874000D01*
X76479998Y-96942121D01*
X76426342Y-96988614D01*
X76374000Y-97000000D01*
X60500000Y-97000000D01*
X56500000Y-97000000D01*
X55000000Y-97000000D01*
X54008413Y-98189905D01*
X52786531Y-99656163D01*
X52727555Y-99695690D01*
X52689735Y-99701500D01*
X49440954Y-99701500D01*
X49245300Y-99732488D01*
X49245297Y-99732488D01*
X49245296Y-99732489D01*
X49184087Y-99752377D01*
X49056908Y-99793699D01*
X49056902Y-99793702D01*
X48880399Y-99883635D01*
X48836579Y-99915473D01*
X48720141Y-100000070D01*
X48670547Y-100049665D01*
X48620952Y-100099260D01*
X48580511Y-100139701D01*
X48540070Y-100180141D01*
X48423636Y-100340398D01*
X48423634Y-100340402D01*
X48333702Y-100516904D01*
X48272488Y-100705301D01*
X48241500Y-100900954D01*
X48241500Y-101099046D01*
X48272488Y-101294699D01*
X48333702Y-101483096D01*
X48423634Y-101659598D01*
X48423636Y-101659601D01*
X48540071Y-101819860D01*
X48680139Y-101959928D01*
X48680142Y-101959930D01*
X48840402Y-102076366D01*
X49016904Y-102166298D01*
X49205301Y-102227512D01*
X49400954Y-102258500D01*
X49400957Y-102258500D01*
X49599043Y-102258500D01*
X49599046Y-102258500D01*
X49794699Y-102227512D01*
X49794704Y-102227510D01*
X49794706Y-102227510D01*
X49803453Y-102224668D01*
X49842391Y-102218500D01*
X52374000Y-102218500D01*
X52442121Y-102238502D01*
X52488614Y-102292158D01*
X52500000Y-102344500D01*
X52500000Y-102500000D01*
X52499999Y-102500000D01*
X53999998Y-104749999D01*
X54000000Y-104750000D01*
X54367276Y-104750000D01*
X54435397Y-104770002D01*
X54442768Y-104775120D01*
X54443796Y-104775889D01*
X54443797Y-104775889D01*
X54443798Y-104775890D01*
X54580795Y-104826988D01*
X54580803Y-104826990D01*
X54641350Y-104833499D01*
X54641355Y-104833499D01*
X54641362Y-104833500D01*
X54641368Y-104833500D01*
X57278632Y-104833500D01*
X57278638Y-104833500D01*
X57278645Y-104833499D01*
X57278649Y-104833499D01*
X57347039Y-104826147D01*
X57347259Y-104828201D01*
X57407393Y-104831412D01*
X57464988Y-104872925D01*
X57490996Y-104938987D01*
X57491500Y-104950244D01*
X57491500Y-107874000D01*
X57471498Y-107942121D01*
X57417842Y-107988614D01*
X57365500Y-108000000D01*
X54000000Y-108000000D01*
X54000000Y-119623090D01*
X53979998Y-119691211D01*
X53926342Y-119737704D01*
X53898286Y-119745402D01*
X53898474Y-119746197D01*
X53890795Y-119748011D01*
X53753797Y-119799110D01*
X53753792Y-119799112D01*
X53636738Y-119886738D01*
X53549112Y-120003792D01*
X53549110Y-120003797D01*
X53498011Y-120140795D01*
X53498009Y-120140803D01*
X53491500Y-120201350D01*
X53491500Y-121598649D01*
X53498009Y-121659196D01*
X53498011Y-121659204D01*
X53549110Y-121796202D01*
X53549112Y-121796207D01*
X53636738Y-121913261D01*
X53753792Y-122000887D01*
X53753794Y-122000888D01*
X53753796Y-122000889D01*
X53812875Y-122022924D01*
X53890795Y-122051988D01*
X53898474Y-122053803D01*
X53897959Y-122055979D01*
X53953049Y-122078791D01*
X53993547Y-122137104D01*
X54000000Y-122176909D01*
X54000000Y-125250000D01*
X54867500Y-125250000D01*
X54935621Y-125270002D01*
X54982114Y-125323658D01*
X54992778Y-125389465D01*
X54991501Y-125401342D01*
X54991500Y-125401367D01*
X54991500Y-126798649D01*
X54998009Y-126859196D01*
X54998011Y-126859204D01*
X55049110Y-126996202D01*
X55049112Y-126996207D01*
X55136738Y-127113261D01*
X55253792Y-127200887D01*
X55253794Y-127200888D01*
X55253796Y-127200889D01*
X55312875Y-127222924D01*
X55390795Y-127251988D01*
X55390803Y-127251990D01*
X55451350Y-127258499D01*
X55451355Y-127258499D01*
X55451362Y-127258500D01*
X55451368Y-127258500D01*
X56848632Y-127258500D01*
X56848638Y-127258500D01*
X56848645Y-127258499D01*
X56848649Y-127258499D01*
X56909196Y-127251990D01*
X56909199Y-127251989D01*
X56909201Y-127251989D01*
X57046204Y-127200889D01*
X57066854Y-127185431D01*
X57163261Y-127113261D01*
X57250887Y-126996207D01*
X57250887Y-126996206D01*
X57250889Y-126996204D01*
X57301989Y-126859201D01*
X57302503Y-126854427D01*
X57308499Y-126798649D01*
X57308500Y-126798632D01*
X57308500Y-125401367D01*
X57308499Y-125401350D01*
X57301990Y-125340803D01*
X57301988Y-125340795D01*
X57250890Y-125203798D01*
X57250889Y-125203797D01*
X57250889Y-125203796D01*
X57243592Y-125194049D01*
X57218782Y-125127529D01*
X57233874Y-125058155D01*
X57255362Y-125029449D01*
X57940909Y-124343904D01*
X58003221Y-124309879D01*
X58030004Y-124307000D01*
X58521303Y-124307000D01*
X58589424Y-124327002D01*
X58599454Y-124334165D01*
X58600545Y-124335027D01*
X58600548Y-124335030D01*
X58751462Y-124428115D01*
X58919774Y-124483887D01*
X59023655Y-124494500D01*
X60074744Y-124494499D01*
X60178626Y-124483887D01*
X60346938Y-124428115D01*
X60497852Y-124335030D01*
X60497858Y-124335023D01*
X60498946Y-124334165D01*
X60499835Y-124333806D01*
X60504098Y-124331177D01*
X60504547Y-124331905D01*
X60564787Y-124307603D01*
X60577097Y-124307000D01*
X63206128Y-124307000D01*
X63274249Y-124327002D01*
X63295218Y-124343900D01*
X63350348Y-124399030D01*
X63501262Y-124492115D01*
X63669574Y-124547887D01*
X63773455Y-124558500D01*
X64824544Y-124558499D01*
X64928426Y-124547887D01*
X65096738Y-124492115D01*
X65247652Y-124399030D01*
X65247658Y-124399023D01*
X65248746Y-124398165D01*
X65249635Y-124397806D01*
X65253898Y-124395177D01*
X65254347Y-124395905D01*
X65314587Y-124371603D01*
X65326897Y-124371000D01*
X66074571Y-124371000D01*
X66140717Y-124389759D01*
X66148115Y-124394322D01*
X66166262Y-124405515D01*
X66334574Y-124461287D01*
X66351854Y-124463052D01*
X66417587Y-124489872D01*
X66458387Y-124547974D01*
X66461298Y-124618911D01*
X66425395Y-124680161D01*
X66362078Y-124712276D01*
X66351857Y-124713746D01*
X66334579Y-124715511D01*
X66334577Y-124715512D01*
X66166261Y-124771285D01*
X66015347Y-124864370D01*
X66015341Y-124864375D01*
X65889975Y-124989741D01*
X65889970Y-124989747D01*
X65796885Y-125140662D01*
X65741113Y-125308972D01*
X65741112Y-125308979D01*
X65730500Y-125412846D01*
X65730500Y-126063944D01*
X65741112Y-126167825D01*
X65768999Y-126251982D01*
X65796885Y-126336138D01*
X65796886Y-126336139D01*
X65810240Y-126357789D01*
X65829000Y-126423937D01*
X65829000Y-126571127D01*
X65808998Y-126639248D01*
X65792095Y-126660222D01*
X65700975Y-126751341D01*
X65700970Y-126751347D01*
X65607885Y-126902262D01*
X65552113Y-127070572D01*
X65552112Y-127070579D01*
X65541500Y-127174446D01*
X65541500Y-128225544D01*
X65552112Y-128329425D01*
X65594679Y-128457885D01*
X65607885Y-128497738D01*
X65681641Y-128617315D01*
X65700400Y-128683460D01*
X65700400Y-128820246D01*
X65681641Y-128886392D01*
X65626552Y-128975705D01*
X65573075Y-129137089D01*
X65571119Y-129156235D01*
X65562182Y-129191640D01*
X65539158Y-129247226D01*
X65539156Y-129247231D01*
X65500400Y-129442068D01*
X65500400Y-129640731D01*
X65539156Y-129835568D01*
X65539159Y-129835578D01*
X65562181Y-129891158D01*
X65571119Y-129926565D01*
X65573075Y-129945710D01*
X65573075Y-129945712D01*
X65573076Y-129945714D01*
X65609985Y-130057099D01*
X65626551Y-130107092D01*
X65715800Y-130251787D01*
X65715805Y-130251793D01*
X65740417Y-130276405D01*
X65774443Y-130338717D01*
X65769378Y-130409532D01*
X65726831Y-130466368D01*
X65660311Y-130491179D01*
X65651322Y-130491500D01*
X58598359Y-130491500D01*
X58530238Y-130471498D01*
X58483745Y-130417842D01*
X58473641Y-130347568D01*
X58489253Y-130304499D01*
X58489014Y-130304388D01*
X58490270Y-130301693D01*
X58491118Y-130299352D01*
X58492115Y-130297738D01*
X58547887Y-130129426D01*
X58558500Y-130025545D01*
X58558499Y-128974456D01*
X58547887Y-128870574D01*
X58492115Y-128702262D01*
X58399030Y-128551348D01*
X58399029Y-128551347D01*
X58399024Y-128551341D01*
X58273658Y-128425975D01*
X58273652Y-128425970D01*
X58234972Y-128402112D01*
X58122738Y-128332885D01*
X58038582Y-128304999D01*
X57954427Y-128277113D01*
X57954420Y-128277112D01*
X57850553Y-128266500D01*
X57074455Y-128266500D01*
X56970574Y-128277112D01*
X56802261Y-128332885D01*
X56651347Y-128425970D01*
X56651341Y-128425975D01*
X56525975Y-128551341D01*
X56525970Y-128551347D01*
X56432885Y-128702262D01*
X56377113Y-128870572D01*
X56377112Y-128870579D01*
X56366500Y-128974446D01*
X56366500Y-128974454D01*
X56366500Y-128974455D01*
X56366500Y-129470052D01*
X56366501Y-129874000D01*
X56346499Y-129942121D01*
X56292843Y-129988614D01*
X56240501Y-130000000D01*
X47000000Y-130000000D01*
X47000000Y-137250000D01*
X47000000Y-143000000D01*
X45000000Y-143000000D01*
X45000000Y-75126000D01*
X45020002Y-75057879D01*
X45073658Y-75011386D01*
X45126000Y-75000000D01*
X144874000Y-75000000D01*
X144942121Y-75020002D01*
G37*
G04 #@! TD.AperFunction*
M02*
