G04 #@! TF.GenerationSoftware,KiCad,Pcbnew,8.0.1*
G04 #@! TF.CreationDate,2024-04-29T11:20:42+02:00*
G04 #@! TF.ProjectId,MUNIN 100,4d554e49-4e20-4313-9030-2e6b69636164,0*
G04 #@! TF.SameCoordinates,Original*
G04 #@! TF.FileFunction,Copper,L2,Bot*
G04 #@! TF.FilePolarity,Positive*
%FSLAX46Y46*%
G04 Gerber Fmt 4.6, Leading zero omitted, Abs format (unit mm)*
G04 Created by KiCad (PCBNEW 8.0.1) date 2024-04-29 11:20:42*
%MOMM*%
%LPD*%
G01*
G04 APERTURE LIST*
G04 Aperture macros list*
%AMRoundRect*
0 Rectangle with rounded corners*
0 $1 Rounding radius*
0 $2 $3 $4 $5 $6 $7 $8 $9 X,Y pos of 4 corners*
0 Add a 4 corners polygon primitive as box body*
4,1,4,$2,$3,$4,$5,$6,$7,$8,$9,$2,$3,0*
0 Add four circle primitives for the rounded corners*
1,1,$1+$1,$2,$3*
1,1,$1+$1,$4,$5*
1,1,$1+$1,$6,$7*
1,1,$1+$1,$8,$9*
0 Add four rect primitives between the rounded corners*
20,1,$1+$1,$2,$3,$4,$5,0*
20,1,$1+$1,$4,$5,$6,$7,0*
20,1,$1+$1,$6,$7,$8,$9,0*
20,1,$1+$1,$8,$9,$2,$3,0*%
%AMRotRect*
0 Rectangle, with rotation*
0 The origin of the aperture is its center*
0 $1 length*
0 $2 width*
0 $3 Rotation angle, in degrees counterclockwise*
0 Add horizontal line*
21,1,$1,$2,0,0,$3*%
G04 Aperture macros list end*
G04 #@! TA.AperFunction,ComponentPad*
%ADD10C,6.000000*%
G04 #@! TD*
G04 #@! TA.AperFunction,ComponentPad*
%ADD11R,1.905000X4.000000*%
G04 #@! TD*
G04 #@! TA.AperFunction,ComponentPad*
%ADD12RotRect,1.905000X4.000000X181.300000*%
G04 #@! TD*
G04 #@! TA.AperFunction,ComponentPad*
%ADD13C,0.800000*%
G04 #@! TD*
G04 #@! TA.AperFunction,ComponentPad*
%ADD14C,6.400000*%
G04 #@! TD*
G04 #@! TA.AperFunction,ComponentPad*
%ADD15C,1.998980*%
G04 #@! TD*
G04 #@! TA.AperFunction,ComponentPad*
%ADD16C,2.499360*%
G04 #@! TD*
G04 #@! TA.AperFunction,ComponentPad*
%ADD17C,2.300000*%
G04 #@! TD*
G04 #@! TA.AperFunction,ComponentPad*
%ADD18RoundRect,0.250000X0.620000X0.845000X-0.620000X0.845000X-0.620000X-0.845000X0.620000X-0.845000X0*%
G04 #@! TD*
G04 #@! TA.AperFunction,ComponentPad*
%ADD19O,1.740000X2.190000*%
G04 #@! TD*
G04 #@! TA.AperFunction,ViaPad*
%ADD20C,0.800000*%
G04 #@! TD*
G04 APERTURE END LIST*
D10*
X82500000Y-124792500D03*
D11*
X85040000Y-108132500D03*
D12*
X82500000Y-108132500D03*
D11*
X79960000Y-108132500D03*
D13*
X135902944Y-148000000D03*
X136605888Y-146302944D03*
X136605888Y-149697056D03*
X138302944Y-145600000D03*
D14*
X138302944Y-148000000D03*
D13*
X138302944Y-150400000D03*
X140000000Y-146302944D03*
X140000000Y-149697056D03*
X140702944Y-148000000D03*
D15*
X140000000Y-110000000D03*
D16*
X142540000Y-112540000D03*
X142540000Y-107460000D03*
X137460000Y-112540000D03*
X137460000Y-107460000D03*
D17*
X123000000Y-150080000D03*
X125540000Y-150080000D03*
X128080000Y-150080000D03*
X123000000Y-145000000D03*
X125540000Y-145000000D03*
X128080000Y-145000000D03*
D18*
X86025000Y-144250000D03*
D19*
X83485000Y-144250000D03*
X80945000Y-144250000D03*
D13*
X48600000Y-148000000D03*
X49302944Y-146302944D03*
X49302944Y-149697056D03*
X51000000Y-145600000D03*
D14*
X51000000Y-148000000D03*
D13*
X51000000Y-150400000D03*
X52697056Y-146302944D03*
X52697056Y-149697056D03*
X53400000Y-148000000D03*
D10*
X82600000Y-82707500D03*
D11*
X80060000Y-99367500D03*
X82600000Y-99367500D03*
X85140000Y-99367500D03*
D17*
X99800000Y-145020000D03*
X97260000Y-145020000D03*
X94720000Y-145020000D03*
X99800000Y-150100000D03*
X97260000Y-150100000D03*
X94720000Y-150100000D03*
D13*
X48600000Y-81000000D03*
X49302944Y-79302944D03*
X49302944Y-82697056D03*
X51000000Y-78600000D03*
D14*
X51000000Y-81000000D03*
D13*
X51000000Y-83400000D03*
X52697056Y-79302944D03*
X52697056Y-82697056D03*
X53400000Y-81000000D03*
X135902944Y-81000000D03*
X136605888Y-79302944D03*
X136605888Y-82697056D03*
X138302944Y-78600000D03*
D14*
X138302944Y-81000000D03*
D13*
X138302944Y-83400000D03*
X140000000Y-79302944D03*
X140000000Y-82697056D03*
X140702944Y-81000000D03*
D15*
X49500000Y-101000000D03*
D16*
X46960000Y-98460000D03*
X46960000Y-103540000D03*
X52040000Y-98460000D03*
X52040000Y-103540000D03*
D20*
X74750000Y-127750000D03*
X113500000Y-120750000D03*
X73500000Y-127750000D03*
X140000000Y-93500000D03*
X75500000Y-96000000D03*
X75750000Y-138750000D03*
X82000000Y-77000000D03*
X130750000Y-113750000D03*
X62600000Y-143000000D03*
X61250000Y-125000000D03*
X70750000Y-127750000D03*
X77000000Y-153000000D03*
X75750000Y-137200000D03*
X124750000Y-93500000D03*
X137000000Y-77000000D03*
X87000000Y-77000000D03*
X82500000Y-96500000D03*
X57000000Y-77000000D03*
X62000000Y-121000000D03*
X131250000Y-115500000D03*
X47000000Y-153000000D03*
X54750000Y-107500000D03*
X142000000Y-77000000D03*
X132750000Y-113750000D03*
X123500000Y-112000000D03*
X117000000Y-77000000D03*
X97500000Y-126750000D03*
X83500000Y-104000000D03*
X127000000Y-77000000D03*
X102000000Y-139500000D03*
X64000000Y-120000000D03*
X62000000Y-120000000D03*
X84500000Y-129700000D03*
X113500000Y-124750000D03*
X82000000Y-153000000D03*
X46000000Y-77000000D03*
X63000000Y-121000000D03*
X57000000Y-153000000D03*
X62750000Y-130000000D03*
X136250000Y-115500000D03*
X72000000Y-153000000D03*
X58100000Y-149500000D03*
X119750000Y-93500000D03*
X82500000Y-100750000D03*
X129250000Y-106500000D03*
X140000000Y-118500000D03*
X65600000Y-141500000D03*
X99750000Y-93500000D03*
X99250000Y-128000000D03*
X46000000Y-126500000D03*
X50500000Y-96000000D03*
X114750000Y-93500000D03*
X134250000Y-106500000D03*
X122000000Y-77000000D03*
X46000000Y-146500000D03*
X125750000Y-113750000D03*
X61000000Y-143750000D03*
X142000000Y-153000000D03*
X122000000Y-153000000D03*
X46000000Y-81500000D03*
X81500000Y-104000000D03*
X124250000Y-106500000D03*
X82500000Y-106750000D03*
X46000000Y-121500000D03*
X65500000Y-96000000D03*
X46000000Y-141500000D03*
X91500000Y-126750000D03*
X111250000Y-126750000D03*
X123500000Y-109000000D03*
X135750000Y-113750000D03*
X72000000Y-77000000D03*
X104750000Y-93500000D03*
X74750000Y-129250000D03*
X101900000Y-141400000D03*
X52000000Y-153000000D03*
X60500000Y-96000000D03*
X140000000Y-103500000D03*
X46000000Y-131500000D03*
X93500000Y-122750000D03*
X62000000Y-77000000D03*
X63000000Y-120000000D03*
X82500000Y-109500000D03*
X82500000Y-104000000D03*
X70500000Y-96000000D03*
X82600000Y-102500000D03*
X62600000Y-144000000D03*
X140000000Y-123500000D03*
X76000000Y-130750000D03*
X93500000Y-120750000D03*
X135750000Y-106500000D03*
X62600000Y-142000000D03*
X52000000Y-77000000D03*
X111250000Y-115500000D03*
X132000000Y-153000000D03*
X92000000Y-77000000D03*
X132000000Y-77000000D03*
X56750000Y-107500000D03*
X104000000Y-145500000D03*
X117000000Y-153000000D03*
X129250000Y-113750000D03*
X46000000Y-106500000D03*
X55500000Y-96000000D03*
X77000000Y-77000000D03*
X107000000Y-153000000D03*
X71100000Y-139000000D03*
X64000000Y-121000000D03*
X55750000Y-107500000D03*
X132750000Y-106500000D03*
X58500000Y-127500000D03*
X129750000Y-93500000D03*
X46000000Y-116500000D03*
X71100000Y-134500000D03*
X125750000Y-106500000D03*
X123500000Y-110500000D03*
X93500000Y-118750000D03*
X74250000Y-137250000D03*
X71100000Y-137500000D03*
X74250000Y-138750000D03*
X46000000Y-86500000D03*
X62600000Y-141000000D03*
X109250000Y-126750000D03*
X62750000Y-126000000D03*
X95500000Y-126750000D03*
X99250000Y-129500000D03*
X54250000Y-106500000D03*
X69600000Y-134500000D03*
X140000000Y-98500000D03*
X127750000Y-106500000D03*
X81500000Y-102500000D03*
X112000000Y-153000000D03*
X54250000Y-105250000D03*
X82600000Y-105500000D03*
X99250000Y-131000000D03*
X100250000Y-139500000D03*
X104000000Y-142500000D03*
X126250000Y-115500000D03*
X134750000Y-93500000D03*
X82500000Y-111000000D03*
X81500000Y-105500000D03*
X61250000Y-129000000D03*
X140000000Y-138500000D03*
X113500000Y-122750000D03*
X60000000Y-127500000D03*
X134250000Y-113750000D03*
X121250000Y-115500000D03*
X130750000Y-106500000D03*
X75750000Y-135700000D03*
X69600000Y-136000000D03*
X127750000Y-113750000D03*
X137000000Y-153000000D03*
X105250000Y-126750000D03*
X69600000Y-137500000D03*
X46000000Y-136500000D03*
X93500000Y-126750000D03*
X74750000Y-130750000D03*
X82500000Y-98250000D03*
X93500000Y-124750000D03*
X116250000Y-115500000D03*
X94750000Y-93500000D03*
X67000000Y-77000000D03*
X102000000Y-77000000D03*
X71100000Y-136000000D03*
X140000000Y-88500000D03*
X140000000Y-143500000D03*
X107250000Y-126750000D03*
X69600000Y-139000000D03*
X113500000Y-126750000D03*
X104000000Y-139500000D03*
X141250000Y-115500000D03*
X97000000Y-77000000D03*
X127000000Y-153000000D03*
X123500000Y-107500000D03*
X109750000Y-93500000D03*
X106250000Y-115500000D03*
X46000000Y-111500000D03*
X46000000Y-96500000D03*
X62000000Y-153000000D03*
X57100000Y-143500000D03*
X46000000Y-91500000D03*
X62750000Y-128000000D03*
X72250000Y-127750000D03*
X61250000Y-127000000D03*
X124250000Y-113750000D03*
X140000000Y-128500000D03*
X67000000Y-153000000D03*
X107000000Y-77000000D03*
X87000000Y-153000000D03*
X112000000Y-77000000D03*
X140000000Y-133500000D03*
X62100000Y-149500000D03*
G04 #@! TA.AperFunction,Conductor*
G36*
X144942121Y-75020002D02*
G01*
X144988614Y-75073658D01*
X145000000Y-75126000D01*
X145000000Y-154874000D01*
X144979998Y-154942121D01*
X144926342Y-154988614D01*
X144874000Y-155000000D01*
X45126000Y-155000000D01*
X45057879Y-154979998D01*
X45011386Y-154926342D01*
X45000000Y-154874000D01*
X45000000Y-150100000D01*
X93056372Y-150100000D01*
X93076854Y-150360248D01*
X93137795Y-150614086D01*
X93237696Y-150855269D01*
X93374098Y-151077857D01*
X93374099Y-151077859D01*
X93543636Y-151276363D01*
X93742140Y-151445900D01*
X93742144Y-151445903D01*
X93964729Y-151582303D01*
X94205911Y-151682204D01*
X94459751Y-151743146D01*
X94720000Y-151763628D01*
X94980249Y-151743146D01*
X95234089Y-151682204D01*
X95475271Y-151582303D01*
X95697856Y-151445903D01*
X95896363Y-151276363D01*
X95896365Y-151276361D01*
X95899864Y-151272863D01*
X95901281Y-151274280D01*
X95953632Y-151240102D01*
X96024627Y-151239590D01*
X96079009Y-151273989D01*
X96080136Y-151272863D01*
X96083634Y-151276361D01*
X96282140Y-151445900D01*
X96282144Y-151445903D01*
X96504729Y-151582303D01*
X96745911Y-151682204D01*
X96999751Y-151743146D01*
X97260000Y-151763628D01*
X97520249Y-151743146D01*
X97774089Y-151682204D01*
X98015271Y-151582303D01*
X98237856Y-151445903D01*
X98436363Y-151276363D01*
X98436365Y-151276361D01*
X98439864Y-151272863D01*
X98441281Y-151274280D01*
X98493632Y-151240102D01*
X98564627Y-151239590D01*
X98619009Y-151273989D01*
X98620136Y-151272863D01*
X98623634Y-151276361D01*
X98822140Y-151445900D01*
X98822144Y-151445903D01*
X99044729Y-151582303D01*
X99285911Y-151682204D01*
X99539751Y-151743146D01*
X99800000Y-151763628D01*
X100060249Y-151743146D01*
X100314089Y-151682204D01*
X100555271Y-151582303D01*
X100777856Y-151445903D01*
X100976363Y-151276363D01*
X101145903Y-151077856D01*
X101282303Y-150855271D01*
X101382204Y-150614089D01*
X101443146Y-150360249D01*
X101463628Y-150100000D01*
X101443146Y-149839751D01*
X101382204Y-149585911D01*
X101282303Y-149344729D01*
X101145903Y-149122144D01*
X101070000Y-149033272D01*
X100976363Y-148923636D01*
X100777859Y-148754099D01*
X100777857Y-148754098D01*
X100777856Y-148754097D01*
X100555271Y-148617697D01*
X100314089Y-148517796D01*
X100314087Y-148517795D01*
X100314086Y-148517795D01*
X100177479Y-148484998D01*
X100060249Y-148456854D01*
X99800000Y-148436372D01*
X99539751Y-148456854D01*
X99285913Y-148517795D01*
X99044730Y-148617696D01*
X98822142Y-148754098D01*
X98822140Y-148754099D01*
X98623634Y-148923638D01*
X98620136Y-148927137D01*
X98618726Y-148925727D01*
X98566319Y-148959912D01*
X98495324Y-148960394D01*
X98440999Y-148926001D01*
X98439864Y-148927137D01*
X98436365Y-148923638D01*
X98237859Y-148754099D01*
X98237857Y-148754098D01*
X98237856Y-148754097D01*
X98015271Y-148617697D01*
X97774089Y-148517796D01*
X97774087Y-148517795D01*
X97774086Y-148517795D01*
X97637479Y-148484998D01*
X97520249Y-148456854D01*
X97260000Y-148436372D01*
X96999751Y-148456854D01*
X96745913Y-148517795D01*
X96504730Y-148617696D01*
X96282142Y-148754098D01*
X96282140Y-148754099D01*
X96083634Y-148923638D01*
X96080136Y-148927137D01*
X96078726Y-148925727D01*
X96026319Y-148959912D01*
X95955324Y-148960394D01*
X95900999Y-148926001D01*
X95899864Y-148927137D01*
X95896365Y-148923638D01*
X95697859Y-148754099D01*
X95697857Y-148754098D01*
X95697856Y-148754097D01*
X95475271Y-148617697D01*
X95234089Y-148517796D01*
X95234087Y-148517795D01*
X95234086Y-148517795D01*
X95097479Y-148484998D01*
X94980249Y-148456854D01*
X94720000Y-148436372D01*
X94459751Y-148456854D01*
X94205913Y-148517795D01*
X93964730Y-148617696D01*
X93742142Y-148754098D01*
X93742140Y-148754099D01*
X93543636Y-148923636D01*
X93374099Y-149122140D01*
X93374098Y-149122142D01*
X93237696Y-149344730D01*
X93137795Y-149585913D01*
X93076854Y-149839751D01*
X93056372Y-150100000D01*
X45000000Y-150100000D01*
X45000000Y-144583490D01*
X79566500Y-144583490D01*
X79600443Y-144797800D01*
X79667494Y-145004160D01*
X79766001Y-145197492D01*
X79893539Y-145373033D01*
X79893541Y-145373035D01*
X79893543Y-145373038D01*
X80046961Y-145526456D01*
X80046964Y-145526458D01*
X80046967Y-145526461D01*
X80222508Y-145653999D01*
X80415840Y-145752506D01*
X80622200Y-145819557D01*
X80836510Y-145853500D01*
X80836513Y-145853500D01*
X81053487Y-145853500D01*
X81053490Y-145853500D01*
X81267800Y-145819557D01*
X81474160Y-145752506D01*
X81667492Y-145653999D01*
X81843033Y-145526461D01*
X81996461Y-145373033D01*
X82113065Y-145212541D01*
X82169286Y-145169188D01*
X82240022Y-145163113D01*
X82302814Y-145196244D01*
X82316932Y-145212538D01*
X82433539Y-145373033D01*
X82433541Y-145373035D01*
X82433543Y-145373038D01*
X82586961Y-145526456D01*
X82586964Y-145526458D01*
X82586967Y-145526461D01*
X82762508Y-145653999D01*
X82955840Y-145752506D01*
X83162200Y-145819557D01*
X83376510Y-145853500D01*
X83376513Y-145853500D01*
X83593487Y-145853500D01*
X83593490Y-145853500D01*
X83807800Y-145819557D01*
X84014160Y-145752506D01*
X84207492Y-145653999D01*
X84383033Y-145526461D01*
X84536461Y-145373033D01*
X84663999Y-145197492D01*
X84754435Y-145020000D01*
X93056372Y-145020000D01*
X93076854Y-145280248D01*
X93135964Y-145526461D01*
X93137796Y-145534089D01*
X93237697Y-145775271D01*
X93264835Y-145819557D01*
X93374098Y-145997857D01*
X93374099Y-145997859D01*
X93543636Y-146196363D01*
X93742140Y-146365900D01*
X93742144Y-146365903D01*
X93964729Y-146502303D01*
X94205911Y-146602204D01*
X94459751Y-146663146D01*
X94720000Y-146683628D01*
X94980249Y-146663146D01*
X95234089Y-146602204D01*
X95475271Y-146502303D01*
X95697856Y-146365903D01*
X95896363Y-146196363D01*
X95896365Y-146196361D01*
X95899864Y-146192863D01*
X95901281Y-146194280D01*
X95953632Y-146160102D01*
X96024627Y-146159590D01*
X96079009Y-146193989D01*
X96080136Y-146192863D01*
X96083634Y-146196361D01*
X96282140Y-146365900D01*
X96282144Y-146365903D01*
X96504729Y-146502303D01*
X96745911Y-146602204D01*
X96999751Y-146663146D01*
X97260000Y-146683628D01*
X97520249Y-146663146D01*
X97774089Y-146602204D01*
X98015271Y-146502303D01*
X98237856Y-146365903D01*
X98436363Y-146196363D01*
X98436365Y-146196361D01*
X98439864Y-146192863D01*
X98441281Y-146194280D01*
X98493632Y-146160102D01*
X98564627Y-146159590D01*
X98619009Y-146193989D01*
X98620136Y-146192863D01*
X98623634Y-146196361D01*
X98822140Y-146365900D01*
X98822144Y-146365903D01*
X99044729Y-146502303D01*
X99285911Y-146602204D01*
X99539751Y-146663146D01*
X99800000Y-146683628D01*
X100060249Y-146663146D01*
X100314089Y-146602204D01*
X100555271Y-146502303D01*
X100777856Y-146365903D01*
X100976363Y-146196363D01*
X101145903Y-145997856D01*
X101282303Y-145775271D01*
X101382204Y-145534089D01*
X101443146Y-145280249D01*
X101463628Y-145020000D01*
X101443146Y-144759751D01*
X101382204Y-144505911D01*
X101282303Y-144264729D01*
X101145903Y-144042144D01*
X101038605Y-143916513D01*
X100976363Y-143843636D01*
X100777859Y-143674099D01*
X100777857Y-143674098D01*
X100777856Y-143674097D01*
X100555271Y-143537697D01*
X100314089Y-143437796D01*
X100314087Y-143437795D01*
X100314086Y-143437795D01*
X100177479Y-143404998D01*
X100060249Y-143376854D01*
X99800000Y-143356372D01*
X99539751Y-143376854D01*
X99285913Y-143437795D01*
X99044730Y-143537696D01*
X98822142Y-143674098D01*
X98822140Y-143674099D01*
X98623634Y-143843638D01*
X98620136Y-143847137D01*
X98618726Y-143845727D01*
X98566319Y-143879912D01*
X98495324Y-143880394D01*
X98440999Y-143846001D01*
X98439864Y-143847137D01*
X98436365Y-143843638D01*
X98237859Y-143674099D01*
X98237857Y-143674098D01*
X98237856Y-143674097D01*
X98015271Y-143537697D01*
X97774089Y-143437796D01*
X97774087Y-143437795D01*
X97774086Y-143437795D01*
X97637479Y-143404998D01*
X97520249Y-143376854D01*
X97260000Y-143356372D01*
X96999751Y-143376854D01*
X96745913Y-143437795D01*
X96504730Y-143537696D01*
X96282142Y-143674098D01*
X96282140Y-143674099D01*
X96083634Y-143843638D01*
X96080136Y-143847137D01*
X96078726Y-143845727D01*
X96026319Y-143879912D01*
X95955324Y-143880394D01*
X95900999Y-143846001D01*
X95899864Y-143847137D01*
X95896365Y-143843638D01*
X95697859Y-143674099D01*
X95697857Y-143674098D01*
X95697856Y-143674097D01*
X95475271Y-143537697D01*
X95234089Y-143437796D01*
X95234087Y-143437795D01*
X95234086Y-143437795D01*
X95097479Y-143404998D01*
X94980249Y-143376854D01*
X94720000Y-143356372D01*
X94459751Y-143376854D01*
X94205913Y-143437795D01*
X93964730Y-143537696D01*
X93742142Y-143674098D01*
X93742140Y-143674099D01*
X93543636Y-143843636D01*
X93374099Y-144042140D01*
X93374098Y-144042142D01*
X93237696Y-144264730D01*
X93137795Y-144505913D01*
X93076854Y-144759751D01*
X93056372Y-145020000D01*
X84754435Y-145020000D01*
X84762506Y-145004160D01*
X84829557Y-144797800D01*
X84863500Y-144583490D01*
X84863500Y-143916510D01*
X84829557Y-143702200D01*
X84762506Y-143495840D01*
X84663999Y-143302508D01*
X84536461Y-143126967D01*
X84536458Y-143126964D01*
X84536456Y-143126961D01*
X84383038Y-142973543D01*
X84383035Y-142973541D01*
X84383033Y-142973539D01*
X84207492Y-142846001D01*
X84014160Y-142747494D01*
X84014159Y-142747493D01*
X84014158Y-142747493D01*
X83807803Y-142680444D01*
X83807800Y-142680443D01*
X83593490Y-142646500D01*
X83376510Y-142646500D01*
X83162200Y-142680443D01*
X83162197Y-142680443D01*
X83162196Y-142680444D01*
X82955841Y-142747493D01*
X82762504Y-142846003D01*
X82586964Y-142973541D01*
X82586961Y-142973543D01*
X82433543Y-143126961D01*
X82433541Y-143126964D01*
X82316936Y-143287457D01*
X82260714Y-143330811D01*
X82189977Y-143336886D01*
X82127186Y-143303754D01*
X82113064Y-143287457D01*
X82091002Y-143257092D01*
X81996461Y-143126967D01*
X81996458Y-143126964D01*
X81996456Y-143126961D01*
X81843038Y-142973543D01*
X81843035Y-142973541D01*
X81843033Y-142973539D01*
X81667492Y-142846001D01*
X81474160Y-142747494D01*
X81474159Y-142747493D01*
X81474158Y-142747493D01*
X81267803Y-142680444D01*
X81267800Y-142680443D01*
X81053490Y-142646500D01*
X80836510Y-142646500D01*
X80622200Y-142680443D01*
X80622197Y-142680443D01*
X80622196Y-142680444D01*
X80415841Y-142747493D01*
X80222504Y-142846003D01*
X80046964Y-142973541D01*
X80046961Y-142973543D01*
X79893543Y-143126961D01*
X79893541Y-143126964D01*
X79766003Y-143302504D01*
X79667493Y-143495841D01*
X79600444Y-143702196D01*
X79600443Y-143702200D01*
X79566500Y-143916510D01*
X79566500Y-144583490D01*
X45000000Y-144583490D01*
X45000000Y-110181149D01*
X78499000Y-110181149D01*
X78505509Y-110241696D01*
X78505511Y-110241704D01*
X78556610Y-110378702D01*
X78556612Y-110378707D01*
X78644238Y-110495761D01*
X78761292Y-110583387D01*
X78761294Y-110583388D01*
X78761296Y-110583389D01*
X78820375Y-110605424D01*
X78898295Y-110634488D01*
X78898303Y-110634490D01*
X78958850Y-110640999D01*
X78958855Y-110640999D01*
X78958862Y-110641000D01*
X78958868Y-110641000D01*
X80961132Y-110641000D01*
X80961138Y-110641000D01*
X80961145Y-110640999D01*
X80961149Y-110640999D01*
X81021696Y-110634490D01*
X81021699Y-110634489D01*
X81021701Y-110634489D01*
X81158704Y-110583389D01*
X81161824Y-110581054D01*
X81275761Y-110495761D01*
X81363387Y-110378707D01*
X81363387Y-110378706D01*
X81363389Y-110378704D01*
X81414489Y-110241701D01*
X81420999Y-110181149D01*
X83579000Y-110181149D01*
X83585509Y-110241696D01*
X83585511Y-110241704D01*
X83636610Y-110378702D01*
X83636612Y-110378707D01*
X83724238Y-110495761D01*
X83841292Y-110583387D01*
X83841294Y-110583388D01*
X83841296Y-110583389D01*
X83900375Y-110605424D01*
X83978295Y-110634488D01*
X83978303Y-110634490D01*
X84038850Y-110640999D01*
X84038855Y-110640999D01*
X84038862Y-110641000D01*
X84038868Y-110641000D01*
X86041132Y-110641000D01*
X86041138Y-110641000D01*
X86041145Y-110640999D01*
X86041149Y-110640999D01*
X86101696Y-110634490D01*
X86101699Y-110634489D01*
X86101701Y-110634489D01*
X86238704Y-110583389D01*
X86241824Y-110581054D01*
X86355761Y-110495761D01*
X86443387Y-110378707D01*
X86443387Y-110378706D01*
X86443389Y-110378704D01*
X86494489Y-110241701D01*
X86501000Y-110181138D01*
X86501000Y-110000004D01*
X138896242Y-110000004D01*
X138915035Y-110202809D01*
X138915035Y-110202813D01*
X138965079Y-110378702D01*
X138970776Y-110398723D01*
X139061566Y-110581054D01*
X139081740Y-110607769D01*
X139184311Y-110743596D01*
X139334837Y-110880818D01*
X139334838Y-110880819D01*
X139508001Y-110988037D01*
X139508004Y-110988038D01*
X139508013Y-110988044D01*
X139590765Y-111020102D01*
X139697935Y-111061621D01*
X139697938Y-111061621D01*
X139697942Y-111061623D01*
X139898158Y-111099050D01*
X139898161Y-111099050D01*
X140101839Y-111099050D01*
X140101842Y-111099050D01*
X140302058Y-111061623D01*
X140302062Y-111061621D01*
X140302064Y-111061621D01*
X140350907Y-111042698D01*
X140491987Y-110988044D01*
X140665163Y-110880818D01*
X140815687Y-110743597D01*
X140938434Y-110581054D01*
X141029224Y-110398723D01*
X141084964Y-110202815D01*
X141103758Y-110000000D01*
X141084964Y-109797185D01*
X141029224Y-109601277D01*
X140938434Y-109418946D01*
X140898084Y-109365515D01*
X140815688Y-109256403D01*
X140665162Y-109119181D01*
X140665161Y-109119180D01*
X140491998Y-109011962D01*
X140491991Y-109011958D01*
X140491987Y-109011956D01*
X140491982Y-109011954D01*
X140302064Y-108938378D01*
X140266385Y-108931708D01*
X140101842Y-108900950D01*
X139898158Y-108900950D01*
X139768996Y-108925094D01*
X139697935Y-108938378D01*
X139508017Y-109011954D01*
X139508001Y-109011962D01*
X139334838Y-109119180D01*
X139334837Y-109119181D01*
X139184311Y-109256403D01*
X139061567Y-109418944D01*
X138970776Y-109601277D01*
X138970773Y-109601285D01*
X138915035Y-109797186D01*
X138915035Y-109797190D01*
X138896242Y-109999995D01*
X138896242Y-110000004D01*
X86501000Y-110000004D01*
X86501000Y-106083862D01*
X86500999Y-106083850D01*
X86494490Y-106023303D01*
X86494488Y-106023295D01*
X86443389Y-105886297D01*
X86443387Y-105886292D01*
X86355761Y-105769238D01*
X86238707Y-105681612D01*
X86238702Y-105681610D01*
X86101704Y-105630511D01*
X86101696Y-105630509D01*
X86041149Y-105624000D01*
X86041138Y-105624000D01*
X84038862Y-105624000D01*
X84038850Y-105624000D01*
X83978303Y-105630509D01*
X83978295Y-105630511D01*
X83841297Y-105681610D01*
X83841292Y-105681612D01*
X83724238Y-105769238D01*
X83636612Y-105886292D01*
X83636610Y-105886297D01*
X83585511Y-106023295D01*
X83585509Y-106023303D01*
X83579000Y-106083850D01*
X83579000Y-110181149D01*
X81420999Y-110181149D01*
X81421000Y-110181138D01*
X81421000Y-106083862D01*
X81420999Y-106083850D01*
X81414490Y-106023303D01*
X81414488Y-106023295D01*
X81363389Y-105886297D01*
X81363387Y-105886292D01*
X81275761Y-105769238D01*
X81158707Y-105681612D01*
X81158702Y-105681610D01*
X81021704Y-105630511D01*
X81021696Y-105630509D01*
X80961149Y-105624000D01*
X80961138Y-105624000D01*
X78958862Y-105624000D01*
X78958850Y-105624000D01*
X78898303Y-105630509D01*
X78898295Y-105630511D01*
X78761297Y-105681610D01*
X78761292Y-105681612D01*
X78644238Y-105769238D01*
X78556612Y-105886292D01*
X78556610Y-105886297D01*
X78505511Y-106023295D01*
X78505509Y-106023303D01*
X78499000Y-106083850D01*
X78499000Y-110181149D01*
X45000000Y-110181149D01*
X45000000Y-101000004D01*
X48396242Y-101000004D01*
X48415035Y-101202809D01*
X48415035Y-101202813D01*
X48415036Y-101202815D01*
X48470776Y-101398723D01*
X48561566Y-101581054D01*
X48561567Y-101581055D01*
X48684311Y-101743596D01*
X48834837Y-101880818D01*
X48834838Y-101880819D01*
X49008001Y-101988037D01*
X49008004Y-101988038D01*
X49008013Y-101988044D01*
X49090765Y-102020102D01*
X49197935Y-102061621D01*
X49197938Y-102061621D01*
X49197942Y-102061623D01*
X49398158Y-102099050D01*
X49398161Y-102099050D01*
X49601839Y-102099050D01*
X49601842Y-102099050D01*
X49802058Y-102061623D01*
X49802062Y-102061621D01*
X49802064Y-102061621D01*
X49850907Y-102042698D01*
X49991987Y-101988044D01*
X50165163Y-101880818D01*
X50315687Y-101743597D01*
X50438434Y-101581054D01*
X50520547Y-101416149D01*
X78599000Y-101416149D01*
X78605509Y-101476696D01*
X78605511Y-101476704D01*
X78656610Y-101613702D01*
X78656612Y-101613707D01*
X78744238Y-101730761D01*
X78861292Y-101818387D01*
X78861294Y-101818388D01*
X78861296Y-101818389D01*
X78920375Y-101840424D01*
X78998295Y-101869488D01*
X78998303Y-101869490D01*
X79058850Y-101875999D01*
X79058855Y-101875999D01*
X79058862Y-101876000D01*
X79058868Y-101876000D01*
X81061132Y-101876000D01*
X81061138Y-101876000D01*
X81061145Y-101875999D01*
X81061149Y-101875999D01*
X81121696Y-101869490D01*
X81121699Y-101869489D01*
X81121701Y-101869489D01*
X81258704Y-101818389D01*
X81358616Y-101743596D01*
X81375761Y-101730761D01*
X81463387Y-101613707D01*
X81463387Y-101613706D01*
X81463389Y-101613704D01*
X81514489Y-101476701D01*
X81520999Y-101416149D01*
X83679000Y-101416149D01*
X83685509Y-101476696D01*
X83685511Y-101476704D01*
X83736610Y-101613702D01*
X83736612Y-101613707D01*
X83824238Y-101730761D01*
X83941292Y-101818387D01*
X83941294Y-101818388D01*
X83941296Y-101818389D01*
X84000375Y-101840424D01*
X84078295Y-101869488D01*
X84078303Y-101869490D01*
X84138850Y-101875999D01*
X84138855Y-101875999D01*
X84138862Y-101876000D01*
X84138868Y-101876000D01*
X86141132Y-101876000D01*
X86141138Y-101876000D01*
X86141145Y-101875999D01*
X86141149Y-101875999D01*
X86201696Y-101869490D01*
X86201699Y-101869489D01*
X86201701Y-101869489D01*
X86338704Y-101818389D01*
X86438616Y-101743596D01*
X86455761Y-101730761D01*
X86543387Y-101613707D01*
X86543387Y-101613706D01*
X86543389Y-101613704D01*
X86594489Y-101476701D01*
X86601000Y-101416138D01*
X86601000Y-97318862D01*
X86600999Y-97318850D01*
X86594490Y-97258303D01*
X86594488Y-97258295D01*
X86543389Y-97121297D01*
X86543387Y-97121292D01*
X86455761Y-97004238D01*
X86338707Y-96916612D01*
X86338702Y-96916610D01*
X86201704Y-96865511D01*
X86201696Y-96865509D01*
X86141149Y-96859000D01*
X86141138Y-96859000D01*
X84138862Y-96859000D01*
X84138850Y-96859000D01*
X84078303Y-96865509D01*
X84078295Y-96865511D01*
X83941297Y-96916610D01*
X83941292Y-96916612D01*
X83824238Y-97004238D01*
X83736612Y-97121292D01*
X83736610Y-97121297D01*
X83685511Y-97258295D01*
X83685509Y-97258303D01*
X83679000Y-97318850D01*
X83679000Y-101416149D01*
X81520999Y-101416149D01*
X81521000Y-101416138D01*
X81521000Y-97318862D01*
X81520999Y-97318850D01*
X81514490Y-97258303D01*
X81514488Y-97258295D01*
X81463389Y-97121297D01*
X81463387Y-97121292D01*
X81375761Y-97004238D01*
X81258707Y-96916612D01*
X81258702Y-96916610D01*
X81121704Y-96865511D01*
X81121696Y-96865509D01*
X81061149Y-96859000D01*
X81061138Y-96859000D01*
X79058862Y-96859000D01*
X79058850Y-96859000D01*
X78998303Y-96865509D01*
X78998295Y-96865511D01*
X78861297Y-96916610D01*
X78861292Y-96916612D01*
X78744238Y-97004238D01*
X78656612Y-97121292D01*
X78656610Y-97121297D01*
X78605511Y-97258295D01*
X78605509Y-97258303D01*
X78599000Y-97318850D01*
X78599000Y-101416149D01*
X50520547Y-101416149D01*
X50529224Y-101398723D01*
X50584964Y-101202815D01*
X50603758Y-101000000D01*
X50584964Y-100797185D01*
X50529224Y-100601277D01*
X50438434Y-100418946D01*
X50398084Y-100365515D01*
X50315688Y-100256403D01*
X50165162Y-100119181D01*
X50165161Y-100119180D01*
X49991998Y-100011962D01*
X49991991Y-100011958D01*
X49991987Y-100011956D01*
X49991982Y-100011954D01*
X49802064Y-99938378D01*
X49766385Y-99931708D01*
X49601842Y-99900950D01*
X49398158Y-99900950D01*
X49268996Y-99925094D01*
X49197935Y-99938378D01*
X49008017Y-100011954D01*
X49008001Y-100011962D01*
X48834838Y-100119180D01*
X48834837Y-100119181D01*
X48684311Y-100256403D01*
X48561567Y-100418944D01*
X48470776Y-100601277D01*
X48470773Y-100601285D01*
X48415035Y-100797186D01*
X48415035Y-100797190D01*
X48396242Y-100999995D01*
X48396242Y-101000004D01*
X45000000Y-101000004D01*
X45000000Y-75126000D01*
X45020002Y-75057879D01*
X45073658Y-75011386D01*
X45126000Y-75000000D01*
X144874000Y-75000000D01*
X144942121Y-75020002D01*
G37*
G04 #@! TD.AperFunction*
M02*
