G04 #@! TF.GenerationSoftware,KiCad,Pcbnew,8.0.4*
G04 #@! TF.CreationDate,2024-11-19T14:33:49+01:00*
G04 #@! TF.ProjectId,MUNIN 100,4d554e49-4e20-4313-9030-2e6b69636164,0*
G04 #@! TF.SameCoordinates,Original*
G04 #@! TF.FileFunction,Copper,L1,Top*
G04 #@! TF.FilePolarity,Positive*
%FSLAX46Y46*%
G04 Gerber Fmt 4.6, Leading zero omitted, Abs format (unit mm)*
G04 Created by KiCad (PCBNEW 8.0.4) date 2024-11-19 14:33:49*
%MOMM*%
%LPD*%
G01*
G04 APERTURE LIST*
G04 Aperture macros list*
%AMRoundRect*
0 Rectangle with rounded corners*
0 $1 Rounding radius*
0 $2 $3 $4 $5 $6 $7 $8 $9 X,Y pos of 4 corners*
0 Add a 4 corners polygon primitive as box body*
4,1,4,$2,$3,$4,$5,$6,$7,$8,$9,$2,$3,0*
0 Add four circle primitives for the rounded corners*
1,1,$1+$1,$2,$3*
1,1,$1+$1,$4,$5*
1,1,$1+$1,$6,$7*
1,1,$1+$1,$8,$9*
0 Add four rect primitives between the rounded corners*
20,1,$1+$1,$2,$3,$4,$5,0*
20,1,$1+$1,$4,$5,$6,$7,0*
20,1,$1+$1,$6,$7,$8,$9,0*
20,1,$1+$1,$8,$9,$2,$3,0*%
%AMRotRect*
0 Rectangle, with rotation*
0 The origin of the aperture is its center*
0 $1 length*
0 $2 width*
0 $3 Rotation angle, in degrees counterclockwise*
0 Add horizontal line*
21,1,$1,$2,0,0,$3*%
G04 Aperture macros list end*
G04 #@! TA.AperFunction,ComponentPad*
%ADD10RoundRect,0.750000X-0.750000X1.750000X-0.750000X-1.750000X0.750000X-1.750000X0.750000X1.750000X0*%
G04 #@! TD*
G04 #@! TA.AperFunction,ComponentPad*
%ADD11RoundRect,0.875000X-1.125000X0.875000X-1.125000X-0.875000X1.125000X-0.875000X1.125000X0.875000X0*%
G04 #@! TD*
G04 #@! TA.AperFunction,SMDPad,CuDef*
%ADD12RoundRect,0.250000X0.475000X-0.337500X0.475000X0.337500X-0.475000X0.337500X-0.475000X-0.337500X0*%
G04 #@! TD*
G04 #@! TA.AperFunction,ComponentPad*
%ADD13C,6.000000*%
G04 #@! TD*
G04 #@! TA.AperFunction,ComponentPad*
%ADD14R,1.905000X4.000000*%
G04 #@! TD*
G04 #@! TA.AperFunction,ComponentPad*
%ADD15RotRect,1.905000X4.000000X181.300000*%
G04 #@! TD*
G04 #@! TA.AperFunction,SMDPad,CuDef*
%ADD16RoundRect,0.250000X-0.450000X0.350000X-0.450000X-0.350000X0.450000X-0.350000X0.450000X0.350000X0*%
G04 #@! TD*
G04 #@! TA.AperFunction,SMDPad,CuDef*
%ADD17RoundRect,0.150000X0.825000X0.150000X-0.825000X0.150000X-0.825000X-0.150000X0.825000X-0.150000X0*%
G04 #@! TD*
G04 #@! TA.AperFunction,SMDPad,CuDef*
%ADD18RoundRect,0.250000X0.337500X0.475000X-0.337500X0.475000X-0.337500X-0.475000X0.337500X-0.475000X0*%
G04 #@! TD*
G04 #@! TA.AperFunction,SMDPad,CuDef*
%ADD19RoundRect,0.250000X-0.275000X-0.350000X0.275000X-0.350000X0.275000X0.350000X-0.275000X0.350000X0*%
G04 #@! TD*
G04 #@! TA.AperFunction,SMDPad,CuDef*
%ADD20RoundRect,0.250000X-0.337500X-0.475000X0.337500X-0.475000X0.337500X0.475000X-0.337500X0.475000X0*%
G04 #@! TD*
G04 #@! TA.AperFunction,SMDPad,CuDef*
%ADD21RoundRect,0.250000X-1.450000X0.312500X-1.450000X-0.312500X1.450000X-0.312500X1.450000X0.312500X0*%
G04 #@! TD*
G04 #@! TA.AperFunction,SMDPad,CuDef*
%ADD22RoundRect,0.250000X-0.412500X-1.100000X0.412500X-1.100000X0.412500X1.100000X-0.412500X1.100000X0*%
G04 #@! TD*
G04 #@! TA.AperFunction,SMDPad,CuDef*
%ADD23RoundRect,0.250000X-0.475000X0.337500X-0.475000X-0.337500X0.475000X-0.337500X0.475000X0.337500X0*%
G04 #@! TD*
G04 #@! TA.AperFunction,SMDPad,CuDef*
%ADD24RoundRect,0.250000X-0.350000X-0.450000X0.350000X-0.450000X0.350000X0.450000X-0.350000X0.450000X0*%
G04 #@! TD*
G04 #@! TA.AperFunction,SMDPad,CuDef*
%ADD25RoundRect,0.150000X0.150000X-0.800000X0.150000X0.800000X-0.150000X0.800000X-0.150000X-0.800000X0*%
G04 #@! TD*
G04 #@! TA.AperFunction,SMDPad,CuDef*
%ADD26RoundRect,0.250000X-0.312500X-0.625000X0.312500X-0.625000X0.312500X0.625000X-0.312500X0.625000X0*%
G04 #@! TD*
G04 #@! TA.AperFunction,SMDPad,CuDef*
%ADD27RoundRect,0.250000X-1.950000X-1.000000X1.950000X-1.000000X1.950000X1.000000X-1.950000X1.000000X0*%
G04 #@! TD*
G04 #@! TA.AperFunction,SMDPad,CuDef*
%ADD28RoundRect,0.250000X2.050000X0.300000X-2.050000X0.300000X-2.050000X-0.300000X2.050000X-0.300000X0*%
G04 #@! TD*
G04 #@! TA.AperFunction,ComponentPad*
%ADD29RoundRect,0.250000X2.012537X2.385570X-2.037408X2.364365X-2.012537X-2.385570X2.037408X-2.364365X0*%
G04 #@! TD*
G04 #@! TA.AperFunction,SMDPad,CuDef*
%ADD30RoundRect,0.250002X4.449998X5.149998X-4.449998X5.149998X-4.449998X-5.149998X4.449998X-5.149998X0*%
G04 #@! TD*
G04 #@! TA.AperFunction,ComponentPad*
%ADD31RoundRect,0.250000X2.025000X2.375000X-2.025000X2.375000X-2.025000X-2.375000X2.025000X-2.375000X0*%
G04 #@! TD*
G04 #@! TA.AperFunction,SMDPad,CuDef*
%ADD32RoundRect,0.250000X0.250000X0.250000X-0.250000X0.250000X-0.250000X-0.250000X0.250000X-0.250000X0*%
G04 #@! TD*
G04 #@! TA.AperFunction,SMDPad,CuDef*
%ADD33RoundRect,0.250000X-1.100000X0.325000X-1.100000X-0.325000X1.100000X-0.325000X1.100000X0.325000X0*%
G04 #@! TD*
G04 #@! TA.AperFunction,ComponentPad*
%ADD34C,0.800000*%
G04 #@! TD*
G04 #@! TA.AperFunction,ComponentPad*
%ADD35C,6.400000*%
G04 #@! TD*
G04 #@! TA.AperFunction,SMDPad,CuDef*
%ADD36RoundRect,0.243750X0.243750X0.456250X-0.243750X0.456250X-0.243750X-0.456250X0.243750X-0.456250X0*%
G04 #@! TD*
G04 #@! TA.AperFunction,SMDPad,CuDef*
%ADD37RoundRect,0.249998X4.550002X-3.650002X4.550002X3.650002X-4.550002X3.650002X-4.550002X-3.650002X0*%
G04 #@! TD*
G04 #@! TA.AperFunction,ComponentPad*
%ADD38C,1.998980*%
G04 #@! TD*
G04 #@! TA.AperFunction,ComponentPad*
%ADD39C,2.499360*%
G04 #@! TD*
G04 #@! TA.AperFunction,ComponentPad*
%ADD40C,2.300000*%
G04 #@! TD*
G04 #@! TA.AperFunction,ComponentPad*
%ADD41RoundRect,0.250000X0.620000X0.845000X-0.620000X0.845000X-0.620000X-0.845000X0.620000X-0.845000X0*%
G04 #@! TD*
G04 #@! TA.AperFunction,ComponentPad*
%ADD42O,1.740000X2.190000*%
G04 #@! TD*
G04 #@! TA.AperFunction,SMDPad,CuDef*
%ADD43R,1.900000X1.300000*%
G04 #@! TD*
G04 #@! TA.AperFunction,SMDPad,CuDef*
%ADD44R,1.900000X2.000000*%
G04 #@! TD*
G04 #@! TA.AperFunction,SMDPad,CuDef*
%ADD45R,1.300000X1.900000*%
G04 #@! TD*
G04 #@! TA.AperFunction,SMDPad,CuDef*
%ADD46R,2.000000X1.900000*%
G04 #@! TD*
G04 #@! TA.AperFunction,SMDPad,CuDef*
%ADD47RoundRect,0.250000X0.350000X0.450000X-0.350000X0.450000X-0.350000X-0.450000X0.350000X-0.450000X0*%
G04 #@! TD*
G04 #@! TA.AperFunction,SMDPad,CuDef*
%ADD48RoundRect,0.250000X0.300000X0.300000X-0.300000X0.300000X-0.300000X-0.300000X0.300000X-0.300000X0*%
G04 #@! TD*
G04 #@! TA.AperFunction,SMDPad,CuDef*
%ADD49RoundRect,1.000000X2.500000X-1.000000X2.500000X1.000000X-2.500000X1.000000X-2.500000X-1.000000X0*%
G04 #@! TD*
G04 #@! TA.AperFunction,SMDPad,CuDef*
%ADD50RoundRect,1.000000X1.000000X-2.500000X1.000000X2.500000X-1.000000X2.500000X-1.000000X-2.500000X0*%
G04 #@! TD*
G04 #@! TA.AperFunction,SMDPad,CuDef*
%ADD51RoundRect,0.150000X0.309359X0.521491X-0.521491X-0.309359X-0.309359X-0.521491X0.521491X0.309359X0*%
G04 #@! TD*
G04 #@! TA.AperFunction,SMDPad,CuDef*
%ADD52R,2.540000X1.650000*%
G04 #@! TD*
G04 #@! TA.AperFunction,SMDPad,CuDef*
%ADD53RoundRect,0.250000X-1.425000X0.362500X-1.425000X-0.362500X1.425000X-0.362500X1.425000X0.362500X0*%
G04 #@! TD*
G04 #@! TA.AperFunction,SMDPad,CuDef*
%ADD54RoundRect,0.750000X-1.250000X-0.750000X1.250000X-0.750000X1.250000X0.750000X-1.250000X0.750000X0*%
G04 #@! TD*
G04 #@! TA.AperFunction,SMDPad,CuDef*
%ADD55RoundRect,0.250000X-0.350000X0.275000X-0.350000X-0.275000X0.350000X-0.275000X0.350000X0.275000X0*%
G04 #@! TD*
G04 #@! TA.AperFunction,ViaPad*
%ADD56C,0.800000*%
G04 #@! TD*
G04 #@! TA.AperFunction,ViaPad*
%ADD57C,2.000000*%
G04 #@! TD*
G04 #@! TA.AperFunction,Conductor*
%ADD58C,0.600000*%
G04 #@! TD*
G04 #@! TA.AperFunction,Conductor*
%ADD59C,0.800000*%
G04 #@! TD*
G04 #@! TA.AperFunction,Conductor*
%ADD60C,1.000000*%
G04 #@! TD*
G04 #@! TA.AperFunction,Conductor*
%ADD61C,0.500000*%
G04 #@! TD*
G04 #@! TA.AperFunction,Conductor*
%ADD62C,1.500000*%
G04 #@! TD*
G04 #@! TA.AperFunction,Conductor*
%ADD63C,2.500000*%
G04 #@! TD*
G04 #@! TA.AperFunction,Conductor*
%ADD64C,2.000000*%
G04 #@! TD*
G04 #@! TA.AperFunction,Conductor*
%ADD65C,1.900000*%
G04 #@! TD*
G04 APERTURE END LIST*
D10*
X87750000Y-98000000D03*
D11*
X96750000Y-102250000D03*
X96750000Y-105000000D03*
D10*
X87750000Y-109000000D03*
D12*
X59100000Y-145537500D03*
X59100000Y-143462500D03*
D13*
X82500000Y-124792500D03*
D14*
X85040000Y-108132500D03*
D15*
X82500000Y-108132500D03*
D14*
X79960000Y-108132500D03*
D16*
X58500000Y-111900000D03*
X58500000Y-113900000D03*
D17*
X82575000Y-133605000D03*
X82575000Y-132335000D03*
X82575000Y-131065000D03*
X82575000Y-129795000D03*
X77625000Y-129795000D03*
X77625000Y-131065000D03*
X77625000Y-132335000D03*
X77625000Y-133605000D03*
D18*
X73787500Y-116750000D03*
X71712500Y-116750000D03*
D19*
X60950000Y-145500000D03*
X63250000Y-145500000D03*
D20*
X57462500Y-129500000D03*
X59537500Y-129500000D03*
D21*
X102000000Y-123112500D03*
X102000000Y-127387500D03*
D22*
X89500000Y-112000000D03*
X92625000Y-112000000D03*
D23*
X64299000Y-123462500D03*
X64299000Y-125537500D03*
D18*
X97037500Y-128645900D03*
X94962500Y-128645900D03*
D22*
X89437500Y-92500000D03*
X92562500Y-92500000D03*
D23*
X74500000Y-133212500D03*
X74500000Y-135287500D03*
D22*
X89437500Y-115500000D03*
X92562500Y-115500000D03*
D24*
X66250000Y-138750000D03*
X68250000Y-138750000D03*
D16*
X70600000Y-111900000D03*
X70600000Y-113900000D03*
D25*
X94451000Y-138120700D03*
X95721000Y-138120700D03*
X96991000Y-138120700D03*
X98261000Y-138120700D03*
X98261000Y-131120700D03*
X96991000Y-131120700D03*
X95721000Y-131120700D03*
X94451000Y-131120700D03*
D26*
X77537500Y-114514600D03*
X80462500Y-114514600D03*
D27*
X102550000Y-133750000D03*
X110950000Y-133750000D03*
D28*
X61875000Y-139040000D03*
X61875000Y-136500000D03*
D29*
X55150000Y-139275000D03*
X55150000Y-133725000D03*
D30*
X52725000Y-136500000D03*
D31*
X50300000Y-139275000D03*
X50300000Y-133725000D03*
D28*
X61875000Y-133960000D03*
D32*
X72250000Y-147000000D03*
X69750000Y-147000000D03*
D33*
X85500000Y-102525000D03*
X85500000Y-105475000D03*
D34*
X135902944Y-148000000D03*
X136605888Y-146302944D03*
X136605888Y-149697056D03*
X138302944Y-145600000D03*
D35*
X138302944Y-148000000D03*
D34*
X138302944Y-150400000D03*
X140000000Y-146302944D03*
X140000000Y-149697056D03*
X140702944Y-148000000D03*
D18*
X106037500Y-144000000D03*
X103962500Y-144000000D03*
D36*
X80437500Y-103000000D03*
X78562500Y-103000000D03*
D20*
X66062500Y-134500000D03*
X68137500Y-134500000D03*
D37*
X123000000Y-134250000D03*
X123000000Y-121750000D03*
D38*
X140250000Y-107250000D03*
D39*
X142790000Y-109790000D03*
X142790000Y-104710000D03*
X137710000Y-109790000D03*
X137710000Y-104710000D03*
D40*
X123000000Y-150080000D03*
X125540000Y-150080000D03*
X128080000Y-150080000D03*
X123000000Y-145000000D03*
X125540000Y-145000000D03*
X128080000Y-145000000D03*
D22*
X82187500Y-93500000D03*
X85312500Y-93500000D03*
D26*
X77537500Y-93000000D03*
X80462500Y-93000000D03*
D23*
X68500000Y-100462500D03*
X68500000Y-102537500D03*
D41*
X86025000Y-144250000D03*
D42*
X83485000Y-144250000D03*
X80945000Y-144250000D03*
D43*
X77650000Y-136050000D03*
D44*
X82750000Y-137200000D03*
D43*
X77650000Y-138350000D03*
D45*
X53850000Y-125950000D03*
D46*
X55000000Y-120850000D03*
D45*
X56150000Y-125950000D03*
D47*
X86500000Y-139000000D03*
X84500000Y-139000000D03*
D18*
X66037500Y-143500000D03*
X63962500Y-143500000D03*
D34*
X48600000Y-148000000D03*
X49302944Y-146302944D03*
X49302944Y-149697056D03*
X51000000Y-145600000D03*
D35*
X51000000Y-148000000D03*
D34*
X51000000Y-150400000D03*
X52697056Y-146302944D03*
X52697056Y-149697056D03*
X53400000Y-148000000D03*
D13*
X82600000Y-82707500D03*
D14*
X80060000Y-99367500D03*
X82600000Y-99367500D03*
X85140000Y-99367500D03*
D20*
X53462500Y-116750000D03*
X55537500Y-116750000D03*
D48*
X66400000Y-129541400D03*
X63600000Y-129541400D03*
D40*
X99800000Y-145020000D03*
X97260000Y-145020000D03*
X94720000Y-145020000D03*
X99800000Y-150100000D03*
X97260000Y-150100000D03*
X94720000Y-150100000D03*
D18*
X99637500Y-140900000D03*
X97562500Y-140900000D03*
D36*
X80437500Y-105000000D03*
X78562500Y-105000000D03*
D49*
X95500000Y-110000000D03*
D50*
X132500000Y-107500000D03*
X132500000Y-96500000D03*
X95000000Y-94500000D03*
D22*
X89437500Y-96000000D03*
X92562500Y-96000000D03*
D18*
X66637500Y-127700000D03*
X64562500Y-127700000D03*
D26*
X77537500Y-95438400D03*
X80462500Y-95438400D03*
D24*
X70500000Y-105000000D03*
X72500000Y-105000000D03*
D51*
X72000000Y-143500000D03*
X70656497Y-142156497D03*
X70002423Y-144154074D03*
D19*
X62450000Y-147500000D03*
X64750000Y-147500000D03*
D52*
X61040000Y-106040000D03*
X61040000Y-103500000D03*
X61040000Y-100960000D03*
X55960000Y-100960000D03*
X55960000Y-103500000D03*
X55960000Y-106040000D03*
D16*
X85000000Y-133100000D03*
X85000000Y-135100000D03*
D12*
X60100000Y-149537500D03*
X60100000Y-147462500D03*
D16*
X68700000Y-129500000D03*
X68700000Y-131500000D03*
D20*
X66062500Y-136500000D03*
X68137500Y-136500000D03*
D18*
X106037500Y-141000000D03*
X103962500Y-141000000D03*
D24*
X65100000Y-145500000D03*
X67100000Y-145500000D03*
X84500000Y-137000000D03*
X86500000Y-137000000D03*
D53*
X65000000Y-100537500D03*
X65000000Y-106462500D03*
D12*
X68500000Y-107037500D03*
X68500000Y-104962500D03*
D34*
X48600000Y-81000000D03*
X49302944Y-79302944D03*
X49302944Y-82697056D03*
X51000000Y-78600000D03*
D35*
X51000000Y-81000000D03*
D34*
X51000000Y-83400000D03*
X52697056Y-79302944D03*
X52697056Y-82697056D03*
X53400000Y-81000000D03*
D26*
X77537500Y-112000000D03*
X80462500Y-112000000D03*
D24*
X59800000Y-141200000D03*
X61800000Y-141200000D03*
D54*
X97500000Y-117250000D03*
X97500000Y-123250000D03*
D34*
X135902944Y-81000000D03*
X136605888Y-79302944D03*
X136605888Y-82697056D03*
X138302944Y-78600000D03*
D35*
X138302944Y-81000000D03*
D34*
X138302944Y-83400000D03*
X140000000Y-79302944D03*
X140000000Y-82697056D03*
X140702944Y-81000000D03*
D22*
X82187500Y-113750000D03*
X85312500Y-113750000D03*
D38*
X49500000Y-101000000D03*
D39*
X46960000Y-98460000D03*
X46960000Y-103540000D03*
X52040000Y-98460000D03*
X52040000Y-103540000D03*
D45*
X69850000Y-126050000D03*
D46*
X71000000Y-120950000D03*
D45*
X72150000Y-126050000D03*
D24*
X70500000Y-102500000D03*
X72500000Y-102500000D03*
D23*
X59549200Y-123398500D03*
X59549200Y-125473500D03*
D55*
X66839000Y-123438400D03*
X66839000Y-125738400D03*
D56*
X116000000Y-120750000D03*
X73500000Y-127750000D03*
X75500000Y-96000000D03*
X75750000Y-138750000D03*
X82000000Y-77000000D03*
X129750000Y-112750000D03*
X62600000Y-142800000D03*
X61250000Y-125000000D03*
X70750000Y-127750000D03*
X77000000Y-153000000D03*
X75750000Y-137200000D03*
X122000000Y-106000000D03*
X137000000Y-77000000D03*
X87000000Y-77000000D03*
X82500000Y-96500000D03*
X57000000Y-77000000D03*
X131250000Y-115500000D03*
X47000000Y-153000000D03*
X54750000Y-107500000D03*
X142000000Y-77000000D03*
X131750000Y-112750000D03*
X143750000Y-85250000D03*
X122000000Y-110500000D03*
X117000000Y-77000000D03*
X138250000Y-101250000D03*
X97500000Y-126750000D03*
X83500000Y-104000000D03*
X127000000Y-77000000D03*
X102000000Y-139500000D03*
X84500000Y-129700000D03*
X143750000Y-95250000D03*
X68100000Y-141600000D03*
X116000000Y-124750000D03*
X82000000Y-153000000D03*
X139750000Y-112750000D03*
X46000000Y-77000000D03*
X57000000Y-153000000D03*
X62400000Y-130000000D03*
X136250000Y-115500000D03*
X72000000Y-153000000D03*
X58100000Y-149500000D03*
X119750000Y-93500000D03*
X82500000Y-100750000D03*
X128250000Y-101250000D03*
X143750000Y-118500000D03*
X65600000Y-141600000D03*
X100250000Y-93500000D03*
X99250000Y-128000000D03*
X46000000Y-126500000D03*
X50500000Y-96000000D03*
X114750000Y-93500000D03*
X133250000Y-101250000D03*
X122000000Y-77000000D03*
X46000000Y-146500000D03*
X136250000Y-112750000D03*
X124750000Y-112750000D03*
X61000000Y-143750000D03*
X142000000Y-153000000D03*
X122000000Y-153000000D03*
X46000000Y-81500000D03*
X81500000Y-104000000D03*
X82500000Y-106750000D03*
X46000000Y-121500000D03*
X65500000Y-96000000D03*
X46000000Y-141500000D03*
X91500000Y-126750000D03*
X110750000Y-128500000D03*
X122000000Y-107500000D03*
X134750000Y-112750000D03*
X72000000Y-77000000D03*
X104750000Y-93500000D03*
X138250000Y-112750000D03*
X74750000Y-129250000D03*
X101900000Y-141400000D03*
X52000000Y-153000000D03*
X143750000Y-100250000D03*
X60500000Y-96000000D03*
X143750000Y-114250000D03*
X46000000Y-131500000D03*
X93500000Y-122750000D03*
X62000000Y-77000000D03*
X82500000Y-109500000D03*
X82500000Y-104000000D03*
X74750000Y-127750000D03*
X70500000Y-96000000D03*
X82600000Y-102500000D03*
X62600000Y-143800000D03*
X143750000Y-123500000D03*
X76000000Y-130750000D03*
X93500000Y-120750000D03*
X134750000Y-101250000D03*
X61000000Y-142800000D03*
X52000000Y-77000000D03*
X116500000Y-113000000D03*
X132000000Y-153000000D03*
X92000000Y-77000000D03*
X132000000Y-77000000D03*
X56750000Y-107500000D03*
X104000000Y-145500000D03*
X117000000Y-153000000D03*
X128250000Y-112750000D03*
X46000000Y-106500000D03*
X55500000Y-96000000D03*
X77000000Y-77000000D03*
X107000000Y-153000000D03*
X69600000Y-140400000D03*
X71100000Y-139000000D03*
X63750000Y-141600000D03*
X55750000Y-107500000D03*
X131750000Y-101250000D03*
X58500000Y-127500000D03*
X116000000Y-126750000D03*
X46000000Y-116500000D03*
X71100000Y-134500000D03*
X124750000Y-101250000D03*
X122000000Y-109000000D03*
X93500000Y-118750000D03*
X74250000Y-137250000D03*
X71100000Y-137500000D03*
X74250000Y-138750000D03*
X46000000Y-86500000D03*
X65600000Y-140400000D03*
X109250000Y-126750000D03*
X62750000Y-126000000D03*
X95500000Y-126750000D03*
X99250000Y-129500000D03*
X54250000Y-106500000D03*
X69600000Y-134500000D03*
X126750000Y-101250000D03*
X81500000Y-102500000D03*
X112000000Y-153000000D03*
X54250000Y-105250000D03*
X82600000Y-105500000D03*
X99250000Y-131000000D03*
X100250000Y-139500000D03*
X104000000Y-142500000D03*
X126250000Y-115500000D03*
X82500000Y-111000000D03*
X139750000Y-101250000D03*
X81500000Y-105500000D03*
X61250000Y-129000000D03*
X143750000Y-138500000D03*
X116000000Y-122750000D03*
X60000000Y-127500000D03*
X133250000Y-112750000D03*
X121250000Y-115500000D03*
X122000000Y-103000000D03*
X129750000Y-101250000D03*
X75750000Y-135700000D03*
X143750000Y-90250000D03*
X69600000Y-136000000D03*
X126750000Y-112750000D03*
X137000000Y-153000000D03*
X105250000Y-126750000D03*
X69600000Y-137500000D03*
X46000000Y-136500000D03*
X93500000Y-126750000D03*
X143750000Y-81000000D03*
X74750000Y-130750000D03*
X82500000Y-98250000D03*
X93500000Y-124750000D03*
X116250000Y-115500000D03*
X68000000Y-140400000D03*
X124750000Y-93500000D03*
X67000000Y-77000000D03*
X102000000Y-77000000D03*
X71100000Y-136000000D03*
X143750000Y-143500000D03*
X107250000Y-126750000D03*
X69600000Y-139000000D03*
X122750000Y-101500000D03*
X113250000Y-128500000D03*
X104000000Y-139500000D03*
X97000000Y-77000000D03*
X127000000Y-153000000D03*
X122000000Y-104500000D03*
X109750000Y-93500000D03*
X118500000Y-113000000D03*
X46000000Y-111500000D03*
X46000000Y-96500000D03*
X62000000Y-153000000D03*
X57100000Y-143500000D03*
X46000000Y-91500000D03*
X62750000Y-128000000D03*
X72250000Y-127750000D03*
X61250000Y-127000000D03*
X122750000Y-112250000D03*
X143750000Y-128500000D03*
X67000000Y-153000000D03*
X71100000Y-140400000D03*
X107000000Y-77000000D03*
X87000000Y-153000000D03*
X112000000Y-77000000D03*
X143750000Y-133500000D03*
X63750000Y-140600000D03*
X136250000Y-101250000D03*
X62100000Y-149500000D03*
X55000000Y-140000000D03*
X52000000Y-132500000D03*
X50000000Y-132500000D03*
X53500000Y-140000000D03*
X50000000Y-137500000D03*
X52750000Y-141500000D03*
X53500000Y-137500000D03*
X48500000Y-136500000D03*
X52000000Y-140000000D03*
X55000000Y-132500000D03*
X52750000Y-131500000D03*
X55000000Y-137500000D03*
X57000000Y-136500000D03*
X55000000Y-135000000D03*
X50000000Y-140000000D03*
X52000000Y-135000000D03*
X53500000Y-132500000D03*
X52000000Y-137500000D03*
X50000000Y-135000000D03*
X53500000Y-135000000D03*
D57*
X97500000Y-123250000D03*
X97500000Y-117250000D03*
D58*
X60137500Y-147500000D02*
X60100000Y-147462500D01*
X60900000Y-145450000D02*
X60950000Y-145500000D01*
X59100000Y-145450000D02*
X60100000Y-145450000D01*
X60100000Y-145450000D02*
X60100000Y-147462500D01*
X62450000Y-147500000D02*
X60137500Y-147500000D01*
X60100000Y-145450000D02*
X60900000Y-145450000D01*
X64299000Y-127436500D02*
X64562500Y-127700000D01*
X63100000Y-143500000D02*
X62600000Y-143000000D01*
X64562500Y-128578900D02*
X63600000Y-129541400D01*
X63962500Y-143500000D02*
X63100000Y-143500000D01*
X64562500Y-127700000D02*
X64562500Y-128578900D01*
D59*
X61875000Y-133960000D02*
X62835000Y-133000000D01*
D60*
X62415000Y-134500000D02*
X61875000Y-133960000D01*
D58*
X72600000Y-141556497D02*
X72600000Y-140000000D01*
D59*
X71600000Y-133000000D02*
X72600000Y-134000000D01*
D58*
X70002423Y-144154074D02*
X72600000Y-141556497D01*
X72550000Y-140050000D02*
X72600000Y-140000000D01*
D60*
X66062500Y-134500000D02*
X62415000Y-134500000D01*
D59*
X62835000Y-133000000D02*
X71600000Y-133000000D01*
X72600000Y-134000000D02*
X72600000Y-140000000D01*
X59549200Y-123398500D02*
X64235000Y-123398500D01*
X64235000Y-123398500D02*
X64299000Y-123462500D01*
X68188400Y-123438400D02*
X69850000Y-125100000D01*
X64299000Y-123462500D02*
X66814900Y-123462500D01*
D61*
X66624900Y-123652500D02*
X66839000Y-123438400D01*
D59*
X69850000Y-125100000D02*
X69850000Y-126100000D01*
X66839000Y-123438400D02*
X68188400Y-123438400D01*
X57601500Y-123398500D02*
X56150000Y-124850000D01*
X56150000Y-124850000D02*
X56150000Y-126100000D01*
X59549200Y-123398500D02*
X57601500Y-123398500D01*
X66814900Y-123462500D02*
X66839000Y-123438400D01*
D61*
X59549200Y-123398500D02*
X59803200Y-123652500D01*
D59*
X68500000Y-107037500D02*
X65575000Y-107037500D01*
D60*
X65000000Y-106462500D02*
X61462500Y-106462500D01*
D59*
X65575000Y-107037500D02*
X65000000Y-106462500D01*
D60*
X61462500Y-106462500D02*
X61040000Y-106040000D01*
D58*
X66037500Y-143500000D02*
X66037500Y-144562500D01*
X70656497Y-142156497D02*
X69593503Y-142156497D01*
X66037500Y-144562500D02*
X65100000Y-145500000D01*
X70656497Y-142156497D02*
X70360481Y-142452513D01*
X69593503Y-142156497D02*
X68250000Y-143500000D01*
X64100000Y-145500000D02*
X65100000Y-145500000D01*
X63250000Y-145500000D02*
X64100000Y-145500000D01*
X68250000Y-143500000D02*
X66037500Y-143500000D01*
X66508900Y-127828600D02*
X66637500Y-127700000D01*
X66637500Y-127700000D02*
X66637500Y-125939900D01*
X66508900Y-129541400D02*
X66508900Y-127828600D01*
D60*
X66550300Y-129500000D02*
X66508900Y-129541400D01*
D61*
X66835100Y-129215200D02*
X66508900Y-129541400D01*
D60*
X68700000Y-129500000D02*
X66550300Y-129500000D01*
D58*
X66637500Y-125939900D02*
X66839000Y-125738400D01*
D61*
X66839000Y-127607100D02*
X66835100Y-127611000D01*
D60*
X88437500Y-93500000D02*
X89437500Y-92500000D01*
X85312500Y-93500000D02*
X88437500Y-93500000D01*
X89437500Y-92500000D02*
X89437500Y-96000000D01*
D62*
X88132500Y-99367500D02*
X85140000Y-99367500D01*
X89437500Y-96000000D02*
X89437500Y-98062500D01*
D60*
X85500000Y-102525000D02*
X85500000Y-99727500D01*
D62*
X89437500Y-98062500D02*
X88132500Y-99367500D01*
D60*
X87687500Y-113750000D02*
X89437500Y-115500000D01*
D62*
X89500000Y-110140000D02*
X87492500Y-108132500D01*
D60*
X85040000Y-108132500D02*
X85040000Y-105935000D01*
X89437500Y-112062500D02*
X89500000Y-112000000D01*
D62*
X87492500Y-108132500D02*
X85040000Y-108132500D01*
D60*
X89437500Y-115500000D02*
X89437500Y-112062500D01*
X85312500Y-113750000D02*
X87687500Y-113750000D01*
D62*
X89500000Y-112000000D02*
X89500000Y-110140000D01*
D60*
X85040000Y-105935000D02*
X85500000Y-105475000D01*
D59*
X55875000Y-140000000D02*
X55000000Y-140000000D01*
X55000000Y-140000000D02*
X55000000Y-139125000D01*
D60*
X57375000Y-131500000D02*
X55150000Y-133725000D01*
D59*
X73787500Y-133037500D02*
X74750000Y-133037500D01*
D60*
X68700000Y-131500000D02*
X62100000Y-131500000D01*
D59*
X59800000Y-141200000D02*
X57075000Y-141200000D01*
X57075000Y-141200000D02*
X55875000Y-140000000D01*
X75905000Y-133605000D02*
X77650000Y-135350000D01*
X61875000Y-136500000D02*
X66062500Y-136500000D01*
X75317500Y-133605000D02*
X75905000Y-133605000D01*
D58*
X77400000Y-133605000D02*
X77405000Y-133605000D01*
D59*
X57462500Y-131412500D02*
X55150000Y-133725000D01*
X72250000Y-131500000D02*
X73787500Y-133037500D01*
D60*
X62100000Y-131500000D02*
X57375000Y-131500000D01*
D59*
X68700000Y-131500000D02*
X72250000Y-131500000D01*
X57462500Y-129500000D02*
X57462500Y-131412500D01*
D60*
X61875000Y-136500000D02*
X52725000Y-136500000D01*
D59*
X75317500Y-133605000D02*
X74750000Y-133037500D01*
X77650000Y-135350000D02*
X77650000Y-136050000D01*
X77625000Y-133605000D02*
X75317500Y-133605000D01*
X55000000Y-139125000D02*
X55150000Y-139275000D01*
D60*
X92625000Y-115437500D02*
X92562500Y-115500000D01*
X92625000Y-112000000D02*
X92625000Y-115437500D01*
X92562500Y-96000000D02*
X92562500Y-92500000D01*
X103250000Y-124000000D02*
X103500000Y-123750000D01*
X99000000Y-124000000D02*
X103250000Y-124000000D01*
X98500000Y-123250000D02*
X98637500Y-123112500D01*
X98637500Y-123112500D02*
X102000000Y-123112500D01*
X99000000Y-122500000D02*
X103250000Y-122500000D01*
X93370000Y-148750000D02*
X94720000Y-150100000D01*
D63*
X94720000Y-147800000D02*
X94720000Y-145020000D01*
D62*
X94720000Y-145020000D02*
X94720000Y-138389702D01*
D60*
X66250000Y-148750000D02*
X93370000Y-148750000D01*
D59*
X106037500Y-144000000D02*
X109000000Y-144000000D01*
D64*
X94720000Y-145020000D02*
X97260000Y-145020000D01*
D58*
X95721000Y-138120700D02*
X94450998Y-138120700D01*
D64*
X99800000Y-147560000D02*
X97260000Y-145020000D01*
X94720000Y-147560000D02*
X97260000Y-145020000D01*
D59*
X111000000Y-141000000D02*
X111500000Y-141500000D01*
D58*
X94451000Y-138120700D02*
X94450998Y-138120700D01*
D60*
X64750000Y-147500000D02*
X65000000Y-147500000D01*
D59*
X109000000Y-144000000D02*
X109500000Y-143500000D01*
D60*
X65000000Y-147500000D02*
X66250000Y-148750000D01*
D64*
X97260000Y-147660000D02*
X97260000Y-145020000D01*
D63*
X109500000Y-143500000D02*
X111500000Y-141500000D01*
X94720000Y-147800000D02*
X105200000Y-147800000D01*
D64*
X97260000Y-145020000D02*
X99800000Y-145020000D01*
X94720000Y-150100000D02*
X94720000Y-147560000D01*
D62*
X94720000Y-138389702D02*
X94450998Y-138120700D01*
D64*
X97260000Y-150100000D02*
X97260000Y-147660000D01*
X99800000Y-150100000D02*
X99800000Y-145020000D01*
D63*
X118750000Y-134250000D02*
X123000000Y-134250000D01*
X105200000Y-147800000D02*
X109500000Y-143500000D01*
D64*
X99800000Y-150100000D02*
X99800000Y-147560000D01*
D63*
X94720000Y-150100000D02*
X97260000Y-150100000D01*
D59*
X106037500Y-141000000D02*
X111000000Y-141000000D01*
D63*
X111500000Y-141500000D02*
X118750000Y-134250000D01*
D64*
X94720000Y-150100000D02*
X94720000Y-147800000D01*
D62*
X94451000Y-144751000D02*
X94720000Y-145020000D01*
D63*
X97260000Y-150100000D02*
X99800000Y-150100000D01*
D61*
X96981100Y-131110800D02*
X96991000Y-131120700D01*
X96981100Y-128645900D02*
X96981100Y-131110800D01*
D58*
X69750000Y-146750000D02*
X69750000Y-147000000D01*
D60*
X69750000Y-147000000D02*
X68600000Y-147000000D01*
D58*
X72000000Y-144500000D02*
X69750000Y-146750000D01*
D60*
X68600000Y-147000000D02*
X67100000Y-145500000D01*
D58*
X72000000Y-143500000D02*
X72000000Y-144500000D01*
D60*
X83485000Y-145515000D02*
X83485000Y-144250000D01*
X72250000Y-147000000D02*
X82000000Y-147000000D01*
X82000000Y-147000000D02*
X83485000Y-145515000D01*
D59*
X78562500Y-103000000D02*
X73000000Y-103000000D01*
X78562500Y-103000000D02*
X78562500Y-100865000D01*
X77537500Y-96845000D02*
X80060000Y-99367500D01*
X78562500Y-100865000D02*
X80060000Y-99367500D01*
X77537500Y-93000000D02*
X77537500Y-95438400D01*
X77537500Y-95438400D02*
X77537500Y-96845000D01*
X73000000Y-103000000D02*
X72500000Y-102500000D01*
X77537500Y-110555000D02*
X79960000Y-108132500D01*
X78562500Y-106735000D02*
X78562500Y-105000000D01*
X79960000Y-108132500D02*
X78562500Y-106735000D01*
X77537500Y-112000000D02*
X77537500Y-114514600D01*
X77537500Y-112000000D02*
X77537500Y-110555000D01*
X78562500Y-105000000D02*
X72500000Y-105000000D01*
D58*
X82800000Y-131065000D02*
X88765000Y-131065000D01*
X95721000Y-133079000D02*
X95721000Y-131120700D01*
X95300000Y-133500000D02*
X95721000Y-133079000D01*
X91200000Y-133500000D02*
X95300000Y-133500000D01*
X88765000Y-131065000D02*
X91200000Y-133500000D01*
D61*
X82900000Y-137100000D02*
X84400000Y-137100000D01*
X82600000Y-137400000D02*
X82900000Y-137100000D01*
X84400000Y-137100000D02*
X84500000Y-137000000D01*
X84295000Y-135100000D02*
X82800000Y-133605000D01*
X85000000Y-135100000D02*
X84295000Y-135100000D01*
X86500000Y-136600000D02*
X85000000Y-135100000D01*
X86500000Y-139000000D02*
X86500000Y-137000000D01*
X86500000Y-137000000D02*
X86500000Y-136600000D01*
D62*
X49540000Y-100960000D02*
X49500000Y-101000000D01*
X55960000Y-100960000D02*
X49540000Y-100960000D01*
D65*
X132750000Y-107250000D02*
X140250000Y-107250000D01*
D60*
X82000000Y-139500000D02*
X80945000Y-140555000D01*
X80945000Y-140555000D02*
X80945000Y-143962500D01*
X84000000Y-139500000D02*
X82000000Y-139500000D01*
X84500000Y-139000000D02*
X84000000Y-139500000D01*
X58500000Y-113900000D02*
X58500000Y-116750000D01*
D59*
X55400000Y-120500000D02*
X55000000Y-120900000D01*
D60*
X58300000Y-113900000D02*
X58500000Y-113900000D01*
X58500000Y-119250000D02*
X56900000Y-120850000D01*
X58500000Y-116750000D02*
X58500000Y-119250000D01*
X56900000Y-120850000D02*
X55000000Y-120850000D01*
X58500000Y-116750000D02*
X55537500Y-116750000D01*
D59*
X68500000Y-100462500D02*
X65075000Y-100462500D01*
D60*
X61462500Y-100537500D02*
X61040000Y-100960000D01*
D59*
X65075000Y-100462500D02*
X65000000Y-100537500D01*
D60*
X65000000Y-100537500D02*
X61462500Y-100537500D01*
X70500000Y-102500000D02*
X70500000Y-99899785D01*
D59*
X70500000Y-102500000D02*
X68537500Y-102500000D01*
X68537500Y-102500000D02*
X68500000Y-102537500D01*
D60*
X69100215Y-98500000D02*
X59500000Y-98500000D01*
X58500000Y-99500000D02*
X58500000Y-111900000D01*
X59500000Y-98500000D02*
X58500000Y-99500000D01*
X70500000Y-99899785D02*
X69100215Y-98500000D01*
D59*
X68537500Y-105000000D02*
X68500000Y-104962500D01*
D60*
X70500000Y-111800000D02*
X70600000Y-111900000D01*
D59*
X70500000Y-105000000D02*
X68537500Y-105000000D01*
D60*
X70500000Y-105000000D02*
X70500000Y-111800000D01*
D59*
X70600000Y-120500000D02*
X71000000Y-120900000D01*
D60*
X71712500Y-116750000D02*
X70600000Y-116750000D01*
X70600000Y-116750000D02*
X70600000Y-120550000D01*
X70600000Y-120550000D02*
X71000000Y-120950000D01*
X70600000Y-113900000D02*
X70600000Y-116750000D01*
D64*
X97562500Y-139000000D02*
X97562500Y-138687500D01*
X97562500Y-139000000D02*
X97562500Y-138737500D01*
X97562500Y-138737500D02*
X102550000Y-133750000D01*
X102550000Y-133750000D02*
X102550000Y-127937500D01*
D59*
X97562500Y-139000000D02*
X97562500Y-140900000D01*
X96991000Y-138120700D02*
X96991000Y-140328500D01*
D64*
X97562500Y-139000000D02*
X97750000Y-139000000D01*
D59*
X96991000Y-140328500D02*
X97562500Y-140900000D01*
X97500000Y-138120700D02*
X97562500Y-138183200D01*
X97562500Y-138183200D02*
X97562500Y-139000000D01*
X98261000Y-140201500D02*
X97562500Y-140900000D01*
X98261000Y-138120700D02*
X98261000Y-140201500D01*
X98261000Y-138120700D02*
X96991000Y-138120700D01*
D60*
X81437500Y-94250000D02*
X80462500Y-94250000D01*
X82187500Y-93500000D02*
X80962500Y-93500000D01*
D59*
X80462500Y-93000000D02*
X80462500Y-94250000D01*
D60*
X82187500Y-93500000D02*
X81437500Y-94250000D01*
X80962500Y-93500000D02*
X80462500Y-93000000D01*
D59*
X80462500Y-94250000D02*
X80462500Y-95438400D01*
X80462500Y-113500000D02*
X80462500Y-114514600D01*
D60*
X82187500Y-113750000D02*
X80712500Y-113750000D01*
X81422900Y-114514600D02*
X82187500Y-113750000D01*
D59*
X80462500Y-112000000D02*
X80462500Y-113500000D01*
D60*
X80712500Y-113750000D02*
X80462500Y-113500000D01*
X80462500Y-114514600D02*
X81422900Y-114514600D01*
D59*
X61800000Y-141200000D02*
X61800000Y-139115000D01*
X66250000Y-138750000D02*
X62165000Y-138750000D01*
X61800000Y-139115000D02*
X61875000Y-139040000D01*
X62165000Y-138750000D02*
X61875000Y-139040000D01*
D61*
X82800000Y-132335000D02*
X84235000Y-132335000D01*
X84235000Y-132335000D02*
X85000000Y-133100000D01*
G04 #@! TA.AperFunction,Conductor*
G36*
X88442121Y-140770002D02*
G01*
X88488614Y-140823658D01*
X88500000Y-140876000D01*
X88500000Y-147615500D01*
X88479998Y-147683621D01*
X88426342Y-147730114D01*
X88374000Y-147741500D01*
X84376000Y-147741500D01*
X84307879Y-147721498D01*
X84261386Y-147667842D01*
X84250000Y-147615500D01*
X84250000Y-146223569D01*
X84270002Y-146155448D01*
X84271207Y-146153608D01*
X84378721Y-145992704D01*
X84454744Y-145809169D01*
X84493500Y-145614329D01*
X84493500Y-145468184D01*
X84513502Y-145400063D01*
X84530404Y-145379089D01*
X84536461Y-145373033D01*
X84663999Y-145197492D01*
X84762506Y-145004160D01*
X84829557Y-144797800D01*
X84863500Y-144583490D01*
X84863500Y-143916510D01*
X84829557Y-143702200D01*
X84762506Y-143495840D01*
X84663999Y-143302508D01*
X84536461Y-143126967D01*
X84536458Y-143126964D01*
X84536456Y-143126961D01*
X84383039Y-142973544D01*
X84383035Y-142973541D01*
X84383033Y-142973539D01*
X84301937Y-142914618D01*
X84258585Y-142858397D01*
X84250000Y-142812684D01*
X84250000Y-140876000D01*
X84270002Y-140807879D01*
X84323658Y-140761386D01*
X84376000Y-140750000D01*
X88374000Y-140750000D01*
X88442121Y-140770002D01*
G37*
G04 #@! TD.AperFunction*
G04 #@! TA.AperFunction,Conductor*
G36*
X73695500Y-134239253D02*
G01*
X73695612Y-134239014D01*
X73698306Y-134240270D01*
X73700647Y-134241118D01*
X73702262Y-134242115D01*
X73870574Y-134297887D01*
X73974455Y-134308500D01*
X74696882Y-134308499D01*
X74765003Y-134328501D01*
X74766883Y-134329734D01*
X74887159Y-134410099D01*
X74887160Y-134410100D01*
X74887162Y-134410101D01*
X74887164Y-134410102D01*
X75052500Y-134478587D01*
X75198899Y-134507707D01*
X75228020Y-134513500D01*
X75228021Y-134513500D01*
X75476497Y-134513500D01*
X75544618Y-134533502D01*
X75565592Y-134550405D01*
X76170085Y-135154898D01*
X76204111Y-135217210D01*
X76199402Y-135283033D01*
X76199823Y-135283133D01*
X76199210Y-135285724D01*
X76199046Y-135288024D01*
X76198011Y-135290797D01*
X76198009Y-135290804D01*
X76191500Y-135351350D01*
X76191500Y-136748649D01*
X76198009Y-136809196D01*
X76198011Y-136809204D01*
X76249110Y-136946202D01*
X76249112Y-136946207D01*
X76336738Y-137063261D01*
X76453792Y-137150887D01*
X76453794Y-137150888D01*
X76453796Y-137150889D01*
X76512875Y-137172924D01*
X76590795Y-137201988D01*
X76590803Y-137201990D01*
X76651350Y-137208499D01*
X76651355Y-137208499D01*
X76651362Y-137208500D01*
X78196642Y-137208500D01*
X78264763Y-137228502D01*
X78311256Y-137282158D01*
X78322613Y-137337180D01*
X78308511Y-138000000D01*
X78275899Y-139532793D01*
X78273901Y-139626680D01*
X78252455Y-139694360D01*
X78197822Y-139739701D01*
X78147930Y-139750000D01*
X73634500Y-139750000D01*
X73566379Y-139729998D01*
X73519886Y-139676342D01*
X73508500Y-139624000D01*
X73508500Y-134348359D01*
X73528502Y-134280238D01*
X73582158Y-134233745D01*
X73652432Y-134223641D01*
X73695500Y-134239253D01*
G37*
G04 #@! TD.AperFunction*
G04 #@! TA.AperFunction,Conductor*
G36*
X81724455Y-95358500D02*
G01*
X82250810Y-95358499D01*
X82318931Y-95378501D01*
X82362384Y-95425957D01*
X83664574Y-97907775D01*
X83679000Y-97966317D01*
X83679000Y-101416149D01*
X83685509Y-101476696D01*
X83685511Y-101476704D01*
X83736609Y-101613701D01*
X83736610Y-101613702D01*
X83736611Y-101613704D01*
X83753990Y-101636919D01*
X83758592Y-101643067D01*
X83783402Y-101709587D01*
X83768310Y-101778961D01*
X83764964Y-101784721D01*
X83744198Y-101818389D01*
X83707885Y-101877262D01*
X83689124Y-101933879D01*
X83652113Y-102045572D01*
X83652112Y-102045579D01*
X83641500Y-102149446D01*
X83641500Y-102900544D01*
X83652112Y-103004425D01*
X83707885Y-103172738D01*
X83800970Y-103323652D01*
X83800975Y-103323658D01*
X83926341Y-103449024D01*
X83926347Y-103449029D01*
X83926348Y-103449030D01*
X84077262Y-103542115D01*
X84245574Y-103597887D01*
X84276867Y-103601084D01*
X84342600Y-103627906D01*
X84383399Y-103686009D01*
X84390052Y-103725145D01*
X84395629Y-104271712D01*
X84376323Y-104340034D01*
X84323145Y-104387072D01*
X84282443Y-104398345D01*
X84245580Y-104402111D01*
X84245577Y-104402112D01*
X84077261Y-104457885D01*
X83926347Y-104550970D01*
X83926341Y-104550975D01*
X83800975Y-104676341D01*
X83800970Y-104676347D01*
X83707885Y-104827262D01*
X83652113Y-104995572D01*
X83652112Y-104995579D01*
X83641500Y-105099446D01*
X83641500Y-105850451D01*
X83633556Y-105894483D01*
X83585510Y-106023299D01*
X83585509Y-106023303D01*
X83579000Y-106083850D01*
X83579000Y-110181149D01*
X83585509Y-110241696D01*
X83585511Y-110241704D01*
X83636610Y-110378702D01*
X83636612Y-110378707D01*
X83724238Y-110495761D01*
X83841292Y-110583387D01*
X83841294Y-110583388D01*
X83841296Y-110583389D01*
X83900375Y-110605424D01*
X83978295Y-110634488D01*
X83978303Y-110634490D01*
X84038850Y-110640999D01*
X84038855Y-110640999D01*
X84038862Y-110641000D01*
X84335902Y-110641000D01*
X84404023Y-110661002D01*
X84450516Y-110714658D01*
X84461894Y-110765712D01*
X84466269Y-111194346D01*
X84473191Y-111872714D01*
X84453886Y-111941036D01*
X84400707Y-111988074D01*
X84347198Y-112000000D01*
X83026751Y-112000000D01*
X82960605Y-111981241D01*
X82936782Y-111966547D01*
X82922738Y-111957885D01*
X82810199Y-111920593D01*
X82754427Y-111902113D01*
X82754420Y-111902112D01*
X82650553Y-111891500D01*
X81724450Y-111891500D01*
X81715833Y-111892381D01*
X81646033Y-111879403D01*
X81606024Y-111847440D01*
X81562490Y-111794917D01*
X81534419Y-111729705D01*
X81533499Y-111714510D01*
X81533499Y-111324455D01*
X81522887Y-111220574D01*
X81472834Y-111069522D01*
X81467115Y-111052262D01*
X81374030Y-110901348D01*
X81374029Y-110901347D01*
X81374024Y-110901341D01*
X81248658Y-110775975D01*
X81248652Y-110775970D01*
X81232024Y-110765714D01*
X81215841Y-110755731D01*
X81168364Y-110702947D01*
X81156961Y-110632872D01*
X81185253Y-110567756D01*
X81206480Y-110547624D01*
X81275761Y-110495761D01*
X81363387Y-110378707D01*
X81363387Y-110378706D01*
X81363389Y-110378704D01*
X81414489Y-110241701D01*
X81421000Y-110181138D01*
X81421000Y-106083862D01*
X81420999Y-106083850D01*
X81414490Y-106023303D01*
X81414488Y-106023295D01*
X81385424Y-105945375D01*
X81363389Y-105886296D01*
X81363388Y-105886294D01*
X81363387Y-105886292D01*
X81275761Y-105769238D01*
X81158707Y-105681612D01*
X81158702Y-105681610D01*
X81021704Y-105630511D01*
X81021696Y-105630509D01*
X80961149Y-105624000D01*
X80961138Y-105624000D01*
X80126000Y-105624000D01*
X80057879Y-105603998D01*
X80011386Y-105550342D01*
X80000000Y-105498000D01*
X80000000Y-102002000D01*
X80020002Y-101933879D01*
X80073658Y-101887386D01*
X80126000Y-101876000D01*
X81061132Y-101876000D01*
X81061138Y-101876000D01*
X81061145Y-101875999D01*
X81061149Y-101875999D01*
X81121696Y-101869490D01*
X81121699Y-101869489D01*
X81121701Y-101869489D01*
X81258704Y-101818389D01*
X81375761Y-101730761D01*
X81463389Y-101613704D01*
X81514489Y-101476701D01*
X81521000Y-101416138D01*
X81521000Y-97318862D01*
X81520999Y-97318850D01*
X81514490Y-97258303D01*
X81514488Y-97258295D01*
X81463389Y-97121297D01*
X81463387Y-97121292D01*
X81375761Y-97004238D01*
X81258707Y-96916612D01*
X81258704Y-96916611D01*
X81237036Y-96908529D01*
X81180201Y-96865981D01*
X81155391Y-96799461D01*
X81170483Y-96730087D01*
X81214922Y-96683234D01*
X81248652Y-96662430D01*
X81374030Y-96537052D01*
X81467115Y-96386138D01*
X81522887Y-96217826D01*
X81533500Y-96113945D01*
X81533499Y-95478518D01*
X81553501Y-95410398D01*
X81607157Y-95363905D01*
X81672306Y-95353172D01*
X81724455Y-95358500D01*
G37*
G04 #@! TD.AperFunction*
G04 #@! TA.AperFunction,Conductor*
G36*
X144942121Y-75020002D02*
G01*
X144988614Y-75073658D01*
X145000000Y-75126000D01*
X145000000Y-154874000D01*
X144979998Y-154942121D01*
X144926342Y-154988614D01*
X144874000Y-155000000D01*
X45126000Y-155000000D01*
X45057879Y-154979998D01*
X45011386Y-154926342D01*
X45000000Y-154874000D01*
X45000000Y-130000000D01*
X47000000Y-130000000D01*
X47000000Y-137250000D01*
X47000000Y-143000000D01*
X58000000Y-143000000D01*
X58000000Y-142234500D01*
X58020002Y-142166379D01*
X58073658Y-142119886D01*
X58126000Y-142108500D01*
X58783627Y-142108500D01*
X58851748Y-142128502D01*
X58872722Y-142145405D01*
X58976341Y-142249024D01*
X58976347Y-142249029D01*
X58976348Y-142249030D01*
X59127262Y-142342115D01*
X59295574Y-142397887D01*
X59399455Y-142408500D01*
X60200544Y-142408499D01*
X60304426Y-142397887D01*
X60472738Y-142342115D01*
X60623652Y-142249030D01*
X60649796Y-142222886D01*
X60710905Y-142161778D01*
X60773217Y-142127752D01*
X60844032Y-142132817D01*
X60889095Y-142161778D01*
X60976341Y-142249024D01*
X60976347Y-142249029D01*
X60976348Y-142249030D01*
X61127262Y-142342115D01*
X61295574Y-142397887D01*
X61399455Y-142408500D01*
X62200544Y-142408499D01*
X62304426Y-142397887D01*
X62472738Y-142342115D01*
X62623652Y-142249030D01*
X62749030Y-142123652D01*
X62842115Y-141972738D01*
X62897887Y-141804426D01*
X62908500Y-141700545D01*
X62908499Y-140699456D01*
X62897887Y-140595574D01*
X62842115Y-140427262D01*
X62757848Y-140290645D01*
X62739112Y-140222166D01*
X62760371Y-140154428D01*
X62814879Y-140108936D01*
X62865090Y-140098499D01*
X63975544Y-140098499D01*
X64079426Y-140087887D01*
X64247738Y-140032115D01*
X64398652Y-139939030D01*
X64524030Y-139813652D01*
X64582811Y-139718352D01*
X64635597Y-139670875D01*
X64690052Y-139658500D01*
X65233627Y-139658500D01*
X65301748Y-139678502D01*
X65322722Y-139695405D01*
X65426341Y-139799024D01*
X65426347Y-139799029D01*
X65426348Y-139799030D01*
X65577262Y-139892115D01*
X65745574Y-139947887D01*
X65849455Y-139958500D01*
X66650544Y-139958499D01*
X66754426Y-139947887D01*
X66922738Y-139892115D01*
X67073652Y-139799030D01*
X67199030Y-139673652D01*
X67292115Y-139522738D01*
X67347887Y-139354426D01*
X67358500Y-139250545D01*
X67358499Y-138249456D01*
X67347887Y-138145574D01*
X67292115Y-137977262D01*
X67199030Y-137826348D01*
X67199029Y-137826347D01*
X67199024Y-137826341D01*
X67073658Y-137700975D01*
X67073652Y-137700970D01*
X67046363Y-137684138D01*
X67007064Y-137659898D01*
X66959588Y-137607114D01*
X66948185Y-137537039D01*
X66976477Y-137471924D01*
X66984109Y-137463572D01*
X66999030Y-137448652D01*
X67092115Y-137297738D01*
X67147887Y-137129426D01*
X67158500Y-137025545D01*
X67158499Y-135974456D01*
X67147887Y-135870574D01*
X67092115Y-135702262D01*
X67008156Y-135566143D01*
X66989420Y-135497668D01*
X67008155Y-135433856D01*
X67092115Y-135297738D01*
X67147887Y-135129426D01*
X67158500Y-135025545D01*
X67158499Y-134034499D01*
X67178501Y-133966379D01*
X67232157Y-133919886D01*
X67284499Y-133908500D01*
X71171497Y-133908500D01*
X71239618Y-133928502D01*
X71260592Y-133945405D01*
X71654595Y-134339408D01*
X71688621Y-134401720D01*
X71691500Y-134428503D01*
X71691500Y-140089479D01*
X71724343Y-140254595D01*
X71726414Y-140265003D01*
X71781909Y-140398977D01*
X71791500Y-140447196D01*
X71791500Y-140768060D01*
X71771498Y-140836181D01*
X71733148Y-140874359D01*
X71454145Y-141051907D01*
X71432717Y-141065543D01*
X71364508Y-141085240D01*
X71304370Y-141069656D01*
X71272085Y-141051907D01*
X71210193Y-141017881D01*
X71210192Y-141017880D01*
X71210189Y-141017879D01*
X71049052Y-140976506D01*
X71049046Y-140976505D01*
X71049045Y-140976505D01*
X70882668Y-140976505D01*
X70882666Y-140976505D01*
X70882660Y-140976506D01*
X70721522Y-141017879D01*
X70721514Y-141017883D01*
X70575724Y-141098032D01*
X70547252Y-141122349D01*
X70452881Y-141216720D01*
X70358508Y-141311093D01*
X70296199Y-141345117D01*
X70269415Y-141347997D01*
X69513870Y-141347997D01*
X69357671Y-141379067D01*
X69357666Y-141379069D01*
X69284103Y-141409540D01*
X69210535Y-141440013D01*
X69078118Y-141528491D01*
X69078111Y-141528496D01*
X67952013Y-142654595D01*
X67889701Y-142688621D01*
X67862918Y-142691500D01*
X67130800Y-142691500D01*
X67062679Y-142671498D01*
X67023559Y-142631647D01*
X66974029Y-142551347D01*
X66974024Y-142551341D01*
X66848658Y-142425975D01*
X66848652Y-142425970D01*
X66803121Y-142397886D01*
X66697738Y-142332885D01*
X66613582Y-142304999D01*
X66529427Y-142277113D01*
X66529420Y-142277112D01*
X66425553Y-142266500D01*
X65649455Y-142266500D01*
X65545574Y-142277112D01*
X65377261Y-142332885D01*
X65226347Y-142425970D01*
X65226341Y-142425975D01*
X65100975Y-142551341D01*
X65100970Y-142551347D01*
X65007885Y-142702262D01*
X64952113Y-142870572D01*
X64952112Y-142870579D01*
X64941500Y-142974446D01*
X64941500Y-144025544D01*
X64952113Y-144129427D01*
X64953553Y-144136154D01*
X64951308Y-144136634D01*
X64953365Y-144196852D01*
X64917042Y-144257853D01*
X64853505Y-144289533D01*
X64831329Y-144291500D01*
X64699455Y-144291500D01*
X64595574Y-144302112D01*
X64427261Y-144357885D01*
X64276347Y-144450970D01*
X64276341Y-144450975D01*
X64176595Y-144550722D01*
X64114283Y-144584748D01*
X64043468Y-144579683D01*
X64004903Y-144554898D01*
X64004410Y-144555523D01*
X63998652Y-144550970D01*
X63928800Y-144507885D01*
X63847738Y-144457885D01*
X63763582Y-144429999D01*
X63679427Y-144402113D01*
X63679420Y-144402112D01*
X63575553Y-144391500D01*
X62924455Y-144391500D01*
X62820574Y-144402112D01*
X62652261Y-144457885D01*
X62501347Y-144550970D01*
X62501341Y-144550975D01*
X62375975Y-144676341D01*
X62375970Y-144676347D01*
X62282885Y-144827262D01*
X62227113Y-144995572D01*
X62227112Y-144995578D01*
X62225347Y-145012857D01*
X62198524Y-145078591D01*
X62140420Y-145119389D01*
X62069483Y-145122297D01*
X62008235Y-145086391D01*
X61976122Y-145023073D01*
X61974652Y-145012852D01*
X61972887Y-144995575D01*
X61972886Y-144995572D01*
X61917115Y-144827262D01*
X61824030Y-144676348D01*
X61824029Y-144676347D01*
X61824024Y-144676341D01*
X61698658Y-144550975D01*
X61698652Y-144550970D01*
X61628800Y-144507885D01*
X61547738Y-144457885D01*
X61463582Y-144429999D01*
X61379427Y-144402113D01*
X61379420Y-144402112D01*
X61275553Y-144391500D01*
X60624455Y-144391500D01*
X60520574Y-144402112D01*
X60352261Y-144457885D01*
X60201347Y-144550970D01*
X60182615Y-144569702D01*
X60120302Y-144603726D01*
X60049486Y-144598660D01*
X60027377Y-144587847D01*
X59897738Y-144507885D01*
X59813582Y-144479999D01*
X59729427Y-144452113D01*
X59729420Y-144452112D01*
X59625553Y-144441500D01*
X58574455Y-144441500D01*
X58470574Y-144452112D01*
X58302261Y-144507885D01*
X58151347Y-144600970D01*
X58151341Y-144600975D01*
X58025975Y-144726341D01*
X58025970Y-144726347D01*
X57932885Y-144877262D01*
X57877113Y-145045572D01*
X57877112Y-145045579D01*
X57866500Y-145149446D01*
X57866500Y-145925544D01*
X57877112Y-146029425D01*
X57932885Y-146197738D01*
X58025970Y-146348652D01*
X58025975Y-146348658D01*
X58151341Y-146474024D01*
X58151347Y-146474029D01*
X58151348Y-146474030D01*
X58302262Y-146567115D01*
X58470574Y-146622887D01*
X58574455Y-146633500D01*
X58814317Y-146633499D01*
X58882437Y-146653501D01*
X58928930Y-146707156D01*
X58939035Y-146777430D01*
X58933922Y-146799131D01*
X58877113Y-146970572D01*
X58877112Y-146970579D01*
X58866500Y-147074446D01*
X58866500Y-147850544D01*
X58877112Y-147954425D01*
X58932885Y-148122738D01*
X59025970Y-148273652D01*
X59025975Y-148273658D01*
X59151341Y-148399024D01*
X59151347Y-148399029D01*
X59151348Y-148399030D01*
X59302262Y-148492115D01*
X59470574Y-148547887D01*
X59574455Y-148558500D01*
X60625544Y-148558499D01*
X60729426Y-148547887D01*
X60897738Y-148492115D01*
X61048652Y-148399030D01*
X61102278Y-148345403D01*
X61164588Y-148311380D01*
X61191372Y-148308500D01*
X61508627Y-148308500D01*
X61576748Y-148328502D01*
X61597722Y-148345405D01*
X61701341Y-148449024D01*
X61701347Y-148449029D01*
X61701348Y-148449030D01*
X61852262Y-148542115D01*
X62020574Y-148597887D01*
X62124455Y-148608500D01*
X62775544Y-148608499D01*
X62879426Y-148597887D01*
X63047738Y-148542115D01*
X63198652Y-148449030D01*
X63324030Y-148323652D01*
X63417115Y-148172738D01*
X63472887Y-148004426D01*
X63474653Y-147987142D01*
X63501471Y-147921412D01*
X63559574Y-147880612D01*
X63630510Y-147877701D01*
X63691760Y-147913604D01*
X63723876Y-147976921D01*
X63725346Y-147987142D01*
X63727111Y-148004420D01*
X63727112Y-148004422D01*
X63727112Y-148004424D01*
X63727113Y-148004426D01*
X63766317Y-148122738D01*
X63782885Y-148172738D01*
X63875970Y-148323652D01*
X63875975Y-148323658D01*
X64001341Y-148449024D01*
X64001347Y-148449029D01*
X64001348Y-148449030D01*
X64152262Y-148542115D01*
X64320574Y-148597887D01*
X64424455Y-148608500D01*
X64630074Y-148608499D01*
X64698195Y-148628501D01*
X64719170Y-148645404D01*
X65466647Y-149392881D01*
X65607119Y-149533353D01*
X65772296Y-149643721D01*
X65955831Y-149719744D01*
X66150671Y-149758500D01*
X66349329Y-149758500D01*
X89512658Y-149758500D01*
X89580779Y-149778502D01*
X89615188Y-149811264D01*
X89749990Y-149999987D01*
X90125000Y-150500000D01*
X92000000Y-153000000D01*
X102499999Y-153000000D01*
X102500000Y-153000000D01*
X105750000Y-150500000D01*
X107000000Y-149500000D01*
X117213095Y-139286905D01*
X117275407Y-139252879D01*
X117302190Y-139250000D01*
X129000000Y-139250000D01*
X129000000Y-128250000D01*
X117000000Y-128250000D01*
X117000000Y-132697810D01*
X116979998Y-132765931D01*
X116963095Y-132786905D01*
X109786905Y-139963095D01*
X109724593Y-139997121D01*
X109697810Y-140000000D01*
X106974872Y-140000000D01*
X106906751Y-139979998D01*
X106885780Y-139963098D01*
X106848652Y-139925970D01*
X106697738Y-139832885D01*
X106613582Y-139804999D01*
X106529427Y-139777113D01*
X106529420Y-139777112D01*
X106425553Y-139766500D01*
X105649455Y-139766500D01*
X105545574Y-139777112D01*
X105377261Y-139832885D01*
X105226347Y-139925970D01*
X105226341Y-139925975D01*
X105100975Y-140051341D01*
X105100970Y-140051347D01*
X105007885Y-140202262D01*
X104952113Y-140370572D01*
X104952112Y-140370579D01*
X104941500Y-140474446D01*
X104941500Y-141525544D01*
X104952112Y-141629425D01*
X105007885Y-141797738D01*
X105100970Y-141948652D01*
X105100975Y-141948658D01*
X105226341Y-142074024D01*
X105226347Y-142074029D01*
X105226348Y-142074030D01*
X105377262Y-142167115D01*
X105545574Y-142222887D01*
X105649455Y-142233500D01*
X105779519Y-142233499D01*
X105847639Y-142253501D01*
X105894132Y-142307156D01*
X105905418Y-142364535D01*
X105894177Y-142645536D01*
X105871468Y-142712803D01*
X105815997Y-142757114D01*
X105768279Y-142766500D01*
X105649456Y-142766500D01*
X105545574Y-142777112D01*
X105377261Y-142832885D01*
X105226347Y-142925970D01*
X105226341Y-142925975D01*
X105100975Y-143051341D01*
X105100970Y-143051347D01*
X105007885Y-143202262D01*
X104952113Y-143370572D01*
X104952112Y-143370579D01*
X104941500Y-143474446D01*
X104941500Y-144525544D01*
X104952112Y-144629425D01*
X105007885Y-144797738D01*
X105100970Y-144948652D01*
X105100975Y-144948658D01*
X105226341Y-145074024D01*
X105226345Y-145074027D01*
X105226348Y-145074030D01*
X105226350Y-145074031D01*
X105232103Y-145078580D01*
X105230479Y-145080633D01*
X105269766Y-145124306D01*
X105281173Y-145194380D01*
X105252885Y-145259497D01*
X105245240Y-145267863D01*
X104508510Y-146004595D01*
X104446197Y-146038620D01*
X104419414Y-146041500D01*
X102626000Y-146041500D01*
X102557879Y-146021498D01*
X102511386Y-145967842D01*
X102500000Y-145915500D01*
X102500000Y-142000000D01*
X98631436Y-142000000D01*
X98563315Y-141979998D01*
X98516822Y-141926342D01*
X98506718Y-141856068D01*
X98524195Y-141807853D01*
X98526309Y-141804426D01*
X98592115Y-141697738D01*
X98647887Y-141529426D01*
X98658500Y-141425545D01*
X98658499Y-141141002D01*
X98678501Y-141072883D01*
X98695399Y-141051912D01*
X98966678Y-140780635D01*
X99066102Y-140631836D01*
X99076892Y-140605784D01*
X99084523Y-140587366D01*
X99103883Y-140540625D01*
X99134587Y-140466500D01*
X99168835Y-140294322D01*
X99168840Y-140294323D01*
X99168840Y-140294296D01*
X99169500Y-140290980D01*
X99169500Y-140112021D01*
X99169500Y-139532793D01*
X99175667Y-139493857D01*
X99209235Y-139390544D01*
X99221356Y-139353241D01*
X99241534Y-139225833D01*
X99271945Y-139161684D01*
X99276869Y-139156470D01*
X102887937Y-135545404D01*
X102950249Y-135511378D01*
X102977032Y-135508499D01*
X104550544Y-135508499D01*
X104654426Y-135497887D01*
X104822738Y-135442115D01*
X104973652Y-135349030D01*
X105099030Y-135223652D01*
X105192115Y-135072738D01*
X105247887Y-134904426D01*
X105258500Y-134800545D01*
X105258499Y-132699456D01*
X105247887Y-132595574D01*
X105192115Y-132427262D01*
X105099030Y-132276348D01*
X105099029Y-132276347D01*
X105099024Y-132276341D01*
X104973658Y-132150975D01*
X104973652Y-132150970D01*
X104934972Y-132127112D01*
X104822738Y-132057885D01*
X104738582Y-132029999D01*
X104654427Y-132002113D01*
X104654420Y-132002112D01*
X104550553Y-131991500D01*
X104550545Y-131991500D01*
X104184500Y-131991500D01*
X104116379Y-131971498D01*
X104069886Y-131917842D01*
X104058500Y-131865500D01*
X104058500Y-128194031D01*
X104077258Y-128127886D01*
X104142115Y-128022738D01*
X104197887Y-127854426D01*
X104208500Y-127750545D01*
X104208499Y-127024456D01*
X104197887Y-126920574D01*
X104142115Y-126752262D01*
X104049030Y-126601348D01*
X104049029Y-126601347D01*
X104049024Y-126601341D01*
X103923658Y-126475975D01*
X103923652Y-126475970D01*
X103772738Y-126382885D01*
X103688582Y-126354999D01*
X103604427Y-126327113D01*
X103604420Y-126327112D01*
X103500553Y-126316500D01*
X100499455Y-126316500D01*
X100395574Y-126327112D01*
X100227261Y-126382885D01*
X100076347Y-126475970D01*
X100076341Y-126475975D01*
X99950975Y-126601341D01*
X99950970Y-126601347D01*
X99857885Y-126752262D01*
X99802113Y-126920572D01*
X99802112Y-126920579D01*
X99791500Y-127024446D01*
X99791500Y-127750544D01*
X99802112Y-127854425D01*
X99857885Y-128022738D01*
X99950970Y-128173652D01*
X99950975Y-128173658D01*
X100076341Y-128299024D01*
X100076347Y-128299029D01*
X100076348Y-128299030D01*
X100227262Y-128392115D01*
X100395574Y-128447887D01*
X100499455Y-128458500D01*
X100915500Y-128458499D01*
X100983620Y-128478501D01*
X101030114Y-128532156D01*
X101041500Y-128584499D01*
X101041500Y-131865500D01*
X101021498Y-131933621D01*
X100967842Y-131980114D01*
X100915500Y-131991500D01*
X100549455Y-131991500D01*
X100445574Y-132002112D01*
X100277261Y-132057885D01*
X100126347Y-132150970D01*
X100126341Y-132150975D01*
X100000975Y-132276341D01*
X100000970Y-132276347D01*
X99907885Y-132427262D01*
X99852113Y-132595572D01*
X99852112Y-132595579D01*
X99841500Y-132699446D01*
X99841500Y-132874000D01*
X99821498Y-132942121D01*
X99767842Y-132988614D01*
X99715500Y-133000000D01*
X97626000Y-133000000D01*
X97557879Y-132979998D01*
X97511386Y-132926342D01*
X97500000Y-132874000D01*
X97500000Y-132543962D01*
X97520002Y-132475841D01*
X97542596Y-132451153D01*
X97542202Y-132450759D01*
X97665450Y-132327510D01*
X97665453Y-132327507D01*
X97750145Y-132184301D01*
X97796562Y-132024531D01*
X97799499Y-131987211D01*
X97799500Y-131987211D01*
X97799500Y-130254189D01*
X97799499Y-130254188D01*
X97799169Y-130250000D01*
X97796562Y-130216869D01*
X97750145Y-130057099D01*
X97749964Y-130056680D01*
X97749815Y-130055960D01*
X97747934Y-130049486D01*
X97748443Y-130049337D01*
X97739600Y-130006637D01*
X97739600Y-129857517D01*
X97759602Y-129789396D01*
X97799453Y-129750276D01*
X97848652Y-129719930D01*
X97974030Y-129594552D01*
X98067115Y-129443638D01*
X98122887Y-129275326D01*
X98133500Y-129171445D01*
X98133499Y-128120356D01*
X98122887Y-128016474D01*
X98067115Y-127848162D01*
X97974030Y-127697248D01*
X97974029Y-127697247D01*
X97974024Y-127697241D01*
X97848658Y-127571875D01*
X97848652Y-127571870D01*
X97745913Y-127508500D01*
X97697738Y-127478785D01*
X97566902Y-127435431D01*
X97529427Y-127423013D01*
X97529420Y-127423012D01*
X97425553Y-127412400D01*
X96649455Y-127412400D01*
X96545574Y-127423012D01*
X96377261Y-127478785D01*
X96226347Y-127571870D01*
X96226341Y-127571875D01*
X96100975Y-127697241D01*
X96100970Y-127697247D01*
X96007885Y-127848162D01*
X95952113Y-128016472D01*
X95952112Y-128016479D01*
X95941500Y-128120346D01*
X95941500Y-129171444D01*
X95952112Y-129275325D01*
X95952113Y-129275327D01*
X96007885Y-129443638D01*
X96024178Y-129470053D01*
X96042916Y-129538531D01*
X96021657Y-129606270D01*
X95967151Y-129651762D01*
X95916938Y-129662200D01*
X95504489Y-129662200D01*
X95467171Y-129665137D01*
X95467170Y-129665137D01*
X95307394Y-129711556D01*
X95164197Y-129796243D01*
X95163225Y-129796998D01*
X95162323Y-129797352D01*
X95157369Y-129800282D01*
X95156896Y-129799482D01*
X95097139Y-129822944D01*
X95027517Y-129809042D01*
X95008775Y-129796998D01*
X95007802Y-129796243D01*
X94864605Y-129711556D01*
X94704829Y-129665137D01*
X94667511Y-129662200D01*
X94667502Y-129662200D01*
X94234498Y-129662200D01*
X94234489Y-129662200D01*
X94197171Y-129665137D01*
X94197170Y-129665137D01*
X94037394Y-129711556D01*
X93894196Y-129796244D01*
X93894189Y-129796249D01*
X93776549Y-129913889D01*
X93776544Y-129913896D01*
X93691856Y-130057094D01*
X93662206Y-130159153D01*
X93623993Y-130218988D01*
X93559497Y-130248666D01*
X93541209Y-130250000D01*
X81400464Y-130250000D01*
X81332343Y-130229998D01*
X81285850Y-130176342D01*
X81274494Y-130126738D01*
X81272980Y-130057101D01*
X81250000Y-129000000D01*
X78608118Y-129000000D01*
X78572966Y-128994997D01*
X78553832Y-128989438D01*
X78553828Y-128989437D01*
X78516511Y-128986500D01*
X78516502Y-128986500D01*
X76733498Y-128986500D01*
X76733489Y-128986500D01*
X76696171Y-128989437D01*
X76696170Y-128989437D01*
X76536394Y-129035856D01*
X76393196Y-129120544D01*
X76393189Y-129120549D01*
X76275549Y-129238189D01*
X76275544Y-129238196D01*
X76190856Y-129381394D01*
X76144437Y-129541170D01*
X76144437Y-129541171D01*
X76141500Y-129578488D01*
X76141500Y-130011511D01*
X76144437Y-130048828D01*
X76144437Y-130048829D01*
X76190856Y-130208605D01*
X76275544Y-130351803D01*
X76275549Y-130351810D01*
X76393189Y-130469450D01*
X76393196Y-130469455D01*
X76536394Y-130554143D01*
X76536397Y-130554143D01*
X76536399Y-130554145D01*
X76696169Y-130600562D01*
X76733488Y-130603499D01*
X76733489Y-130603500D01*
X76733498Y-130603500D01*
X78337174Y-130603500D01*
X78405295Y-130623502D01*
X78451788Y-130677158D01*
X78463145Y-130732180D01*
X78448869Y-131403180D01*
X78427423Y-131470860D01*
X78372791Y-131516201D01*
X78322898Y-131526500D01*
X76733489Y-131526500D01*
X76696171Y-131529437D01*
X76696170Y-131529437D01*
X76536394Y-131575856D01*
X76393196Y-131660544D01*
X76393189Y-131660549D01*
X76275549Y-131778189D01*
X76275544Y-131778196D01*
X76190856Y-131921394D01*
X76144437Y-132081170D01*
X76144437Y-132081171D01*
X76141500Y-132118488D01*
X76141500Y-132551503D01*
X76142217Y-132560616D01*
X76127620Y-132630096D01*
X76077776Y-132680655D01*
X76016605Y-132696500D01*
X75805896Y-132696500D01*
X75737775Y-132676498D01*
X75691282Y-132622842D01*
X75686292Y-132610133D01*
X75667116Y-132552265D01*
X75667115Y-132552264D01*
X75667115Y-132552262D01*
X75574030Y-132401348D01*
X75574029Y-132401347D01*
X75574024Y-132401341D01*
X75448658Y-132275975D01*
X75448652Y-132275970D01*
X75297738Y-132182885D01*
X75201423Y-132150970D01*
X75129427Y-132127113D01*
X75129420Y-132127112D01*
X75025553Y-132116500D01*
X75025545Y-132116500D01*
X74203503Y-132116500D01*
X74135382Y-132096498D01*
X74114408Y-132079595D01*
X72829140Y-130794326D01*
X72829134Y-130794321D01*
X72779760Y-130761330D01*
X72680336Y-130694897D01*
X72515000Y-130626413D01*
X72500365Y-130623502D01*
X72339481Y-130591500D01*
X72339479Y-130591500D01*
X69785373Y-130591500D01*
X69717252Y-130571498D01*
X69670759Y-130517842D01*
X69660655Y-130447568D01*
X69690149Y-130382988D01*
X69696278Y-130376405D01*
X69749024Y-130323658D01*
X69749030Y-130323652D01*
X69842115Y-130172738D01*
X69897887Y-130004426D01*
X69908500Y-129900545D01*
X69908499Y-129099456D01*
X69907224Y-129086979D01*
X69897887Y-128995574D01*
X69872401Y-128918662D01*
X69842115Y-128827262D01*
X69749030Y-128676348D01*
X69749029Y-128676347D01*
X69749024Y-128676341D01*
X69623658Y-128550975D01*
X69623652Y-128550970D01*
X69563419Y-128513818D01*
X69472738Y-128457885D01*
X69376423Y-128425970D01*
X69304427Y-128402113D01*
X69304420Y-128402112D01*
X69200553Y-128391500D01*
X68876000Y-128391500D01*
X68807879Y-128371498D01*
X68761386Y-128317842D01*
X68750000Y-128265500D01*
X68750000Y-127550045D01*
X68770002Y-127481924D01*
X68823658Y-127435431D01*
X68893932Y-127425327D01*
X68945757Y-127446795D01*
X68945882Y-127446568D01*
X68948002Y-127447725D01*
X68951513Y-127449180D01*
X68953794Y-127450888D01*
X68953795Y-127450888D01*
X68953796Y-127450889D01*
X69012875Y-127472924D01*
X69090795Y-127501988D01*
X69090803Y-127501990D01*
X69151350Y-127508499D01*
X69151355Y-127508499D01*
X69151362Y-127508500D01*
X69151368Y-127508500D01*
X70548632Y-127508500D01*
X70548638Y-127508500D01*
X70548645Y-127508499D01*
X70548649Y-127508499D01*
X70609196Y-127501990D01*
X70609199Y-127501989D01*
X70609201Y-127501989D01*
X70746204Y-127450889D01*
X70766854Y-127435431D01*
X70863261Y-127363261D01*
X70950887Y-127246207D01*
X70950887Y-127246206D01*
X70950889Y-127246204D01*
X71001989Y-127109201D01*
X71008500Y-127048638D01*
X71008500Y-125051362D01*
X71008499Y-125051350D01*
X71001990Y-124990803D01*
X71001988Y-124990795D01*
X70962701Y-124885466D01*
X70950889Y-124853796D01*
X70950888Y-124853794D01*
X70950887Y-124853792D01*
X70863261Y-124736738D01*
X70746207Y-124649112D01*
X70746204Y-124649111D01*
X70644693Y-124611248D01*
X70587858Y-124568701D01*
X70583971Y-124563208D01*
X70555678Y-124520865D01*
X70429135Y-124394322D01*
X69999908Y-123965095D01*
X69965882Y-123902783D01*
X69970947Y-123831968D01*
X70013494Y-123775132D01*
X70080014Y-123750321D01*
X70089003Y-123750000D01*
X73000000Y-123750000D01*
X73000000Y-122435783D01*
X94999500Y-122435783D01*
X94999500Y-122435785D01*
X94999500Y-124064213D01*
X95004985Y-124133904D01*
X95009904Y-124196412D01*
X95060959Y-124399029D01*
X95064903Y-124414679D01*
X95064906Y-124414688D01*
X95157991Y-124619624D01*
X95157997Y-124619632D01*
X95286178Y-124804651D01*
X95286182Y-124804656D01*
X95445343Y-124963817D01*
X95445348Y-124963821D01*
X95630367Y-125092002D01*
X95630375Y-125092008D01*
X95705212Y-125126000D01*
X95835317Y-125185096D01*
X96053588Y-125240096D01*
X96185783Y-125250500D01*
X98814216Y-125250499D01*
X98946412Y-125240096D01*
X99164683Y-125185096D01*
X99369626Y-125092007D01*
X99457789Y-125030927D01*
X99525173Y-125008576D01*
X99529543Y-125008500D01*
X103349328Y-125008500D01*
X103349329Y-125008500D01*
X103544169Y-124969744D01*
X103727704Y-124893721D01*
X103892881Y-124783353D01*
X104033353Y-124642881D01*
X104283353Y-124392881D01*
X104393721Y-124227704D01*
X104469744Y-124044169D01*
X104508499Y-123849329D01*
X104508499Y-123650672D01*
X104469744Y-123455832D01*
X104393721Y-123272297D01*
X104283353Y-123107119D01*
X104245404Y-123069170D01*
X104211378Y-123006858D01*
X104208499Y-122980075D01*
X104208499Y-122846378D01*
X104218092Y-122798156D01*
X104219744Y-122794169D01*
X104258500Y-122599329D01*
X104258500Y-122400671D01*
X104219744Y-122205831D01*
X104143721Y-122022296D01*
X104033353Y-121857119D01*
X103892881Y-121716647D01*
X103727704Y-121606279D01*
X103544169Y-121530256D01*
X103349331Y-121491500D01*
X103349329Y-121491500D01*
X99529543Y-121491500D01*
X99461422Y-121471498D01*
X99457818Y-121469093D01*
X99410493Y-121436306D01*
X99369627Y-121407993D01*
X99369624Y-121407991D01*
X99164688Y-121314906D01*
X99164685Y-121314905D01*
X99164683Y-121314904D01*
X98946412Y-121259904D01*
X98814217Y-121249500D01*
X98814214Y-121249500D01*
X96185786Y-121249500D01*
X96108915Y-121255550D01*
X96053588Y-121259904D01*
X96053584Y-121259904D01*
X96053583Y-121259905D01*
X95835320Y-121314903D01*
X95835311Y-121314906D01*
X95630375Y-121407991D01*
X95630367Y-121407997D01*
X95445348Y-121536178D01*
X95445343Y-121536182D01*
X95286182Y-121695343D01*
X95286178Y-121695348D01*
X95157997Y-121880367D01*
X95157991Y-121880375D01*
X95064906Y-122085311D01*
X95064903Y-122085320D01*
X95034538Y-122205825D01*
X95009904Y-122303588D01*
X94999500Y-122435783D01*
X73000000Y-122435783D01*
X73000000Y-115626000D01*
X73020002Y-115557879D01*
X73073658Y-115511386D01*
X73126000Y-115500000D01*
X76485792Y-115500000D01*
X76553913Y-115520002D01*
X76593032Y-115559852D01*
X76625968Y-115613250D01*
X76625975Y-115613258D01*
X76751341Y-115738624D01*
X76751347Y-115738629D01*
X76751348Y-115738630D01*
X76902262Y-115831715D01*
X77070574Y-115887487D01*
X77174455Y-115898100D01*
X77900544Y-115898099D01*
X78004426Y-115887487D01*
X78172738Y-115831715D01*
X78323652Y-115738630D01*
X78449030Y-115613252D01*
X78481968Y-115559852D01*
X78534754Y-115512375D01*
X78589208Y-115500000D01*
X79410792Y-115500000D01*
X79478913Y-115520002D01*
X79518032Y-115559852D01*
X79550968Y-115613250D01*
X79550975Y-115613258D01*
X79676341Y-115738624D01*
X79676347Y-115738629D01*
X79676348Y-115738630D01*
X79827262Y-115831715D01*
X79995574Y-115887487D01*
X80099455Y-115898100D01*
X80825544Y-115898099D01*
X80929426Y-115887487D01*
X81097738Y-115831715D01*
X81248652Y-115738630D01*
X81374030Y-115613252D01*
X81374032Y-115613247D01*
X81378582Y-115607495D01*
X81380681Y-115609154D01*
X81424169Y-115570004D01*
X81494239Y-115558569D01*
X81518305Y-115563999D01*
X81574331Y-115582564D01*
X81620567Y-115597885D01*
X81620568Y-115597885D01*
X81620574Y-115597887D01*
X81724455Y-115608500D01*
X82650544Y-115608499D01*
X82754426Y-115597887D01*
X82922738Y-115542115D01*
X82947624Y-115526765D01*
X82960605Y-115518759D01*
X83026751Y-115500000D01*
X84374000Y-115500000D01*
X84442121Y-115520002D01*
X84488614Y-115573658D01*
X84500000Y-115626000D01*
X84500000Y-115750000D01*
X86624000Y-115750000D01*
X86692121Y-115770002D01*
X86738614Y-115823658D01*
X86750000Y-115876000D01*
X86750000Y-117500000D01*
X94873501Y-117500000D01*
X94941622Y-117520002D01*
X94988115Y-117573658D01*
X94999501Y-117626000D01*
X94999501Y-118064216D01*
X95009904Y-118196412D01*
X95009904Y-118196415D01*
X95009905Y-118196416D01*
X95064903Y-118414679D01*
X95064906Y-118414688D01*
X95157991Y-118619624D01*
X95157997Y-118619632D01*
X95286178Y-118804651D01*
X95286182Y-118804656D01*
X95445343Y-118963817D01*
X95445348Y-118963821D01*
X95630367Y-119092002D01*
X95630375Y-119092008D01*
X95766699Y-119153928D01*
X95835317Y-119185096D01*
X96053588Y-119240096D01*
X96185783Y-119250500D01*
X98814216Y-119250499D01*
X98946412Y-119240096D01*
X99164683Y-119185096D01*
X99369626Y-119092007D01*
X99554654Y-118963819D01*
X99713819Y-118804654D01*
X99842007Y-118619626D01*
X99935096Y-118414683D01*
X99990096Y-118196412D01*
X100000500Y-118064217D01*
X100000499Y-116435784D01*
X99990096Y-116303588D01*
X99935096Y-116085317D01*
X99903928Y-116016699D01*
X99842008Y-115880375D01*
X99842002Y-115880367D01*
X99713821Y-115695348D01*
X99713817Y-115695343D01*
X99554665Y-115536191D01*
X99554659Y-115536186D01*
X99554654Y-115536181D01*
X99554647Y-115536176D01*
X99554642Y-115536172D01*
X99554235Y-115535890D01*
X99554091Y-115535712D01*
X99550313Y-115532558D01*
X99550939Y-115531807D01*
X99509636Y-115480650D01*
X99500000Y-115432325D01*
X99500000Y-112250000D01*
X127250000Y-112250000D01*
X140250000Y-112250000D01*
X141750000Y-108250000D01*
X141750000Y-106250000D01*
X139750000Y-102250000D01*
X127250000Y-102250000D01*
X127250000Y-112250000D01*
X99500000Y-112250000D01*
X99500000Y-111194346D01*
X99500313Y-111185471D01*
X99508500Y-111069515D01*
X99508499Y-108930486D01*
X99508499Y-108930478D01*
X99500313Y-108814530D01*
X99500000Y-108805656D01*
X99500000Y-90000000D01*
X84250000Y-90000000D01*
X84249999Y-90000000D01*
X84262987Y-91272714D01*
X84243682Y-91341036D01*
X84190503Y-91388074D01*
X84136994Y-91400000D01*
X80375170Y-91400000D01*
X80307049Y-91379998D01*
X80260556Y-91326342D01*
X80249263Y-91269156D01*
X80250000Y-91250000D01*
X76500000Y-91250000D01*
X76500000Y-92131171D01*
X76493605Y-92170801D01*
X76477113Y-92220573D01*
X76477112Y-92220575D01*
X76466500Y-92324446D01*
X76466500Y-93675544D01*
X76477112Y-93779423D01*
X76493605Y-93829197D01*
X76500000Y-93868828D01*
X76500000Y-94569571D01*
X76493605Y-94609201D01*
X76477113Y-94658973D01*
X76477112Y-94658975D01*
X76466500Y-94762846D01*
X76466500Y-96113944D01*
X76477112Y-96217823D01*
X76493605Y-96267597D01*
X76500000Y-96307228D01*
X76500000Y-96624000D01*
X76479998Y-96692121D01*
X76426342Y-96738614D01*
X76374000Y-96750000D01*
X56499999Y-96750000D01*
X51000000Y-96999999D01*
X50999999Y-96999999D01*
X48000000Y-99749999D01*
X48000000Y-99750000D01*
X48000000Y-102000000D01*
X51000000Y-104500000D01*
X54125472Y-104500000D01*
X54193593Y-104520002D01*
X54236063Y-104565621D01*
X54239113Y-104571207D01*
X54326738Y-104688261D01*
X54443792Y-104775887D01*
X54443794Y-104775888D01*
X54443796Y-104775889D01*
X54502875Y-104797924D01*
X54580795Y-104826988D01*
X54580803Y-104826990D01*
X54641350Y-104833499D01*
X54641355Y-104833499D01*
X54641362Y-104833500D01*
X54641368Y-104833500D01*
X57278632Y-104833500D01*
X57278638Y-104833500D01*
X57278645Y-104833499D01*
X57278649Y-104833499D01*
X57347039Y-104826147D01*
X57347259Y-104828201D01*
X57407393Y-104831412D01*
X57464988Y-104872925D01*
X57490996Y-104938987D01*
X57491500Y-104950244D01*
X57491500Y-107624000D01*
X57471498Y-107692121D01*
X57417842Y-107738614D01*
X57365500Y-107750000D01*
X54000000Y-107750000D01*
X54000000Y-119273090D01*
X53979998Y-119341211D01*
X53926342Y-119387704D01*
X53898286Y-119395402D01*
X53898474Y-119396197D01*
X53890795Y-119398011D01*
X53753797Y-119449110D01*
X53753792Y-119449112D01*
X53636738Y-119536738D01*
X53549112Y-119653792D01*
X53549110Y-119653797D01*
X53498011Y-119790795D01*
X53498009Y-119790803D01*
X53491500Y-119851350D01*
X53491500Y-121848649D01*
X53498009Y-121909196D01*
X53498011Y-121909204D01*
X53549110Y-122046202D01*
X53549112Y-122046207D01*
X53636738Y-122163261D01*
X53753792Y-122250887D01*
X53753794Y-122250888D01*
X53753796Y-122250889D01*
X53812875Y-122272924D01*
X53890795Y-122301988D01*
X53898474Y-122303803D01*
X53897959Y-122305979D01*
X53953049Y-122328791D01*
X53993547Y-122387104D01*
X54000000Y-122426909D01*
X54000000Y-125000000D01*
X54865500Y-125000000D01*
X54933621Y-125020002D01*
X54980114Y-125073658D01*
X54991500Y-125126000D01*
X54991500Y-126948649D01*
X54998009Y-127009196D01*
X54998011Y-127009204D01*
X55049110Y-127146202D01*
X55049112Y-127146207D01*
X55136738Y-127263261D01*
X55253792Y-127350887D01*
X55253794Y-127350888D01*
X55253796Y-127350889D01*
X55312875Y-127372924D01*
X55390795Y-127401988D01*
X55390803Y-127401990D01*
X55451350Y-127408499D01*
X55451355Y-127408499D01*
X55451362Y-127408500D01*
X55451368Y-127408500D01*
X56848632Y-127408500D01*
X56848638Y-127408500D01*
X56848645Y-127408499D01*
X56848649Y-127408499D01*
X56909196Y-127401990D01*
X56909199Y-127401989D01*
X56909201Y-127401989D01*
X57046204Y-127350889D01*
X57163261Y-127263261D01*
X57175141Y-127247391D01*
X57250887Y-127146207D01*
X57250887Y-127146206D01*
X57250889Y-127146204D01*
X57296299Y-127024456D01*
X57301988Y-127009204D01*
X57301990Y-127009196D01*
X57308499Y-126948649D01*
X57308500Y-126948632D01*
X57308500Y-125028503D01*
X57328502Y-124960382D01*
X57345405Y-124939408D01*
X57940908Y-124343905D01*
X58003220Y-124309879D01*
X58030003Y-124307000D01*
X58521303Y-124307000D01*
X58589424Y-124327002D01*
X58599454Y-124334165D01*
X58600545Y-124335027D01*
X58600548Y-124335030D01*
X58751462Y-124428115D01*
X58919774Y-124483887D01*
X59023655Y-124494500D01*
X60074744Y-124494499D01*
X60178626Y-124483887D01*
X60346938Y-124428115D01*
X60497852Y-124335030D01*
X60497858Y-124335023D01*
X60498946Y-124334165D01*
X60499835Y-124333806D01*
X60504098Y-124331177D01*
X60504547Y-124331905D01*
X60564787Y-124307603D01*
X60577097Y-124307000D01*
X63206128Y-124307000D01*
X63274249Y-124327002D01*
X63295218Y-124343900D01*
X63350348Y-124399030D01*
X63501262Y-124492115D01*
X63669574Y-124547887D01*
X63773455Y-124558500D01*
X64824544Y-124558499D01*
X64928426Y-124547887D01*
X65096738Y-124492115D01*
X65247652Y-124399030D01*
X65247658Y-124399023D01*
X65248746Y-124398165D01*
X65249635Y-124397806D01*
X65253898Y-124395177D01*
X65254347Y-124395905D01*
X65314587Y-124371603D01*
X65326897Y-124371000D01*
X66074571Y-124371000D01*
X66140717Y-124389759D01*
X66148115Y-124394322D01*
X66166262Y-124405515D01*
X66334574Y-124461287D01*
X66351854Y-124463052D01*
X66417587Y-124489872D01*
X66458387Y-124547974D01*
X66461298Y-124618911D01*
X66425395Y-124680161D01*
X66362078Y-124712276D01*
X66351857Y-124713746D01*
X66334579Y-124715511D01*
X66334577Y-124715512D01*
X66166261Y-124771285D01*
X66015347Y-124864370D01*
X66015341Y-124864375D01*
X65889975Y-124989741D01*
X65889970Y-124989747D01*
X65796885Y-125140662D01*
X65741113Y-125308972D01*
X65741112Y-125308979D01*
X65730500Y-125412846D01*
X65730500Y-126063944D01*
X65741112Y-126167825D01*
X65768999Y-126251982D01*
X65796885Y-126336138D01*
X65796886Y-126336139D01*
X65810240Y-126357789D01*
X65829000Y-126423937D01*
X65829000Y-126571127D01*
X65808998Y-126639248D01*
X65792095Y-126660222D01*
X65700975Y-126751341D01*
X65700970Y-126751347D01*
X65607885Y-126902262D01*
X65552113Y-127070572D01*
X65552112Y-127070579D01*
X65541500Y-127174446D01*
X65541500Y-128225544D01*
X65552113Y-128329427D01*
X65552113Y-128329431D01*
X65605818Y-128491500D01*
X65607885Y-128497738D01*
X65607887Y-128497742D01*
X65607888Y-128497743D01*
X65617803Y-128513818D01*
X65636540Y-128582297D01*
X65615280Y-128650036D01*
X65599658Y-128669059D01*
X65500970Y-128767747D01*
X65407885Y-128918662D01*
X65352113Y-129086972D01*
X65352112Y-129086979D01*
X65341500Y-129190846D01*
X65341500Y-129891944D01*
X65352112Y-129995825D01*
X65372416Y-130057099D01*
X65407885Y-130164138D01*
X65460845Y-130250000D01*
X65491287Y-130299353D01*
X65510024Y-130367833D01*
X65488765Y-130435571D01*
X65434258Y-130481063D01*
X65384046Y-130491500D01*
X58598359Y-130491500D01*
X58530238Y-130471498D01*
X58483745Y-130417842D01*
X58473641Y-130347568D01*
X58489253Y-130304499D01*
X58489014Y-130304388D01*
X58490270Y-130301693D01*
X58491118Y-130299352D01*
X58492115Y-130297738D01*
X58547887Y-130129426D01*
X58558500Y-130025545D01*
X58558499Y-128974456D01*
X58547887Y-128870574D01*
X58492115Y-128702262D01*
X58399030Y-128551348D01*
X58399029Y-128551347D01*
X58399024Y-128551341D01*
X58273658Y-128425975D01*
X58273652Y-128425970D01*
X58234972Y-128402112D01*
X58122738Y-128332885D01*
X58038582Y-128304999D01*
X57954427Y-128277113D01*
X57954420Y-128277112D01*
X57850553Y-128266500D01*
X57074455Y-128266500D01*
X56970574Y-128277112D01*
X56802261Y-128332885D01*
X56651347Y-128425970D01*
X56651341Y-128425975D01*
X56525975Y-128551341D01*
X56525970Y-128551347D01*
X56432885Y-128702262D01*
X56377113Y-128870572D01*
X56377112Y-128870579D01*
X56366500Y-128974446D01*
X56366500Y-128974454D01*
X56366500Y-128974455D01*
X56366500Y-129470052D01*
X56366501Y-129874000D01*
X56346499Y-129942121D01*
X56292843Y-129988614D01*
X56240501Y-130000000D01*
X47000000Y-130000000D01*
X45000000Y-130000000D01*
X45000000Y-75126000D01*
X45020002Y-75057879D01*
X45073658Y-75011386D01*
X45126000Y-75000000D01*
X144874000Y-75000000D01*
X144942121Y-75020002D01*
G37*
G04 #@! TD.AperFunction*
M02*
