G04 #@! TF.GenerationSoftware,KiCad,Pcbnew,8.0.4*
G04 #@! TF.CreationDate,2024-11-19T14:33:49+01:00*
G04 #@! TF.ProjectId,MUNIN 100,4d554e49-4e20-4313-9030-2e6b69636164,0*
G04 #@! TF.SameCoordinates,Original*
G04 #@! TF.FileFunction,Soldermask,Top*
G04 #@! TF.FilePolarity,Negative*
%FSLAX46Y46*%
G04 Gerber Fmt 4.6, Leading zero omitted, Abs format (unit mm)*
G04 Created by KiCad (PCBNEW 8.0.4) date 2024-11-19 14:33:49*
%MOMM*%
%LPD*%
G01*
G04 APERTURE LIST*
G04 Aperture macros list*
%AMRoundRect*
0 Rectangle with rounded corners*
0 $1 Rounding radius*
0 $2 $3 $4 $5 $6 $7 $8 $9 X,Y pos of 4 corners*
0 Add a 4 corners polygon primitive as box body*
4,1,4,$2,$3,$4,$5,$6,$7,$8,$9,$2,$3,0*
0 Add four circle primitives for the rounded corners*
1,1,$1+$1,$2,$3*
1,1,$1+$1,$4,$5*
1,1,$1+$1,$6,$7*
1,1,$1+$1,$8,$9*
0 Add four rect primitives between the rounded corners*
20,1,$1+$1,$2,$3,$4,$5,0*
20,1,$1+$1,$4,$5,$6,$7,0*
20,1,$1+$1,$6,$7,$8,$9,0*
20,1,$1+$1,$8,$9,$2,$3,0*%
%AMRotRect*
0 Rectangle, with rotation*
0 The origin of the aperture is its center*
0 $1 length*
0 $2 width*
0 $3 Rotation angle, in degrees counterclockwise*
0 Add horizontal line*
21,1,$1,$2,0,0,$3*%
G04 Aperture macros list end*
%ADD10RoundRect,0.750000X-0.750000X1.750000X-0.750000X-1.750000X0.750000X-1.750000X0.750000X1.750000X0*%
%ADD11RoundRect,0.875000X-1.125000X0.875000X-1.125000X-0.875000X1.125000X-0.875000X1.125000X0.875000X0*%
%ADD12RoundRect,0.250000X0.475000X-0.337500X0.475000X0.337500X-0.475000X0.337500X-0.475000X-0.337500X0*%
%ADD13C,6.000000*%
%ADD14R,1.905000X4.000000*%
%ADD15RotRect,1.905000X4.000000X181.300000*%
%ADD16RoundRect,0.250000X-0.450000X0.350000X-0.450000X-0.350000X0.450000X-0.350000X0.450000X0.350000X0*%
%ADD17RoundRect,0.150000X0.825000X0.150000X-0.825000X0.150000X-0.825000X-0.150000X0.825000X-0.150000X0*%
%ADD18RoundRect,0.250000X0.337500X0.475000X-0.337500X0.475000X-0.337500X-0.475000X0.337500X-0.475000X0*%
%ADD19RoundRect,0.250000X-0.275000X-0.350000X0.275000X-0.350000X0.275000X0.350000X-0.275000X0.350000X0*%
%ADD20RoundRect,0.250000X-0.337500X-0.475000X0.337500X-0.475000X0.337500X0.475000X-0.337500X0.475000X0*%
%ADD21RoundRect,0.250000X-1.450000X0.312500X-1.450000X-0.312500X1.450000X-0.312500X1.450000X0.312500X0*%
%ADD22RoundRect,0.250000X-0.412500X-1.100000X0.412500X-1.100000X0.412500X1.100000X-0.412500X1.100000X0*%
%ADD23RoundRect,0.250000X-0.475000X0.337500X-0.475000X-0.337500X0.475000X-0.337500X0.475000X0.337500X0*%
%ADD24RoundRect,0.250000X-0.350000X-0.450000X0.350000X-0.450000X0.350000X0.450000X-0.350000X0.450000X0*%
%ADD25RoundRect,0.150000X0.150000X-0.800000X0.150000X0.800000X-0.150000X0.800000X-0.150000X-0.800000X0*%
%ADD26RoundRect,0.250000X-0.312500X-0.625000X0.312500X-0.625000X0.312500X0.625000X-0.312500X0.625000X0*%
%ADD27RoundRect,0.250000X-1.950000X-1.000000X1.950000X-1.000000X1.950000X1.000000X-1.950000X1.000000X0*%
%ADD28RoundRect,0.250000X2.050000X0.300000X-2.050000X0.300000X-2.050000X-0.300000X2.050000X-0.300000X0*%
%ADD29RoundRect,0.250000X2.012537X2.385570X-2.037408X2.364365X-2.012537X-2.385570X2.037408X-2.364365X0*%
%ADD30RoundRect,0.250002X4.449998X5.149998X-4.449998X5.149998X-4.449998X-5.149998X4.449998X-5.149998X0*%
%ADD31RoundRect,0.250000X2.025000X2.375000X-2.025000X2.375000X-2.025000X-2.375000X2.025000X-2.375000X0*%
%ADD32RoundRect,0.250000X0.250000X0.250000X-0.250000X0.250000X-0.250000X-0.250000X0.250000X-0.250000X0*%
%ADD33RoundRect,0.250000X-1.100000X0.325000X-1.100000X-0.325000X1.100000X-0.325000X1.100000X0.325000X0*%
%ADD34C,0.800000*%
%ADD35C,6.400000*%
%ADD36RoundRect,0.243750X0.243750X0.456250X-0.243750X0.456250X-0.243750X-0.456250X0.243750X-0.456250X0*%
%ADD37RoundRect,0.249998X4.550002X-3.650002X4.550002X3.650002X-4.550002X3.650002X-4.550002X-3.650002X0*%
%ADD38C,1.998980*%
%ADD39C,2.499360*%
%ADD40C,2.300000*%
%ADD41RoundRect,0.250000X0.620000X0.845000X-0.620000X0.845000X-0.620000X-0.845000X0.620000X-0.845000X0*%
%ADD42O,1.740000X2.190000*%
%ADD43R,1.900000X1.300000*%
%ADD44R,1.900000X2.000000*%
%ADD45R,1.300000X1.900000*%
%ADD46R,2.000000X1.900000*%
%ADD47RoundRect,0.250000X0.350000X0.450000X-0.350000X0.450000X-0.350000X-0.450000X0.350000X-0.450000X0*%
%ADD48RoundRect,0.250000X0.300000X0.300000X-0.300000X0.300000X-0.300000X-0.300000X0.300000X-0.300000X0*%
%ADD49RoundRect,1.000000X2.500000X-1.000000X2.500000X1.000000X-2.500000X1.000000X-2.500000X-1.000000X0*%
%ADD50RoundRect,1.000000X1.000000X-2.500000X1.000000X2.500000X-1.000000X2.500000X-1.000000X-2.500000X0*%
%ADD51RoundRect,0.150000X0.309359X0.521491X-0.521491X-0.309359X-0.309359X-0.521491X0.521491X0.309359X0*%
%ADD52R,2.540000X1.650000*%
%ADD53RoundRect,0.250000X-1.425000X0.362500X-1.425000X-0.362500X1.425000X-0.362500X1.425000X0.362500X0*%
%ADD54RoundRect,1.100000X-1.600000X-1.100000X1.600000X-1.100000X1.600000X1.100000X-1.600000X1.100000X0*%
%ADD55RoundRect,0.250000X-0.350000X0.275000X-0.350000X-0.275000X0.350000X-0.275000X0.350000X0.275000X0*%
G04 APERTURE END LIST*
D10*
X87750000Y-98000000D03*
D11*
X96750000Y-102250000D03*
X96750000Y-105000000D03*
D10*
X87750000Y-109000000D03*
D12*
X59100000Y-145537500D03*
X59100000Y-143462500D03*
D13*
X82500000Y-124792500D03*
D14*
X85040000Y-108132500D03*
D15*
X82500000Y-108132500D03*
D14*
X79960000Y-108132500D03*
D16*
X58500000Y-111900000D03*
X58500000Y-113900000D03*
D17*
X82575000Y-133605000D03*
X82575000Y-132335000D03*
X82575000Y-131065000D03*
X82575000Y-129795000D03*
X77625000Y-129795000D03*
X77625000Y-131065000D03*
X77625000Y-132335000D03*
X77625000Y-133605000D03*
D18*
X73787500Y-116750000D03*
X71712500Y-116750000D03*
D19*
X60950000Y-145500000D03*
X63250000Y-145500000D03*
D20*
X57462500Y-129500000D03*
X59537500Y-129500000D03*
D21*
X102000000Y-123112500D03*
X102000000Y-127387500D03*
D22*
X89500000Y-112000000D03*
X92625000Y-112000000D03*
D23*
X64299000Y-123462500D03*
X64299000Y-125537500D03*
D18*
X97037500Y-128645900D03*
X94962500Y-128645900D03*
D22*
X89437500Y-92500000D03*
X92562500Y-92500000D03*
D23*
X74500000Y-133212500D03*
X74500000Y-135287500D03*
D22*
X89437500Y-115500000D03*
X92562500Y-115500000D03*
D24*
X66250000Y-138750000D03*
X68250000Y-138750000D03*
D16*
X70600000Y-111900000D03*
X70600000Y-113900000D03*
D25*
X94451000Y-138120700D03*
X95721000Y-138120700D03*
X96991000Y-138120700D03*
X98261000Y-138120700D03*
X98261000Y-131120700D03*
X96991000Y-131120700D03*
X95721000Y-131120700D03*
X94451000Y-131120700D03*
D26*
X77537500Y-114514600D03*
X80462500Y-114514600D03*
D27*
X102550000Y-133750000D03*
X110950000Y-133750000D03*
D28*
X61875000Y-139040000D03*
X61875000Y-136500000D03*
D29*
X55150000Y-139275000D03*
X55150000Y-133725000D03*
D30*
X52725000Y-136500000D03*
D31*
X50300000Y-139275000D03*
X50300000Y-133725000D03*
D28*
X61875000Y-133960000D03*
D32*
X72250000Y-147000000D03*
X69750000Y-147000000D03*
D33*
X85500000Y-102525000D03*
X85500000Y-105475000D03*
D34*
X135902944Y-148000000D03*
X136605888Y-146302944D03*
X136605888Y-149697056D03*
X138302944Y-145600000D03*
D35*
X138302944Y-148000000D03*
D34*
X138302944Y-150400000D03*
X140000000Y-146302944D03*
X140000000Y-149697056D03*
X140702944Y-148000000D03*
D18*
X106037500Y-144000000D03*
X103962500Y-144000000D03*
D36*
X80437500Y-103000000D03*
X78562500Y-103000000D03*
D20*
X66062500Y-134500000D03*
X68137500Y-134500000D03*
D37*
X123000000Y-134250000D03*
X123000000Y-121750000D03*
D38*
X140250000Y-107250000D03*
D39*
X142790000Y-109790000D03*
X142790000Y-104710000D03*
X137710000Y-109790000D03*
X137710000Y-104710000D03*
D40*
X123000000Y-150080000D03*
X125540000Y-150080000D03*
X128080000Y-150080000D03*
X123000000Y-145000000D03*
X125540000Y-145000000D03*
X128080000Y-145000000D03*
D22*
X82187500Y-93500000D03*
X85312500Y-93500000D03*
D26*
X77537500Y-93000000D03*
X80462500Y-93000000D03*
D23*
X68500000Y-100462500D03*
X68500000Y-102537500D03*
D41*
X86025000Y-144250000D03*
D42*
X83485000Y-144250000D03*
X80945000Y-144250000D03*
D43*
X77650000Y-136050000D03*
D44*
X82750000Y-137200000D03*
D43*
X77650000Y-138350000D03*
D45*
X53850000Y-125950000D03*
D46*
X55000000Y-120850000D03*
D45*
X56150000Y-125950000D03*
D47*
X86500000Y-139000000D03*
X84500000Y-139000000D03*
D18*
X66037500Y-143500000D03*
X63962500Y-143500000D03*
D34*
X48600000Y-148000000D03*
X49302944Y-146302944D03*
X49302944Y-149697056D03*
X51000000Y-145600000D03*
D35*
X51000000Y-148000000D03*
D34*
X51000000Y-150400000D03*
X52697056Y-146302944D03*
X52697056Y-149697056D03*
X53400000Y-148000000D03*
D13*
X82600000Y-82707500D03*
D14*
X80060000Y-99367500D03*
X82600000Y-99367500D03*
X85140000Y-99367500D03*
D20*
X53462500Y-116750000D03*
X55537500Y-116750000D03*
D48*
X66400000Y-129541400D03*
X63600000Y-129541400D03*
D40*
X99800000Y-145020000D03*
X97260000Y-145020000D03*
X94720000Y-145020000D03*
X99800000Y-150100000D03*
X97260000Y-150100000D03*
X94720000Y-150100000D03*
D18*
X99637500Y-140900000D03*
X97562500Y-140900000D03*
D36*
X80437500Y-105000000D03*
X78562500Y-105000000D03*
D49*
X95500000Y-110000000D03*
D50*
X132500000Y-107500000D03*
X132500000Y-96500000D03*
X95000000Y-94500000D03*
D22*
X89437500Y-96000000D03*
X92562500Y-96000000D03*
D18*
X66637500Y-127700000D03*
X64562500Y-127700000D03*
D26*
X77537500Y-95438400D03*
X80462500Y-95438400D03*
D24*
X70500000Y-105000000D03*
X72500000Y-105000000D03*
D51*
X72000000Y-143500000D03*
X70656497Y-142156497D03*
X70002423Y-144154074D03*
D19*
X62450000Y-147500000D03*
X64750000Y-147500000D03*
D52*
X61040000Y-106040000D03*
X61040000Y-103500000D03*
X61040000Y-100960000D03*
X55960000Y-100960000D03*
X55960000Y-103500000D03*
X55960000Y-106040000D03*
D16*
X85000000Y-133100000D03*
X85000000Y-135100000D03*
D12*
X60100000Y-149537500D03*
X60100000Y-147462500D03*
D16*
X68700000Y-129500000D03*
X68700000Y-131500000D03*
D20*
X66062500Y-136500000D03*
X68137500Y-136500000D03*
D18*
X106037500Y-141000000D03*
X103962500Y-141000000D03*
D24*
X65100000Y-145500000D03*
X67100000Y-145500000D03*
X84500000Y-137000000D03*
X86500000Y-137000000D03*
D53*
X65000000Y-100537500D03*
X65000000Y-106462500D03*
D12*
X68500000Y-107037500D03*
X68500000Y-104962500D03*
D34*
X48600000Y-81000000D03*
X49302944Y-79302944D03*
X49302944Y-82697056D03*
X51000000Y-78600000D03*
D35*
X51000000Y-81000000D03*
D34*
X51000000Y-83400000D03*
X52697056Y-79302944D03*
X52697056Y-82697056D03*
X53400000Y-81000000D03*
D26*
X77537500Y-112000000D03*
X80462500Y-112000000D03*
D24*
X59800000Y-141200000D03*
X61800000Y-141200000D03*
D54*
X97500000Y-117250000D03*
X97500000Y-123250000D03*
D34*
X135902944Y-81000000D03*
X136605888Y-79302944D03*
X136605888Y-82697056D03*
X138302944Y-78600000D03*
D35*
X138302944Y-81000000D03*
D34*
X138302944Y-83400000D03*
X140000000Y-79302944D03*
X140000000Y-82697056D03*
X140702944Y-81000000D03*
D22*
X82187500Y-113750000D03*
X85312500Y-113750000D03*
D38*
X49500000Y-101000000D03*
D39*
X46960000Y-98460000D03*
X46960000Y-103540000D03*
X52040000Y-98460000D03*
X52040000Y-103540000D03*
D45*
X69850000Y-126050000D03*
D46*
X71000000Y-120950000D03*
D45*
X72150000Y-126050000D03*
D24*
X70500000Y-102500000D03*
X72500000Y-102500000D03*
D23*
X59549200Y-123398500D03*
X59549200Y-125473500D03*
D55*
X66839000Y-123438400D03*
X66839000Y-125738400D03*
G36*
X47693039Y-75019685D02*
G01*
X47738794Y-75072489D01*
X47750000Y-75124000D01*
X47750000Y-77376000D01*
X47730315Y-77443039D01*
X47677511Y-77488794D01*
X47626000Y-77500000D01*
X47500000Y-77500000D01*
X47500000Y-152500000D01*
X47626000Y-152500000D01*
X47693039Y-152519685D01*
X47738794Y-152572489D01*
X47750000Y-152624000D01*
X47750000Y-154876000D01*
X47730315Y-154943039D01*
X47677511Y-154988794D01*
X47626000Y-155000000D01*
X45124000Y-155000000D01*
X45056961Y-154980315D01*
X45011206Y-154927511D01*
X45000000Y-154876000D01*
X45000000Y-75124000D01*
X45019685Y-75056961D01*
X45072489Y-75011206D01*
X45124000Y-75000000D01*
X47626000Y-75000000D01*
X47693039Y-75019685D01*
G37*
G36*
X144943039Y-77269685D02*
G01*
X144988794Y-77322489D01*
X145000000Y-77374000D01*
X145000000Y-152626000D01*
X144980315Y-152693039D01*
X144927511Y-152738794D01*
X144876000Y-152750000D01*
X142512211Y-152750000D01*
X142488021Y-152747618D01*
X142477966Y-152745618D01*
X142416054Y-152713233D01*
X142381480Y-152652517D01*
X142385219Y-152582748D01*
X142426085Y-152526076D01*
X142491103Y-152500494D01*
X142499899Y-152500100D01*
X142500000Y-152500000D01*
X142500000Y-77500000D01*
X142499103Y-77499103D01*
X142435117Y-77480315D01*
X142389362Y-77427511D01*
X142379418Y-77358353D01*
X142408443Y-77294797D01*
X142467221Y-77257023D01*
X142477966Y-77254382D01*
X142488021Y-77252382D01*
X142512211Y-77250000D01*
X144876000Y-77250000D01*
X144943039Y-77269685D01*
G37*
G36*
X144943039Y-75019685D02*
G01*
X144988794Y-75072489D01*
X145000000Y-75124000D01*
X145000000Y-154876000D01*
X144980315Y-154943039D01*
X144927511Y-154988794D01*
X144876000Y-155000000D01*
X47374000Y-155000000D01*
X47306961Y-154980315D01*
X47261206Y-154927511D01*
X47250000Y-154876000D01*
X47250000Y-152512210D01*
X47252383Y-152488017D01*
X47254383Y-152477963D01*
X47286769Y-152416053D01*
X47347485Y-152381479D01*
X47417254Y-152385220D01*
X47473926Y-152426087D01*
X47499507Y-152491105D01*
X47499899Y-152499899D01*
X47500000Y-152500000D01*
X142500000Y-152500000D01*
X142500000Y-152374000D01*
X142519685Y-152306961D01*
X142572489Y-152261206D01*
X142624000Y-152250000D01*
X144750000Y-152250000D01*
X144750000Y-77750000D01*
X142624000Y-77750000D01*
X142556961Y-77730315D01*
X142511206Y-77677511D01*
X142500000Y-77626000D01*
X142500000Y-77500000D01*
X47500000Y-77500000D01*
X47499103Y-77500896D01*
X47480315Y-77564882D01*
X47427511Y-77610637D01*
X47358353Y-77620581D01*
X47294797Y-77591556D01*
X47257023Y-77532778D01*
X47254383Y-77522036D01*
X47252383Y-77511982D01*
X47250000Y-77487789D01*
X47250000Y-75124000D01*
X47269685Y-75056961D01*
X47322489Y-75011206D01*
X47374000Y-75000000D01*
X144876000Y-75000000D01*
X144943039Y-75019685D01*
G37*
M02*
