%TF.GenerationSoftware,KiCad,Pcbnew,8.0.4*%
%TF.CreationDate,2024-11-19T14:34:28+01:00*%
%TF.ProjectId,MUNIN 100,4d554e49-4e20-4313-9030-2e6b69636164,0*%
%TF.SameCoordinates,Original*%
%TF.FileFunction,Drillmap*%
%TF.FilePolarity,Positive*%
%FSLAX45Y45*%
G04 Gerber Fmt 4.5, Leading zero omitted, Abs format (unit mm)*
G04 Created by KiCad (PCBNEW 8.0.4) date 2024-11-19 14:34:28*
%MOMM*%
%LPD*%
G01*
G04 APERTURE LIST*
%ADD10C,0.100000*%
%ADD11C,0.200000*%
G04 APERTURE END LIST*
D10*
X14500000Y-15500000D02*
X4500000Y-15500000D01*
X14500000Y-7500000D02*
X14500000Y-15500000D01*
X4500000Y-15500000D02*
X4500000Y-7500000D01*
X4500000Y-7500000D02*
X14500000Y-7500000D01*
D11*
X4755777Y-15816484D02*
X4755777Y-15616484D01*
X4755777Y-15616484D02*
X4803396Y-15616484D01*
X4803396Y-15616484D02*
X4831967Y-15626008D01*
X4831967Y-15626008D02*
X4851015Y-15645055D01*
X4851015Y-15645055D02*
X4860539Y-15664103D01*
X4860539Y-15664103D02*
X4870063Y-15702198D01*
X4870063Y-15702198D02*
X4870063Y-15730769D01*
X4870063Y-15730769D02*
X4860539Y-15768865D01*
X4860539Y-15768865D02*
X4851015Y-15787912D01*
X4851015Y-15787912D02*
X4831967Y-15806960D01*
X4831967Y-15806960D02*
X4803396Y-15816484D01*
X4803396Y-15816484D02*
X4755777Y-15816484D01*
X4955777Y-15816484D02*
X4955777Y-15683150D01*
X4955777Y-15721246D02*
X4965301Y-15702198D01*
X4965301Y-15702198D02*
X4974824Y-15692674D01*
X4974824Y-15692674D02*
X4993872Y-15683150D01*
X4993872Y-15683150D02*
X5012920Y-15683150D01*
X5079586Y-15816484D02*
X5079586Y-15683150D01*
X5079586Y-15616484D02*
X5070063Y-15626008D01*
X5070063Y-15626008D02*
X5079586Y-15635531D01*
X5079586Y-15635531D02*
X5089110Y-15626008D01*
X5089110Y-15626008D02*
X5079586Y-15616484D01*
X5079586Y-15616484D02*
X5079586Y-15635531D01*
X5203396Y-15816484D02*
X5184348Y-15806960D01*
X5184348Y-15806960D02*
X5174824Y-15787912D01*
X5174824Y-15787912D02*
X5174824Y-15616484D01*
X5308158Y-15816484D02*
X5289110Y-15806960D01*
X5289110Y-15806960D02*
X5279586Y-15787912D01*
X5279586Y-15787912D02*
X5279586Y-15616484D01*
X5536729Y-15816484D02*
X5536729Y-15616484D01*
X5536729Y-15616484D02*
X5603396Y-15759341D01*
X5603396Y-15759341D02*
X5670062Y-15616484D01*
X5670062Y-15616484D02*
X5670062Y-15816484D01*
X5851015Y-15816484D02*
X5851015Y-15711722D01*
X5851015Y-15711722D02*
X5841491Y-15692674D01*
X5841491Y-15692674D02*
X5822443Y-15683150D01*
X5822443Y-15683150D02*
X5784348Y-15683150D01*
X5784348Y-15683150D02*
X5765301Y-15692674D01*
X5851015Y-15806960D02*
X5831967Y-15816484D01*
X5831967Y-15816484D02*
X5784348Y-15816484D01*
X5784348Y-15816484D02*
X5765301Y-15806960D01*
X5765301Y-15806960D02*
X5755777Y-15787912D01*
X5755777Y-15787912D02*
X5755777Y-15768865D01*
X5755777Y-15768865D02*
X5765301Y-15749817D01*
X5765301Y-15749817D02*
X5784348Y-15740293D01*
X5784348Y-15740293D02*
X5831967Y-15740293D01*
X5831967Y-15740293D02*
X5851015Y-15730769D01*
X5946253Y-15683150D02*
X5946253Y-15883150D01*
X5946253Y-15692674D02*
X5965301Y-15683150D01*
X5965301Y-15683150D02*
X6003396Y-15683150D01*
X6003396Y-15683150D02*
X6022443Y-15692674D01*
X6022443Y-15692674D02*
X6031967Y-15702198D01*
X6031967Y-15702198D02*
X6041491Y-15721246D01*
X6041491Y-15721246D02*
X6041491Y-15778388D01*
X6041491Y-15778388D02*
X6031967Y-15797436D01*
X6031967Y-15797436D02*
X6022443Y-15806960D01*
X6022443Y-15806960D02*
X6003396Y-15816484D01*
X6003396Y-15816484D02*
X5965301Y-15816484D01*
X5965301Y-15816484D02*
X5946253Y-15806960D01*
X6127205Y-15797436D02*
X6136729Y-15806960D01*
X6136729Y-15806960D02*
X6127205Y-15816484D01*
X6127205Y-15816484D02*
X6117682Y-15806960D01*
X6117682Y-15806960D02*
X6127205Y-15797436D01*
X6127205Y-15797436D02*
X6127205Y-15816484D01*
X6127205Y-15692674D02*
X6136729Y-15702198D01*
X6136729Y-15702198D02*
X6127205Y-15711722D01*
X6127205Y-15711722D02*
X6117682Y-15702198D01*
X6117682Y-15702198D02*
X6127205Y-15692674D01*
X6127205Y-15692674D02*
X6127205Y-15711722D01*
M02*
